<svg width="540" height="405" viewBox="0 0 540 405" fill="none" xmlns="http://www.w3.org/2000/svg">
<path d="M126.163 174.918L282.457 54.4226" stroke="#42FF00" stroke-width="10"/>
<path d="M403.691 0H166.324C159.862 0 154.623 5.24493 154.623 11.7149V46.0227C154.623 52.4927 159.862 57.7376 166.324 57.7376H403.691C410.153 57.7376 415.392 52.4927 415.392 46.0227V11.7149C415.392 5.24493 410.153 0 403.691 0Z" fill="white"/>
<path d="M249.068 171.539H11.7012C5.2388 171.539 0 176.784 0 183.254V233.461C0 239.931 5.2388 245.176 11.7012 245.176H249.068C255.53 245.176 260.769 239.931 260.769 233.461V183.254C260.769 176.784 255.53 171.539 249.068 171.539Z" fill="white"/>
<path d="M235.695 347.262H25.074C18.6116 347.262 13.3728 352.507 13.3728 358.977V393.285C13.3728 399.755 18.6116 405 25.074 405H235.695C242.158 405 247.396 399.755 247.396 393.285V358.977C247.396 352.507 242.158 347.262 235.695 347.262Z" fill="white"/>
<path d="M185.847 34.0202C185.847 35.7461 185.226 37.1059 183.98 38.0995C182.744 39.0932 181.02 39.59 178.809 39.59C176.771 39.59 174.969 39.2065 173.402 38.4394V34.6739C174.69 35.2492 175.779 35.6546 176.667 35.8899C177.564 36.1252 178.382 36.2429 179.122 36.2429C180.01 36.2429 180.69 36.0729 181.159 35.733C181.638 35.3931 181.877 34.8875 181.877 34.2163C181.877 33.8415 181.773 33.5103 181.564 33.2226C181.355 32.9263 181.047 32.643 180.637 32.3728C180.237 32.1026 179.413 31.6712 178.169 31.0784C177.002 30.5293 176.127 30.002 175.544 29.4964C174.96 28.9908 174.495 28.4025 174.146 27.7313C173.799 27.0601 173.624 26.2756 173.624 25.3779C173.624 23.6869 174.195 22.3577 175.335 21.3901C176.484 20.4225 178.069 19.9388 180.089 19.9388C181.081 19.9388 182.025 20.0565 182.922 20.2918C183.828 20.5271 184.773 20.8584 185.756 21.2855L184.451 24.4365C183.432 24.0181 182.587 23.7261 181.917 23.5605C181.256 23.3949 180.602 23.3121 179.958 23.3121C179.192 23.3121 178.604 23.4908 178.195 23.8481C177.786 24.2055 177.581 24.6719 177.581 25.2471C177.581 25.6045 177.664 25.9183 177.83 26.1885C177.995 26.45 178.256 26.7072 178.613 26.9599C178.979 27.2039 179.836 27.6485 181.185 28.2935C182.971 29.1477 184.193 30.0063 184.855 30.8692C185.517 31.7235 185.847 32.7738 185.847 34.0202ZM186.906 24.711H191.268L194.023 32.935C194.258 33.6497 194.419 34.4953 194.506 35.4715H194.584C194.68 34.5737 194.867 33.7282 195.146 32.935L197.849 24.711H202.12L195.943 41.1982C195.376 42.7236 194.567 43.8654 193.513 44.6237C192.469 45.3821 191.246 45.7612 189.844 45.7612C189.156 45.7612 188.481 45.6872 187.82 45.539V42.3749C188.299 42.4882 188.821 42.5449 189.387 42.5449C190.092 42.5449 190.706 42.3269 191.228 41.8911C191.759 41.4641 192.173 40.8146 192.469 39.943L192.703 39.2239L186.906 24.711ZM214.408 34.9877C214.408 36.487 213.886 37.6289 212.841 38.4132C211.806 39.1978 210.251 39.59 208.179 39.59C207.117 39.59 206.212 39.516 205.463 39.3678C204.714 39.2283 204.013 39.0191 203.36 38.7402V35.4454C204.1 35.794 204.932 36.086 205.855 36.3213C206.786 36.5567 207.605 36.6743 208.309 36.6743C209.755 36.6743 210.478 36.2559 210.478 35.4192C210.478 35.1054 210.382 34.8526 210.19 34.6609C209.999 34.4604 209.668 34.2381 209.198 33.9941C208.727 33.7413 208.101 33.4493 207.317 33.118C206.194 32.6473 205.367 32.2116 204.836 31.8106C204.314 31.4097 203.931 30.952 203.687 30.4378C203.452 29.9148 203.334 29.2741 203.334 28.5158C203.334 27.217 203.835 26.2146 204.836 25.5086C205.846 24.7939 207.274 24.4365 209.119 24.4365C210.878 24.4365 212.589 24.8201 214.252 25.587L213.05 28.4635C212.319 28.1497 211.636 27.8925 211 27.6921C210.365 27.4916 209.716 27.3914 209.054 27.3914C207.879 27.3914 207.291 27.7095 207.291 28.3458C207.291 28.7032 207.479 29.0126 207.853 29.2741C208.236 29.5356 209.068 29.9235 210.347 30.4378C211.487 30.8997 212.323 31.3312 212.855 31.7322C213.385 32.1331 213.777 32.5951 214.03 33.118C214.282 33.641 214.408 34.2643 214.408 34.9877ZM223.667 36.4128C224.364 36.4128 225.2 36.2603 226.175 35.9553V38.9232C225.183 39.3678 223.964 39.59 222.518 39.59C220.925 39.59 219.763 39.189 219.031 38.3871C218.309 37.5765 217.948 36.3649 217.948 34.7523V27.7052H216.041V26.0186L218.235 24.6849L219.384 21.5993H221.931V24.711H226.018V27.7052H221.931V34.7523C221.931 35.3189 222.088 35.7373 222.401 36.0075C222.723 36.2778 223.145 36.4128 223.667 36.4128ZM235.186 27.2737C234.341 27.2737 233.68 27.5439 233.201 28.0843C232.722 28.616 232.448 29.3744 232.378 30.3593H237.968C237.95 29.3744 237.694 28.616 237.197 28.0843C236.701 27.5439 236.03 27.2737 235.186 27.2737ZM235.747 39.59C233.397 39.59 231.56 38.9407 230.237 37.6419C228.913 36.3431 228.252 34.504 228.252 32.1244C228.252 29.675 228.861 27.7836 230.08 26.45C231.307 25.1077 233.001 24.4365 235.16 24.4365C237.223 24.4365 238.83 25.0248 239.979 26.2016C241.128 27.3783 241.703 29.0039 241.703 31.0784V33.0134H232.287C232.33 34.1466 232.666 35.0313 233.292 35.6676C233.919 36.3039 234.798 36.622 235.93 36.622C236.809 36.622 237.641 36.5305 238.425 36.3475C239.208 36.1645 240.026 35.8725 240.88 35.4715V38.5571C240.184 38.9058 239.439 39.1629 238.646 39.3285C237.854 39.5028 236.888 39.59 235.747 39.59ZM258.014 39.3285H254.031V30.7908C254.031 29.7361 253.852 28.9473 253.495 28.4243C253.147 27.8925 252.594 27.6267 251.836 27.6267C250.818 27.6267 250.078 28.0015 249.616 28.7512C249.155 29.5007 248.924 30.7341 248.924 32.4512V39.3285H244.941V24.711H247.984L248.52 26.5807H248.741C249.133 25.9095 249.699 25.3866 250.44 25.0118C251.179 24.6283 252.028 24.4365 252.986 24.4365C255.171 24.4365 256.651 25.1513 257.426 26.5807H257.779C258.171 25.9008 258.745 25.3735 259.502 24.9987C260.269 24.6239 261.13 24.4365 262.088 24.4365C263.742 24.4365 264.992 24.8636 265.836 25.7178C266.689 26.5633 267.116 27.9231 267.116 29.7971V39.3285H263.12V30.7908C263.12 29.7361 262.941 28.9473 262.585 28.4243C262.236 27.8925 261.684 27.6267 260.926 27.6267C259.951 27.6267 259.22 27.9754 258.732 28.6727C258.253 29.37 258.014 30.477 258.014 31.9937V39.3285ZM290.166 39.3285L289.043 34.2163L287.528 27.7575H287.436L284.773 39.3285H280.489L276.336 24.711H280.306L281.991 31.183C282.261 32.3423 282.535 33.9418 282.813 35.9814H282.892C282.926 35.3189 283.079 34.2686 283.349 32.8304L283.558 31.719L285.36 24.711H289.748L291.459 31.719C291.493 31.9108 291.546 32.1942 291.615 32.5689C291.694 32.9437 291.768 33.3447 291.838 33.7718C291.907 34.1902 291.968 34.6042 292.021 35.0139C292.082 35.4148 292.116 35.7373 292.125 35.9814H292.203C292.281 35.3538 292.421 34.4953 292.621 33.4057C292.821 32.3075 292.965 31.5666 293.052 31.183L294.802 24.711H298.707L294.501 39.3285H290.166ZM310.342 39.3285L309.572 37.3412H309.468C308.798 38.1866 308.105 38.775 307.391 39.1063C306.686 39.4288 305.763 39.59 304.623 39.59C303.221 39.59 302.115 39.189 301.305 38.3871C300.505 37.5853 300.104 36.4434 300.104 34.9615C300.104 33.4101 300.644 32.2682 301.723 31.536C302.812 30.7951 304.448 30.3855 306.634 30.3071L309.167 30.2286V29.5879C309.167 28.1061 308.41 27.3652 306.895 27.3652C305.729 27.3652 304.357 27.7182 302.781 28.4243L301.463 25.7309C303.143 24.8505 305.006 24.4104 307.052 24.4104C309.011 24.4104 310.513 24.8375 311.557 25.6916C312.602 26.5459 313.125 27.8446 313.125 29.5879V39.3285H310.342ZM309.167 32.5558L307.626 32.6082C306.468 32.643 305.606 32.8522 305.041 33.2358C304.475 33.6193 304.191 34.2033 304.191 34.9877C304.191 36.1121 304.836 36.6743 306.125 36.6743C307.047 36.6743 307.783 36.4085 308.331 35.8768C308.889 35.3451 309.167 34.639 309.167 33.7588V32.5558ZM321.221 39.3285H317.237V18.9844H321.221V39.3285ZM329.396 39.3285H325.413V18.9844H329.396V39.3285ZM339.634 27.2737C338.79 27.2737 338.128 27.5439 337.649 28.0843C337.17 28.616 336.896 29.3744 336.827 30.3593H342.417C342.399 29.3744 342.142 28.616 341.646 28.0843C341.15 27.5439 340.479 27.2737 339.634 27.2737ZM340.196 39.59C337.846 39.59 336.009 38.9407 334.686 37.6419C333.362 36.3431 332.7 34.504 332.7 32.1244C332.7 29.675 333.31 27.7836 334.528 26.45C335.756 25.1077 337.45 24.4365 339.608 24.4365C341.672 24.4365 343.278 25.0248 344.428 26.2016C345.577 27.3783 346.151 29.0039 346.151 31.0784V33.0134H336.736C336.779 34.1466 337.114 35.0313 337.741 35.6676C338.368 36.3039 339.247 36.622 340.379 36.622C341.258 36.622 342.09 36.5305 342.873 36.3475C343.657 36.1645 344.475 35.8725 345.329 35.4715V38.5571C344.632 38.9058 343.888 39.1629 343.095 39.3285C342.303 39.5028 341.337 39.59 340.196 39.59ZM355.541 36.4128C356.238 36.4128 357.073 36.2603 358.049 35.9553V38.9232C357.056 39.3678 355.837 39.59 354.392 39.59C352.798 39.59 351.636 39.189 350.905 38.3871C350.182 37.5765 349.821 36.3649 349.821 34.7523V27.7052H347.915V26.0186L350.109 24.6849L351.258 21.5993H353.804V24.711H357.892V27.7052H353.804V34.7523C353.804 35.3189 353.961 35.7373 354.274 36.0075C354.596 36.2778 355.019 36.4128 355.541 36.4128ZM366.942 31.9937C366.942 29.6838 367.277 27.5221 367.947 25.5086C368.627 23.4951 369.602 21.7301 370.872 20.2133H374.138C372.91 21.8957 371.982 23.7435 371.355 25.757C370.729 27.7705 370.416 29.8407 370.416 31.9675C370.416 34.103 370.734 36.1688 371.369 38.1649C372.013 40.1522 372.928 41.9521 374.111 43.5647H370.872C369.593 42.0829 368.617 40.3527 367.947 38.3741C367.277 36.3954 366.942 34.2686 366.942 31.9937ZM389.025 39.3285L387.641 34.7785H380.68L379.296 39.3285H374.934L381.673 20.1349H386.622L393.387 39.3285H389.025ZM386.675 31.3791C385.394 27.2562 384.672 24.9247 384.507 24.3842C384.35 23.8438 384.237 23.4167 384.167 23.1029C383.88 24.2186 383.057 26.9774 381.699 31.3791H386.675ZM401.392 31.9937C401.392 34.2861 401.053 36.4215 400.374 38.4002C399.703 40.3788 398.733 42.1003 397.462 43.5647H394.223C395.398 41.9608 396.308 40.1653 396.953 38.1779C397.596 36.1819 397.919 34.1117 397.919 31.9675C397.919 29.8407 397.605 27.7705 396.979 25.757C396.352 23.7435 395.424 21.8957 394.197 20.2133H397.462C398.741 21.7388 399.717 23.5126 400.387 25.5347C401.057 27.5483 401.392 29.7012 401.392 31.9937Z" fill="#001F4E"/>
<path d="M43.7619 204.722C43.7619 206.449 43.1394 207.808 41.8944 208.802C40.6581 209.796 38.9343 210.292 36.7229 210.292C34.6856 210.292 32.8835 209.909 31.3164 209.142V205.377C32.6048 205.952 33.6931 206.357 34.5812 206.593C35.4779 206.828 36.2963 206.945 37.0363 206.945C37.9244 206.945 38.6035 206.775 39.0736 206.435C39.5524 206.096 39.7919 205.59 39.7919 204.919C39.7919 204.544 39.6874 204.213 39.4785 203.925C39.2695 203.629 38.9604 203.345 38.5512 203.076C38.1507 202.805 37.328 202.374 36.083 201.781C34.9163 201.231 34.0414 200.704 33.458 200.199C32.8747 199.693 32.4089 199.105 32.0607 198.434C31.7125 197.763 31.5384 196.978 31.5384 196.08C31.5384 194.389 32.1086 193.06 33.2491 192.092C34.3983 191.125 35.9829 190.641 38.0028 190.641C38.9952 190.641 39.9399 190.759 40.8366 190.994C41.742 191.229 42.6867 191.561 43.6705 191.988L42.3645 195.139C41.346 194.72 40.5014 194.428 39.831 194.263C39.1694 194.097 38.5164 194.014 37.8721 194.014C37.106 194.014 36.5183 194.193 36.1091 194.551C35.6999 194.908 35.4954 195.374 35.4954 195.95C35.4954 196.307 35.578 196.621 35.7434 196.891C35.9088 197.152 36.17 197.41 36.527 197.663C36.8927 197.906 37.7503 198.351 39.0997 198.996C40.8845 199.85 42.1077 200.708 42.7694 201.572C43.431 202.426 43.7619 203.477 43.7619 204.722ZM44.8197 195.413H49.1816L51.937 203.637C52.1721 204.353 52.3332 205.198 52.4203 206.174H52.4986C52.5944 205.276 52.7815 204.43 53.0602 203.637L55.7635 195.413H60.0338L53.8568 211.9C53.2909 213.426 52.4812 214.568 51.4277 215.326C50.383 216.084 49.1598 216.464 47.758 216.464C47.0703 216.464 46.3955 216.39 45.7339 216.242V213.078C46.2127 213.191 46.7351 213.248 47.301 213.248C48.0062 213.248 48.62 213.029 49.1424 212.593C49.6734 212.166 50.087 211.517 50.383 210.645L50.6181 209.926L44.8197 195.413ZM72.3227 205.69C72.3227 207.189 71.8003 208.331 70.7555 209.116C69.7196 209.9 68.1655 210.292 66.0934 210.292C65.0312 210.292 64.1258 210.218 63.377 210.07C62.6283 209.931 61.9275 209.721 61.2745 209.443V206.147C62.0145 206.496 62.846 206.788 63.7689 207.024C64.7004 207.26 65.5188 207.377 66.224 207.377C67.6692 207.377 68.3918 206.958 68.3918 206.122C68.3918 205.808 68.296 205.555 68.1046 205.363C67.913 205.163 67.5822 204.941 67.112 204.697C66.6419 204.444 66.0151 204.152 65.2315 203.82C64.1084 203.35 63.2813 202.914 62.7502 202.513C62.2278 202.112 61.8448 201.655 61.601 201.14C61.3659 200.617 61.2483 199.976 61.2483 199.218C61.2483 197.919 61.749 196.917 62.7502 196.211C63.7602 195.496 65.188 195.139 67.0337 195.139C68.7923 195.139 70.5031 195.522 72.166 196.289L70.9645 199.166C70.2332 198.852 69.5497 198.595 68.9142 198.395C68.2787 198.194 67.6301 198.094 66.9684 198.094C65.7931 198.094 65.2053 198.412 65.2053 199.048C65.2053 199.406 65.3926 199.715 65.7669 199.976C66.15 200.238 66.9814 200.626 68.2613 201.14C69.4018 201.602 70.2376 202.034 70.7687 202.435C71.2997 202.836 71.6915 203.297 71.944 203.82C72.1965 204.343 72.3227 204.967 72.3227 205.69ZM81.5818 207.116C82.2783 207.116 83.1141 206.963 84.0889 206.658V209.626C83.0967 210.07 81.8778 210.292 80.4326 210.292C78.8393 210.292 77.677 209.891 76.9457 209.09C76.2231 208.279 75.8618 207.067 75.8618 205.455V198.407H73.9552V196.721L76.1491 195.387L77.2983 192.301H79.8449V195.413H83.9326V198.407H79.8449V205.455C79.8449 206.021 80.0017 206.44 80.3151 206.71C80.6372 206.98 81.0594 207.116 81.5818 207.116ZM93.1005 197.976C92.2555 197.976 91.5943 198.247 91.1154 198.786C90.6365 199.319 90.3624 200.077 90.2922 201.062H95.882C95.8644 200.077 95.6079 199.319 95.1114 198.786C94.6149 198.247 93.9446 197.976 93.1005 197.976ZM93.6613 210.292C91.311 210.292 89.4739 209.643 88.1509 208.344C86.827 207.045 86.1658 205.206 86.1658 202.827C86.1658 200.378 86.7751 198.486 87.9937 197.152C89.2215 195.81 90.9148 195.139 93.0737 195.139C95.1373 195.139 96.7437 195.727 97.8929 196.904C99.0422 198.081 99.6172 199.706 99.6172 201.781V203.716H90.2011C90.2445 204.849 90.5797 205.734 91.2065 206.37C91.8334 207.006 92.7126 207.325 93.8443 207.325C94.7236 207.325 95.5552 207.233 96.3392 207.05C97.1223 206.867 97.9406 206.575 98.7939 206.174V209.259C98.0977 209.608 97.353 209.865 96.5607 210.031C95.7683 210.205 94.8021 210.292 93.6613 210.292ZM115.928 210.031H111.945V201.493C111.945 200.438 111.766 199.65 111.409 199.127C111.061 198.595 110.508 198.329 109.75 198.329C108.732 198.329 107.992 198.704 107.531 199.453C107.069 200.203 106.838 201.436 106.838 203.154V210.031H102.855V195.413H105.898L106.434 197.284H106.655C107.047 196.612 107.613 196.089 108.354 195.715C109.093 195.33 109.943 195.139 110.9 195.139C113.085 195.139 114.565 195.853 115.34 197.284H115.693C116.085 196.603 116.659 196.076 117.416 195.701C118.183 195.326 119.044 195.139 120.002 195.139C121.656 195.139 122.906 195.566 123.75 196.42C124.603 197.266 125.03 198.626 125.03 200.499V210.031H121.034V201.493C121.034 200.438 120.856 199.65 120.499 199.127C120.15 198.595 119.598 198.329 118.841 198.329C117.865 198.329 117.134 198.678 116.646 199.375C116.168 200.072 115.928 201.18 115.928 202.696V210.031ZM127.838 204.487V201.219H134.851V204.487H127.838ZM138.064 190.916H144.006C146.713 190.916 148.676 191.304 149.895 192.08C151.122 192.847 151.737 194.071 151.737 195.754C151.737 196.895 151.467 197.832 150.927 198.565C150.396 199.297 149.687 199.737 148.798 199.885V200.016C150.008 200.286 150.879 200.791 151.41 201.533C151.95 202.273 152.22 203.258 152.22 204.487C152.22 206.23 151.589 207.59 150.326 208.567C149.072 209.543 147.366 210.031 145.207 210.031H138.064V190.916ZM142.112 198.486H144.463C145.559 198.486 146.352 198.316 146.84 197.976C147.335 197.637 147.584 197.074 147.584 196.289C147.584 195.557 147.314 195.034 146.774 194.72C146.243 194.398 145.399 194.237 144.24 194.237H142.112V198.486ZM142.112 201.703V206.684H144.75C145.864 206.684 146.687 206.47 147.218 206.043C147.749 205.616 148.015 204.963 148.015 204.082C148.015 202.496 146.883 201.703 144.619 201.703H142.112ZM158.893 202.696C158.893 204.143 159.129 205.237 159.598 205.978C160.077 206.719 160.852 207.089 161.923 207.089C162.985 207.089 163.747 206.723 164.209 205.991C164.678 205.25 164.913 204.152 164.913 202.696C164.913 201.249 164.678 200.164 164.209 199.441C163.738 198.717 162.967 198.355 161.897 198.355C160.834 198.355 160.069 198.717 159.598 199.441C159.129 200.155 158.893 201.241 158.893 202.696ZM168.988 202.696C168.988 205.076 168.362 206.937 167.108 208.279C165.854 209.621 164.108 210.292 161.871 210.292C160.469 210.292 159.233 209.987 158.162 209.377C157.091 208.758 156.268 207.874 155.693 206.723C155.119 205.573 154.832 204.23 154.832 202.696C154.832 200.308 155.454 198.451 156.699 197.126C157.944 195.802 159.694 195.139 161.949 195.139C163.351 195.139 164.587 195.444 165.658 196.054C166.728 196.664 167.552 197.54 168.126 198.683C168.701 199.824 168.988 201.162 168.988 202.696ZM180.402 195.139C182.126 195.139 183.475 195.814 184.451 197.166C185.425 198.508 185.913 200.351 185.913 202.696C185.913 205.111 185.408 206.98 184.398 208.306C183.397 209.63 182.03 210.292 180.298 210.292C178.583 210.292 177.237 209.669 176.262 208.423H175.987L175.322 210.031H172.279V189.687H176.262V194.42C176.262 195.021 176.21 195.985 176.105 197.309H176.262C177.194 195.863 178.573 195.139 180.402 195.139ZM179.122 198.329C178.138 198.329 177.42 198.634 176.967 199.244C176.515 199.846 176.279 200.844 176.262 202.239V202.67C176.262 204.239 176.493 205.363 176.954 206.043C177.424 206.723 178.165 207.063 179.174 207.063C179.993 207.063 180.641 206.688 181.12 205.938C181.607 205.18 181.851 204.082 181.851 202.644C181.851 201.205 181.607 200.129 181.12 199.414C180.633 198.691 179.967 198.329 179.122 198.329ZM195.133 202.696C195.133 200.386 195.468 198.225 196.139 196.211C196.817 194.197 197.793 192.433 199.064 190.916H202.329C201.101 192.598 200.174 194.446 199.547 196.459C198.92 198.473 198.607 200.543 198.607 202.67C198.607 204.805 198.924 206.871 199.56 208.867C200.204 210.854 201.118 212.654 202.303 214.267H199.064C197.784 212.786 196.809 211.055 196.139 209.076C195.468 207.098 195.133 204.971 195.133 202.696ZM205.528 190.916H211.47C214.178 190.916 216.141 191.304 217.36 192.08C218.587 192.847 219.202 194.071 219.202 195.754C219.202 196.895 218.932 197.832 218.392 198.565C217.86 199.297 217.151 199.737 216.263 199.885V200.016C217.473 200.286 218.344 200.791 218.875 201.533C219.415 202.273 219.685 203.258 219.685 204.487C219.685 206.23 219.054 207.59 217.791 208.567C216.537 209.543 214.83 210.031 212.672 210.031H205.528V190.916ZM209.577 198.486H211.927C213.024 198.486 213.817 198.316 214.304 197.976C214.8 197.637 215.049 197.074 215.049 196.289C215.049 195.557 214.779 195.034 214.239 194.72C213.708 194.398 212.863 194.237 211.705 194.237H209.577V198.486ZM209.577 201.703V206.684H212.214C213.329 206.684 214.152 206.47 214.682 206.043C215.214 205.616 215.479 204.963 215.479 204.082C215.479 202.496 214.347 201.703 212.084 201.703H209.577ZM229.087 202.696C229.087 204.989 228.748 207.124 228.069 209.103C227.398 211.081 226.427 212.802 225.157 214.267H221.918C223.093 212.663 224.002 210.868 224.647 208.88C225.291 206.885 225.614 204.815 225.614 202.67C225.614 200.543 225.3 198.473 224.673 196.459C224.046 194.446 223.119 192.598 221.891 190.916H225.157C226.436 192.441 227.412 194.215 228.082 196.238C228.752 198.251 229.087 200.404 229.087 202.696Z" fill="#001F4E"/>
<path d="M88.425 235.134V223.188H90.955V235.134H88.425ZM102.186 235.134H99.6966V229.798C99.6966 229.139 99.5796 228.646 99.3456 228.319C99.1115 227.987 98.7388 227.821 98.2273 227.821C97.531 227.821 97.0279 228.055 96.7178 228.524C96.4077 228.986 96.2523 229.757 96.2523 230.836V235.134H93.7633V225.998H95.6647L95.999 227.167H96.1378C96.4153 226.725 96.7964 226.393 97.2811 226.17C97.7709 225.941 98.3259 225.827 98.9461 225.827C100.007 225.827 100.812 226.115 101.362 226.693C101.911 227.265 102.186 228.093 102.186 229.177V235.134ZM108.594 233.312C109.029 233.312 109.552 233.216 110.161 233.026V234.881C109.541 235.159 108.778 235.297 107.875 235.297C106.879 235.297 106.153 235.047 105.696 234.546C105.245 234.039 105.018 233.282 105.018 232.274V227.869H103.827V226.816L105.198 225.982L105.917 224.054H107.508V225.998H110.063V227.869H107.508V232.274C107.508 232.628 107.606 232.89 107.801 233.059C108.003 233.227 108.267 233.312 108.594 233.312ZM115.792 227.6C115.265 227.6 114.851 227.769 114.552 228.107C114.253 228.439 114.081 228.913 114.037 229.529H117.531C117.52 228.913 117.36 228.439 117.049 228.107C116.739 227.769 116.321 227.6 115.792 227.6ZM116.143 235.297C114.674 235.297 113.526 234.892 112.699 234.08C111.872 233.268 111.458 232.119 111.458 230.632C111.458 229.101 111.839 227.919 112.601 227.085C113.369 226.246 114.427 225.827 115.776 225.827C117.065 225.827 118.07 226.194 118.788 226.93C119.506 227.665 119.865 228.681 119.865 229.978V231.187H113.98C114.008 231.896 114.217 232.448 114.609 232.847C115.001 233.244 115.55 233.443 116.258 233.443C116.807 233.443 117.327 233.385 117.817 233.271C118.306 233.157 118.818 232.975 119.351 232.723V234.652C118.916 234.87 118.45 235.031 117.955 235.134C117.46 235.243 116.856 235.297 116.143 235.297ZM126.983 225.827C127.32 225.827 127.601 225.851 127.824 225.9L127.636 228.238C127.434 228.183 127.189 228.156 126.901 228.156C126.107 228.156 125.486 228.36 125.04 228.769C124.599 229.177 124.379 229.749 124.379 230.484V235.134H121.89V225.998H123.775L124.142 227.535H124.265C124.547 227.023 124.929 226.611 125.407 226.3C125.891 225.985 126.417 225.827 126.983 225.827ZM131.969 235.134H129.48V222.419H131.969V235.134ZM140.385 235.134L139.904 233.892H139.838C139.419 234.42 138.987 234.789 138.54 234.995C138.099 235.197 137.522 235.297 136.81 235.297C135.933 235.297 135.242 235.047 134.737 234.546C134.236 234.045 133.986 233.331 133.986 232.405C133.986 231.435 134.323 230.722 134.998 230.264C135.678 229.801 136.701 229.545 138.066 229.496L139.65 229.447V229.047C139.65 228.12 139.177 227.657 138.23 227.657C137.501 227.657 136.644 227.878 135.659 228.319L134.834 226.636C135.885 226.085 137.049 225.81 138.328 225.81C139.553 225.81 140.491 226.077 141.144 226.611C141.797 227.145 142.123 227.957 142.123 229.047V235.134H140.385ZM139.65 230.901L138.687 230.934C137.964 230.956 137.425 231.087 137.071 231.326C136.717 231.566 136.54 231.931 136.54 232.421C136.54 233.124 136.943 233.476 137.749 233.476C138.326 233.476 138.785 233.309 139.128 232.977C139.476 232.645 139.65 232.203 139.65 231.653V230.901ZM143.389 225.998H146.114L147.837 231.139C147.984 231.585 148.084 232.113 148.139 232.723H148.188C148.247 232.163 148.364 231.634 148.539 231.139L150.228 225.998H152.898L149.036 236.302C148.683 237.256 148.177 237.97 147.519 238.444C146.866 238.917 146.101 239.155 145.225 239.155C144.795 239.155 144.373 239.108 143.96 239.016V237.038C144.259 237.109 144.586 237.144 144.939 237.144C145.38 237.144 145.763 237.009 146.09 236.736C146.422 236.469 146.68 236.063 146.866 235.518L147.013 235.069L143.389 225.998ZM157.99 227.6C157.463 227.6 157.049 227.769 156.75 228.107C156.451 228.439 156.279 228.913 156.236 229.529H159.729C159.718 228.913 159.557 228.439 159.247 228.107C158.937 227.769 158.518 227.6 157.99 227.6ZM158.341 235.297C156.872 235.297 155.724 234.892 154.897 234.08C154.07 233.268 153.657 232.119 153.657 230.632C153.657 229.101 154.037 227.919 154.799 227.085C155.566 226.246 156.625 225.827 157.974 225.827C159.264 225.827 160.268 226.194 160.986 226.93C161.705 227.665 162.063 228.681 162.063 229.978V231.187H156.178C156.206 231.896 156.416 232.448 156.807 232.847C157.199 233.244 157.749 233.443 158.456 233.443C159.005 233.443 159.525 233.385 160.015 233.271C160.504 233.157 161.016 232.975 161.549 232.723V234.652C161.114 234.87 160.649 235.031 160.153 235.134C159.658 235.243 159.054 235.297 158.341 235.297ZM169.181 225.827C169.518 225.827 169.798 225.851 170.022 225.9L169.833 228.238C169.632 228.183 169.387 228.156 169.099 228.156C168.305 228.156 167.685 228.36 167.238 228.769C166.797 229.177 166.577 229.749 166.577 230.484V235.134H164.087V225.998H165.973L166.341 227.535H166.463C166.746 227.023 167.126 226.611 167.605 226.3C168.09 225.985 168.615 225.827 169.181 225.827Z" fill="#001F4E"/>
<path d="M106.878 367.475H112.819C115.527 367.475 117.491 367.864 118.709 368.639C119.937 369.407 120.551 370.631 120.551 372.314C120.551 373.455 120.281 374.392 119.742 375.124C119.21 375.857 118.5 376.297 117.613 376.445V376.575C118.823 376.846 119.693 377.351 120.225 378.092C120.765 378.833 121.034 379.818 121.034 381.047C121.034 382.79 120.403 384.15 119.141 385.126C117.887 386.103 116.18 386.591 114.021 386.591H106.878V367.475ZM110.926 375.046H113.277C114.374 375.046 115.166 374.876 115.654 374.536C116.15 374.196 116.398 373.634 116.398 372.849C116.398 372.117 116.128 371.594 115.588 371.28C115.057 370.958 114.213 370.797 113.055 370.797H110.926V375.046ZM110.926 378.262V383.244H113.564C114.678 383.244 115.502 383.03 116.032 382.603C116.564 382.176 116.829 381.522 116.829 380.642C116.829 379.056 115.697 378.262 113.434 378.262H110.926ZM127.708 379.256C127.708 380.703 127.942 381.797 128.413 382.537C128.892 383.279 129.667 383.649 130.737 383.649C131.8 383.649 132.561 383.283 133.022 382.551C133.493 381.809 133.728 380.712 133.728 379.256C133.728 377.809 133.493 376.724 133.022 376.001C132.553 375.277 131.782 374.915 130.711 374.915C129.649 374.915 128.883 375.277 128.413 376.001C127.942 376.715 127.708 377.8 127.708 379.256ZM137.802 379.256C137.802 381.635 137.175 383.496 135.922 384.839C134.668 386.181 132.922 386.852 130.685 386.852C129.283 386.852 128.047 386.547 126.976 385.937C125.906 385.318 125.082 384.434 124.508 383.283C123.933 382.132 123.646 380.79 123.646 379.256C123.646 376.867 124.268 375.011 125.514 373.686C126.758 372.361 128.508 371.699 130.763 371.699C132.165 371.699 133.401 372.004 134.473 372.614C135.543 373.224 136.366 374.1 136.941 375.242C137.515 376.384 137.802 377.722 137.802 379.256ZM149.216 371.699C150.94 371.699 152.289 372.374 153.265 373.725C154.24 375.068 154.727 376.911 154.727 379.256C154.727 381.671 154.222 383.54 153.212 384.865C152.212 386.19 150.844 386.852 149.112 386.852C147.396 386.852 146.052 386.229 145.076 384.983H144.802L144.136 386.591H141.093V366.247H145.076V370.98C145.076 371.581 145.024 372.545 144.92 373.869H145.076C146.008 372.422 147.388 371.699 149.216 371.699ZM147.936 374.889C146.953 374.889 146.235 375.194 145.782 375.804C145.329 376.406 145.094 377.404 145.076 378.799V379.23C145.076 380.799 145.307 381.923 145.768 382.603C146.239 383.283 146.979 383.623 147.988 383.623C148.807 383.623 149.456 383.248 149.935 382.498C150.422 381.74 150.666 380.642 150.666 379.204C150.666 377.765 150.422 376.689 149.935 375.974C149.447 375.251 148.781 374.889 147.936 374.889Z" fill="#001F4E"/>
<path d="M165.018 136.44L159.987 140.269L145.872 121.679L150.904 117.849L152.572 120.046L150.242 121.818L161.022 136.016L163.351 134.243L165.018 136.44ZM167.782 115.254C170.057 118.252 171.126 120.97 170.986 123.407C170.847 125.845 169.498 128.038 166.941 129.984C166.04 130.67 165.32 131.141 164.783 131.397L162.823 128.816C163.516 128.518 164.18 128.127 164.818 127.642C165.893 126.824 166.657 125.995 167.114 125.156C167.564 124.309 167.718 123.41 167.574 122.457C167.426 121.497 166.928 120.403 166.082 119.174L165.958 119.269C166.051 120.227 165.934 121.038 165.608 121.703C165.282 122.368 164.723 123 163.933 123.602C162.609 124.61 161.245 124.98 159.839 124.713C158.429 124.441 157.149 123.548 156.001 122.035C154.762 120.404 154.246 118.766 154.451 117.12C154.659 115.463 155.559 114.028 157.154 112.814C158.276 111.96 159.457 111.477 160.696 111.367C161.942 111.25 163.172 111.524 164.387 112.188C165.596 112.844 166.728 113.866 167.782 115.254ZM159.175 115.348C158.51 115.855 158.164 116.479 158.137 117.223C158.111 117.966 158.425 118.767 159.078 119.627C159.636 120.363 160.249 120.816 160.915 120.988C161.581 121.16 162.261 120.982 162.954 120.455C163.605 119.959 164.003 119.323 164.146 118.546C164.284 117.762 164.142 117.093 163.72 116.538C163.093 115.712 162.346 115.181 161.476 114.944C160.615 114.702 159.848 114.837 159.175 115.348ZM179.945 105.996C182.222 108.994 183.29 111.712 183.15 114.15C183.012 116.588 181.663 118.781 179.105 120.727C178.204 121.412 177.484 121.883 176.946 122.139L174.986 119.559C175.679 119.261 176.344 118.87 176.982 118.385C178.057 117.567 178.822 116.738 179.278 115.899C179.728 115.052 179.882 114.152 179.739 113.199C179.59 112.24 179.092 111.146 178.247 109.917L178.122 110.012C178.215 110.97 178.099 111.782 177.772 112.446C177.445 113.111 176.887 113.743 176.097 114.345C174.773 115.352 173.408 115.723 172.003 115.456C170.593 115.183 169.314 114.29 168.165 112.778C166.927 111.147 166.41 109.509 166.616 107.863C166.823 106.206 167.723 104.77 169.317 103.557C170.44 102.703 171.621 102.22 172.86 102.109C174.106 101.993 175.336 102.267 176.551 102.93C177.76 103.586 178.892 104.609 179.945 105.996ZM171.34 106.092C170.674 106.598 170.328 107.222 170.302 107.965C170.275 108.708 170.588 109.51 171.242 110.37C171.8 111.106 172.413 111.559 173.079 111.731C173.745 111.903 174.425 111.725 175.118 111.198C175.769 110.702 176.167 110.066 176.31 109.289C176.447 108.505 176.306 107.836 175.884 107.281C175.257 106.455 174.51 105.924 173.641 105.687C172.779 105.445 172.012 105.58 171.34 106.092ZM190.389 108.28C191.093 109.956 191.745 112.082 192.345 114.658L190.058 116.399C189.107 114.21 188.134 112.202 187.14 110.374L190.051 108.159L190.389 108.28ZM212.61 96.7558L214.929 94.991L204.15 80.7936L201.831 82.558L200.163 80.3617L205.195 76.5322L219.31 95.1224L214.278 98.9523L212.61 96.7558Z" fill="white"/>
<path d="M207.819 98.5465L204.606 100.992L197.921 92.1853L196.853 90.7151L195.704 89.0934C195.575 90.034 195.471 90.6666 195.39 90.9912L194.709 93.7258L191.69 92.9685L193.624 85.3388L196.265 83.3289L207.819 98.5465Z" fill="#42FF00"/>
<path d="M130.782 247.289C129.639 246.145 127.787 246.145 126.644 247.289L108.028 265.927C106.885 267.071 106.885 268.925 108.028 270.069C109.17 271.213 111.022 271.213 112.165 270.069L128.713 253.502L145.261 270.069C146.404 271.213 148.256 271.213 149.398 270.069C150.541 268.925 150.541 267.071 149.398 265.927L130.782 247.289ZM131.638 347.262V249.36H125.788V347.262H131.638Z" fill="black"/>
<path d="M103.992 304.117H98.9377V301.253H103.992V296.154H106.852V301.253H111.906V304.117H106.852V309.15H103.992V304.117ZM124.116 312.118H120.081V301.057L120.12 299.239L120.185 297.252C119.515 297.923 119.05 298.363 118.788 298.572L116.594 300.338L114.648 297.906L120.799 293.003H124.116V312.118ZM142.661 302.56C142.661 305.899 142.112 308.37 141.015 309.974C139.927 311.577 138.246 312.379 135.974 312.379C133.771 312.379 132.108 311.551 130.986 309.895C129.871 308.239 129.314 305.794 129.314 302.56C129.314 299.187 129.858 296.703 130.946 295.108C132.034 293.504 133.71 292.702 135.974 292.702C138.177 292.702 139.839 293.539 140.962 295.212C142.094 296.886 142.661 299.335 142.661 302.56ZM133.323 302.56C133.323 304.905 133.523 306.588 133.923 307.607C134.333 308.618 135.017 309.124 135.974 309.124C136.914 309.124 137.593 308.609 138.011 307.581C138.429 306.552 138.638 304.879 138.638 302.56C138.638 300.216 138.425 298.534 137.998 297.514C137.58 296.485 136.906 295.971 135.974 295.971C135.025 295.971 134.346 296.485 133.937 297.514C133.527 298.534 133.323 300.216 133.323 302.56ZM157.94 302.56C157.94 305.899 157.391 308.37 156.294 309.974C155.206 311.577 153.526 312.379 151.254 312.379C149.051 312.379 147.388 311.551 146.265 309.895C145.151 308.239 144.593 305.794 144.593 302.56C144.593 299.187 145.137 296.703 146.226 295.108C147.314 293.504 148.989 292.702 151.254 292.702C153.456 292.702 155.119 293.539 156.243 295.212C157.374 296.886 157.94 299.335 157.94 302.56ZM148.603 302.56C148.603 304.905 148.802 306.588 149.203 307.607C149.612 308.618 150.296 309.124 151.254 309.124C152.194 309.124 152.873 308.609 153.291 307.581C153.708 306.552 153.917 304.879 153.917 302.56C153.917 300.216 153.704 298.534 153.278 297.514C152.86 296.485 152.185 295.971 151.254 295.971C150.304 295.971 149.626 296.485 149.216 297.514C148.807 298.534 148.603 300.216 148.603 302.56Z" fill="white"/>
</svg>
