<svg width="596" height="426" viewBox="0 0 596 426" fill="none" xmlns="http://www.w3.org/2000/svg">
<path d="M133.085 183.988L297.955 57.2446" stroke="#FE5454" stroke-width="10"/>
<path d="M468.204 183.988L303.335 57.2446" stroke="#42FF00" stroke-width="10"/>
<path d="M138.861 257.888C138.861 256.187 137.479 254.808 135.775 254.808C134.071 254.808 132.689 256.187 132.689 257.888H138.861ZM138.861 365.269V257.888H132.689V365.269H138.861Z" fill="black"/>
<path d="M425.84 0H175.45C168.633 0 163.107 5.51689 163.107 12.3223V48.4091C163.107 55.2145 168.633 60.7314 175.45 60.7314H425.84C432.657 60.7314 438.183 55.2145 438.183 48.4091V12.3223C438.183 5.51689 432.657 0 425.84 0Z" fill="white"/>
<path d="M262.734 180.434H12.3432C5.52624 180.434 0 185.951 0 192.756V245.566C0 252.371 5.52624 257.888 12.3432 257.888H262.734C269.551 257.888 275.077 252.371 275.077 245.566V192.756C275.077 185.951 269.551 180.434 262.734 180.434Z" fill="white"/>
<path d="M248.627 365.269H26.4497C19.6327 365.269 14.1065 370.785 14.1065 377.591V413.678C14.1065 420.483 19.6327 426 26.4497 426H248.627C255.444 426 260.97 420.483 260.97 413.678V377.591C260.97 370.785 255.444 365.269 248.627 365.269Z" fill="white"/>
<path d="M196.044 35.7842C196.044 37.5996 195.388 39.0299 194.075 40.075C192.771 41.1203 190.952 41.6428 188.62 41.6428C186.47 41.6428 184.57 41.2394 182.916 40.4326V36.4718C184.275 37.077 185.423 37.5033 186.36 37.7508C187.306 37.9984 188.169 38.1222 188.95 38.1222C189.887 38.1222 190.604 37.9434 191.099 37.5858C191.604 37.2283 191.856 36.6965 191.856 35.9905C191.856 35.5963 191.746 35.2479 191.526 34.9453C191.305 34.6336 190.98 34.3356 190.548 34.0514C190.126 33.7672 189.257 33.3134 187.945 32.6899C186.714 32.1123 185.791 31.5576 185.175 31.0258C184.56 30.494 184.069 29.8752 183.701 29.1692C183.334 28.4632 183.15 27.6381 183.15 26.6937C183.15 24.9151 183.752 23.517 184.955 22.4992C186.167 21.4815 187.839 20.9727 189.97 20.9727C191.016 20.9727 192.012 21.0965 192.959 21.344C193.914 21.5915 194.911 21.94 195.948 22.3892L194.571 25.7036C193.496 25.2635 192.605 24.9564 191.898 24.7821C191.201 24.6079 190.511 24.5209 189.831 24.5209C189.024 24.5209 188.404 24.7088 187.972 25.0847C187.541 25.4606 187.325 25.9511 187.325 26.5563C187.325 26.9322 187.412 27.2622 187.587 27.5464C187.761 27.8215 188.036 28.092 188.413 28.3579C188.799 28.6145 189.703 29.0822 191.126 29.7606C193.01 30.6591 194.3 31.5622 194.998 32.4698C195.696 33.3684 196.044 34.4732 196.044 35.7842ZM197.16 25.9923H201.762L204.669 34.6428C204.916 35.3945 205.087 36.2839 205.178 37.3107H205.26C205.362 36.3664 205.559 35.4771 205.853 34.6428L208.705 25.9923H213.209L206.694 43.3344C206.096 44.9389 205.243 46.1399 204.131 46.9375C203.029 47.7352 201.739 48.134 200.26 48.134C199.535 48.134 198.822 48.0561 198.125 47.9003V44.5721C198.63 44.6913 199.181 44.7509 199.778 44.7509C200.522 44.7509 201.169 44.5217 201.72 44.0633C202.28 43.614 202.717 42.9309 203.029 42.0142L203.277 41.2577L197.16 25.9923ZM226.172 36.8019C226.172 38.3789 225.621 39.58 224.519 40.405C223.427 41.2303 221.787 41.6428 219.601 41.6428C218.481 41.6428 217.526 41.5649 216.736 41.409C215.946 41.2623 215.207 41.0423 214.518 40.7489V37.2833C215.299 37.65 216.176 37.9571 217.149 38.2046C218.132 38.4522 218.996 38.576 219.739 38.576C221.264 38.576 222.026 38.1359 222.026 37.2557C222.026 36.9257 221.925 36.6598 221.723 36.4581C221.521 36.2472 221.172 36.0135 220.676 35.7567C220.18 35.4908 219.518 35.1837 218.692 34.8353C217.507 34.3402 216.635 33.8818 216.075 33.46C215.524 33.0383 215.12 32.557 214.862 32.016C214.615 31.4659 214.49 30.7921 214.49 29.9944C214.49 28.6283 215.018 27.5739 216.075 26.8313C217.14 26.0795 218.646 25.7036 220.593 25.7036C222.448 25.7036 224.253 26.107 226.007 26.9138L224.74 29.9393C223.968 29.6093 223.248 29.3388 222.577 29.128C221.907 28.9171 221.223 28.8117 220.524 28.8117C219.285 28.8117 218.665 29.1463 218.665 29.8156C218.665 30.1915 218.862 30.517 219.257 30.7921C219.661 31.0671 220.539 31.4751 221.888 32.016C223.091 32.502 223.973 32.9558 224.533 33.3775C225.093 33.7992 225.507 34.2852 225.773 34.8353C226.039 35.3854 226.172 36.0409 226.172 36.8019ZM235.939 38.3009C236.675 38.3009 237.556 38.1405 238.584 37.8196V40.9414C237.538 41.409 236.252 41.6428 234.727 41.6428C233.047 41.6428 231.821 41.221 231.049 40.3776C230.287 39.5249 229.906 38.2505 229.906 36.5543V29.1417H227.894V27.3677L230.209 25.9649L231.421 22.7193H234.107V25.9923H238.419V29.1417H234.107V36.5543C234.107 37.1503 234.273 37.5904 234.604 37.8746C234.943 38.1589 235.388 38.3009 235.939 38.3009ZM248.09 28.6879C247.199 28.6879 246.502 28.9721 245.996 29.5405C245.491 30.0998 245.202 30.8975 245.128 31.9335H251.024C251.006 30.8975 250.735 30.0998 250.212 29.5405C249.688 28.9721 248.981 28.6879 248.09 28.6879ZM248.682 41.6428C246.203 41.6428 244.265 40.9598 242.869 39.5937C241.473 38.2276 240.775 36.2931 240.775 33.7901C240.775 31.2137 241.418 29.2242 242.703 27.8215C243.999 26.4095 245.785 25.7036 248.062 25.7036C250.239 25.7036 251.933 26.3224 253.146 27.5602C254.358 28.798 254.965 30.5078 254.965 32.6899V34.7252H245.032C245.078 35.9172 245.431 36.8478 246.092 37.517C246.754 38.1863 247.681 38.521 248.875 38.521C249.802 38.521 250.68 38.4247 251.507 38.2322C252.333 38.0397 253.196 37.7325 254.096 37.3107V40.5563C253.362 40.9231 252.576 41.1936 251.74 41.3678C250.905 41.5511 249.885 41.6428 248.682 41.6428ZM272.17 41.3678H267.969V32.3874C267.969 31.278 267.78 30.4483 267.404 29.8982C267.036 29.3388 266.453 29.0592 265.654 29.0592C264.58 29.0592 263.799 29.4534 263.312 30.242C262.825 31.0304 262.582 32.3278 262.582 34.1339V41.3678H258.38V25.9923H261.59L262.155 27.959H262.389C262.802 27.253 263.399 26.7029 264.181 26.3087C264.961 25.9053 265.857 25.7036 266.867 25.7036C269.172 25.7036 270.733 26.4554 271.55 27.959H271.922C272.336 27.2438 272.942 26.6892 273.74 26.2949C274.549 25.9007 275.458 25.7036 276.468 25.7036C278.213 25.7036 279.531 26.1528 280.422 27.0514C281.322 27.9407 281.772 29.3709 281.772 31.3422V41.3678H277.556V32.3874C277.556 31.278 277.368 30.4483 276.992 29.8982C276.624 29.3388 276.041 29.0592 275.243 29.0592C274.214 29.0592 273.442 29.4259 272.927 30.1594C272.423 30.8929 272.17 32.0573 272.17 33.6526V41.3678ZM306.087 41.3678L304.902 35.9905L303.304 29.1968H303.207L300.397 41.3678H295.879L291.498 25.9923H295.686L297.463 32.7999C297.748 34.0193 298.037 35.7017 298.331 37.8471H298.413C298.45 37.1503 298.611 36.0455 298.896 34.5328L299.116 33.3637L301.017 25.9923H305.646L307.45 33.3637C307.487 33.5655 307.542 33.8635 307.615 34.2577C307.698 34.6519 307.777 35.0737 307.85 35.5229C307.923 35.963 307.987 36.3985 308.043 36.8295C308.107 37.2511 308.143 37.5904 308.153 37.8471H308.235C308.318 37.187 308.465 36.2839 308.676 35.1379C308.888 33.9827 309.039 33.2034 309.131 32.7999L310.977 25.9923H315.096L310.66 41.3678H306.087ZM327.37 41.3678L326.558 39.2774H326.448C325.74 40.1667 325.01 40.7855 324.257 41.134C323.513 41.4732 322.539 41.6428 321.337 41.6428C319.858 41.6428 318.692 41.221 317.837 40.3776C316.993 39.5341 316.569 38.333 316.569 36.7744C316.569 35.1424 317.139 33.9414 318.278 33.1712C319.426 32.3919 321.152 31.961 323.458 31.8785L326.13 31.796V31.1221C326.13 29.5634 325.331 28.7841 323.734 28.7841C322.503 28.7841 321.056 29.1555 319.394 29.8982L318.003 27.0651C319.775 26.1391 321.74 25.6761 323.899 25.6761C325.965 25.6761 327.55 26.1253 328.652 27.0238C329.754 27.9224 330.305 29.2884 330.305 31.1221V41.3678H327.37ZM326.13 34.2439L324.504 34.299C323.283 34.3356 322.374 34.5556 321.777 34.9591C321.181 35.3625 320.882 35.9768 320.882 36.8019C320.882 37.9846 321.561 38.576 322.921 38.576C323.894 38.576 324.67 38.2963 325.248 37.7371C325.837 37.1778 326.13 36.4351 326.13 35.5092V34.2439ZM338.845 41.3678H334.643V19.9688H338.845V41.3678ZM347.469 41.3678H343.268V19.9688H347.469V41.3678ZM358.269 28.6879C357.379 28.6879 356.68 28.9721 356.175 29.5405C355.67 30.0998 355.381 30.8975 355.308 31.9335H361.204C361.186 30.8975 360.914 30.0998 360.391 29.5405C359.868 28.9721 359.161 28.6879 358.269 28.6879ZM358.862 41.6428C356.382 41.6428 354.445 40.9598 353.049 39.5937C351.652 38.2276 350.954 36.2931 350.954 33.7901C350.954 31.2137 351.598 29.2242 352.883 27.8215C354.178 26.4095 355.965 25.7036 358.242 25.7036C360.419 25.7036 362.113 26.3224 363.325 27.5602C364.538 28.798 365.143 30.5078 365.143 32.6899V34.7252H355.212C355.257 35.9172 355.611 36.8478 356.272 37.517C356.933 38.1863 357.861 38.521 359.055 38.521C359.982 38.521 360.859 38.4247 361.686 38.2322C362.513 38.0397 363.376 37.7325 364.276 37.3107V40.5563C363.541 40.9231 362.756 41.1936 361.92 41.3678C361.084 41.5511 360.065 41.6428 358.862 41.6428ZM375.049 38.3009C375.783 38.3009 376.665 38.1405 377.694 37.8196V40.9414C376.646 41.409 375.361 41.6428 373.837 41.6428C372.155 41.6428 370.93 41.221 370.158 40.3776C369.396 39.5249 369.015 38.2505 369.015 36.5543V29.1417H367.004V27.3677L369.318 25.9649L370.53 22.7193H373.216V25.9923H377.528V29.1417H373.216V36.5543C373.216 37.1503 373.382 37.5904 373.712 37.8746C374.052 38.1589 374.498 38.3009 375.049 38.3009ZM387.075 33.6526C387.075 31.223 387.428 28.9492 388.135 26.8313C388.852 24.7134 389.881 22.8568 391.221 21.2614H394.666C393.371 23.031 392.392 24.9747 391.731 27.0925C391.069 29.2105 390.74 31.388 390.74 33.625C390.74 35.8713 391.075 38.0443 391.745 40.1438C392.425 42.2342 393.389 44.1274 394.638 45.8236H391.221C389.871 44.265 388.842 42.4451 388.135 40.3639C387.428 38.2826 387.075 36.0455 387.075 33.6526ZM410.37 41.3678L408.91 36.5819H401.567L400.106 41.3678H395.506L402.614 21.179H407.835L414.971 41.3678H410.37ZM407.891 33.0062C406.54 28.6695 405.778 26.217 405.604 25.6485C405.438 25.0801 405.319 24.6309 405.246 24.3008C404.942 25.4744 404.074 28.3762 402.642 33.0062H407.891ZM423.416 33.6526C423.416 36.0639 423.058 38.3101 422.341 40.3913C421.634 42.4726 420.61 44.2833 419.269 45.8236H415.853C417.092 44.1366 418.053 42.2479 418.732 40.1575C419.411 38.058 419.752 35.8805 419.752 33.625C419.752 31.388 419.421 29.2105 418.76 27.0925C418.098 24.9747 417.12 23.031 415.825 21.2614H419.269C420.619 22.866 421.648 24.7318 422.355 26.8588C423.062 28.9767 423.416 31.2413 423.416 33.6526Z" fill="#001F4E"/>
<path d="M46.163 215.338C46.163 217.154 45.5064 218.584 44.193 219.629C42.8889 220.674 41.0705 221.196 38.7378 221.196C36.5888 221.196 34.6877 220.793 33.0346 219.987V216.026C34.3938 216.631 35.5418 217.057 36.4786 217.305C37.4245 217.552 38.2878 217.675 39.0684 217.675C40.0052 217.675 40.7215 217.497 41.2175 217.139C41.7226 216.782 41.9752 216.25 41.9752 215.545C41.9752 215.15 41.8649 214.802 41.6445 214.499C41.4241 214.187 41.0981 213.889 40.6664 213.606C40.2439 213.321 39.3761 212.867 38.0628 212.244C36.8321 211.666 35.9092 211.111 35.2938 210.58C34.6785 210.048 34.1871 209.429 33.8198 208.723C33.4524 208.017 33.2688 207.192 33.2688 206.247C33.2688 204.469 33.8703 203.071 35.0734 202.053C36.2856 201.035 37.9572 200.526 40.0879 200.526C41.1348 200.526 42.1313 200.65 43.0772 200.898C44.0323 201.145 45.0288 201.494 46.0666 201.943L44.689 205.257C43.6145 204.817 42.7236 204.51 42.0164 204.336C41.3185 204.161 40.6297 204.074 39.9501 204.074C39.1419 204.074 38.522 204.263 38.0903 204.638C37.6586 205.014 37.4429 205.505 37.4429 206.11C37.4429 206.486 37.5301 206.816 37.7046 207.1C37.8791 207.375 38.1546 207.646 38.5311 207.912C38.9169 208.168 39.8215 208.636 41.245 209.314C43.1277 210.213 44.418 211.116 45.1161 212.024C45.814 212.922 46.163 214.027 46.163 215.338ZM47.2788 205.546H51.88L54.7867 214.196C55.0347 214.949 55.2046 215.838 55.2965 216.865H55.3791C55.4801 215.92 55.6775 215.031 55.9715 214.196L58.8231 205.546H63.3277L56.8118 222.888C56.2148 224.492 55.3607 225.694 54.2494 226.491C53.1473 227.289 51.857 227.688 50.3784 227.688C49.6529 227.688 48.9411 227.61 48.2432 227.454V224.126C48.7483 224.245 49.2993 224.305 49.8963 224.305C50.6402 224.305 51.2877 224.075 51.8387 223.617C52.3989 223.168 52.8351 222.485 53.1473 221.568L53.3953 220.812L47.2788 205.546ZM76.2908 216.355C76.2908 217.932 75.7398 219.134 74.6377 219.959C73.5449 220.784 71.9056 221.196 69.7197 221.196C68.5993 221.196 67.6442 221.119 66.8544 220.963C66.0646 220.816 65.3253 220.596 64.6365 220.303V216.837C65.4171 217.204 66.2942 217.511 67.2677 217.758C68.2504 218.006 69.1136 218.13 69.8575 218.13C71.382 218.13 72.1443 217.69 72.1443 216.809C72.1443 216.479 72.0433 216.214 71.8413 216.012C71.6392 215.801 71.2902 215.567 70.7943 215.31C70.2984 215.045 69.6371 214.737 68.8106 214.389C67.6258 213.894 66.7533 213.436 66.1931 213.014C65.6421 212.592 65.238 212.111 64.9808 211.57C64.7329 211.02 64.6089 210.345 64.6089 209.548C64.6089 208.182 65.137 207.128 66.1931 206.385C67.2585 205.633 68.7646 205.257 70.7116 205.257C72.5668 205.257 74.3715 205.66 76.1256 206.467L74.8581 209.493C74.0867 209.163 73.3658 208.892 72.6953 208.682C72.0249 208.471 71.3408 208.365 70.6428 208.365C69.403 208.365 68.783 208.7 68.783 209.369C68.783 209.745 68.9805 210.071 69.3754 210.345C69.7794 210.621 70.6565 211.028 72.0066 211.57C73.2097 212.056 74.0914 212.51 74.6516 212.931C75.2118 213.353 75.625 213.839 75.8913 214.389C76.1577 214.939 76.2908 215.595 76.2908 216.355ZM86.058 217.855C86.7927 217.855 87.6743 217.694 88.7026 217.374V220.496C87.656 220.963 86.3702 221.196 84.8457 221.196C83.165 221.196 81.939 220.775 81.1675 219.931C80.4053 219.078 80.0241 217.804 80.0241 216.108V208.695H78.0129V206.922L80.3272 205.519L81.5395 202.273H84.2257V205.546H88.5377V208.695H84.2257V216.108C84.2257 216.704 84.3911 217.144 84.7218 217.428C85.0615 217.712 85.507 217.855 86.058 217.855ZM98.2086 208.242C97.3173 208.242 96.6199 208.526 96.1147 209.094C95.6095 209.654 95.3203 210.451 95.2463 211.487H101.143C101.124 210.451 100.854 209.654 100.33 209.094C99.8062 208.526 99.0991 208.242 98.2086 208.242ZM98.8002 221.196C96.321 221.196 94.3831 220.513 92.9875 219.147C91.5909 217.781 90.8935 215.846 90.8935 213.344C90.8935 210.768 91.5363 208.778 92.8217 207.375C94.1169 205.963 95.9031 205.257 98.1804 205.257C100.357 205.257 102.052 205.876 103.264 207.113C104.476 208.352 105.083 210.061 105.083 212.244V214.279H95.1502C95.196 215.471 95.5496 216.402 96.2108 217.071C96.872 217.74 97.7995 218.075 98.9933 218.075C99.9208 218.075 100.798 217.978 101.625 217.786C102.451 217.594 103.314 217.286 104.214 216.865V220.11C103.48 220.477 102.694 220.747 101.859 220.922C101.023 221.105 100.004 221.196 98.8002 221.196ZM122.288 220.922H118.087V211.941C118.087 210.831 117.899 210.002 117.522 209.452C117.155 208.892 116.572 208.613 115.772 208.613C114.698 208.613 113.917 209.008 113.43 209.795C112.944 210.584 112.7 211.881 112.7 213.687V220.922H108.498V205.546H111.709L112.274 207.513H112.507C112.921 206.807 113.518 206.257 114.299 205.863C115.079 205.459 115.975 205.257 116.985 205.257C119.29 205.257 120.851 206.009 121.669 207.513H122.041C122.454 206.798 123.06 206.243 123.859 205.849C124.667 205.454 125.576 205.257 126.587 205.257C128.331 205.257 129.649 205.707 130.54 206.605C131.44 207.495 131.891 208.925 131.891 210.896V220.922H127.674V211.941C127.674 210.831 127.487 210.002 127.11 209.452C126.743 208.892 126.16 208.613 125.361 208.613C124.332 208.613 123.561 208.979 123.046 209.714C122.541 210.447 122.288 211.611 122.288 213.206V220.922ZM134.852 215.09V211.652H142.25V215.09H134.852ZM145.639 200.815H151.907C154.763 200.815 156.834 201.223 158.12 202.039C159.414 202.846 160.062 204.134 160.062 205.904C160.062 207.105 159.777 208.09 159.208 208.861C158.648 209.631 157.899 210.094 156.962 210.25V210.387C158.239 210.671 159.158 211.203 159.717 211.983C160.287 212.762 160.572 213.797 160.572 215.09C160.572 216.924 159.906 218.354 158.574 219.381C157.251 220.408 155.452 220.922 153.174 220.922H145.639V200.815ZM149.909 208.778H152.389C153.546 208.778 154.382 208.599 154.897 208.242C155.419 207.885 155.681 207.293 155.681 206.467C155.681 205.697 155.396 205.147 154.827 204.817C154.267 204.478 153.377 204.308 152.155 204.308H149.909V208.778ZM149.909 212.161V217.401H152.692C153.868 217.401 154.735 217.176 155.296 216.727C155.856 216.278 156.136 215.59 156.136 214.664C156.136 212.996 154.942 212.161 152.554 212.161H149.909ZM167.611 213.206C167.611 214.729 167.86 215.879 168.355 216.658C168.86 217.438 169.677 217.827 170.807 217.827C171.927 217.827 172.732 217.442 173.218 216.672C173.714 215.892 173.961 214.737 173.961 213.206C173.961 211.684 173.714 210.543 173.218 209.782C172.722 209.021 171.909 208.641 170.78 208.641C169.659 208.641 168.851 209.021 168.355 209.782C167.86 210.534 167.611 211.675 167.611 213.206ZM178.26 213.206C178.26 215.709 177.599 217.667 176.277 219.078C174.954 220.49 173.112 221.196 170.752 221.196C169.274 221.196 167.97 220.876 166.839 220.234C165.71 219.583 164.843 218.652 164.236 217.442C163.63 216.232 163.327 214.82 163.327 213.206C163.327 210.694 163.984 208.741 165.297 207.348C166.61 205.954 168.456 205.257 170.835 205.257C172.314 205.257 173.618 205.578 174.747 206.22C175.876 206.862 176.745 207.783 177.351 208.985C177.957 210.185 178.26 211.593 178.26 213.206ZM190.3 205.257C192.118 205.257 193.542 205.968 194.571 207.389C195.599 208.801 196.114 210.74 196.114 213.206C196.114 215.746 195.581 217.712 194.516 219.107C193.459 220.5 192.018 221.196 190.19 221.196C188.381 221.196 186.962 220.541 185.933 219.23H185.643L184.942 220.922H181.732V199.523H185.933V204.501C185.933 205.133 185.878 206.147 185.768 207.54H185.933C186.916 206.019 188.371 205.257 190.3 205.257ZM188.95 208.613C187.912 208.613 187.155 208.934 186.677 209.575C186.2 210.208 185.951 211.258 185.933 212.725V213.179C185.933 214.829 186.177 216.012 186.663 216.727C187.159 217.442 187.94 217.8 189.005 217.8C189.868 217.8 190.552 217.405 191.058 216.617C191.572 215.819 191.829 214.664 191.829 213.151C191.829 211.638 191.572 210.507 191.058 209.754C190.544 208.994 189.841 208.613 188.95 208.613ZM205.84 213.206C205.84 210.777 206.193 208.503 206.9 206.385C207.616 204.267 208.645 202.411 209.986 200.815H213.43C212.135 202.585 211.157 204.528 210.496 206.646C209.834 208.765 209.504 210.941 209.504 213.179C209.504 215.425 209.839 217.598 210.51 219.697C211.189 221.788 212.153 223.681 213.402 225.377H209.986C208.636 223.819 207.607 221.999 206.9 219.917C206.193 217.837 205.84 215.599 205.84 213.206ZM216.805 200.815H223.073C225.929 200.815 228 201.223 229.285 202.039C230.581 202.846 231.229 204.134 231.229 205.904C231.229 207.105 230.944 208.09 230.374 208.861C229.814 209.631 229.065 210.094 228.129 210.25V210.387C229.405 210.671 230.324 211.203 230.884 211.983C231.453 212.762 231.738 213.797 231.738 215.09C231.738 216.924 231.073 218.354 229.74 219.381C228.418 220.408 226.618 220.922 224.34 220.922H216.805V200.815ZM221.075 208.778H223.555C224.712 208.778 225.548 208.599 226.062 208.242C226.586 207.885 226.848 207.293 226.848 206.467C226.848 205.697 226.563 205.147 225.993 204.817C225.433 204.478 224.542 204.308 223.321 204.308H221.075V208.778ZM221.075 212.161V217.401H223.858C225.034 217.401 225.902 217.176 226.462 216.727C227.022 216.278 227.302 215.59 227.302 214.664C227.302 212.996 226.108 212.161 223.72 212.161H221.075ZM241.657 213.206C241.657 215.618 241.299 217.864 240.582 219.945C239.875 222.026 238.851 223.837 237.51 225.377H234.094C235.334 223.691 236.293 221.802 236.973 219.711C237.652 217.612 237.993 215.435 237.993 213.179C237.993 210.941 237.661 208.765 237 206.646C236.339 204.528 235.361 202.585 234.066 200.815H237.51C238.86 202.42 239.889 204.286 240.596 206.413C241.303 208.531 241.657 210.795 241.657 213.206Z" fill="#001F4E"/>
<path d="M93.2766 247.327V234.76H95.9454V247.327H93.2766ZM107.793 247.327H105.167V241.714C105.167 241.02 105.043 240.502 104.796 240.158C104.55 239.808 104.156 239.634 103.617 239.634C102.882 239.634 102.352 239.88 102.024 240.373C101.697 240.86 101.533 241.671 101.533 242.805V247.327H98.9078V237.717H100.914L101.266 238.946H101.413C101.705 238.482 102.107 238.132 102.619 237.897C103.135 237.657 103.721 237.536 104.375 237.536C105.494 237.536 106.344 237.84 106.923 238.447C107.503 239.049 107.793 239.92 107.793 241.061V247.327ZM114.552 245.41C115.011 245.41 115.562 245.309 116.205 245.109V247.06C115.551 247.352 114.747 247.498 113.794 247.498C112.744 247.498 111.977 247.235 111.495 246.708C111.019 246.174 110.78 245.378 110.78 244.318V239.685H109.524V238.577L110.97 237.699L111.728 235.671H113.407V237.717H116.102V239.685H113.407V244.318C113.407 244.69 113.51 244.966 113.716 245.144C113.929 245.321 114.207 245.41 114.552 245.41ZM122.146 239.402C121.589 239.402 121.153 239.579 120.837 239.935C120.522 240.284 120.34 240.782 120.294 241.43H123.979C123.968 240.782 123.799 240.284 123.472 239.935C123.145 239.579 122.703 239.402 122.146 239.402ZM122.516 247.498C120.966 247.498 119.755 247.071 118.883 246.217C118.01 245.364 117.573 244.154 117.573 242.59C117.573 240.981 117.975 239.737 118.779 238.86C119.589 237.977 120.705 237.536 122.128 237.536C123.488 237.536 124.548 237.923 125.305 238.696C126.063 239.47 126.442 240.539 126.442 241.903V243.175H120.234C120.263 243.92 120.484 244.501 120.897 244.92C121.311 245.338 121.89 245.548 122.637 245.548C123.216 245.548 123.764 245.487 124.281 245.366C124.798 245.247 125.337 245.055 125.9 244.791V246.82C125.44 247.048 124.949 247.217 124.427 247.327C123.905 247.441 123.268 247.498 122.516 247.498ZM133.95 237.536C134.305 237.536 134.602 237.562 134.837 237.614L134.639 240.072C134.426 240.015 134.168 239.986 133.864 239.986C133.026 239.986 132.371 240.201 131.9 240.631C131.436 241.061 131.203 241.662 131.203 242.435V247.327H128.577V237.717H130.566L130.953 239.333H131.083C131.381 238.794 131.783 238.361 132.288 238.035C132.799 237.703 133.353 237.536 133.95 237.536ZM139.21 247.327H136.585V233.952H139.21V247.327ZM148.087 247.327L147.58 246.02H147.511C147.068 246.576 146.612 246.963 146.142 247.18C145.676 247.393 145.068 247.498 144.317 247.498C143.392 247.498 142.663 247.235 142.129 246.708C141.601 246.181 141.338 245.43 141.338 244.455C141.338 243.435 141.693 242.685 142.405 242.204C143.122 241.716 144.201 241.447 145.642 241.396L147.313 241.344V240.923C147.313 239.949 146.813 239.461 145.815 239.461C145.045 239.461 144.141 239.694 143.103 240.158L142.232 238.388C143.341 237.808 144.569 237.519 145.918 237.519C147.209 237.519 148.199 237.8 148.888 238.361C149.577 238.923 149.921 239.777 149.921 240.923V247.327H148.087ZM147.313 242.874L146.297 242.908C145.533 242.932 144.965 243.069 144.592 243.321C144.219 243.573 144.032 243.957 144.032 244.473C144.032 245.212 144.457 245.582 145.307 245.582C145.915 245.582 146.4 245.407 146.761 245.057C147.129 244.708 147.313 244.243 147.313 243.665V242.874ZM151.256 237.717H154.131L155.948 243.124C156.104 243.593 156.209 244.149 156.267 244.791H156.319C156.381 244.201 156.505 243.645 156.689 243.124L158.471 237.717H161.287L157.214 248.555C156.841 249.559 156.307 250.309 155.612 250.808C154.924 251.306 154.117 251.556 153.193 251.556C152.74 251.556 152.295 251.506 151.858 251.41V249.329C152.174 249.404 152.519 249.441 152.892 249.441C153.356 249.441 153.761 249.298 154.106 249.011C154.456 248.73 154.728 248.304 154.924 247.731L155.079 247.258L151.256 237.717ZM166.659 239.402C166.102 239.402 165.666 239.579 165.35 239.935C165.035 240.284 164.854 240.782 164.808 241.43H168.493C168.481 240.782 168.312 240.284 167.985 239.935C167.658 239.579 167.216 239.402 166.659 239.402ZM167.029 247.498C165.479 247.498 164.269 247.071 163.396 246.217C162.524 245.364 162.087 244.154 162.087 242.59C162.087 240.981 162.488 239.737 163.293 238.86C164.102 237.977 165.218 237.536 166.642 237.536C168.002 237.536 169.061 237.923 169.819 238.696C170.577 239.47 170.955 240.539 170.955 241.903V243.175H164.747C164.776 243.92 164.998 244.501 165.41 244.92C165.824 245.338 166.404 245.548 167.15 245.548C167.729 245.548 168.277 245.487 168.794 245.366C169.311 245.247 169.85 245.055 170.413 244.791V246.82C169.953 247.048 169.463 247.217 168.94 247.327C168.418 247.441 167.781 247.498 167.029 247.498ZM178.463 237.536C178.819 237.536 179.115 237.562 179.35 237.614L179.152 240.072C178.939 240.015 178.681 239.986 178.377 239.986C177.539 239.986 176.885 240.201 176.414 240.631C175.949 241.061 175.717 241.662 175.717 242.435V247.327H173.09V237.717H175.079L175.467 239.333H175.596C175.895 238.794 176.296 238.361 176.801 238.035C177.313 237.703 177.866 237.536 178.463 237.536Z" fill="#001F4E"/>
<path d="M112.742 386.53H119.01C121.866 386.53 123.937 386.938 125.223 387.754C126.518 388.561 127.165 389.849 127.165 391.619C127.165 392.82 126.88 393.805 126.311 394.575C125.751 395.346 125.002 395.809 124.066 395.964V396.102C125.343 396.386 126.26 396.918 126.821 397.697C127.391 398.476 127.675 399.512 127.675 400.805C127.675 402.639 127.009 404.069 125.678 405.096C124.355 406.123 122.555 406.636 120.277 406.636H112.742V386.53ZM117.013 394.493H119.492C120.649 394.493 121.485 394.314 121.999 393.957C122.523 393.599 122.785 393.008 122.785 392.182C122.785 391.412 122.5 390.862 121.931 390.532C121.37 390.193 120.479 390.023 119.258 390.023H117.013V394.493ZM117.013 397.876V403.116H119.795C120.97 403.116 121.839 402.891 122.399 402.442C122.959 401.993 123.239 401.305 123.239 400.379C123.239 398.71 122.045 397.876 119.658 397.876H117.013ZM134.715 398.921C134.715 400.444 134.962 401.594 135.459 402.373C135.964 403.153 136.781 403.542 137.911 403.542C139.031 403.542 139.834 403.157 140.321 402.387C140.817 401.607 141.065 400.452 141.065 398.921C141.065 397.399 140.817 396.257 140.321 395.497C139.826 394.736 139.013 394.355 137.883 394.355C136.763 394.355 135.954 394.736 135.459 395.497C134.962 396.249 134.715 397.39 134.715 398.921ZM145.363 398.921C145.363 401.424 144.702 403.382 143.379 404.793C142.057 406.205 140.215 406.911 137.855 406.911C136.376 406.911 135.072 406.591 133.943 405.949C132.814 405.298 131.945 404.367 131.34 403.157C130.733 401.947 130.431 400.535 130.431 398.921C130.431 396.409 131.087 394.456 132.4 393.062C133.713 391.669 135.559 390.972 137.938 390.972C139.416 390.972 140.72 391.293 141.851 391.935C142.98 392.577 143.848 393.498 144.454 394.7C145.06 395.9 145.363 397.308 145.363 398.921ZM157.403 390.972C159.222 390.972 160.645 391.682 161.674 393.104C162.703 394.516 163.217 396.455 163.217 398.921C163.217 401.461 162.684 403.427 161.618 404.821C160.563 406.215 159.121 406.911 157.293 406.911C155.484 406.911 154.065 406.256 153.036 404.945H152.747L152.044 406.636H148.834V385.238H153.036V390.216C153.036 390.848 152.982 391.862 152.871 393.255H153.036C154.019 391.733 155.475 390.972 157.403 390.972ZM156.053 394.328C155.016 394.328 154.258 394.649 153.78 395.29C153.303 395.923 153.055 396.973 153.036 398.44V398.894C153.036 400.544 153.28 401.727 153.766 402.442C154.263 403.157 155.043 403.514 156.108 403.514C156.972 403.514 157.656 403.12 158.161 402.332C158.675 401.534 158.933 400.379 158.933 398.866C158.933 397.353 158.675 396.221 158.161 395.469C157.646 394.708 156.944 394.328 156.053 394.328Z" fill="#001F4E"/>
<path d="M158.203 152.222L152.895 156.249L138.006 136.696L143.314 132.667L145.073 134.978L142.616 136.842L153.988 151.776L156.444 149.911L158.203 152.222ZM165.34 141.209L161.951 143.781L154.897 134.518L153.772 132.972L152.559 131.266C152.424 132.254 152.314 132.92 152.228 133.262L151.511 136.138L148.326 135.342L150.366 127.316L153.152 125.203L165.34 141.209ZM174.818 121.388C176.948 124.183 178.062 126.602 178.163 128.644C178.272 130.681 177.373 132.423 175.464 133.871C173.614 135.275 171.69 135.641 169.691 134.97C167.699 134.294 165.672 132.601 163.61 129.893C161.46 127.068 160.333 124.642 160.23 122.612C160.12 120.576 161.017 118.836 162.918 117.394C164.768 115.99 166.697 115.631 168.708 116.316C170.725 116.997 172.762 118.688 174.818 121.388ZM166.977 127.339C168.472 129.301 169.713 130.583 170.699 131.181C171.688 131.768 172.584 131.755 173.388 131.145C174.178 130.546 174.421 129.683 174.116 128.555C173.811 127.428 172.919 125.893 171.441 123.951C169.946 121.987 168.694 120.715 167.686 120.133C166.679 119.538 165.784 119.537 165.002 120.131C164.205 120.736 163.963 121.599 164.275 122.721C164.582 123.836 165.483 125.375 166.977 127.339ZM187.65 111.651C189.778 114.446 190.894 116.865 190.995 118.907C191.104 120.943 190.204 122.686 188.295 124.134C186.446 125.538 184.521 125.904 182.522 125.233C180.531 124.556 178.504 122.864 176.442 120.156C174.291 117.331 173.164 114.905 173.06 112.875C172.952 110.838 173.849 109.099 175.749 107.656C177.599 106.253 179.529 105.893 181.539 106.579C183.557 107.259 185.594 108.95 187.65 111.651ZM179.809 117.601C181.304 119.564 182.544 120.846 183.531 121.444C184.519 122.03 185.416 122.018 186.22 121.408C187.01 120.809 187.252 119.945 186.947 118.818C186.642 117.69 185.751 116.155 184.272 114.214C182.777 112.25 181.525 110.977 180.517 110.396C179.511 109.801 178.616 109.8 177.834 110.394C177.037 110.998 176.794 111.862 177.106 112.984C177.413 114.098 178.313 115.638 179.809 117.601ZM197.797 112.864C198.539 114.627 199.227 116.863 199.86 119.573L197.448 121.404C196.445 119.102 195.418 116.99 194.37 115.067L197.441 112.737L197.797 112.864ZM221.238 100.743L223.683 98.8865L212.312 83.9527L209.866 85.8086L208.107 83.4985L213.416 79.4705L228.305 99.0247L222.997 103.052L221.238 100.743Z" fill="white"/>
<path d="M212.83 92.5423C214.959 95.3377 216.074 97.7564 216.175 99.7984C216.284 101.835 215.384 103.578 213.476 105.026C211.627 106.43 209.702 106.796 207.702 106.125C205.711 105.448 203.684 103.756 201.623 101.048C199.471 98.2229 198.345 95.7963 198.241 93.7666C198.133 91.7299 199.029 89.9907 200.93 88.5481C202.779 87.1444 204.709 86.7854 206.719 87.4711C208.738 88.1512 210.774 89.842 212.83 92.5423ZM204.989 98.4931C206.484 100.456 207.724 101.737 208.711 102.336C209.699 102.922 210.596 102.91 211.4 102.3C212.19 101.7 212.433 100.837 212.127 99.7095C211.822 98.582 210.931 97.047 209.453 95.1053C207.957 93.1417 206.706 91.869 205.698 91.2872C204.691 90.6922 203.796 90.6913 203.014 91.2854C202.217 91.8901 201.974 92.7535 202.286 93.8758C202.593 94.99 203.494 96.5295 204.989 98.4931Z" fill="#FE5454"/>
<path d="M122.743 328.302H118.487V316.667L118.528 314.755L118.597 312.665C117.89 313.371 117.398 313.833 117.123 314.054L114.808 315.911L112.756 313.353L119.244 308.195H122.743V328.302ZM142.305 318.248C142.305 321.76 141.726 324.359 140.57 326.047C139.421 327.733 137.649 328.576 135.251 328.576C132.928 328.576 131.174 327.706 129.99 325.964C128.814 324.222 128.226 321.65 128.226 318.248C128.226 314.7 128.8 312.087 129.948 310.41C131.096 308.722 132.864 307.879 135.251 307.879C137.576 307.879 139.329 308.759 140.514 310.52C141.708 312.28 142.305 314.856 142.305 318.248ZM132.455 318.248C132.455 320.715 132.666 322.485 133.089 323.557C133.521 324.621 134.241 325.152 135.251 325.152C136.243 325.152 136.96 324.611 137.401 323.529C137.842 322.448 138.062 320.687 138.062 318.248C138.062 315.782 137.837 314.013 137.387 312.94C136.946 311.858 136.235 311.317 135.251 311.317C134.251 311.317 133.534 311.858 133.103 312.94C132.671 314.013 132.455 315.782 132.455 318.248ZM158.423 318.248C158.423 321.76 157.844 324.359 156.687 326.047C155.539 327.733 153.766 328.576 151.37 328.576C149.046 328.576 147.291 327.706 146.107 325.964C144.931 324.222 144.344 321.65 144.344 318.248C144.344 314.7 144.918 312.087 146.066 310.41C147.214 308.722 148.982 307.879 151.37 307.879C153.693 307.879 155.447 308.759 156.632 310.52C157.825 312.28 158.423 314.856 158.423 318.248ZM148.573 318.248C148.573 320.715 148.784 322.485 149.206 323.557C149.638 324.621 150.36 325.152 151.37 325.152C152.361 325.152 153.078 324.611 153.519 323.529C153.959 322.448 154.18 320.687 154.18 318.248C154.18 315.782 153.955 314.013 153.504 312.94C153.064 311.858 152.352 311.317 151.37 311.317C150.368 311.317 149.652 311.858 149.22 312.94C148.788 314.013 148.573 315.782 148.573 318.248Z" fill="white"/>
<path d="M569.55 365.269H347.373C340.556 365.269 335.03 370.785 335.03 377.591V413.678C335.03 420.483 340.556 426 347.373 426H569.55C576.367 426 581.893 420.483 581.893 413.678V377.591C581.893 370.785 576.367 365.269 569.55 365.269Z" fill="white"/>
<path d="M583.657 180.434H333.266C326.449 180.434 320.923 185.951 320.923 192.756V245.566C320.923 252.371 326.449 257.888 333.266 257.888H583.657C590.474 257.888 596 252.371 596 245.566V192.756C596 185.951 590.474 180.434 583.657 180.434Z" fill="white"/>
<path d="M354.743 215.338C354.743 217.154 354.087 218.584 352.773 219.629C351.469 220.674 349.65 221.196 347.318 221.196C345.169 221.196 343.268 220.793 341.615 219.987V216.026C342.973 216.631 344.121 217.057 345.058 217.305C346.004 217.552 346.868 217.675 347.648 217.675C348.585 217.675 349.302 217.497 349.797 217.139C350.303 216.782 350.555 216.25 350.555 215.545C350.555 215.15 350.444 214.802 350.224 214.499C350.004 214.187 349.678 213.889 349.246 213.606C348.824 213.321 347.956 212.867 346.643 212.244C345.412 211.666 344.489 211.111 343.874 210.58C343.258 210.048 342.767 209.429 342.399 208.723C342.033 208.017 341.848 207.192 341.848 206.247C341.848 204.469 342.451 203.071 343.653 202.053C344.865 201.035 346.537 200.526 348.668 200.526C349.714 200.526 350.711 200.65 351.657 200.898C352.612 201.145 353.609 201.494 354.646 201.943L353.269 205.257C352.195 204.817 351.303 204.51 350.596 204.336C349.899 204.161 349.209 204.074 348.53 204.074C347.722 204.074 347.102 204.263 346.67 204.638C346.239 205.014 346.023 205.505 346.023 206.11C346.023 206.486 346.11 206.816 346.285 207.1C346.459 207.375 346.734 207.646 347.111 207.912C347.497 208.168 348.402 208.636 349.825 209.314C351.708 210.213 352.998 211.116 353.696 212.024C354.394 212.922 354.743 214.027 354.743 215.338ZM355.859 205.546H360.46L363.367 214.196C363.615 214.949 363.785 215.838 363.877 216.865H363.959C364.06 215.92 364.257 215.031 364.551 214.196L367.403 205.546H371.908L365.392 222.888C364.794 224.492 363.941 225.694 362.829 226.491C361.727 227.289 360.437 227.688 358.959 227.688C358.233 227.688 357.521 227.61 356.823 227.454V224.126C357.328 224.245 357.879 224.305 358.476 224.305C359.22 224.305 359.868 224.075 360.419 223.617C360.979 223.168 361.415 222.485 361.727 221.568L361.975 220.812L355.859 205.546ZM384.871 216.355C384.871 217.932 384.32 219.134 383.217 219.959C382.125 220.784 380.485 221.196 378.3 221.196C377.179 221.196 376.224 221.119 375.434 220.963C374.644 220.816 373.905 220.596 373.216 220.303V216.837C373.997 217.204 374.874 217.511 375.848 217.758C376.83 218.006 377.694 218.13 378.437 218.13C379.962 218.13 380.724 217.69 380.724 216.809C380.724 216.479 380.624 216.214 380.421 216.012C380.219 215.801 379.87 215.567 379.374 215.31C378.878 215.045 378.217 214.737 377.391 214.389C376.206 213.894 375.334 213.436 374.773 213.014C374.222 212.592 373.818 212.111 373.561 211.57C373.313 211.02 373.189 210.345 373.189 209.548C373.189 208.182 373.717 207.128 374.773 206.385C375.838 205.633 377.345 205.257 379.291 205.257C381.146 205.257 382.951 205.66 384.706 206.467L383.438 209.493C382.666 209.163 381.946 208.892 381.275 208.682C380.605 208.471 379.921 208.365 379.223 208.365C377.983 208.365 377.363 208.7 377.363 209.369C377.363 209.745 377.561 210.071 377.956 210.345C378.359 210.621 379.237 211.028 380.587 211.57C381.789 212.056 382.671 212.51 383.232 212.931C383.791 213.353 384.205 213.839 384.471 214.389C384.737 214.939 384.871 215.595 384.871 216.355ZM394.638 217.855C395.373 217.855 396.254 217.694 397.283 217.374V220.496C396.236 220.963 394.951 221.196 393.425 221.196C391.745 221.196 390.519 220.775 389.747 219.931C388.985 219.078 388.604 217.804 388.604 216.108V208.695H386.592V206.922L388.907 205.519L390.119 202.273H392.805V205.546H397.118V208.695H392.805V216.108C392.805 216.704 392.971 217.144 393.302 217.428C393.641 217.712 394.087 217.855 394.638 217.855ZM406.789 208.242C405.897 208.242 405.2 208.526 404.695 209.094C404.189 209.654 403.9 210.451 403.826 211.487H409.723C409.704 210.451 409.433 209.654 408.91 209.094C408.386 208.526 407.679 208.242 406.789 208.242ZM407.38 221.196C404.901 221.196 402.963 220.513 401.567 219.147C400.171 217.781 399.473 215.846 399.473 213.344C399.473 210.768 400.116 208.778 401.402 207.375C402.697 205.963 404.483 205.257 406.76 205.257C408.937 205.257 410.632 205.876 411.844 207.113C413.056 208.352 413.663 210.061 413.663 212.244V214.279H403.73C403.776 215.471 404.129 216.402 404.791 217.071C405.452 217.74 406.379 218.075 407.573 218.075C408.501 218.075 409.378 217.978 410.205 217.786C411.031 217.594 411.894 217.286 412.794 216.865V220.11C412.06 220.477 411.274 220.747 410.439 220.922C409.603 221.105 408.584 221.196 407.38 221.196ZM430.868 220.922H426.667V211.941C426.667 210.831 426.479 210.002 426.102 209.452C425.734 208.892 425.152 208.613 424.352 208.613C423.278 208.613 422.497 209.008 422.01 209.795C421.524 210.584 421.28 211.881 421.28 213.687V220.922H417.078V205.546H420.288L420.854 207.513H421.087C421.501 206.807 422.098 206.257 422.879 205.863C423.659 205.459 424.555 205.257 425.565 205.257C427.87 205.257 429.431 206.009 430.249 207.513H430.621C431.034 206.798 431.64 206.243 432.439 205.849C433.247 205.454 434.156 205.257 435.166 205.257C436.911 205.257 438.229 205.707 439.12 206.605C440.02 207.495 440.47 208.925 440.47 210.896V220.922H436.254V211.941C436.254 210.831 436.067 210.002 435.69 209.452C435.322 208.892 434.74 208.613 433.941 208.613C432.912 208.613 432.141 208.979 431.626 209.714C431.121 210.447 430.868 211.611 430.868 213.206V220.922ZM443.432 215.09V211.652H450.83V215.09H443.432ZM462.774 204.074C461.166 204.074 459.922 204.68 459.04 205.89C458.158 207.091 457.717 208.769 457.717 210.924C457.717 215.406 459.403 217.648 462.774 217.648C464.188 217.648 465.901 217.295 467.912 216.589V220.165C466.259 220.853 464.413 221.196 462.374 221.196C459.445 221.196 457.203 220.312 455.651 218.542C454.099 216.764 453.323 214.215 453.323 210.896C453.323 208.805 453.704 206.976 454.467 205.409C455.229 203.831 456.322 202.626 457.746 201.792C459.177 200.948 460.854 200.526 462.774 200.526C464.729 200.526 466.695 200.999 468.669 201.943L467.292 205.409C466.538 205.051 465.781 204.74 465.019 204.473C464.257 204.207 463.508 204.074 462.774 204.074ZM476.081 220.922H471.879V199.523H476.081V220.922ZM490.284 220.922L489.471 218.831H489.361C488.654 219.72 487.924 220.34 487.17 220.687C486.427 221.027 485.453 221.196 484.25 221.196C482.771 221.196 481.605 220.775 480.751 219.931C479.906 219.088 479.484 217.887 479.484 216.328C479.484 214.696 480.053 213.495 481.192 212.725C482.339 211.946 484.067 211.514 486.371 211.432L489.044 211.35V210.676C489.044 209.118 488.245 208.338 486.647 208.338C485.416 208.338 483.97 208.709 482.308 209.452L480.916 206.619C482.689 205.693 484.654 205.23 486.812 205.23C488.879 205.23 490.463 205.679 491.565 206.577C492.667 207.476 493.218 208.842 493.218 210.676V220.922H490.284ZM489.044 213.797L487.419 213.853C486.197 213.889 485.288 214.109 484.691 214.513C484.094 214.916 483.795 215.531 483.795 216.355C483.795 217.538 484.475 218.13 485.834 218.13C486.808 218.13 487.584 217.85 488.163 217.291C488.75 216.732 489.044 215.989 489.044 215.063V213.797ZM508.468 220.922L507.903 218.955H507.683C507.233 219.67 506.595 220.224 505.768 220.619C504.942 221.004 504 221.196 502.944 221.196C501.135 221.196 499.771 220.716 498.852 219.753C497.934 218.781 497.475 217.387 497.475 215.572V205.546H501.677V214.526C501.677 215.636 501.874 216.471 502.269 217.029C502.663 217.58 503.293 217.855 504.156 217.855C505.331 217.855 506.181 217.465 506.705 216.686C507.228 215.898 507.49 214.595 507.49 212.78V205.546H511.692V220.922H508.468ZM526.845 216.355C526.845 217.932 526.294 219.134 525.192 219.959C524.099 220.784 522.46 221.196 520.274 221.196C519.154 221.196 518.198 221.119 517.408 220.963C516.619 220.816 515.879 220.596 515.191 220.303V216.837C515.971 217.204 516.848 217.511 517.822 217.758C518.805 218.006 519.668 218.13 520.412 218.13C521.936 218.13 522.698 217.69 522.698 216.809C522.698 216.479 522.598 216.214 522.396 216.012C522.193 215.801 521.845 215.567 521.348 215.31C520.853 215.045 520.192 214.737 519.365 214.389C518.18 213.894 517.308 213.436 516.747 213.014C516.196 212.592 515.792 212.111 515.535 211.57C515.287 211.02 515.163 210.345 515.163 209.548C515.163 208.182 515.691 207.128 516.747 206.385C517.813 205.633 519.319 205.257 521.265 205.257C523.121 205.257 524.925 205.66 526.68 206.467L525.413 209.493C524.64 209.163 523.92 208.892 523.249 208.682C522.579 208.471 521.895 208.365 521.197 208.365C519.957 208.365 519.337 208.7 519.337 209.369C519.337 209.745 519.535 210.071 519.93 210.345C520.334 210.621 521.211 211.028 522.561 211.57C523.764 212.056 524.646 212.51 525.206 212.931C525.766 213.353 526.179 213.839 526.445 214.389C526.711 214.939 526.845 215.595 526.845 216.355ZM536.378 213.206C536.378 210.777 536.732 208.503 537.439 206.385C538.155 204.267 539.183 202.411 540.524 200.815H543.968C542.674 202.585 541.695 204.528 541.034 206.646C540.373 208.765 540.042 210.941 540.042 213.179C540.042 215.425 540.377 217.598 541.048 219.697C541.728 221.788 542.692 223.681 543.941 225.377H540.524C539.175 223.819 538.146 221.999 537.439 219.917C536.732 217.837 536.378 215.599 536.378 213.206ZM555.899 204.074C554.291 204.074 553.047 204.68 552.165 205.89C551.283 207.091 550.842 208.769 550.842 210.924C550.842 215.406 552.528 217.648 555.899 217.648C557.313 217.648 559.025 217.295 561.037 216.589V220.165C559.384 220.853 557.538 221.196 555.498 221.196C552.57 221.196 550.328 220.312 548.777 218.542C547.224 216.764 546.448 214.215 546.448 210.896C546.448 208.805 546.829 206.976 547.592 205.409C548.353 203.831 549.447 202.626 550.87 201.792C552.303 200.948 553.979 200.526 555.899 200.526C557.854 200.526 559.82 200.999 561.794 201.943L560.417 205.409C559.663 205.051 558.906 204.74 558.143 204.473C557.382 204.207 556.633 204.074 555.899 204.074ZM571.231 213.206C571.231 215.618 570.873 217.864 570.157 219.945C569.449 222.026 568.425 223.837 567.084 225.377H563.668C564.907 223.691 565.868 221.802 566.547 219.711C567.227 217.612 567.567 215.435 567.567 213.179C567.567 210.941 567.236 208.765 566.575 206.646C565.913 204.528 564.936 202.585 563.641 200.815H567.084C568.434 202.42 569.463 204.286 570.17 206.413C570.877 208.531 571.231 210.795 571.231 213.206Z" fill="#001F4E"/>
<path d="M414.2 247.327V234.76H416.868V247.327H414.2ZM428.716 247.327H426.09V241.714C426.09 241.02 425.966 240.502 425.719 240.158C425.473 239.808 425.079 239.634 424.54 239.634C423.805 239.634 423.275 239.88 422.948 240.373C422.62 240.86 422.456 241.671 422.456 242.805V247.327H419.831V237.717H421.837L422.189 238.946H422.336C422.628 238.482 423.03 238.132 423.542 237.897C424.058 237.657 424.644 237.536 425.298 237.536C426.417 237.536 427.267 237.84 427.846 238.447C428.426 239.049 428.716 239.92 428.716 241.061V247.327ZM435.475 245.41C435.934 245.41 436.485 245.309 437.128 245.109V247.06C436.474 247.352 435.67 247.498 434.717 247.498C433.667 247.498 432.901 247.235 432.418 246.708C431.942 246.174 431.703 245.378 431.703 244.318V239.685H430.447V238.577L431.893 237.699L432.651 235.671H434.33V237.717H437.025V239.685H434.33V244.318C434.33 244.69 434.433 244.966 434.639 245.144C434.852 245.321 435.13 245.41 435.475 245.41ZM443.069 239.402C442.512 239.402 442.076 239.579 441.76 239.935C441.445 240.284 441.263 240.782 441.217 241.43H444.903C444.891 240.782 444.722 240.284 444.395 239.935C444.068 239.579 443.626 239.402 443.069 239.402ZM443.439 247.498C441.889 247.498 440.678 247.071 439.806 246.217C438.933 245.364 438.496 244.154 438.496 242.59C438.496 240.981 438.898 239.737 439.703 238.86C440.512 237.977 441.628 237.536 443.051 237.536C444.411 237.536 445.471 237.923 446.229 238.696C446.986 239.47 447.365 240.539 447.365 241.903V243.175H441.157C441.186 243.92 441.407 244.501 441.82 244.92C442.234 245.338 442.813 245.548 443.56 245.548C444.139 245.548 444.687 245.487 445.204 245.366C445.721 245.247 446.26 245.055 446.823 244.791V246.82C446.363 247.048 445.872 247.217 445.35 247.327C444.828 247.441 444.191 247.498 443.439 247.498ZM454.873 237.536C455.228 237.536 455.525 237.562 455.76 237.614L455.562 240.072C455.349 240.015 455.091 239.986 454.787 239.986C453.949 239.986 453.294 240.201 452.823 240.631C452.359 241.061 452.126 241.662 452.126 242.435V247.327H449.5V237.717H451.489L451.876 239.333H452.006C452.304 238.794 452.706 238.361 453.211 238.035C453.722 237.703 454.276 237.536 454.873 237.536ZM460.133 247.327H457.508V233.952H460.133V247.327ZM469.011 247.327L468.503 246.02H468.434C467.991 246.576 467.536 246.963 467.065 247.18C466.599 247.393 465.991 247.498 465.24 247.498C464.315 247.498 463.586 247.235 463.052 246.708C462.524 246.181 462.261 245.43 462.261 244.455C462.261 243.435 462.616 242.685 463.328 242.204C464.045 241.716 465.124 241.447 466.565 241.396L468.236 241.344V240.923C468.236 239.949 467.737 239.461 466.738 239.461C465.968 239.461 465.064 239.694 464.026 240.158L463.155 238.388C464.264 237.808 465.492 237.519 466.841 237.519C468.132 237.519 469.123 237.8 469.811 238.361C470.5 238.923 470.844 239.777 470.844 240.923V247.327H469.011ZM468.236 242.874L467.22 242.908C466.456 242.932 465.888 243.069 465.515 243.321C465.142 243.573 464.955 243.957 464.955 244.473C464.955 245.212 465.38 245.582 466.23 245.582C466.838 245.582 467.323 245.407 467.685 245.057C468.052 244.708 468.236 244.243 468.236 243.665V242.874ZM472.179 237.717H475.054L476.871 243.124C477.027 243.593 477.132 244.149 477.19 244.791H477.242C477.304 244.201 477.428 243.645 477.612 243.124L479.394 237.717H482.21L478.137 248.555C477.764 249.559 477.23 250.309 476.535 250.808C475.847 251.306 475.04 251.556 474.116 251.556C473.663 251.556 473.218 251.506 472.781 251.41V249.329C473.097 249.404 473.442 249.441 473.815 249.441C474.279 249.441 474.684 249.298 475.029 249.011C475.379 248.73 475.651 248.304 475.847 247.731L476.002 247.258L472.179 237.717ZM487.582 239.402C487.025 239.402 486.589 239.579 486.273 239.935C485.958 240.284 485.777 240.782 485.731 241.43H489.416C489.404 240.782 489.235 240.284 488.908 239.935C488.581 239.579 488.139 239.402 487.582 239.402ZM487.952 247.498C486.402 247.498 485.192 247.071 484.319 246.217C483.447 245.364 483.01 244.154 483.01 242.59C483.01 240.981 483.412 239.737 484.216 238.86C485.025 237.977 486.141 237.536 487.565 237.536C488.925 237.536 489.984 237.923 490.742 238.696C491.5 239.47 491.878 240.539 491.878 241.903V243.175H485.67C485.699 243.92 485.921 244.501 486.333 244.92C486.747 245.338 487.327 245.548 488.073 245.548C488.652 245.548 489.2 245.487 489.717 245.366C490.234 245.247 490.773 245.055 491.336 244.791V246.82C490.877 247.048 490.386 247.217 489.864 247.327C489.342 247.441 488.704 247.498 487.952 247.498ZM499.386 237.536C499.742 237.536 500.038 237.562 500.273 237.614L500.075 240.072C499.862 240.015 499.604 239.986 499.3 239.986C498.462 239.986 497.808 240.201 497.337 240.631C496.872 241.061 496.64 241.662 496.64 242.435V247.327H494.013V237.717H496.002L496.39 239.333H496.519C496.818 238.794 497.219 238.361 497.724 238.035C498.236 237.703 498.789 237.536 499.386 237.536Z" fill="#001F4E"/>
<path d="M428.995 389.789C427.388 389.789 426.144 390.395 425.262 391.605C424.38 392.805 423.939 394.484 423.939 396.639C423.939 401.121 425.624 403.363 428.995 403.363C430.409 403.363 432.122 403.01 434.133 402.304V405.88C432.48 406.568 430.635 406.911 428.595 406.911C425.666 406.911 423.424 406.026 421.873 404.257C420.321 402.478 419.544 399.93 419.544 396.61C419.544 394.52 419.926 392.691 420.688 391.123C421.45 389.546 422.543 388.341 423.967 387.507C425.399 386.663 427.075 386.241 428.995 386.241C430.951 386.241 432.916 386.714 434.891 387.658L433.513 391.123C432.76 390.766 432.003 390.455 431.24 390.188C430.478 389.922 429.729 389.789 428.995 389.789ZM442.303 406.636H438.101V385.238H442.303V406.636ZM456.505 406.636L455.692 404.546H455.582C454.875 405.435 454.145 406.055 453.392 406.402C452.648 406.742 451.675 406.911 450.472 406.911C448.993 406.911 447.827 406.489 446.973 405.646C446.127 404.803 445.705 403.602 445.705 402.043C445.705 400.411 446.274 399.21 447.413 398.44C448.561 397.66 450.288 397.229 452.593 397.147L455.266 397.065V396.39C455.266 394.832 454.467 394.053 452.868 394.053C451.638 394.053 450.192 394.424 448.529 395.167L447.138 392.334C448.911 391.408 450.876 390.945 453.034 390.945C455.101 390.945 456.684 391.394 457.786 392.292C458.888 393.191 459.439 394.557 459.439 396.39V406.636H456.505ZM455.266 399.512L453.64 399.568C452.419 399.604 451.51 399.824 450.913 400.228C450.315 400.631 450.017 401.245 450.017 402.07C450.017 403.253 450.697 403.844 452.055 403.844C453.03 403.844 453.805 403.565 454.384 403.006C454.972 402.447 455.266 401.704 455.266 400.778V399.512ZM474.689 406.636L474.125 404.67H473.905C473.454 405.385 472.816 405.939 471.99 406.334C471.163 406.719 470.222 406.911 469.166 406.911C467.357 406.911 465.993 406.43 465.074 405.468C464.155 404.496 463.697 403.102 463.697 401.287V391.261H467.898V400.241C467.898 401.351 468.095 402.185 468.49 402.744C468.885 403.294 469.514 403.57 470.378 403.57C471.553 403.57 472.402 403.18 472.926 402.401C473.45 401.612 473.712 400.31 473.712 398.495V391.261H477.913V406.636H474.689ZM493.067 402.07C493.067 403.647 492.516 404.849 491.413 405.673C490.32 406.499 488.681 406.911 486.496 406.911C485.375 406.911 484.42 406.834 483.63 406.678C482.84 406.531 482.101 406.311 481.412 406.018V402.552C482.193 402.919 483.069 403.226 484.044 403.473C485.026 403.721 485.889 403.844 486.633 403.844C488.157 403.844 488.92 403.404 488.92 402.524C488.92 402.194 488.819 401.928 488.617 401.727C488.415 401.516 488.066 401.282 487.57 401.025C487.074 400.76 486.413 400.452 485.587 400.104C484.402 399.609 483.529 399.151 482.969 398.729C482.418 398.306 482.014 397.826 481.757 397.285C481.509 396.735 481.385 396.06 481.385 395.263C481.385 393.897 481.913 392.842 482.969 392.1C484.034 391.348 485.541 390.972 487.487 390.972C489.342 390.972 491.147 391.375 492.901 392.182L491.634 395.208C490.862 394.878 490.141 394.607 489.471 394.397C488.8 394.186 488.116 394.08 487.419 394.08C486.179 394.08 485.558 394.415 485.558 395.084C485.558 395.46 485.756 395.786 486.151 396.06C486.556 396.336 487.432 396.743 488.783 397.285C489.985 397.77 490.867 398.225 491.428 398.646C491.987 399.068 492.401 399.554 492.667 400.104C492.933 400.654 493.067 401.31 493.067 402.07Z" fill="#001F4E"/>
<path d="M379.806 107.398L374.5 103.368L389.396 83.8198L394.703 87.8499L392.943 90.159L390.487 88.2939L379.11 103.223L381.566 105.088L379.806 107.398ZM415.549 125.23C414.045 126.416 412.071 127.674 409.624 129.007L407.212 127.175C409.165 125.595 410.931 124.044 412.506 122.522L415.576 124.853L415.549 125.23ZM436.061 139.288L434.131 137.823L431.605 141.139L428.293 138.624L430.821 135.308L423.979 130.112L425.772 127.759L440.674 122.764L443.799 125.137L436.134 135.196L438.063 136.662L436.061 139.288ZM432.822 132.682L434.89 129.967C435.235 129.515 435.754 128.871 436.447 128.039C437.14 127.205 437.55 126.727 437.677 126.606L437.59 126.539C436.864 126.931 436.093 127.268 435.279 127.549L428.963 129.751L432.822 132.682ZM452.01 144.005C449.88 146.799 447.843 148.518 445.899 149.162C443.962 149.81 442.04 149.41 440.132 147.961C438.282 146.556 437.415 144.803 437.528 142.7C437.649 140.604 438.742 138.202 440.805 135.495C442.956 132.671 444.998 130.938 446.929 130.296C448.866 129.648 450.784 130.045 452.685 131.489C454.534 132.893 455.396 134.654 455.272 136.771C455.154 138.894 454.067 141.304 452.01 144.005ZM444.17 138.051C442.675 140.014 441.769 141.55 441.455 142.659C441.154 143.766 441.405 144.625 442.208 145.236C442.998 145.836 443.897 145.838 444.903 145.243C445.91 144.648 447.153 143.381 448.632 141.44C450.128 139.477 451.022 137.933 451.315 136.807C451.62 135.679 451.382 134.819 450.6 134.224C449.803 133.62 448.904 133.617 447.905 134.217C446.911 134.811 445.666 136.088 444.17 138.051ZM446.34 154.283L448.784 156.14L460.162 141.21L457.717 139.354L459.477 137.044L464.783 141.075L449.887 160.623L444.58 156.593L446.34 154.283Z" fill="white"/>
<path d="M392.343 111.321L388.955 108.748L396.011 99.4885L397.204 97.9913L398.527 96.3701C397.536 96.5038 396.864 96.576 396.511 96.5839L393.543 96.6632L393.461 93.3863L401.752 93.2041L404.538 95.3191L392.343 111.321ZM414.008 115.144C411.879 117.939 409.842 119.657 407.898 120.301C405.962 120.95 404.039 120.549 402.132 119.1C400.282 117.696 399.414 115.942 399.528 113.84C399.649 111.743 400.74 109.341 402.803 106.634C404.956 103.81 406.997 102.077 408.928 101.436C410.865 100.788 412.784 101.185 414.684 102.628C416.533 104.032 417.396 105.793 417.271 107.91C417.153 110.033 416.066 112.444 414.008 115.144ZM406.17 109.191C404.673 111.153 403.769 112.689 403.454 113.798C403.153 114.905 403.404 115.765 404.208 116.375C404.998 116.975 405.895 116.977 406.902 116.382C407.91 115.788 409.152 114.52 410.632 112.579C412.128 110.616 413.022 109.072 413.315 107.946C413.62 106.818 413.381 105.958 412.599 105.364C411.803 104.759 410.904 104.756 409.904 105.357C408.911 105.95 407.665 107.227 406.17 109.191Z" fill="#42FF00"/>
<path d="M458.88 260.111C457.675 258.908 455.721 258.908 454.516 260.111L434.878 279.716C433.673 280.919 433.673 282.869 434.878 284.073C436.083 285.276 438.037 285.276 439.242 284.073L456.698 266.646L474.154 284.073C475.359 285.276 477.313 285.276 478.518 284.073C479.724 282.869 479.724 280.919 478.518 279.716L458.88 260.111ZM459.784 365.269V262.289H453.612V365.269H459.784Z" fill="black"/>
<path d="M438.555 319.885H433.224V316.874H438.555V311.51H441.573V316.874H446.904V319.885H441.573V325.18H438.555V319.885ZM456.588 315.457C458.535 315.457 460.083 316.002 461.231 317.094C462.388 318.184 462.966 319.679 462.966 321.576C462.966 323.822 462.273 325.551 460.886 326.761C459.499 327.972 457.516 328.576 454.935 328.576C452.694 328.576 450.885 328.214 449.507 327.49V323.818C450.233 324.204 451.078 324.52 452.042 324.767C453.006 325.005 453.92 325.125 454.783 325.125C457.382 325.125 458.682 324.061 458.682 321.935C458.682 319.908 457.337 318.894 454.646 318.894C454.159 318.894 453.621 318.945 453.034 319.046C452.446 319.138 451.968 319.239 451.601 319.349L449.907 318.441L450.664 308.195H461.589V311.799H454.398L454.026 315.745L454.508 315.649C455.068 315.521 455.762 315.457 456.588 315.457ZM479.346 318.248C479.346 321.76 478.767 324.359 477.61 326.047C476.462 327.733 474.689 328.576 472.293 328.576C469.969 328.576 468.214 327.706 467.03 325.964C465.854 324.222 465.267 321.65 465.267 318.248C465.267 314.7 465.841 312.087 466.989 310.41C468.137 308.722 469.905 307.879 472.293 307.879C474.616 307.879 476.37 308.759 477.555 310.52C478.748 312.28 479.346 314.856 479.346 318.248ZM469.496 318.248C469.496 320.715 469.707 322.485 470.129 323.557C470.561 324.621 471.283 325.152 472.293 325.152C473.284 325.152 474.001 324.611 474.442 323.529C474.882 322.448 475.103 320.687 475.103 318.248C475.103 315.782 474.878 314.013 474.427 312.94C473.987 311.858 473.275 311.317 472.293 311.317C471.291 311.317 470.576 311.858 470.143 312.94C469.711 314.013 469.496 315.782 469.496 318.248Z" fill="white"/>
</svg>
