<svg width="576" height="733" viewBox="0 0 576 733" fill="none" xmlns="http://www.w3.org/2000/svg">
<path d="M128.619 177.962L287.957 55.3696" stroke="#FE5454" stroke-width="10"/>
<path d="M452.493 177.962L293.156 55.3697" stroke="#FE5454" stroke-width="10"/>
<path d="M289.704 505.693V58.7422" stroke="#42FF00" stroke-width="10"/>
<path d="M134.201 249.442C134.201 247.796 132.866 246.462 131.219 246.462C129.572 246.462 128.237 247.796 128.237 249.442H134.201ZM134.201 353.305V249.442H128.237V353.305H134.201Z" fill="black"/>
<path d="M411.55 0H169.562C162.974 0 157.633 5.33618 157.633 11.9187V46.8235C157.633 53.406 162.974 58.7422 169.562 58.7422H411.55C418.138 58.7422 423.479 53.406 423.479 46.8235V11.9187C423.479 5.33618 418.138 0 411.55 0Z" fill="white"/>
<path d="M253.917 174.524H11.929C5.34079 174.524 0 179.86 0 186.443V237.523C0 244.105 5.34079 249.441 11.929 249.441H253.917C260.505 249.441 265.846 244.105 265.846 237.523V186.443C265.846 179.86 260.505 174.524 253.917 174.524Z" fill="white"/>
<path d="M444.355 249.442C444.355 247.796 443.02 246.462 441.373 246.462C439.726 246.462 438.391 247.796 438.391 249.442H444.355ZM444.355 353.305V249.442H438.391V353.305H444.355Z" fill="black"/>
<path d="M240.284 353.304H25.5621C18.9739 353.304 13.6331 358.64 13.6331 365.223V400.128C13.6331 406.71 18.9739 412.046 25.5621 412.046H240.284C246.872 412.046 252.213 406.71 252.213 400.128V365.223C252.213 358.64 246.872 353.304 240.284 353.304Z" fill="white"/>
<path d="M189.466 34.6118C189.466 36.3678 188.832 37.7512 187.562 38.7621C186.302 39.7732 184.544 40.2786 182.29 40.2786C180.213 40.2786 178.376 39.8884 176.778 39.108V35.277C178.091 35.8623 179.201 36.2747 180.107 36.5141C181.021 36.7536 181.855 36.8733 182.609 36.8733C183.515 36.8733 184.208 36.7003 184.686 36.3544C185.175 36.0086 185.418 35.4943 185.418 34.8114C185.418 34.4301 185.312 34.0931 185.099 33.8004C184.886 33.499 184.571 33.2107 184.154 32.9358C183.746 32.6609 182.906 32.222 181.638 31.6189C180.448 31.0602 179.556 30.5237 178.961 30.0094C178.367 29.495 177.892 28.8964 177.537 28.2135C177.182 27.5307 177.004 26.7326 177.004 25.8192C177.004 24.0988 177.586 22.7464 178.748 21.762C179.92 20.7776 181.535 20.2855 183.595 20.2855C184.606 20.2855 185.569 20.4053 186.483 20.6447C187.407 20.8841 188.37 21.2211 189.373 21.6556L188.042 24.8614C187.003 24.4357 186.142 24.1387 185.458 23.9702C184.784 23.8017 184.118 23.7175 183.461 23.7175C182.681 23.7175 182.082 23.8992 181.664 24.2628C181.247 24.6264 181.039 25.1009 181.039 25.6862C181.039 26.0498 181.123 26.369 181.292 26.6439C181.46 26.91 181.726 27.1716 182.09 27.4288C182.463 27.677 183.338 28.1294 184.713 28.7856C186.533 29.6546 187.779 30.5282 188.454 31.4061C189.129 32.2752 189.466 33.3438 189.466 34.6118ZM190.544 25.1407H194.991L197.801 33.5078C198.04 34.235 198.204 35.0952 198.293 36.0884H198.372C198.47 35.175 198.661 34.3148 198.945 33.5078L201.701 25.1407H206.055L199.758 41.9148C199.18 43.4667 198.355 44.6284 197.281 45.3999C196.216 46.1715 194.969 46.5572 193.54 46.5572C192.839 46.5572 192.151 46.4819 191.477 46.3311V43.1119C191.965 43.2272 192.497 43.2849 193.074 43.2849C193.793 43.2849 194.419 43.0631 194.951 42.6198C195.492 42.1852 195.914 41.5245 196.216 40.6378L196.455 39.9061L190.544 25.1407ZM218.583 35.5962C218.583 37.1216 218.05 38.2833 216.985 39.0814C215.929 39.8796 214.344 40.2786 212.232 40.2786C211.149 40.2786 210.226 40.2033 209.463 40.0525C208.699 39.9106 207.985 39.6977 207.319 39.414V36.0618C208.074 36.4165 208.922 36.7136 209.863 36.953C210.812 37.1925 211.647 37.3122 212.365 37.3122C213.839 37.3122 214.575 36.8865 214.575 36.0352C214.575 35.7159 214.478 35.4588 214.282 35.2637C214.087 35.0597 213.75 34.8336 213.271 34.5853C212.791 34.3281 212.152 34.0311 211.354 33.694C210.208 33.2151 209.366 32.7718 208.824 32.3638C208.291 31.9559 207.901 31.4903 207.652 30.9671C207.413 30.435 207.293 29.7832 207.293 29.0117C207.293 27.6903 207.803 26.6705 208.824 25.9522C209.853 25.225 211.309 24.8614 213.191 24.8614C214.983 24.8614 216.728 25.2517 218.423 26.032L217.198 28.9585C216.452 28.6392 215.756 28.3776 215.108 28.1737C214.46 27.9697 213.799 27.8677 213.124 27.8677C211.926 27.8677 211.327 28.1914 211.327 28.8388C211.327 29.2024 211.518 29.5172 211.9 29.7832C212.29 30.0493 213.138 30.4439 214.442 30.9671C215.605 31.4371 216.457 31.8761 216.999 32.284C217.54 32.6919 217.939 33.1619 218.197 33.694C218.454 34.2261 218.583 34.8602 218.583 35.5962ZM228.022 37.0462C228.733 37.0462 229.585 36.891 230.578 36.5806V39.6002C229.567 40.0525 228.324 40.2786 226.85 40.2786C225.226 40.2786 224.042 39.8706 223.295 39.0548C222.559 38.23 222.191 36.9974 222.191 35.3568V28.187H220.247V26.471L222.483 25.1142L223.655 21.9749H226.251V25.1407H230.419V28.187H226.251V35.3568C226.251 35.9332 226.411 36.3589 226.731 36.6338C227.059 36.9088 227.489 37.0462 228.022 37.0462ZM239.765 27.748C238.904 27.748 238.23 28.0229 237.741 28.5727C237.253 29.1137 236.974 29.8852 236.902 30.8873H242.601C242.583 29.8852 242.321 29.1137 241.815 28.5727C241.309 28.0229 240.626 27.748 239.765 27.748ZM240.337 40.2786C237.941 40.2786 236.068 39.618 234.719 38.2966C233.369 36.9752 232.695 35.1041 232.695 32.6831C232.695 30.1911 233.317 28.2668 234.559 26.91C235.811 25.5443 237.537 24.8614 239.738 24.8614C241.842 24.8614 243.479 25.46 244.651 26.6572C245.822 27.8545 246.409 29.5083 246.409 31.6189V33.5876H236.809C236.854 34.7405 237.195 35.6406 237.834 36.288C238.473 36.9353 239.37 37.259 240.523 37.259C241.42 37.259 242.268 37.1659 243.067 36.9797C243.865 36.7935 244.699 36.4964 245.569 36.0884V39.2277C244.86 39.5825 244.1 39.8441 243.293 40.0126C242.485 40.1899 241.5 40.2786 240.337 40.2786ZM263.037 40.0126H258.977V31.3263C258.977 30.2533 258.794 29.4507 258.431 28.9186C258.075 28.3776 257.512 28.1071 256.739 28.1071C255.701 28.1071 254.946 28.4884 254.476 29.2512C254.006 30.0138 253.771 31.2687 253.771 33.0156V40.0126H249.71V25.1407H252.812L253.358 27.043H253.584C253.984 26.3601 254.56 25.828 255.315 25.4467C256.069 25.0565 256.935 24.8614 257.912 24.8614C260.139 24.8614 261.648 25.5886 262.438 27.043H262.797C263.197 26.3513 263.782 25.8147 264.554 25.4334C265.336 25.0521 266.214 24.8614 267.191 24.8614C268.877 24.8614 270.151 25.2959 271.011 26.1651C271.881 27.0253 272.317 28.4087 272.317 30.3153V40.0126H268.242V31.3263C268.242 30.2533 268.061 29.4507 267.697 28.9186C267.342 28.3776 266.778 28.1071 266.006 28.1071C265.012 28.1071 264.266 28.4619 263.769 29.1713C263.281 29.8808 263.037 31.007 263.037 32.5501V40.0126ZM295.815 40.0126L294.67 34.8114L293.126 28.2402H293.032L290.317 40.0126H285.95L281.716 25.1407H285.763L287.481 31.7253C287.756 32.9047 288.036 34.5321 288.32 36.6072H288.4C288.435 35.9332 288.59 34.8646 288.866 33.4014L289.079 32.2707L290.916 25.1407H295.389L297.133 32.2707C297.168 32.4658 297.222 32.7541 297.293 33.1354C297.373 33.5167 297.449 33.9247 297.519 34.3592C297.59 34.7848 297.652 35.2061 297.706 35.6229C297.768 36.0308 297.803 36.3589 297.812 36.6072H297.892C297.972 35.9687 298.114 35.0952 298.318 33.9867C298.522 32.8693 298.669 32.1156 298.757 31.7253L300.542 25.1407H304.523L300.235 40.0126H295.815ZM316.384 40.0126L315.599 37.9906H315.493C314.81 38.8508 314.103 39.4494 313.376 39.7864C312.657 40.1145 311.716 40.2786 310.553 40.2786C309.125 40.2786 307.997 39.8706 307.172 39.0548C306.355 38.239 305.946 37.0772 305.946 35.5696C305.946 33.9911 306.497 32.8294 307.598 32.0845C308.707 31.3307 310.375 30.9139 312.604 30.8341L315.186 30.7543V30.1025C315.186 28.5949 314.414 27.8411 312.87 27.8411C311.681 27.8411 310.283 28.2003 308.676 28.9186L307.332 26.1783C309.044 25.2827 310.944 24.8349 313.03 24.8349C315.027 24.8349 316.558 25.2694 317.623 26.1384C318.688 27.0075 319.221 28.3288 319.221 30.1025V40.0126H316.384ZM315.186 33.122L313.615 33.1753C312.435 33.2107 311.556 33.4236 310.98 33.8138C310.403 34.204 310.114 34.7981 310.114 35.5962C310.114 36.7402 310.771 37.3122 312.085 37.3122C313.025 37.3122 313.775 37.0417 314.334 36.5008C314.902 35.9599 315.186 35.2415 315.186 34.3459V33.122ZM327.475 40.0126H323.414V19.3145H327.475V40.0126ZM335.809 40.0126H331.749V19.3145H335.809V40.0126ZM346.247 27.748C345.386 27.748 344.711 28.0229 344.223 28.5727C343.735 29.1137 343.455 29.8852 343.385 30.8873H349.083C349.065 29.8852 348.803 29.1137 348.298 28.5727C347.792 28.0229 347.108 27.748 346.247 27.748ZM346.819 40.2786C344.423 40.2786 342.55 39.618 341.202 38.2966C339.852 36.9752 339.177 35.1041 339.177 32.6831C339.177 30.1911 339.799 28.2668 341.041 26.91C342.293 25.5443 344.019 24.8614 346.22 24.8614C348.324 24.8614 349.962 25.46 351.133 26.6572C352.305 27.8545 352.89 29.5083 352.89 31.6189V33.5876H343.292C343.336 34.7405 343.678 35.6406 344.317 36.288C344.956 36.9353 345.852 37.259 347.006 37.259C347.902 37.259 348.75 37.1659 349.549 36.9797C350.348 36.7935 351.182 36.4964 352.052 36.0884V39.2277C351.342 39.5825 350.583 39.8441 349.775 40.0126C348.967 40.1899 347.982 40.2786 346.819 40.2786ZM362.463 37.0462C363.173 37.0462 364.025 36.891 365.02 36.5806V39.6002C364.007 40.0525 362.765 40.2786 361.292 40.2786C359.667 40.2786 358.482 39.8706 357.737 39.0548C357 38.23 356.632 36.9974 356.632 35.3568V28.187H354.688V26.471L356.925 25.1142L358.096 21.9749H360.692V25.1407H364.859V28.187H360.692V35.3568C360.692 35.9332 360.852 36.3589 361.172 36.6338C361.5 36.9088 361.931 37.0462 362.463 37.0462ZM374.086 32.5501C374.086 30.2001 374.427 28.0007 375.111 25.9522C375.803 23.9037 376.798 22.1079 378.093 20.5648H381.422C380.17 22.2764 379.224 24.1564 378.585 26.2049C377.946 28.2535 377.628 30.3597 377.628 32.5234C377.628 34.6961 377.951 36.7979 378.599 38.8287C379.256 40.8506 380.188 42.6818 381.395 44.3224H378.093C376.788 42.8149 375.794 41.0546 375.111 39.0415C374.427 37.0285 374.086 34.8646 374.086 32.5501ZM396.599 40.0126L395.188 35.3834H388.092L386.68 40.0126H382.234L389.103 20.485H394.149L401.046 40.0126H396.599ZM394.203 31.9249C392.898 27.7302 392.161 25.3581 391.993 24.8082C391.833 24.2584 391.717 23.8239 391.647 23.5046C391.354 24.6397 390.514 27.4465 389.131 31.9249H394.203ZM409.207 32.5501C409.207 34.8824 408.861 37.055 408.168 39.0681C407.485 41.0811 406.496 42.8326 405.2 44.3224H401.898C403.096 42.6907 404.024 40.8639 404.681 38.842C405.337 36.8112 405.666 34.705 405.666 32.5234C405.666 30.3597 405.346 28.2535 404.707 26.2049C404.068 24.1564 403.122 22.2764 401.872 20.5648H405.2C406.504 22.1168 407.499 23.9215 408.182 25.9788C408.865 28.0274 409.207 30.2178 409.207 32.5501Z" fill="#001F4E"/>
<path d="M44.6139 208.285C44.6139 210.041 43.9793 211.424 42.7101 212.435C41.4497 213.446 39.6923 213.951 37.4379 213.951C35.361 213.951 33.5237 213.561 31.9261 212.781V208.95C33.2396 209.535 34.3491 209.947 35.2544 210.187C36.1686 210.427 37.003 210.546 37.7574 210.546C38.6627 210.546 39.355 210.373 39.8343 210.027C40.3225 209.682 40.5666 209.167 40.5666 208.485C40.5666 208.103 40.4601 207.766 40.2471 207.473C40.0341 207.172 39.719 206.883 39.3018 206.609C38.8935 206.334 38.0548 205.895 36.7855 205.292C35.5961 204.733 34.7042 204.196 34.1094 203.682C33.5148 203.168 33.0399 202.57 32.6849 201.887C32.3299 201.204 32.1524 200.405 32.1524 199.492C32.1524 197.771 32.7338 196.42 33.8964 195.435C35.068 194.45 36.6835 193.958 38.7427 193.958C39.7544 193.958 40.7175 194.078 41.6317 194.318C42.5547 194.557 43.5177 194.894 44.5207 195.329L43.1894 198.534C42.1509 198.109 41.2899 197.811 40.6065 197.643C39.932 197.474 39.2663 197.39 38.6095 197.39C37.8284 197.39 37.2293 197.572 36.8121 197.936C36.3949 198.299 36.1864 198.773 36.1864 199.359C36.1864 199.723 36.2707 200.042 36.4393 200.317C36.608 200.583 36.8742 200.845 37.2382 201.102C37.6109 201.35 38.4852 201.803 39.8609 202.458C41.6805 203.327 42.9275 204.201 43.6021 205.079C44.2766 205.948 44.6139 207.017 44.6139 208.285ZM45.6923 198.813H50.1391L52.9482 207.18C53.1879 207.908 53.3521 208.768 53.4409 209.762H53.5207C53.6184 208.848 53.8091 207.987 54.0932 207.18L56.8492 198.813H61.2027L54.9053 215.587C54.3284 217.139 53.503 218.301 52.429 219.073C51.3639 219.844 50.1169 220.231 48.6879 220.231C47.9867 220.231 47.2988 220.155 46.6243 220.004V216.785C47.1125 216.9 47.645 216.958 48.2219 216.958C48.9408 216.958 49.5666 216.736 50.0991 216.292C50.6405 215.858 51.0622 215.197 51.3639 214.31L51.6036 213.579L45.6923 198.813ZM73.7307 209.269C73.7307 210.794 73.1982 211.956 72.1331 212.754C71.077 213.553 69.4926 213.951 67.3802 213.951C66.2974 213.951 65.3743 213.876 64.6109 213.725C63.8477 213.583 63.1332 213.37 62.4675 213.087V209.734C63.2219 210.089 64.0695 210.387 65.0104 210.626C65.9601 210.866 66.7944 210.985 67.5133 210.985C68.9867 210.985 69.7234 210.559 69.7234 209.708C69.7234 209.389 69.6257 209.132 69.4305 208.937C69.2352 208.732 68.898 208.507 68.4187 208.258C67.9394 208.001 67.3003 207.704 66.5015 207.367C65.3565 206.888 64.5133 206.445 63.9719 206.037C63.4393 205.628 63.0488 205.164 62.8003 204.64C62.5607 204.108 62.4408 203.456 62.4408 202.685C62.4408 201.363 62.9512 200.343 63.9719 199.625C65.0015 198.898 66.4571 198.534 68.3387 198.534C70.1317 198.534 71.8758 198.924 73.5711 199.705L72.3461 202.632C71.6006 202.312 70.9038 202.05 70.2559 201.847C69.608 201.642 68.9468 201.54 68.2722 201.54C67.074 201.54 66.4748 201.865 66.4748 202.512C66.4748 202.875 66.6657 203.19 67.0473 203.456C67.4378 203.722 68.2855 204.116 69.5903 204.64C70.753 205.11 71.6051 205.549 72.1465 205.957C72.6879 206.365 73.0873 206.835 73.3447 207.367C73.6021 207.899 73.7307 208.533 73.7307 209.269ZM83.1701 210.719C83.8802 210.719 84.7322 210.564 85.726 210.254V213.273C84.7145 213.725 83.4719 213.951 81.9985 213.951C80.3742 213.951 79.1894 213.543 78.4438 212.728C77.7071 211.903 77.3387 210.67 77.3387 209.03V201.86H75.395V200.144L77.6317 198.787L78.8033 195.647H81.3994V198.813H85.5667V201.86H81.3994V209.03C81.3994 209.606 81.5592 210.032 81.8788 210.307C82.2071 210.581 82.6376 210.719 83.1701 210.719ZM94.913 201.421C94.0516 201.421 93.3776 201.696 92.8894 202.245C92.4011 202.787 92.1217 203.558 92.0501 204.56H97.7487C97.7308 203.558 97.4693 202.787 96.9631 202.245C96.457 201.696 95.7736 201.421 94.913 201.421ZM95.4848 213.951C93.0888 213.951 91.2159 213.29 89.8671 211.969C88.5174 210.648 87.8434 208.777 87.8434 206.356C87.8434 203.864 88.4646 201.94 89.7069 200.583C90.9586 199.217 92.6849 198.534 94.8858 198.534C96.9895 198.534 98.6272 199.133 99.7988 200.33C100.97 201.528 101.557 203.181 101.557 205.292V207.26H91.9572C92.0015 208.413 92.3432 209.314 92.9823 209.961C93.6213 210.608 94.5177 210.932 95.6714 210.932C96.5678 210.932 97.4156 210.839 98.2148 210.653C99.0132 210.467 99.8474 210.169 100.717 209.762V212.901C100.008 213.256 99.2484 213.517 98.4406 213.685C97.6329 213.863 96.6479 213.951 95.4848 213.951ZM118.185 213.685H114.125V204.999C114.125 203.926 113.942 203.124 113.579 202.592C113.223 202.05 112.66 201.78 111.887 201.78C110.849 201.78 110.094 202.162 109.624 202.924C109.154 203.687 108.919 204.941 108.919 206.688V213.685H104.858V198.813H107.96L108.506 200.716H108.732C109.132 200.033 109.708 199.501 110.463 199.12C111.217 198.729 112.083 198.534 113.06 198.534C115.287 198.534 116.796 199.261 117.586 200.716H117.945C118.345 200.024 118.93 199.488 119.702 199.106C120.484 198.725 121.362 198.534 122.339 198.534C124.025 198.534 125.299 198.969 126.159 199.838C127.029 200.698 127.465 202.082 127.465 203.988V213.685H123.39V204.999C123.39 203.926 123.209 203.124 122.845 202.592C122.489 202.05 121.926 201.78 121.154 201.78C120.16 201.78 119.414 202.135 118.917 202.845C118.429 203.554 118.185 204.68 118.185 206.223V213.685ZM130.327 208.045V204.72H137.477V208.045H130.327ZM140.752 194.238H146.809C149.569 194.238 151.571 194.633 152.814 195.422C154.065 196.202 154.691 197.448 154.691 199.16C154.691 200.321 154.416 201.275 153.865 202.02C153.324 202.765 152.601 203.212 151.695 203.363V203.496C152.929 203.771 153.817 204.285 154.358 205.039C154.908 205.793 155.183 206.795 155.183 208.045C155.183 209.819 154.54 211.202 153.253 212.196C151.975 213.189 150.235 213.685 148.034 213.685H140.752V194.238ZM144.878 201.94H147.275C148.393 201.94 149.201 201.767 149.699 201.421C150.204 201.075 150.457 200.503 150.457 199.705C150.457 198.96 150.182 198.428 149.631 198.109C149.09 197.781 148.23 197.617 147.049 197.617H144.878V201.94ZM144.878 205.212V210.28H147.568C148.704 210.28 149.543 210.063 150.085 209.628C150.626 209.194 150.897 208.529 150.897 207.633C150.897 206.019 149.743 205.212 147.435 205.212H144.878ZM161.986 206.223C161.986 207.695 162.227 208.808 162.706 209.562C163.194 210.316 163.984 210.692 165.075 210.692C166.158 210.692 166.935 210.32 167.406 209.575C167.884 208.821 168.124 207.704 168.124 206.223C168.124 204.751 167.884 203.647 167.406 202.911C166.926 202.175 166.14 201.807 165.049 201.807C163.966 201.807 163.185 202.175 162.706 202.911C162.227 203.638 161.986 204.742 161.986 206.223ZM172.279 206.223C172.279 208.644 171.639 210.537 170.361 211.903C169.083 213.268 167.303 213.951 165.022 213.951C163.593 213.951 162.333 213.641 161.241 213.021C160.149 212.391 159.311 211.491 158.725 210.32C158.139 209.15 157.846 207.784 157.846 206.223C157.846 203.793 158.481 201.904 159.75 200.556C161.019 199.209 162.804 198.534 165.102 198.534C166.531 198.534 167.792 198.845 168.883 199.466C169.975 200.086 170.814 200.978 171.399 202.14C171.985 203.301 172.279 204.662 172.279 206.223ZM183.914 198.534C185.671 198.534 187.047 199.221 188.042 200.596C189.035 201.962 189.533 203.837 189.533 206.223C189.533 208.68 189.017 210.581 187.988 211.93C186.967 213.278 185.574 213.951 183.808 213.951C182.059 213.951 180.688 213.318 179.694 212.049H179.414L178.736 213.685H175.633V192.988H179.694V197.803C179.694 198.414 179.64 199.395 179.534 200.743H179.694C180.643 199.271 182.05 198.534 183.914 198.534ZM182.609 201.78C181.606 201.78 180.874 202.09 180.412 202.711C179.951 203.323 179.711 204.339 179.694 205.758V206.196C179.694 207.793 179.929 208.937 180.4 209.628C180.878 210.32 181.633 210.666 182.663 210.666C183.497 210.666 184.158 210.284 184.646 209.522C185.143 208.75 185.392 207.633 185.392 206.17C185.392 204.706 185.143 203.612 184.646 202.884C184.15 202.148 183.47 201.78 182.609 201.78ZM198.932 206.223C198.932 203.873 199.274 201.674 199.957 199.625C200.649 197.576 201.643 195.781 202.939 194.238H206.268C205.016 195.95 204.071 197.829 203.432 199.878C202.793 201.927 202.473 204.032 202.473 206.196C202.473 208.369 202.797 210.471 203.446 212.501C204.102 214.523 205.034 216.354 206.241 217.995H202.939C201.635 216.488 200.641 214.727 199.957 212.714C199.274 210.702 198.932 208.537 198.932 206.223ZM209.529 194.238H215.588C218.347 194.238 220.349 194.633 221.591 195.422C222.843 196.202 223.469 197.448 223.469 199.16C223.469 200.321 223.194 201.275 222.644 202.02C222.102 202.765 221.378 203.212 220.473 203.363V203.496C221.707 203.771 222.595 204.285 223.136 205.039C223.687 205.793 223.962 206.795 223.962 208.045C223.962 209.819 223.318 211.202 222.031 212.196C220.753 213.189 219.013 213.685 216.812 213.685H209.529V194.238ZM213.657 201.94H216.053C217.172 201.94 217.979 201.767 218.476 201.421C218.982 201.075 219.235 200.503 219.235 199.705C219.235 198.96 218.96 198.428 218.41 198.109C217.869 197.781 217.007 197.617 215.827 197.617H213.657V201.94ZM213.657 205.212V210.28H216.346C217.483 210.28 218.321 210.063 218.862 209.628C219.404 209.194 219.674 208.529 219.674 207.633C219.674 206.019 218.52 205.212 216.213 205.212H213.657ZM233.548 206.223C233.548 208.555 233.202 210.728 232.509 212.741C231.826 214.754 230.835 216.505 229.54 217.995H226.238C227.436 216.364 228.364 214.537 229.021 212.515C229.677 210.484 230.006 208.378 230.006 206.196C230.006 204.032 229.686 201.927 229.047 199.878C228.408 197.829 227.463 195.95 226.211 194.238H229.54C230.845 195.79 231.839 197.594 232.523 199.652C233.206 201.7 233.548 203.891 233.548 206.223Z" fill="#001F4E"/>
<path d="M90.1465 239.225V227.071H92.7258V239.225H90.1465ZM104.176 239.225H101.638V233.796C101.638 233.125 101.518 232.624 101.28 232.291C101.041 231.953 100.661 231.784 100.14 231.784C99.4299 231.784 98.9169 232.023 98.6008 232.5C98.2847 232.97 98.1262 233.754 98.1262 234.852V239.225H95.5887V229.93H97.5272L97.868 231.12H98.0095C98.2923 230.67 98.6809 230.332 99.1751 230.105C99.6744 229.872 100.24 229.756 100.872 229.756C101.954 229.756 102.775 230.049 103.335 230.637C103.896 231.219 104.176 232.061 104.176 233.164V239.225ZM110.708 237.371C111.152 237.371 111.684 237.274 112.306 237.08V238.967C111.673 239.25 110.896 239.391 109.975 239.391C108.96 239.391 108.22 239.137 107.754 238.627C107.294 238.111 107.063 237.34 107.063 236.315V231.834H105.849V230.762L107.246 229.913L107.979 227.952H109.601V229.93H112.206V231.834H109.601V236.315C109.601 236.675 109.701 236.942 109.9 237.114C110.105 237.285 110.375 237.371 110.708 237.371ZM118.047 231.56C117.509 231.56 117.087 231.732 116.782 232.076C116.477 232.414 116.302 232.895 116.257 233.522H119.819C119.808 232.895 119.644 232.414 119.328 232.076C119.012 231.732 118.585 231.56 118.047 231.56ZM118.405 239.391C116.907 239.391 115.736 238.978 114.893 238.152C114.05 237.327 113.628 236.157 113.628 234.644C113.628 233.087 114.016 231.884 114.794 231.036C115.576 230.182 116.654 229.756 118.03 229.756C119.344 229.756 120.369 230.129 121.101 230.878C121.833 231.626 122.199 232.66 122.199 233.979V235.209H116.199C116.228 235.93 116.441 236.492 116.84 236.898C117.24 237.302 117.8 237.505 118.521 237.505C119.081 237.505 119.611 237.446 120.11 237.329C120.61 237.213 121.131 237.028 121.675 236.772V238.735C121.231 238.956 120.756 239.12 120.252 239.225C119.747 239.336 119.131 239.391 118.405 239.391ZM129.455 229.756C129.799 229.756 130.085 229.78 130.312 229.831L130.121 232.208C129.915 232.153 129.666 232.125 129.372 232.125C128.562 232.125 127.929 232.333 127.474 232.749C127.025 233.164 126.8 233.746 126.8 234.494V239.225H124.263V229.93H126.185L126.559 231.493H126.684C126.972 230.972 127.361 230.553 127.849 230.238C128.342 229.917 128.878 229.756 129.455 229.756ZM134.539 239.225H132.001V226.289H134.539V239.225ZM143.118 239.225L142.627 237.962H142.561C142.133 238.499 141.693 238.874 141.238 239.084C140.788 239.289 140.2 239.391 139.474 239.391C138.58 239.391 137.875 239.137 137.36 238.627C136.849 238.117 136.595 237.39 136.595 236.448C136.595 235.461 136.938 234.736 137.627 234.27C138.319 233.799 139.362 233.538 140.754 233.489L142.369 233.439V233.032C142.369 232.089 141.887 231.618 140.921 231.618C140.178 231.618 139.304 231.842 138.3 232.291L137.459 230.579C138.531 230.019 139.717 229.739 141.021 229.739C142.269 229.739 143.226 230.01 143.892 230.553C144.557 231.097 144.89 231.923 144.89 233.032V239.225H143.118ZM142.369 234.918L141.388 234.951C140.65 234.974 140.1 235.107 139.74 235.351C139.379 235.595 139.199 235.966 139.199 236.465C139.199 237.18 139.609 237.538 140.431 237.538C141.019 237.538 141.487 237.368 141.837 237.03C142.192 236.692 142.369 236.243 142.369 235.684V234.918ZM146.18 229.93H148.959L150.715 235.16C150.865 235.614 150.967 236.152 151.023 236.772H151.073C151.134 236.202 151.253 235.664 151.431 235.16L153.153 229.93H155.874L151.938 240.414C151.577 241.384 151.062 242.11 150.391 242.592C149.725 243.074 148.945 243.316 148.052 243.316C147.614 243.316 147.184 243.268 146.762 243.174V241.162C147.067 241.234 147.401 241.27 147.761 241.27C148.21 241.27 148.601 241.132 148.934 240.855C149.273 240.583 149.536 240.17 149.725 239.616L149.875 239.159L146.18 229.93ZM161.066 231.56C160.528 231.56 160.107 231.732 159.802 232.076C159.497 232.414 159.322 232.895 159.278 233.522H162.838C162.827 232.895 162.664 232.414 162.348 232.076C162.032 231.732 161.605 231.56 161.066 231.56ZM161.424 239.391C159.926 239.391 158.756 238.978 157.913 238.152C157.07 237.327 156.648 236.157 156.648 234.644C156.648 233.087 157.036 231.884 157.813 231.036C158.595 230.182 159.674 229.756 161.05 229.756C162.365 229.756 163.388 230.129 164.12 230.878C164.853 231.626 165.218 232.66 165.218 233.979V235.209H159.219C159.247 235.93 159.461 236.492 159.86 236.898C160.259 237.302 160.82 237.505 161.541 237.505C162.101 237.505 162.631 237.446 163.13 237.329C163.629 237.213 164.151 237.028 164.694 236.772V238.735C164.25 238.956 163.777 239.12 163.271 239.225C162.767 239.336 162.151 239.391 161.424 239.391ZM172.474 229.756C172.819 229.756 173.104 229.78 173.332 229.831L173.14 232.208C172.935 232.153 172.685 232.125 172.391 232.125C171.582 232.125 170.949 232.333 170.494 232.749C170.044 233.164 169.82 233.746 169.82 234.494V239.225H167.282V229.93H169.204L169.579 231.493H169.704C169.992 230.972 170.38 230.553 170.868 230.238C171.363 229.917 171.898 229.756 172.474 229.756Z" fill="#001F4E"/>
<path d="M108.959 373.869H115.016C117.777 373.869 119.778 374.264 121.021 375.053C122.272 375.834 122.898 377.079 122.898 378.791C122.898 379.953 122.622 380.906 122.073 381.651C121.531 382.396 120.807 382.844 119.903 382.994V383.127C121.136 383.402 122.023 383.916 122.565 384.671C123.116 385.424 123.39 386.426 123.39 387.677C123.39 389.45 122.747 390.833 121.46 391.827C120.182 392.82 118.442 393.317 116.241 393.317H108.959V373.869ZM113.086 381.571H115.482C116.601 381.571 117.409 381.398 117.905 381.052C118.411 380.707 118.665 380.135 118.665 379.336C118.665 378.591 118.389 378.059 117.839 377.74C117.297 377.412 116.436 377.248 115.256 377.248H113.086V381.571ZM113.086 384.843V389.911H115.775C116.911 389.911 117.75 389.694 118.291 389.259C118.833 388.825 119.103 388.16 119.103 387.265C119.103 385.651 117.95 384.843 115.642 384.843H113.086ZM130.194 385.854C130.194 387.327 130.433 388.44 130.913 389.193C131.401 389.947 132.191 390.324 133.283 390.324C134.366 390.324 135.142 389.951 135.612 389.207C136.092 388.452 136.331 387.335 136.331 385.854C136.331 384.382 136.092 383.278 135.612 382.542C135.133 381.806 134.348 381.438 133.256 381.438C132.173 381.438 131.392 381.806 130.913 382.542C130.433 383.269 130.194 384.374 130.194 385.854ZM140.485 385.854C140.485 388.275 139.846 390.169 138.568 391.534C137.29 392.9 135.51 393.582 133.229 393.582C131.8 393.582 130.54 393.273 129.448 392.652C128.357 392.022 127.518 391.122 126.932 389.951C126.346 388.781 126.054 387.415 126.054 385.854C126.054 383.424 126.688 381.535 127.957 380.188C129.226 378.84 131.01 378.166 133.309 378.166C134.738 378.166 135.998 378.476 137.091 379.097C138.182 379.718 139.021 380.609 139.607 381.771C140.192 382.932 140.485 384.294 140.485 385.854ZM152.121 378.166C153.879 378.166 155.254 378.853 156.249 380.228C157.243 381.593 157.74 383.469 157.74 385.854C157.74 388.311 157.225 390.213 156.195 391.561C155.175 392.909 153.781 393.582 152.015 393.582C150.266 393.582 148.895 392.949 147.901 391.681H147.621L146.942 393.317H143.84V372.619H147.901V377.434C147.901 378.046 147.848 379.026 147.741 380.374H147.901C148.851 378.902 150.258 378.166 152.121 378.166ZM150.817 381.412C149.814 381.412 149.082 381.722 148.62 382.342C148.158 382.954 147.919 383.97 147.901 385.389V385.828C147.901 387.424 148.136 388.568 148.606 389.259C149.086 389.952 149.84 390.297 150.869 390.297C151.704 390.297 152.366 389.916 152.854 389.153C153.351 388.382 153.599 387.265 153.599 385.801C153.599 384.338 153.351 383.243 152.854 382.515C152.356 381.78 151.677 381.412 150.817 381.412Z" fill="#001F4E"/>
<path d="M152.894 147.236L147.764 151.132L133.375 132.219L138.505 128.322L140.205 130.557L137.83 132.36L148.82 146.804L151.194 145.001L152.894 147.236ZM159.791 136.584L156.516 139.072L149.7 130.112L148.611 128.617L147.44 126.967C147.309 127.923 147.203 128.566 147.119 128.897L146.427 131.679L143.349 130.909L145.32 123.146L148.012 121.102L159.791 136.584ZM168.952 117.412C171.01 120.116 172.087 122.455 172.185 124.431C172.29 126.401 171.421 128.086 169.576 129.487C167.788 130.844 165.929 131.199 163.996 130.549C162.072 129.895 160.113 128.258 158.12 125.639C156.041 122.907 154.953 120.56 154.853 118.596C154.747 116.626 155.614 114.944 157.451 113.549C159.238 112.191 161.104 111.844 163.046 112.507C164.996 113.165 166.965 114.8 168.952 117.412ZM161.374 123.168C162.819 125.066 164.018 126.306 164.971 126.885C165.926 127.452 166.793 127.44 167.57 126.85C168.333 126.27 168.568 125.435 168.273 124.345C167.978 123.254 167.117 121.769 165.688 119.891C164.243 117.992 163.033 116.761 162.059 116.198C161.086 115.623 160.221 115.622 159.465 116.196C158.695 116.781 158.461 117.616 158.762 118.702C159.059 119.78 159.929 121.269 161.374 123.168ZM181.353 107.994C183.41 110.698 184.488 113.037 184.586 115.012C184.691 116.982 183.822 118.668 181.977 120.068C180.189 121.426 178.329 121.78 176.397 121.132C174.473 120.477 172.514 118.84 170.521 116.22C168.443 113.488 167.353 111.141 167.253 109.178C167.148 107.208 168.015 105.526 169.852 104.13C171.639 102.773 173.505 102.425 175.447 103.088C177.397 103.746 179.366 105.382 181.353 107.994ZM173.775 113.75C175.22 115.648 176.419 116.888 177.372 117.467C178.327 118.034 179.194 118.022 179.971 117.432C180.735 116.852 180.968 116.017 180.674 114.926C180.379 113.836 179.518 112.351 178.089 110.473C176.644 108.574 175.434 107.343 174.459 106.78C173.487 106.204 172.622 106.203 171.866 106.778C171.096 107.363 170.862 108.198 171.163 109.284C171.46 110.361 172.33 111.85 173.775 113.75ZM191.16 109.168C191.877 110.873 192.542 113.035 193.153 115.657L190.822 117.427C189.853 115.201 188.861 113.158 187.848 111.299L190.815 109.044L191.16 109.168ZM213.814 97.4432L216.177 95.6477L205.187 81.2031L202.824 82.9982L201.124 80.7638L206.254 76.8677L220.644 95.7814L215.513 99.6771L213.814 97.4432Z" fill="white"/>
<path d="M205.688 89.5109C207.746 92.2147 208.823 94.5542 208.921 96.5293C209.027 98.4993 208.157 100.185 206.313 101.585C204.525 102.943 202.665 103.297 200.733 102.649C198.808 101.994 196.849 100.357 194.857 97.7382C192.778 95.0054 191.689 92.6583 191.589 90.6951C191.484 88.7251 192.35 87.0429 194.187 85.6475C195.975 84.2898 197.84 83.9426 199.783 84.6058C201.733 85.2636 203.701 86.899 205.688 89.5109ZM198.11 95.2668C199.555 97.1653 200.754 98.4048 201.707 98.9837C202.663 99.5507 203.529 99.5388 204.306 98.9488C205.07 98.369 205.304 97.5339 205.009 96.4433C204.714 95.3528 203.853 93.868 202.424 91.99C200.979 90.0907 199.77 88.8596 198.795 88.2969C197.822 87.7214 196.957 87.7205 196.201 88.2952C195.431 88.88 195.197 89.7152 195.498 90.8007C195.795 91.8785 196.666 93.3674 198.11 95.2668Z" fill="#FE5454"/>
<path d="M118.624 317.548H114.511V306.294L114.551 304.445L114.617 302.423C113.934 303.106 113.458 303.554 113.193 303.767L110.956 305.563L108.972 303.089L115.243 298.1H118.624V317.548ZM137.529 307.824C137.529 311.221 136.97 313.735 135.853 315.367C134.742 316.998 133.03 317.814 130.713 317.814C128.468 317.814 126.772 316.972 125.628 315.287C124.491 313.602 123.924 311.114 123.924 307.824C123.924 304.392 124.478 301.865 125.588 300.242C126.697 298.61 128.405 297.794 130.713 297.794C132.959 297.794 134.654 298.646 135.799 300.348C136.953 302.051 137.529 304.543 137.529 307.824ZM128.01 307.824C128.01 310.209 128.215 311.922 128.623 312.958C129.04 313.988 129.736 314.502 130.713 314.502C131.671 314.502 132.364 313.978 132.79 312.932C133.216 311.886 133.429 310.183 133.429 307.824C133.429 305.439 133.212 303.727 132.777 302.69C132.351 301.643 131.663 301.12 130.713 301.12C129.746 301.12 129.053 301.643 128.636 302.69C128.219 303.727 128.01 305.439 128.01 307.824ZM153.107 307.824C153.107 311.221 152.547 313.735 151.429 315.367C150.32 316.998 148.606 317.814 146.29 317.814C144.044 317.814 142.349 316.972 141.204 315.287C140.068 313.602 139.5 311.114 139.5 307.824C139.5 304.392 140.055 301.865 141.164 300.242C142.274 298.61 143.982 297.794 146.29 297.794C148.536 297.794 150.23 298.646 151.376 300.348C152.529 302.051 153.107 304.543 153.107 307.824ZM143.588 307.824C143.588 310.209 143.791 311.922 144.199 312.958C144.617 313.988 145.314 314.502 146.29 314.502C147.248 314.502 147.941 313.978 148.367 312.932C148.793 311.886 149.006 310.183 149.006 307.824C149.006 305.439 148.789 303.727 148.353 302.69C147.927 301.643 147.24 301.12 146.29 301.12C145.322 301.12 144.631 301.643 144.213 302.69C143.796 303.727 143.588 305.439 143.588 307.824Z" fill="white"/>
<path d="M564.071 174.524H322.083C315.495 174.524 310.154 179.86 310.154 186.443V237.523C310.154 244.105 315.495 249.441 322.083 249.441H564.071C570.659 249.441 576 244.105 576 237.523V186.443C576 179.86 570.659 174.524 564.071 174.524Z" fill="white"/>
<path d="M550.438 353.304H335.716C329.128 353.304 323.787 358.64 323.787 365.223V400.128C323.787 406.71 329.128 412.046 335.716 412.046H550.438C557.026 412.046 562.367 406.71 562.367 400.128V365.223C562.367 358.64 557.026 353.304 550.438 353.304Z" fill="white"/>
<path d="M342.838 208.285C342.838 210.041 342.204 211.424 340.935 212.435C339.675 213.446 337.917 213.951 335.663 213.951C333.586 213.951 331.749 213.561 330.151 212.781V208.95C331.464 209.535 332.574 209.947 333.479 210.187C334.394 210.427 335.228 210.546 335.982 210.546C336.888 210.546 337.58 210.373 338.059 210.027C338.547 209.682 338.791 209.167 338.791 208.485C338.791 208.103 338.685 207.766 338.472 207.473C338.259 207.172 337.944 206.883 337.527 206.609C337.118 206.334 336.279 205.895 335.01 205.292C333.821 204.733 332.929 204.196 332.334 203.682C331.739 203.168 331.265 202.57 330.909 201.887C330.555 201.204 330.377 200.405 330.377 199.492C330.377 197.771 330.959 196.42 332.121 195.435C333.293 194.45 334.908 193.958 336.968 193.958C337.979 193.958 338.942 194.078 339.856 194.318C340.78 194.557 341.743 194.894 342.746 195.329L341.415 198.534C340.376 198.109 339.515 197.811 338.831 197.643C338.157 197.474 337.491 197.39 336.834 197.39C336.053 197.39 335.454 197.572 335.037 197.936C334.62 198.299 334.411 198.773 334.411 199.359C334.411 199.723 334.496 200.042 334.665 200.317C334.833 200.583 335.099 200.845 335.463 201.102C335.836 201.35 336.71 201.803 338.086 202.458C339.906 203.327 341.152 204.201 341.827 205.079C342.502 205.948 342.838 207.017 342.838 208.285ZM343.917 198.813H348.364L351.173 207.18C351.413 207.908 351.577 208.768 351.666 209.762H351.745C351.843 208.848 352.034 207.987 352.318 207.18L355.074 198.813H359.427L353.131 215.587C352.553 217.139 351.728 218.301 350.654 219.073C349.589 219.844 348.342 220.231 346.913 220.231C346.212 220.231 345.523 220.155 344.849 220.004V216.785C345.338 216.9 345.87 216.958 346.447 216.958C347.166 216.958 347.792 216.736 348.324 216.292C348.865 215.858 349.287 215.197 349.589 214.31L349.828 213.579L343.917 198.813ZM371.955 209.269C371.955 210.794 371.423 211.956 370.358 212.754C369.302 213.553 367.717 213.951 365.605 213.951C364.522 213.951 363.599 213.876 362.836 213.725C362.072 213.583 361.358 213.37 360.692 213.087V209.734C361.447 210.089 362.295 210.387 363.235 210.626C364.185 210.866 365.02 210.985 365.738 210.985C367.212 210.985 367.948 210.559 367.948 209.708C367.948 209.389 367.851 209.132 367.655 208.937C367.46 208.732 367.122 208.507 366.644 208.258C366.164 208.001 365.525 207.704 364.726 207.367C363.581 206.888 362.739 206.445 362.197 206.037C361.664 205.628 361.274 205.164 361.025 204.64C360.786 204.108 360.665 203.456 360.665 202.685C360.665 201.363 361.176 200.343 362.197 199.625C363.226 198.898 364.682 198.534 366.564 198.534C368.356 198.534 370.1 198.924 371.796 199.705L370.571 202.632C369.825 202.312 369.129 202.05 368.481 201.847C367.833 201.642 367.172 201.54 366.497 201.54C365.299 201.54 364.7 201.865 364.7 202.512C364.7 202.875 364.891 203.19 365.273 203.456C365.663 203.722 366.511 204.116 367.815 204.64C368.977 205.11 369.829 205.549 370.371 205.957C370.912 206.365 371.312 206.835 371.569 207.367C371.827 207.899 371.955 208.533 371.955 209.269ZM381.395 210.719C382.105 210.719 382.957 210.564 383.951 210.254V213.273C382.939 213.725 381.697 213.951 380.223 213.951C378.599 213.951 377.415 213.543 376.668 212.728C375.932 211.903 375.564 210.67 375.564 209.03V201.86H373.62V200.144L375.856 198.787L377.028 195.647H379.624V198.813H383.792V201.86H379.624V209.03C379.624 209.606 379.784 210.032 380.104 210.307C380.432 210.581 380.862 210.719 381.395 210.719ZM393.138 201.421C392.276 201.421 391.602 201.696 391.114 202.245C390.626 202.787 390.347 203.558 390.275 204.56H395.974C395.956 203.558 395.694 202.787 395.188 202.245C394.682 201.696 393.998 201.421 393.138 201.421ZM393.71 213.951C391.314 213.951 389.441 213.29 388.092 211.969C386.742 210.648 386.068 208.777 386.068 206.356C386.068 203.864 386.689 201.94 387.932 200.583C389.183 199.217 390.91 198.534 393.111 198.534C395.214 198.534 396.852 199.133 398.024 200.33C399.195 201.528 399.781 203.181 399.781 205.292V207.26H390.182C390.226 208.413 390.568 209.314 391.207 209.961C391.846 210.608 392.743 210.932 393.896 210.932C394.793 210.932 395.64 210.839 396.44 210.653C397.238 210.467 398.072 210.169 398.942 209.762V212.901C398.232 213.256 397.473 213.517 396.665 213.685C395.858 213.863 394.873 213.951 393.71 213.951ZM416.41 213.685H412.35V204.999C412.35 203.926 412.167 203.124 411.803 202.592C411.448 202.05 410.885 201.78 410.112 201.78C409.074 201.78 408.319 202.162 407.849 202.924C407.379 203.687 407.143 204.941 407.143 206.688V213.685H403.082V198.813H406.185L406.731 200.716H406.957C407.356 200.033 407.933 199.501 408.688 199.12C409.442 198.729 410.308 198.534 411.284 198.534C413.512 198.534 415.021 199.261 415.811 200.716H416.17C416.57 200.024 417.155 199.488 417.927 199.106C418.709 198.725 419.587 198.534 420.564 198.534C422.25 198.534 423.524 198.969 424.384 199.838C425.254 200.698 425.69 202.082 425.69 203.988V213.685H421.615V204.999C421.615 203.926 421.433 203.124 421.07 202.592C420.714 202.05 420.151 201.78 419.379 201.78C418.385 201.78 417.639 202.135 417.142 202.845C416.654 203.554 416.41 204.68 416.41 206.223V213.685ZM428.552 208.045V204.72H435.701V208.045H428.552ZM447.244 197.39C445.691 197.39 444.488 197.976 443.636 199.146C442.784 200.308 442.358 201.931 442.358 204.015C442.358 208.351 443.987 210.519 447.244 210.519C448.611 210.519 450.267 210.178 452.21 209.495V212.954C450.613 213.619 448.828 213.951 446.858 213.951C444.027 213.951 441.861 213.095 440.361 211.384C438.861 209.664 438.111 207.198 438.111 203.988C438.111 201.966 438.479 200.197 439.216 198.681C439.952 197.155 441.009 195.99 442.385 195.183C443.769 194.366 445.389 193.958 447.244 193.958C449.134 193.958 451.034 194.415 452.942 195.329L451.611 198.681C450.883 198.335 450.151 198.034 449.415 197.776C448.678 197.519 447.954 197.39 447.244 197.39ZM460.105 213.685H456.045V192.988H460.105V213.685ZM473.832 213.685L473.046 211.664H472.939C472.256 212.523 471.551 213.123 470.822 213.459C470.104 213.788 469.163 213.951 468 213.951C466.571 213.951 465.444 213.543 464.618 212.728C463.802 211.912 463.394 210.75 463.394 209.242C463.394 207.664 463.944 206.502 465.044 205.758C466.154 205.004 467.823 204.586 470.05 204.507L472.634 204.427V203.775C472.634 202.268 471.861 201.514 470.317 201.514C469.127 201.514 467.729 201.873 466.123 202.592L464.778 199.851C466.491 198.956 468.39 198.508 470.476 198.508C472.473 198.508 474.005 198.942 475.07 199.811C476.135 200.68 476.667 202.002 476.667 203.775V213.685H473.832ZM472.634 206.795L471.062 206.848C469.881 206.883 469.003 207.096 468.426 207.487C467.849 207.877 467.56 208.471 467.56 209.269C467.56 210.413 468.217 210.985 469.531 210.985C470.472 210.985 471.222 210.714 471.781 210.174C472.349 209.633 472.634 208.915 472.634 208.019V206.795ZM491.406 213.685L490.859 211.784H490.646C490.212 212.475 489.595 213.011 488.796 213.393C487.997 213.765 487.087 213.951 486.066 213.951C484.318 213.951 483 213.486 482.112 212.555C481.225 211.615 480.781 210.266 480.781 208.511V198.813H484.842V207.5C484.842 208.573 485.033 209.38 485.415 209.921C485.795 210.453 486.404 210.719 487.238 210.719C488.374 210.719 489.195 210.342 489.701 209.589C490.207 208.826 490.46 207.566 490.46 205.811V198.813H494.521V213.685H491.406ZM509.165 209.269C509.165 210.794 508.634 211.956 507.568 212.754C506.512 213.553 504.928 213.951 502.815 213.951C501.733 213.951 500.809 213.876 500.046 213.725C499.283 213.583 498.568 213.37 497.903 213.087V209.734C498.657 210.089 499.504 210.387 500.445 210.626C501.395 210.866 502.229 210.985 502.949 210.985C504.422 210.985 505.158 210.559 505.158 209.708C505.158 209.389 505.061 209.132 504.866 208.937C504.67 208.732 504.333 208.507 503.853 208.258C503.375 208.001 502.736 207.704 501.936 207.367C500.791 206.888 499.948 206.445 499.406 206.037C498.874 205.628 498.484 205.164 498.235 204.64C497.995 204.108 497.875 203.456 497.875 202.685C497.875 201.363 498.386 200.343 499.406 199.625C500.437 198.898 501.892 198.534 503.773 198.534C505.567 198.534 507.31 198.924 509.006 199.705L507.781 202.632C507.035 202.312 506.339 202.05 505.691 201.847C505.043 201.642 504.382 201.54 503.707 201.54C502.509 201.54 501.91 201.865 501.91 202.512C501.91 202.875 502.101 203.19 502.482 203.456C502.873 203.722 503.721 204.116 505.025 204.64C506.188 205.11 507.04 205.549 507.581 205.957C508.123 206.365 508.522 206.835 508.779 207.367C509.037 207.899 509.165 208.533 509.165 209.269ZM518.379 206.223C518.379 203.873 518.72 201.674 519.404 199.625C520.096 197.576 521.09 195.781 522.386 194.238H525.714C524.463 195.95 523.518 197.829 522.878 199.878C522.239 201.927 521.92 204.032 521.92 206.196C521.92 208.369 522.244 210.471 522.892 212.501C523.549 214.523 524.48 216.354 525.688 217.995H522.386C521.081 216.488 520.087 214.727 519.404 212.714C518.72 210.702 518.379 208.537 518.379 206.223ZM537.244 197.39C535.691 197.39 534.488 197.976 533.636 199.146C532.784 200.308 532.358 201.931 532.358 204.015C532.358 208.351 533.987 210.519 537.244 210.519C538.611 210.519 540.266 210.178 542.21 209.495V212.954C540.613 213.619 538.828 213.951 536.858 213.951C534.027 213.951 531.861 213.095 530.361 211.384C528.861 209.664 528.111 207.198 528.111 203.988C528.111 201.966 528.479 200.197 529.216 198.681C529.952 197.155 531.009 195.99 532.384 195.183C533.77 194.366 535.389 193.958 537.244 193.958C539.134 193.958 541.034 194.415 542.942 195.329L541.611 198.681C540.883 198.335 540.151 198.034 539.414 197.776C538.678 197.519 537.954 197.39 537.244 197.39ZM552.062 206.223C552.062 208.555 551.716 210.728 551.024 212.741C550.34 214.754 549.351 216.505 548.055 217.995H544.753C545.951 216.364 546.879 214.537 547.536 212.515C548.193 210.484 548.521 208.378 548.521 206.196C548.521 204.032 548.201 201.927 547.562 199.878C546.923 197.829 545.978 195.95 544.726 194.238H548.055C549.359 195.79 550.354 197.594 551.037 199.652C551.72 201.7 552.062 203.891 552.062 206.223Z" fill="#001F4E"/>
<path d="M400.3 239.225V227.071H402.88V239.225H400.3ZM414.33 239.225H411.791V233.796C411.791 233.125 411.672 232.624 411.434 232.291C411.195 231.953 410.815 231.784 410.294 231.784C409.584 231.784 409.071 232.023 408.755 232.5C408.439 232.97 408.28 233.754 408.28 234.852V239.225H405.743V229.93H407.681L408.022 231.12H408.163C408.446 230.67 408.835 230.332 409.329 230.105C409.828 229.872 410.394 229.756 411.026 229.756C412.108 229.756 412.929 230.049 413.489 230.637C414.049 231.219 414.33 232.061 414.33 233.164V239.225ZM420.862 237.371C421.306 237.371 421.838 237.274 422.459 237.08V238.967C421.827 239.25 421.05 239.391 420.129 239.391C419.114 239.391 418.374 239.137 417.908 238.627C417.447 238.111 417.217 237.34 417.217 236.315V231.834H416.002V230.762L417.4 229.913L418.133 227.952H419.755V229.93H422.36V231.834H419.755V236.315C419.755 236.675 419.855 236.942 420.054 237.114C420.259 237.285 420.529 237.371 420.862 237.371ZM428.201 231.56C427.663 231.56 427.241 231.732 426.936 232.076C426.631 232.414 426.456 232.895 426.411 233.522H429.973C429.962 232.895 429.798 232.414 429.482 232.076C429.166 231.732 428.739 231.56 428.201 231.56ZM428.559 239.391C427.061 239.391 425.89 238.978 425.047 238.152C424.204 237.327 423.782 236.157 423.782 234.644C423.782 233.087 424.17 231.884 424.947 231.036C425.73 230.182 426.808 229.756 428.184 229.756C429.498 229.756 430.523 230.129 431.254 230.878C431.986 231.626 432.353 232.66 432.353 233.979V235.209H426.353C426.381 235.93 426.594 236.492 426.994 236.898C427.394 237.302 427.954 237.505 428.675 237.505C429.235 237.505 429.765 237.446 430.264 237.329C430.764 237.213 431.285 237.028 431.829 236.772V238.735C431.385 238.956 430.91 239.12 430.406 239.225C429.901 239.336 429.285 239.391 428.559 239.391ZM439.609 229.756C439.952 229.756 440.239 229.78 440.466 229.831L440.274 232.208C440.069 232.153 439.819 232.125 439.525 232.125C438.716 232.125 438.083 232.333 437.628 232.749C437.179 233.164 436.954 233.746 436.954 234.494V239.225H434.416V229.93H436.339L436.713 231.493H436.838C437.126 230.972 437.515 230.553 438.003 230.238C438.496 229.917 439.032 229.756 439.609 229.756ZM444.692 239.225H442.155V226.289H444.692V239.225ZM453.272 239.225L452.781 237.962H452.715C452.287 238.499 451.846 238.874 451.391 239.084C450.942 239.289 450.354 239.391 449.628 239.391C448.734 239.391 448.029 239.137 447.514 238.627C447.003 238.117 446.749 237.39 446.749 236.448C446.749 235.461 447.092 234.736 447.78 234.27C448.473 233.799 449.516 233.538 450.908 233.489L452.523 233.439V233.032C452.523 232.089 452.041 231.618 451.075 231.618C450.331 231.618 449.458 231.842 448.454 232.291L447.613 230.579C448.684 230.019 449.871 229.739 451.175 229.739C452.423 229.739 453.38 230.01 454.046 230.553C454.711 231.097 455.044 231.923 455.044 233.032V239.225H453.272ZM452.523 234.918L451.541 234.951C450.804 234.974 450.254 235.107 449.894 235.351C449.533 235.595 449.352 235.966 449.352 236.465C449.352 237.18 449.763 237.538 450.585 237.538C451.172 237.538 451.641 237.368 451.99 237.03C452.346 236.692 452.523 236.243 452.523 235.684V234.918ZM456.334 229.93H459.113L460.869 235.16C461.019 235.614 461.121 236.152 461.177 236.772H461.227C461.287 236.202 461.407 235.664 461.585 235.16L463.307 229.93H466.028L462.092 240.414C461.731 241.384 461.216 242.11 460.544 242.592C459.879 243.074 459.099 243.316 458.206 243.316C457.768 243.316 457.338 243.268 456.916 243.174V241.162C457.221 241.234 457.554 241.27 457.915 241.27C458.364 241.27 458.755 241.132 459.088 240.855C459.426 240.583 459.69 240.17 459.879 239.616L460.029 239.159L456.334 229.93ZM471.22 231.56C470.682 231.56 470.261 231.732 469.956 232.076C469.65 232.414 469.476 232.895 469.431 233.522H472.992C472.981 232.895 472.818 232.414 472.502 232.076C472.185 231.732 471.758 231.56 471.22 231.56ZM471.578 239.391C470.08 239.391 468.91 238.978 468.066 238.152C467.224 237.327 466.802 236.157 466.802 234.644C466.802 233.087 467.19 231.884 467.967 231.036C468.749 230.182 469.828 229.756 471.204 229.756C472.519 229.756 473.542 230.129 474.274 230.878C475.007 231.626 475.372 232.66 475.372 233.979V235.209H469.373C469.401 235.93 469.615 236.492 470.013 236.898C470.413 237.302 470.974 237.505 471.695 237.505C472.254 237.505 472.784 237.446 473.284 237.329C473.783 237.213 474.304 237.028 474.848 236.772V238.735C474.404 238.956 473.93 239.12 473.425 239.225C472.921 239.336 472.305 239.391 471.578 239.391ZM482.628 229.756C482.973 229.756 483.258 229.78 483.486 229.831L483.294 232.208C483.088 232.153 482.839 232.125 482.545 232.125C481.735 232.125 481.103 232.333 480.648 232.749C480.198 233.164 479.974 233.746 479.974 234.494V239.225H477.436V229.93H479.358L479.733 231.493H479.857C480.146 230.972 480.534 230.553 481.022 230.238C481.516 229.917 482.052 229.756 482.628 229.756Z" fill="#001F4E"/>
<path d="M414.599 377.021C413.046 377.021 411.843 377.607 410.991 378.778C410.139 379.939 409.713 381.562 409.713 383.646C409.713 387.982 411.342 390.151 414.599 390.151C415.966 390.151 417.621 389.809 419.565 389.127V392.586C417.967 393.25 416.184 393.582 414.213 393.582C411.382 393.582 409.216 392.727 407.716 391.016C406.216 389.295 405.466 386.83 405.466 383.619C405.466 381.597 405.835 379.828 406.571 378.312C407.308 376.786 408.364 375.621 409.74 374.814C411.124 373.997 412.744 373.59 414.599 373.59C416.49 373.59 418.389 374.047 420.298 374.96L418.966 378.312C418.238 377.966 417.506 377.665 416.769 377.407C416.032 377.15 415.309 377.021 414.599 377.021ZM427.46 393.317H423.399V372.619H427.46V393.317ZM441.186 393.317L440.401 391.295H440.294C439.611 392.155 438.905 392.754 438.178 393.09C437.458 393.419 436.518 393.582 435.355 393.582C433.926 393.582 432.799 393.175 431.974 392.359C431.156 391.543 430.748 390.381 430.748 388.874C430.748 387.295 431.299 386.133 432.4 385.389C433.509 384.635 435.177 384.218 437.406 384.139L439.988 384.059V383.406C439.988 381.9 439.216 381.145 437.671 381.145C436.482 381.145 435.085 381.505 433.478 382.223L432.133 379.483C433.846 378.587 435.746 378.139 437.832 378.139C439.829 378.139 441.359 378.573 442.424 379.443C443.489 380.312 444.022 381.633 444.022 383.406V393.317H441.186ZM439.988 386.426L438.417 386.48C437.237 386.515 436.358 386.727 435.782 387.118C435.204 387.508 434.916 388.102 434.916 388.9C434.916 390.044 435.573 390.616 436.886 390.616C437.827 390.616 438.577 390.346 439.136 389.805C439.704 389.264 439.988 388.546 439.988 387.65V386.426ZM458.76 393.317L458.215 391.415H458.002C457.566 392.106 456.95 392.643 456.151 393.024C455.352 393.397 454.443 393.582 453.422 393.582C451.673 393.582 450.355 393.118 449.467 392.186C448.58 391.246 448.137 389.898 448.137 388.142V378.445H452.197V387.131C452.197 388.205 452.388 389.012 452.769 389.552C453.151 390.084 453.759 390.351 454.594 390.351C455.729 390.351 456.55 389.974 457.056 389.22C457.562 388.457 457.815 387.197 457.815 385.442V378.445H461.875V393.317H458.76ZM476.521 388.9C476.521 390.426 475.988 391.588 474.923 392.385C473.867 393.184 472.283 393.582 470.17 393.582C469.087 393.582 468.164 393.508 467.401 393.357C466.638 393.215 465.923 393.002 465.257 392.718V389.366C466.012 389.721 466.859 390.018 467.801 390.257C468.75 390.497 469.584 390.616 470.303 390.616C471.776 390.616 472.513 390.191 472.513 389.339C472.513 389.02 472.415 388.763 472.22 388.568C472.025 388.364 471.688 388.138 471.209 387.89C470.729 387.632 470.09 387.335 469.292 386.998C468.147 386.52 467.303 386.076 466.762 385.668C466.229 385.26 465.839 384.795 465.59 384.271C465.351 383.739 465.231 383.087 465.231 382.316C465.231 380.995 465.741 379.975 466.762 379.256C467.791 378.529 469.247 378.166 471.129 378.166C472.922 378.166 474.666 378.556 476.361 379.336L475.136 382.263C474.391 381.944 473.694 381.682 473.046 381.478C472.398 381.274 471.736 381.172 471.062 381.172C469.864 381.172 469.265 381.496 469.265 382.143C469.265 382.507 469.455 382.822 469.837 383.087C470.228 383.354 471.075 383.748 472.381 384.271C473.543 384.741 474.395 385.181 474.937 385.588C475.478 385.996 475.877 386.466 476.135 386.998C476.392 387.53 476.521 388.165 476.521 388.9Z" fill="#001F4E"/>
<path d="M367.061 103.88L361.932 99.9817L376.329 81.0742L381.458 84.9723L379.757 87.2057L377.383 85.4017L366.388 99.8421L368.762 101.646L367.061 103.88ZM389.206 111.705C387.754 112.851 385.845 114.069 383.481 115.359L381.149 113.586C383.038 112.058 384.744 110.558 386.266 109.085L389.233 111.34L389.206 111.705ZM408.576 114.41C410.074 115.548 410.944 116.873 411.187 118.384C411.438 119.9 411.007 121.389 409.895 122.85C408.578 124.579 407.032 125.505 405.256 125.626C403.479 125.746 401.599 125.052 399.614 123.543C397.891 122.233 396.711 120.896 396.076 119.533L398.228 116.707C398.56 117.427 399.026 118.165 399.622 118.92C400.224 119.667 400.857 120.293 401.521 120.798C403.52 122.317 405.143 122.258 406.389 120.621C407.577 119.061 407.137 117.495 405.067 115.921C404.692 115.637 404.25 115.361 403.739 115.095C403.232 114.822 402.806 114.62 402.459 114.49L401.688 112.801L408.276 105.357L416.678 111.744L414.567 114.517L409.035 110.314L406.436 113.134L406.863 113.342C407.369 113.571 407.94 113.927 408.576 114.41ZM424.444 129.864C422.386 132.567 420.417 134.23 418.538 134.852C416.666 135.48 414.809 135.092 412.965 133.691C411.178 132.333 410.339 130.637 410.449 128.604C410.566 126.575 411.621 124.252 413.615 121.633C415.695 118.902 417.667 117.226 419.534 116.606C421.406 115.978 423.26 116.362 425.097 117.758C426.884 119.117 427.717 120.82 427.596 122.867C427.483 124.921 426.433 127.253 424.444 129.864ZM416.868 124.106C415.422 126.004 414.548 127.49 414.244 128.563C413.952 129.634 414.195 130.465 414.972 131.055C415.735 131.635 416.603 131.638 417.576 131.062C418.549 130.488 419.751 129.261 421.18 127.384C422.626 125.485 423.49 123.992 423.772 122.903C424.068 121.813 423.837 120.98 423.081 120.405C422.312 119.82 421.444 119.817 420.477 120.398C419.516 120.971 418.313 122.208 416.868 124.106ZM418.965 139.806L421.328 141.603L432.323 127.162L429.96 125.366L431.661 123.132L436.789 127.03L422.392 145.939L417.264 142.04L418.965 139.806Z" fill="white"/>
<path d="M387.719 101.949C385.66 104.652 383.692 106.315 381.813 106.937C379.941 107.564 378.083 107.177 376.24 105.776C374.453 104.418 373.613 102.721 373.723 100.688C373.84 98.6595 374.896 96.3362 376.89 93.7175C378.97 90.9864 380.942 89.311 382.809 88.6903C384.68 88.0629 386.535 88.4469 388.371 89.843C390.158 91.2018 390.991 92.9045 390.871 94.9519C390.758 97.0053 389.707 99.338 387.719 101.949ZM380.142 96.1906C378.697 98.0891 377.822 99.5747 377.519 100.647C377.227 101.718 377.47 102.549 378.247 103.14C379.01 103.72 379.878 103.722 380.851 103.147C381.824 102.572 383.025 101.345 384.455 99.4683C385.9 97.5698 386.764 96.0765 387.047 94.9877C387.342 93.8971 387.112 93.0645 386.356 92.4899C385.586 91.9041 384.718 91.9024 383.752 92.4822C382.791 93.056 381.588 94.2921 380.142 96.1906Z" fill="#FE5454"/>
<path d="M298.171 275.66V269.221H321.95V275.66H319.141V272.68H300.98V275.66H298.171ZM305.347 313.571C303.555 313.109 301.429 312.329 298.97 311.229V308.303C301.331 308.88 303.559 309.328 305.654 309.647V313.371L305.347 313.571ZM312.218 337.022C308.818 337.022 306.302 336.464 304.668 335.346C303.036 334.238 302.219 332.527 302.219 330.212C302.219 327.968 303.062 326.274 304.748 325.13C306.435 323.995 308.924 323.427 312.218 323.427C315.652 323.427 318.182 323.982 319.806 325.09C321.44 326.199 322.256 327.906 322.256 330.212C322.256 332.455 321.404 334.149 319.7 335.293C317.995 336.446 315.501 337.022 312.218 337.022ZM312.218 327.511C309.83 327.511 308.117 327.716 307.079 328.123C306.049 328.54 305.534 329.236 305.534 330.212C305.534 331.169 306.058 331.861 307.105 332.286C308.152 332.712 309.856 332.925 312.218 332.925C314.605 332.925 316.318 332.708 317.356 332.274C318.404 331.848 318.928 331.161 318.928 330.212C318.928 329.245 318.404 328.553 317.356 328.136C316.318 327.72 314.605 327.511 312.218 327.511ZM300.98 338.685V341.651H319.141V338.685H321.95V345.124H298.171V338.685H300.98Z" fill="white"/>
<path d="M306.519 291.463V289.121H302.485V285.105H306.519V276.804H309.382L321.95 285.33V289.121H309.714V291.463H306.519ZM309.714 285.105H313.016C313.566 285.105 314.366 285.127 315.413 285.171C316.46 285.215 317.068 285.25 317.236 285.278V285.171C316.509 284.843 315.799 284.448 315.106 283.987L309.714 280.422V285.105ZM312.218 306.481C308.818 306.481 306.302 305.922 304.668 304.805C303.036 303.696 302.219 301.985 302.219 299.67C302.219 297.427 303.062 295.733 304.748 294.589C306.435 293.454 308.924 292.886 312.218 292.886C315.652 292.886 318.182 293.44 319.806 294.549C321.44 295.657 322.256 297.365 322.256 299.67C322.256 301.914 321.404 303.608 319.7 304.752C317.995 305.905 315.501 306.481 312.218 306.481ZM312.218 296.97C309.83 296.97 308.117 297.174 307.079 297.582C306.049 297.998 305.534 298.695 305.534 299.67C305.534 300.628 306.058 301.319 307.105 301.745C308.152 302.171 309.856 302.383 312.218 302.383C314.605 302.383 316.318 302.166 317.356 301.732C318.404 301.306 318.928 300.619 318.928 299.67C318.928 298.704 318.404 298.012 317.356 297.595C316.318 297.178 314.605 296.97 312.218 296.97Z" fill="#42FF00"/>
<path d="M433.358 305.124C435.24 305.124 436.735 305.651 437.844 306.707C438.963 307.762 439.522 309.207 439.522 311.043C439.522 313.216 438.852 314.888 437.512 316.058C436.172 317.229 434.255 317.814 431.761 317.814C429.595 317.814 427.846 317.464 426.514 316.763V313.211C427.216 313.584 428.033 313.89 428.965 314.129C429.896 314.36 430.78 314.475 431.614 314.475C434.126 314.475 435.382 313.446 435.382 311.389C435.382 309.43 434.082 308.449 431.481 308.449C431.011 308.449 430.491 308.498 429.923 308.595C429.355 308.685 428.893 308.782 428.539 308.888L426.901 308.01L427.633 298.1H438.191V301.585H431.241L430.882 305.403L431.347 305.31C431.889 305.186 432.559 305.124 433.358 305.124ZM455.352 307.824C455.352 311.221 454.793 313.735 453.675 315.367C452.565 316.998 450.852 317.814 448.535 317.814C446.29 317.814 444.594 316.972 443.45 315.287C442.313 313.602 441.746 311.114 441.746 307.824C441.746 304.392 442.301 301.865 443.41 300.242C444.519 298.61 446.228 297.794 448.535 297.794C450.781 297.794 452.476 298.646 453.621 300.348C454.775 302.051 455.352 304.543 455.352 307.824ZM445.833 307.824C445.833 310.209 446.037 311.922 446.445 312.958C446.863 313.988 447.559 314.502 448.535 314.502C449.494 314.502 450.187 313.978 450.613 312.932C451.039 311.886 451.252 310.183 451.252 307.824C451.252 305.439 451.034 303.727 450.599 302.69C450.173 301.643 449.485 301.12 448.535 301.12C447.568 301.12 446.875 301.643 446.459 302.69C446.041 303.727 445.833 305.439 445.833 307.824Z" fill="white"/>
<path d="M414.106 495.478H172.118C165.53 495.478 160.189 500.814 160.189 507.396V558.476C160.189 565.059 165.53 570.395 172.118 570.395H414.106C420.695 570.395 426.035 565.059 426.035 558.476V507.396C426.035 500.814 420.695 495.478 414.106 495.478Z" fill="white"/>
<path d="M400.473 674.258H185.751C179.163 674.258 173.822 679.594 173.822 686.177V721.081C173.822 727.664 179.163 733 185.751 733H400.473C407.062 733 412.402 727.664 412.402 721.081V686.177C412.402 679.594 407.062 674.258 400.473 674.258Z" fill="white"/>
<path d="M192.874 529.238C192.874 530.994 192.24 532.377 190.97 533.388C189.71 534.399 187.952 534.904 185.699 534.904C183.621 534.904 181.784 534.514 180.187 533.734V529.903C181.5 530.488 182.609 530.9 183.515 531.14C184.429 531.38 185.263 531.499 186.017 531.499C186.923 531.499 187.616 531.326 188.095 530.98C188.583 530.635 188.827 530.121 188.827 529.438C188.827 529.056 188.72 528.719 188.507 528.426C188.294 528.125 187.98 527.836 187.562 527.562C187.154 527.287 186.315 526.848 185.046 526.245C183.856 525.686 182.964 525.15 182.37 524.635C181.775 524.121 181.3 523.523 180.945 522.84C180.59 522.157 180.412 521.359 180.412 520.445C180.412 518.725 180.994 517.373 182.157 516.388C183.328 515.404 184.944 514.911 187.003 514.911C188.015 514.911 188.977 515.031 189.892 515.271C190.815 515.51 191.778 515.847 192.781 516.282L191.45 519.487C190.411 519.062 189.55 518.765 188.867 518.596C188.193 518.427 187.526 518.343 186.869 518.343C186.089 518.343 185.49 518.525 185.072 518.889C184.656 519.252 184.447 519.727 184.447 520.312C184.447 520.676 184.531 520.995 184.7 521.27C184.869 521.536 185.135 521.798 185.498 522.055C185.872 522.303 186.746 522.756 188.121 523.411C189.941 524.28 191.188 525.154 191.863 526.032C192.537 526.901 192.874 527.97 192.874 529.238ZM193.953 519.767H198.4L201.209 528.134C201.448 528.861 201.613 529.721 201.701 530.715H201.781C201.879 529.801 202.069 528.941 202.353 528.134L205.11 519.767H209.463L203.166 536.54C202.588 538.092 201.764 539.255 200.689 540.026C199.624 540.797 198.377 541.184 196.949 541.184C196.247 541.184 195.559 541.108 194.885 540.957V537.738C195.373 537.853 195.906 537.911 196.482 537.911C197.202 537.911 197.827 537.689 198.36 537.245C198.901 536.811 199.322 536.151 199.624 535.263L199.863 534.532L193.953 519.767ZM221.991 530.222C221.991 531.747 221.458 532.91 220.393 533.707C219.338 534.506 217.753 534.904 215.64 534.904C214.557 534.904 213.635 534.829 212.871 534.679C212.108 534.536 211.394 534.324 210.727 534.04V530.688C211.482 531.043 212.33 531.34 213.271 531.579C214.22 531.819 215.055 531.938 215.773 531.938C217.247 531.938 217.984 531.512 217.984 530.661C217.984 530.342 217.886 530.085 217.69 529.89C217.495 529.686 217.158 529.46 216.679 529.211C216.199 528.954 215.56 528.657 214.762 528.32C213.617 527.842 212.774 527.398 212.232 526.99C211.7 526.582 211.309 526.117 211.061 525.593C210.821 525.061 210.701 524.409 210.701 523.638C210.701 522.316 211.211 521.296 212.232 520.578C213.261 519.851 214.718 519.487 216.599 519.487C218.392 519.487 220.136 519.877 221.832 520.658L220.606 523.585C219.861 523.266 219.165 523.003 218.516 522.8C217.869 522.596 217.207 522.493 216.533 522.493C215.335 522.493 214.736 522.818 214.736 523.465C214.736 523.828 214.926 524.143 215.308 524.409C215.698 524.675 216.546 525.07 217.851 525.593C219.013 526.063 219.865 526.502 220.407 526.91C220.948 527.318 221.348 527.788 221.605 528.32C221.862 528.852 221.991 529.486 221.991 530.222ZM231.43 531.673C232.141 531.673 232.993 531.517 233.986 531.207V534.227C232.975 534.679 231.733 534.904 230.259 534.904C228.635 534.904 227.45 534.496 226.704 533.681C225.968 532.856 225.599 531.623 225.599 529.983V522.813H223.655V521.097L225.892 519.74L227.063 516.601H229.66V519.767H233.827V522.813H229.66V529.983C229.66 530.559 229.82 530.985 230.139 531.26C230.467 531.535 230.898 531.673 231.43 531.673ZM243.173 522.374C242.312 522.374 241.638 522.649 241.15 523.198C240.661 523.74 240.382 524.511 240.31 525.513H246.009C245.991 524.511 245.73 523.74 245.223 523.198C244.717 522.649 244.034 522.374 243.173 522.374ZM243.745 534.904C241.349 534.904 239.476 534.244 238.127 532.922C236.778 531.601 236.104 529.73 236.104 527.309C236.104 524.818 236.725 522.893 237.967 521.536C239.219 520.17 240.945 519.487 243.146 519.487C245.25 519.487 246.888 520.086 248.059 521.283C249.231 522.481 249.817 524.134 249.817 526.245V528.214H240.218C240.262 529.366 240.604 530.267 241.243 530.914C241.882 531.561 242.778 531.885 243.932 531.885C244.828 531.885 245.676 531.792 246.475 531.606C247.274 531.42 248.108 531.123 248.978 530.715V533.854C248.268 534.209 247.509 534.47 246.701 534.639C245.893 534.816 244.908 534.904 243.745 534.904ZM266.445 534.639H262.385V525.952C262.385 524.879 262.203 524.077 261.839 523.545C261.484 523.003 260.92 522.734 260.147 522.734C259.11 522.734 258.355 523.115 257.884 523.877C257.414 524.64 257.179 525.895 257.179 527.641V534.639H253.118V519.767H256.22L256.766 521.669H256.992C257.392 520.987 257.969 520.454 258.724 520.073C259.478 519.682 260.343 519.487 261.32 519.487C263.547 519.487 265.056 520.214 265.846 521.669H266.206C266.605 520.977 267.191 520.441 267.963 520.059C268.744 519.678 269.623 519.487 270.599 519.487C272.285 519.487 273.559 519.922 274.42 520.791C275.29 521.651 275.725 523.035 275.725 524.941V534.639H271.65V525.952C271.65 524.879 271.469 524.077 271.105 523.545C270.75 523.003 270.187 522.734 269.415 522.734C268.42 522.734 267.675 523.088 267.177 523.798C266.69 524.507 266.445 525.633 266.445 527.176V534.639ZM278.587 528.999V525.673H285.737V528.999H278.587ZM305.162 524.728C305.162 527.93 304.247 530.382 302.419 532.085C300.599 533.787 297.968 534.639 294.523 534.639H289.012V515.191H295.122C298.301 515.191 300.767 516.029 302.525 517.705C304.282 519.381 305.162 521.722 305.162 524.728ZM300.874 524.835C300.874 520.658 299.028 518.57 295.335 518.57H293.139V531.233H294.909C298.886 531.233 300.874 529.101 300.874 524.835ZM318.329 534.639L317.543 532.617H317.436C316.753 533.477 316.048 534.076 315.319 534.412C314.601 534.741 313.66 534.904 312.497 534.904C311.068 534.904 309.941 534.496 309.115 533.681C308.299 532.865 307.891 531.703 307.891 530.195C307.891 528.617 308.441 527.455 309.541 526.711C310.651 525.957 312.32 525.54 314.547 525.46L317.131 525.38V524.728C317.131 523.221 316.358 522.467 314.814 522.467C313.624 522.467 312.226 522.826 310.62 523.545L309.275 520.804C310.988 519.909 312.887 519.461 314.973 519.461C316.97 519.461 318.502 519.895 319.567 520.764C320.632 521.634 321.164 522.955 321.164 524.728V534.639H318.329ZM317.131 527.748L315.559 527.802C314.378 527.836 313.5 528.049 312.923 528.44C312.346 528.83 312.057 529.424 312.057 530.222C312.057 531.366 312.714 531.938 314.028 531.938C314.969 531.938 315.719 531.667 316.279 531.127C316.846 530.586 317.131 529.868 317.131 528.972V527.748ZM339.098 534.639H335.037V525.952C335.037 524.879 334.846 524.077 334.464 523.545C334.083 523.003 333.475 522.734 332.641 522.734C331.504 522.734 330.684 523.115 330.177 523.877C329.671 524.631 329.418 525.886 329.418 527.641V534.639H325.358V519.767H328.46L329.006 521.669H329.233C329.685 520.951 330.306 520.409 331.096 520.046C331.895 519.674 332.8 519.487 333.812 519.487C335.543 519.487 336.857 519.957 337.753 520.897C338.65 521.829 339.098 523.176 339.098 524.941V534.639ZM343.105 515.923C343.105 514.602 343.841 513.941 345.315 513.941C346.789 513.941 347.525 514.602 347.525 515.923C347.525 516.552 347.339 517.044 346.966 517.399C346.602 517.745 346.052 517.918 345.315 517.918C343.841 517.918 343.105 517.253 343.105 515.923ZM347.339 534.639H343.278V519.767H347.339V534.639ZM357.777 522.374C356.915 522.374 356.241 522.649 355.753 523.198C355.265 523.74 354.986 524.511 354.914 525.513H360.613C360.595 524.511 360.333 523.74 359.827 523.198C359.321 522.649 358.638 522.374 357.777 522.374ZM358.349 534.904C355.953 534.904 354.08 534.244 352.731 532.922C351.381 531.601 350.707 529.73 350.707 527.309C350.707 524.818 351.328 522.893 352.571 521.536C353.822 520.17 355.549 519.487 357.75 519.487C359.853 519.487 361.491 520.086 362.663 521.283C363.834 522.481 364.421 524.134 364.421 526.245V528.214H354.821C354.865 529.366 355.207 530.267 355.846 530.914C356.485 531.561 357.382 531.885 358.535 531.885C359.432 531.885 360.279 531.792 361.079 531.606C361.877 531.42 362.711 531.123 363.581 530.715V533.854C362.871 534.209 362.112 534.47 361.305 534.639C360.497 534.816 359.512 534.904 358.349 534.904ZM371.782 534.639H367.721V513.941H371.782V534.639ZM382.101 527.176C382.101 524.826 382.443 522.627 383.126 520.578C383.818 518.53 384.812 516.734 386.108 515.191H389.436C388.185 516.903 387.24 518.782 386.601 520.831C385.962 522.88 385.642 524.985 385.642 527.149C385.642 529.322 385.966 531.424 386.614 533.454C387.271 535.476 388.203 537.308 389.41 538.948H386.108C384.803 537.441 383.809 535.681 383.126 533.667C382.443 531.655 382.101 529.491 382.101 527.176ZM408.848 524.728C408.848 527.93 407.933 530.382 406.105 532.085C404.286 533.787 401.653 534.639 398.21 534.639H392.698V515.191H398.809C401.987 515.191 404.454 516.029 406.211 517.705C407.969 519.381 408.848 521.722 408.848 524.728ZM404.561 524.835C404.561 520.658 402.714 518.57 399.022 518.57H396.826V531.233H398.596C402.573 531.233 404.561 529.101 404.561 524.835ZM418.58 527.176C418.58 529.508 418.234 531.681 417.541 533.694C416.858 535.707 415.869 537.458 414.573 538.948H411.271C412.469 537.317 413.397 535.49 414.054 533.468C414.71 531.438 415.039 529.331 415.039 527.149C415.039 524.985 414.719 522.88 414.08 520.831C413.441 518.782 412.495 516.903 411.244 515.191H414.573C415.877 516.743 416.871 518.547 417.555 520.605C418.238 522.653 418.58 524.844 418.58 527.176Z" fill="#001F4E"/>
<path d="M250.336 560.179V548.024H252.915V560.179H250.336ZM264.365 560.179H261.827V554.75C261.827 554.079 261.708 553.577 261.469 553.245C261.231 552.907 260.85 552.738 260.329 552.738C259.619 552.738 259.106 552.976 258.79 553.453C258.474 553.924 258.316 554.708 258.316 555.805V560.179H255.778V550.884H257.717L258.057 552.073H258.199C258.482 551.624 258.87 551.286 259.364 551.058C259.864 550.826 260.43 550.709 261.062 550.709C262.143 550.709 262.964 551.003 263.524 551.59C264.085 552.173 264.365 553.015 264.365 554.118V560.179ZM270.897 558.325C271.341 558.325 271.874 558.227 272.495 558.033V559.921C271.863 560.203 271.086 560.345 270.164 560.345C269.15 560.345 268.409 560.09 267.943 559.58C267.483 559.064 267.252 558.294 267.252 557.269V552.787H266.038V551.716L267.435 550.867L268.168 548.905H269.79V550.884H272.395V552.787H269.79V557.269C269.79 557.629 269.89 557.895 270.09 558.067C270.295 558.239 270.564 558.325 270.897 558.325ZM278.236 552.513C277.698 552.513 277.277 552.685 276.972 553.029C276.667 553.367 276.491 553.849 276.447 554.476H280.008C279.997 553.849 279.834 553.367 279.518 553.029C279.202 552.685 278.775 552.513 278.236 552.513ZM278.594 560.345C277.096 560.345 275.925 559.932 275.083 559.106C274.239 558.28 273.817 557.111 273.817 555.598C273.817 554.041 274.206 552.838 274.983 551.99C275.765 551.136 276.844 550.709 278.219 550.709C279.534 550.709 280.558 551.083 281.29 551.831C282.022 552.58 282.388 553.613 282.388 554.933V556.163H276.389C276.417 556.884 276.63 557.446 277.03 557.851C277.429 558.256 277.989 558.458 278.711 558.458C279.271 558.458 279.801 558.399 280.3 558.283C280.799 558.167 281.321 557.981 281.864 557.726V559.688C281.42 559.91 280.946 560.073 280.441 560.179C279.936 560.289 279.321 560.345 278.594 560.345ZM289.645 550.709C289.988 550.709 290.274 550.734 290.502 550.784L290.31 553.162C290.105 553.107 289.855 553.079 289.561 553.079C288.752 553.079 288.118 553.286 287.663 553.703C287.214 554.118 286.989 554.7 286.989 555.448V560.179H284.452V550.884H286.374L286.748 552.447H286.874C287.162 551.926 287.55 551.507 288.038 551.191C288.532 550.87 289.068 550.709 289.645 550.709ZM294.728 560.179H292.191V547.243H294.728V560.179ZM303.307 560.179L302.817 558.915H302.75C302.323 559.453 301.882 559.827 301.427 560.037C300.977 560.243 300.389 560.345 299.663 560.345C298.769 560.345 298.065 560.09 297.549 559.58C297.039 559.07 296.784 558.344 296.784 557.402C296.784 556.415 297.127 555.69 297.816 555.224C298.509 554.752 299.552 554.492 300.944 554.442L302.559 554.392V553.985C302.559 553.043 302.076 552.571 301.111 552.571C300.367 552.571 299.494 552.796 298.49 553.245L297.649 551.533C298.72 550.972 299.907 550.692 301.211 550.692C302.459 550.692 303.416 550.964 304.081 551.507C304.747 552.05 305.08 552.877 305.08 553.985V560.179H303.307ZM302.559 555.872L301.577 555.905C300.839 555.928 300.289 556.061 299.929 556.304C299.569 556.549 299.388 556.92 299.388 557.419C299.388 558.134 299.799 558.491 300.62 558.491C301.208 558.491 301.677 558.322 302.026 557.984C302.381 557.646 302.559 557.197 302.559 556.637V555.872ZM306.37 550.884H309.148L310.905 556.114C311.055 556.567 311.157 557.105 311.212 557.726H311.262C311.323 557.156 311.442 556.618 311.62 556.114L313.342 550.884H316.064L312.127 561.367C311.767 562.338 311.251 563.064 310.58 563.546C309.914 564.028 309.135 564.269 308.242 564.269C307.804 564.269 307.374 564.222 306.952 564.128V562.116C307.257 562.188 307.59 562.224 307.95 562.224C308.399 562.224 308.791 562.086 309.124 561.808C309.462 561.537 309.725 561.124 309.914 560.569L310.064 560.112L306.37 550.884ZM321.256 552.513C320.718 552.513 320.296 552.685 319.991 553.029C319.686 553.367 319.511 553.849 319.467 554.476H323.028C323.017 553.849 322.853 553.367 322.537 553.029C322.221 552.685 321.794 552.513 321.256 552.513ZM321.613 560.345C320.115 560.345 318.946 559.932 318.102 559.106C317.259 558.28 316.838 557.111 316.838 555.598C316.838 554.041 317.225 552.838 318.002 551.99C318.785 551.136 319.863 550.709 321.239 550.709C322.554 550.709 323.577 551.083 324.309 551.831C325.042 552.58 325.408 553.613 325.408 554.933V556.163H319.408C319.436 556.884 319.65 557.446 320.049 557.851C320.449 558.256 321.009 558.458 321.73 558.458C322.29 558.458 322.82 558.399 323.319 558.283C323.819 558.167 324.34 557.981 324.884 557.726V559.688C324.44 559.91 323.966 560.073 323.461 560.179C322.956 560.289 322.34 560.345 321.613 560.345ZM332.664 550.709C333.008 550.709 333.294 550.734 333.521 550.784L333.329 553.162C333.124 553.107 332.874 553.079 332.58 553.079C331.771 553.079 331.139 553.286 330.684 553.703C330.234 554.118 330.01 554.7 330.01 555.448V560.179H327.471V550.884H329.394L329.769 552.447H329.893C330.182 551.926 330.569 551.507 331.058 551.191C331.552 550.87 332.087 550.709 332.664 550.709Z" fill="#001F4E"/>
<path d="M265.7 704.36C265.7 707.562 264.785 710.014 262.957 711.716C261.138 713.419 258.506 714.27 255.062 714.27H249.55V694.823H255.661C258.839 694.823 261.306 695.661 263.063 697.337C264.821 699.013 265.7 701.354 265.7 704.36ZM261.413 704.466C261.413 700.29 259.566 698.201 255.874 698.201H253.678V710.865H255.448C259.425 710.865 261.413 708.733 261.413 704.466ZM278.867 714.27L278.081 712.249H277.975C277.291 713.108 276.586 713.708 275.858 714.044C275.139 714.373 274.198 714.536 273.036 714.536C271.606 714.536 270.48 714.128 269.654 713.313C268.837 712.497 268.429 711.335 268.429 709.827C268.429 708.249 268.979 707.087 270.08 706.343C271.189 705.589 272.858 705.171 275.086 705.092L277.669 705.012V704.36C277.669 702.853 276.897 702.099 275.352 702.099C274.162 702.099 272.765 702.458 271.158 703.177L269.813 700.436C271.527 699.541 273.426 699.093 275.512 699.093C277.509 699.093 279.04 699.527 280.105 700.396C281.17 701.265 281.702 702.587 281.702 704.36V714.27H278.867ZM277.669 707.38L276.097 707.433C274.917 707.468 274.039 707.681 273.462 708.072C272.884 708.462 272.596 709.056 272.596 709.854C272.596 710.998 273.253 711.57 274.566 711.57C275.508 711.57 276.258 711.299 276.817 710.759C277.385 710.218 277.669 709.5 277.669 708.604V707.38ZM299.636 714.27H295.576V705.584C295.576 704.511 295.385 703.709 295.003 703.177C294.621 702.635 294.013 702.365 293.179 702.365C292.043 702.365 291.222 702.747 290.716 703.509C290.21 704.263 289.957 705.518 289.957 707.273V714.27H285.896V699.398H288.999L289.544 701.301H289.771C290.223 700.583 290.845 700.041 291.635 699.678C292.433 699.306 293.339 699.119 294.35 699.119C296.081 699.119 297.395 699.589 298.291 700.529C299.188 701.46 299.636 702.808 299.636 704.573V714.27ZM303.643 695.555C303.643 694.233 304.38 693.573 305.853 693.573C307.327 693.573 308.064 694.233 308.064 695.555C308.064 696.184 307.877 696.676 307.505 697.031C307.141 697.377 306.59 697.549 305.853 697.549C304.38 697.549 303.643 696.884 303.643 695.555ZM307.877 714.27H303.816V699.398H307.877V714.27ZM318.315 702.006C317.454 702.006 316.78 702.281 316.291 702.83C315.803 703.372 315.524 704.143 315.453 705.145H321.151C321.133 704.143 320.871 703.372 320.365 702.83C319.86 702.281 319.176 702.006 318.315 702.006ZM318.888 714.536C316.492 714.536 314.619 713.875 313.269 712.554C311.92 711.233 311.245 709.362 311.245 706.941C311.245 704.449 311.866 702.525 313.11 701.168C314.361 699.802 316.088 699.119 318.289 699.119C320.392 699.119 322.03 699.718 323.201 700.915C324.373 702.113 324.959 703.766 324.959 705.877V707.845H315.359C315.403 708.998 315.745 709.899 316.384 710.546C317.023 711.193 317.92 711.517 319.074 711.517C319.971 711.517 320.818 711.424 321.617 711.238C322.416 711.052 323.25 710.754 324.12 710.347V713.486C323.41 713.841 322.651 714.102 321.843 714.27C321.036 714.448 320.051 714.536 318.888 714.536ZM332.321 714.27H328.26V693.573H332.321V714.27Z" fill="#001F4E"/>
<path d="M293.517 571.693C292.352 570.529 290.464 570.529 289.299 571.693L270.32 590.656C269.156 591.82 269.156 593.706 270.32 594.87C271.485 596.034 273.373 596.034 274.538 594.87L291.408 578.014L308.278 594.87C309.443 596.034 311.331 596.034 312.496 594.87C313.661 593.706 313.661 591.82 312.496 590.656L293.517 571.693ZM294.391 674.258V573.8H288.426V674.258H294.391Z" fill="black"/>
<path d="M272.17 630.361H267.018V627.448H272.17V622.26H275.086V627.448H280.238V630.361H275.086V635.482H272.17V630.361ZM296.561 634.471H294.218V638.502H290.197V634.471H281.889V631.611L290.423 619.054H294.218V631.279H296.561V634.471ZM290.197 631.279V627.98C290.197 627.43 290.219 626.631 290.263 625.585C290.307 624.539 290.343 623.931 290.37 623.763H290.263C289.935 624.49 289.54 625.199 289.079 625.892L285.51 631.279H290.197ZM311.592 628.778C311.592 632.174 311.032 634.688 309.914 636.32C308.805 637.952 307.091 638.767 304.776 638.767C302.529 638.767 300.834 637.925 299.69 636.24C298.553 634.556 297.985 632.068 297.985 628.778C297.985 625.346 298.54 622.818 299.649 621.196C300.759 619.564 302.467 618.748 304.776 618.748C307.021 618.748 308.716 619.599 309.861 621.302C311.014 623.005 311.592 625.497 311.592 628.778ZM302.073 628.778C302.073 631.163 302.276 632.875 302.685 633.912C303.102 634.941 303.799 635.456 304.776 635.456C305.733 635.456 306.426 634.932 306.852 633.886C307.278 632.839 307.491 631.137 307.491 628.778C307.491 626.392 307.274 624.681 306.838 623.643C306.412 622.597 305.725 622.073 304.776 622.073C303.808 622.073 303.116 622.597 302.698 623.643C302.281 624.681 302.073 626.392 302.073 628.778Z" fill="white"/>
</svg>
