<svg width="594" height="756" viewBox="0 0 594 756" fill="none" xmlns="http://www.w3.org/2000/svg">
<path d="M132.639 183.546L296.955 57.1069" stroke="#FE5454" stroke-width="10"/>
<path d="M466.633 183.546L302.317 57.1069" stroke="#42FF00" stroke-width="10"/>
<path d="M298.757 521.561V60.5854" stroke="#FE5454" stroke-width="10"/>
<path d="M138.395 257.268C138.395 255.571 137.018 254.195 135.32 254.195C133.621 254.195 132.244 255.571 132.244 257.268H138.395ZM138.395 364.39V257.268H132.244V364.39H138.395Z" fill="black"/>
<path d="M424.411 0H174.861C168.067 0 162.559 5.50362 162.559 12.2927V48.2927C162.559 55.0817 168.067 60.5854 174.861 60.5854H424.411C431.205 60.5854 436.713 55.0817 436.713 48.2927V12.2927C436.713 5.50362 431.205 0 424.411 0Z" fill="white"/>
<path d="M261.852 180H12.3018C5.50769 180 0 185.504 0 192.293V244.976C0 251.765 5.50769 257.268 12.3018 257.268H261.852C268.646 257.268 274.154 251.765 274.154 244.976V192.293C274.154 185.504 268.646 180 261.852 180Z" fill="white"/>
<path d="M434.516 257.268C434.516 255.571 433.139 254.195 431.441 254.195C429.742 254.195 428.365 255.571 428.365 257.268H434.516ZM434.516 364.39V257.268H428.365V364.39H434.516Z" fill="black"/>
<path d="M247.793 364.39H26.3609C19.5669 364.39 14.0592 369.894 14.0592 376.683V412.683C14.0592 419.472 19.5669 424.976 26.3609 424.976H247.793C254.587 424.976 260.095 419.472 260.095 412.683V376.683C260.095 369.894 254.587 364.39 247.793 364.39Z" fill="white"/>
<path d="M195.386 35.6983C195.386 37.5094 194.733 38.9362 193.423 39.9788C192.124 41.0216 190.311 41.5428 187.987 41.5428C185.845 41.5428 183.95 41.1404 182.303 40.3355V36.3843C183.657 36.988 184.801 37.4133 185.735 37.6602C186.678 37.9072 187.538 38.0307 188.316 38.0307C189.25 38.0307 189.964 37.8523 190.458 37.4956C190.961 37.1389 191.213 36.6084 191.213 35.9041C191.213 35.5108 191.103 35.1633 190.883 34.8614C190.663 34.5505 190.339 34.2532 189.909 33.9697C189.488 33.6862 188.622 33.2334 187.314 32.6114C186.087 32.0352 185.167 31.4819 184.554 30.9514C183.941 30.4209 183.451 29.8035 183.085 29.0992C182.719 28.3949 182.535 27.5718 182.535 26.6297C182.535 24.8554 183.136 23.4606 184.334 22.4453C185.542 21.43 187.208 20.9224 189.332 20.9224C190.375 20.9224 191.368 21.0459 192.311 21.2928C193.264 21.5398 194.256 21.8874 195.291 22.3355L193.918 25.6419C192.847 25.2029 191.959 24.8965 191.254 24.7227C190.559 24.5489 189.872 24.4621 189.194 24.4621C188.389 24.4621 187.772 24.6495 187.341 25.0246C186.911 25.3996 186.696 25.8889 186.696 26.4926C186.696 26.8676 186.783 27.1968 186.957 27.4804C187.131 27.7548 187.405 28.0246 187.78 28.2898C188.165 28.5459 189.067 29.0124 190.485 29.6892C192.362 30.5855 193.648 31.4865 194.343 32.3919C195.039 33.2883 195.386 34.3904 195.386 35.6983ZM196.499 25.93H201.085L203.982 34.5596C204.229 35.3096 204.398 36.1968 204.49 37.2212H204.571C204.673 36.2791 204.869 35.3919 205.162 34.5596L208.005 25.93H212.494L206 43.2304C205.405 44.831 204.554 46.0292 203.446 46.8248C202.348 47.6206 201.062 48.0185 199.588 48.0185C198.865 48.0185 198.155 47.9408 197.46 47.7853V44.4651C197.964 44.584 198.513 44.6435 199.108 44.6435C199.849 44.6435 200.494 44.4148 201.044 43.9575C201.601 43.5093 202.036 42.8279 202.348 41.9133L202.594 41.1587L196.499 25.93ZM225.413 36.7136C225.413 38.2868 224.864 39.485 223.766 40.308C222.677 41.1313 221.043 41.5428 218.864 41.5428C217.748 41.5428 216.796 41.4651 216.009 41.3096C215.221 41.1633 214.485 40.9438 213.798 40.6511V37.1938C214.576 37.5596 215.451 37.866 216.421 38.1129C217.4 38.3599 218.261 38.4834 219.001 38.4834C220.522 38.4834 221.281 38.0444 221.281 37.1663C221.281 36.837 221.181 36.5718 220.979 36.3706C220.777 36.1602 220.429 35.927 219.936 35.6709C219.441 35.4056 218.782 35.0993 217.958 34.7517C216.777 34.2578 215.908 33.8005 215.35 33.3797C214.8 32.959 214.398 32.4788 214.141 31.9392C213.894 31.3904 213.771 30.7182 213.771 29.9224C213.771 28.5596 214.297 27.5078 215.35 26.767C216.411 26.0169 217.913 25.6419 219.853 25.6419C221.702 25.6419 223.5 26.0444 225.249 26.8492L223.985 29.8675C223.217 29.5383 222.499 29.2684 221.83 29.0581C221.162 28.8478 220.48 28.7426 219.784 28.7426C218.549 28.7426 217.931 29.0764 217.931 29.7441C217.931 30.1191 218.128 30.4438 218.522 30.7182C218.924 30.9926 219.798 31.3995 221.144 31.9392C222.342 32.424 223.221 32.8767 223.78 33.2974C224.338 33.7181 224.75 34.2029 225.015 34.7517C225.281 35.3004 225.413 35.9544 225.413 36.7136ZM235.148 38.209C235.88 38.209 236.759 38.0489 237.784 37.7289V40.8431C236.741 41.3096 235.46 41.5428 233.939 41.5428C232.265 41.5428 231.043 41.1221 230.273 40.2807C229.514 39.43 229.135 38.1587 229.135 36.4666V29.0718H227.129V27.302L229.436 25.9026L230.644 22.6648H233.322V25.93H237.619V29.0718H233.322V36.4666C233.322 37.0611 233.487 37.5001 233.816 37.7837C234.155 38.0673 234.598 38.209 235.148 38.209ZM247.258 28.6191C246.369 28.6191 245.674 28.9026 245.171 29.4697C244.667 30.0276 244.379 30.8234 244.305 31.8568H250.182C250.164 30.8234 249.894 30.0276 249.372 29.4697C248.85 28.9026 248.145 28.6191 247.258 28.6191ZM247.847 41.5428C245.377 41.5428 243.445 40.8615 242.054 39.4987C240.662 38.1358 239.967 36.206 239.967 33.709C239.967 31.1388 240.608 29.1541 241.889 27.7548C243.18 26.3462 244.96 25.6419 247.23 25.6419C249.399 25.6419 251.088 26.2593 252.296 27.4941C253.504 28.7289 254.109 30.4347 254.109 32.6114V34.6419H244.21C244.255 35.831 244.608 36.7593 245.267 37.427C245.926 38.0947 246.85 38.4285 248.04 38.4285C248.964 38.4285 249.839 38.3324 250.663 38.1404C251.486 37.9484 252.346 37.6419 253.243 37.2212V40.459C252.512 40.8249 251.729 41.0947 250.896 41.2685C250.063 41.4514 249.047 41.5428 247.847 41.5428ZM271.257 41.2685H267.07V32.3096C267.07 31.2029 266.882 30.3752 266.507 29.8264C266.14 29.2684 265.559 28.9895 264.762 28.9895C263.692 28.9895 262.914 29.3828 262.429 30.1694C261.943 30.956 261.701 32.2502 261.701 34.052V41.2685H257.513V25.93H260.712L261.276 27.8919H261.509C261.921 27.1876 262.515 26.6388 263.294 26.2456C264.072 25.8432 264.964 25.6419 265.971 25.6419C268.268 25.6419 269.825 26.3919 270.639 27.8919H271.01C271.422 27.1785 272.026 26.6252 272.822 26.2319C273.628 25.8386 274.533 25.6419 275.54 25.6419C277.279 25.6419 278.593 26.0901 279.481 26.9865C280.378 27.8736 280.827 29.3005 280.827 31.267V41.2685H276.625V32.3096C276.625 31.2029 276.438 30.3752 276.062 29.8264C275.696 29.2684 275.115 28.9895 274.319 28.9895C273.294 28.9895 272.525 29.3554 272.012 30.087C271.509 30.8188 271.257 31.9804 271.257 33.5718V41.2685ZM305.059 41.2685L303.878 35.9041L302.286 29.1267H302.19L299.389 41.2685H294.886L290.52 25.93H294.693L296.465 32.7212C296.749 33.9376 297.037 35.616 297.33 37.7563H297.412C297.448 37.0611 297.609 35.959 297.893 34.4499L298.112 33.2837L300.007 25.93H304.62L306.419 33.2837C306.455 33.4849 306.51 33.7822 306.583 34.1755C306.666 34.5688 306.744 34.9895 306.817 35.4377C306.89 35.8767 306.954 36.3112 307.009 36.7411C307.073 37.1617 307.109 37.5001 307.119 37.7563H307.201C307.283 37.0977 307.43 36.1969 307.64 35.0535C307.851 33.9011 308.002 33.1237 308.094 32.7212L309.934 25.93H314.039L309.617 41.2685H305.059ZM326.271 41.2685L325.462 39.1831H325.352C324.647 40.0703 323.919 40.6876 323.169 41.0353C322.428 41.3737 321.457 41.5428 320.258 41.5428C318.785 41.5428 317.622 41.1221 316.771 40.2807C315.929 39.4392 315.507 38.241 315.507 36.6861C315.507 35.0581 316.075 33.8599 317.21 33.0916C318.354 32.3142 320.075 31.8843 322.372 31.802L325.036 31.7197V31.0474C325.036 29.4925 324.24 28.7151 322.647 28.7151C321.421 28.7151 319.979 29.0855 318.322 29.8264L316.936 27.0002C318.702 26.0764 320.661 25.6145 322.812 25.6145C324.871 25.6145 326.45 26.0627 327.549 26.959C328.647 27.8554 329.196 29.2181 329.196 31.0474V41.2685H326.271ZM325.036 34.1617L323.415 34.2167C322.198 34.2532 321.293 34.4727 320.698 34.8752C320.103 35.2776 319.805 35.8904 319.805 36.7136C319.805 37.8934 320.482 38.4834 321.837 38.4834C322.807 38.4834 323.581 38.2044 324.157 37.6465C324.743 37.0886 325.036 36.3477 325.036 35.424V34.1617ZM337.708 41.2685H333.52V19.9209H337.708V41.2685ZM346.303 41.2685H342.116V19.9209H346.303V41.2685ZM357.067 28.6191C356.179 28.6191 355.484 28.9026 354.98 29.4697C354.477 30.0276 354.188 30.8234 354.115 31.8568H359.992C359.974 30.8234 359.703 30.0276 359.182 29.4697C358.66 28.9026 357.955 28.6191 357.067 28.6191ZM357.657 41.5428C355.187 41.5428 353.255 40.8615 351.864 39.4987C350.472 38.1358 349.776 36.206 349.776 33.709C349.776 31.1388 350.418 29.1541 351.699 27.7548C352.99 26.3462 354.77 25.6419 357.04 25.6419C359.209 25.6419 360.898 26.2593 362.106 27.4941C363.314 28.7289 363.918 30.4347 363.918 32.6114V34.6419H354.02C354.065 35.831 354.418 36.7593 355.077 37.427C355.736 38.0947 356.66 38.4285 357.85 38.4285C358.774 38.4285 359.649 38.3324 360.472 38.1404C361.296 37.9484 362.156 37.6419 363.054 37.2212V40.459C362.322 40.8249 361.539 41.0947 360.706 41.2685C359.873 41.4514 358.857 41.5428 357.657 41.5428ZM373.79 38.209C374.522 38.209 375.401 38.0489 376.426 37.7289V40.8431C375.383 41.3096 374.101 41.5428 372.582 41.5428C370.906 41.5428 369.685 41.1221 368.916 40.2807C368.156 39.43 367.777 38.1587 367.777 36.4666V29.0718H365.772V27.302L368.079 25.9026L369.287 22.6648H371.964V25.93H376.261V29.0718H371.964V36.4666C371.964 37.0611 372.129 37.5001 372.458 37.7837C372.797 38.0673 373.241 38.209 373.79 38.209ZM385.776 33.5718C385.776 31.1481 386.128 28.8797 386.833 26.767C387.547 24.6541 388.573 22.802 389.908 21.2105H393.341C392.051 22.9758 391.075 24.9148 390.416 27.0276C389.757 29.1404 389.429 31.3127 389.429 33.5444C389.429 35.7852 389.762 37.9529 390.43 40.0474C391.108 42.1328 392.069 44.0215 393.313 45.7136H389.908C388.563 44.1587 387.538 42.3432 386.833 40.267C386.128 38.1907 385.776 35.959 385.776 33.5718ZM408.993 41.2685L407.538 36.4941H400.22L398.764 41.2685H394.179L401.263 21.1282H406.466L413.579 41.2685H408.993ZM406.522 32.927C405.176 28.6008 404.416 26.1542 404.243 25.587C404.077 25.02 403.959 24.5718 403.886 24.2426C403.583 25.4133 402.718 28.3081 401.291 32.927H406.522ZM421.995 33.5718C421.995 35.9773 421.638 38.2181 420.924 40.2944C420.219 42.3706 419.199 44.177 417.862 45.7136H414.457C415.693 44.0306 416.65 42.1465 417.327 40.0611C418.004 37.9666 418.343 35.7944 418.343 33.5444C418.343 31.3127 418.013 29.1404 417.354 27.0276C416.695 24.9148 415.72 22.9758 414.43 21.2105H417.862C419.208 22.8112 420.233 24.6725 420.938 26.7944C421.642 28.9072 421.995 31.1663 421.995 33.5718Z" fill="#001F4E"/>
<path d="M46.0081 214.82C46.0081 216.631 45.3537 218.058 44.0447 219.1C42.745 220.143 40.9327 220.664 38.6078 220.664C36.466 220.664 34.5713 220.262 32.9238 219.458V215.506C34.2784 216.11 35.4225 216.535 36.3561 216.782C37.2989 217.029 38.1593 217.152 38.9373 217.152C39.8709 217.152 40.5849 216.974 41.0791 216.617C41.5825 216.261 41.8343 215.73 41.8343 215.026C41.8343 214.633 41.7245 214.285 41.5048 213.983C41.2851 213.672 40.9602 213.374 40.53 213.092C40.1089 212.808 39.244 212.355 37.9351 211.733C36.7085 211.157 35.7887 210.603 35.1753 210.073C34.5621 209.543 34.0724 208.925 33.7063 208.221C33.3402 207.517 33.1572 206.693 33.1572 205.751C33.1572 203.977 33.7567 202.582 34.9557 201.566C36.1639 200.551 37.8298 200.044 39.9534 200.044C40.9967 200.044 41.9899 200.168 42.9327 200.414C43.8846 200.661 44.8777 201.009 45.912 201.458L44.539 204.763C43.4681 204.324 42.5802 204.018 41.8754 203.844C41.1798 203.67 40.4933 203.583 39.816 203.583C39.0105 203.583 38.3927 203.771 37.9625 204.146C37.5323 204.521 37.3173 205.01 37.3173 205.614C37.3173 205.989 37.4042 206.318 37.5781 206.602C37.7519 206.876 38.0265 207.146 38.4018 207.412C38.7863 207.667 39.6879 208.134 41.1066 208.81C42.983 209.707 44.269 210.608 44.9647 211.514C45.6602 212.41 46.0081 213.512 46.0081 214.82ZM47.1202 205.051H51.7059L54.6028 213.681C54.85 214.432 55.0193 215.318 55.1109 216.343H55.1932C55.2939 215.401 55.4907 214.513 55.7836 213.681L58.6257 205.051H63.1152L56.6211 222.352C56.0261 223.952 55.175 225.151 54.0674 225.946C52.969 226.742 51.683 227.141 50.2093 227.141C49.4863 227.141 48.7769 227.062 48.0813 226.907V223.587C48.5847 223.706 49.1339 223.765 49.7289 223.765C50.4702 223.765 51.1155 223.536 51.6647 223.079C52.2231 222.631 52.6578 221.949 52.969 221.035L53.2162 220.28L47.1202 205.051ZM76.0348 215.835C76.0348 217.408 75.4856 218.607 74.3872 219.43C73.2981 220.253 71.6643 220.664 69.4858 220.664C68.3691 220.664 67.4172 220.587 66.63 220.431C65.8429 220.285 65.1061 220.065 64.4196 219.773V216.315C65.1976 216.681 66.0717 216.988 67.0419 217.234C68.0213 217.482 68.8817 217.605 69.6231 217.605C71.1425 217.605 71.9022 217.166 71.9022 216.288C71.9022 215.959 71.8015 215.693 71.6002 215.492C71.3988 215.282 71.051 215.049 70.5567 214.793C70.0625 214.527 69.4034 214.221 68.5797 213.873C67.3989 213.38 66.5293 212.922 65.971 212.502C65.4218 212.08 65.0191 211.601 64.7628 211.061C64.5157 210.512 64.3921 209.839 64.3921 209.044C64.3921 207.681 64.9184 206.629 65.971 205.888C67.0328 205.138 68.5339 204.763 70.4743 204.763C72.3233 204.763 74.1219 205.166 75.8701 205.971L74.6069 208.99C73.8381 208.66 73.1196 208.39 72.4514 208.18C71.7832 207.969 71.1014 207.864 70.4057 207.864C69.1701 207.864 68.5522 208.198 68.5522 208.866C68.5522 209.241 68.749 209.565 69.1426 209.839C69.5453 210.114 70.4194 210.521 71.765 211.061C72.964 211.546 73.8427 211.999 74.401 212.419C74.9594 212.84 75.3712 213.324 75.6367 213.873C75.9021 214.422 76.0348 215.076 76.0348 215.835ZM85.7692 217.331C86.5014 217.331 87.3801 217.17 88.405 216.851V219.965C87.3618 220.431 86.0804 220.664 84.561 220.664C82.8859 220.664 81.664 220.243 80.8952 219.402C80.1354 218.551 79.7556 217.28 79.7556 215.588V208.193H77.7511V206.424L80.0577 205.024L81.2659 201.786H83.9431V205.051H88.2406V208.193H83.9431V215.588C83.9431 216.182 84.1079 216.622 84.4375 216.905C84.7761 217.189 85.22 217.331 85.7692 217.331ZM97.8791 207.741C96.9907 207.741 96.2957 208.025 95.7922 208.591C95.2887 209.149 95.0005 209.945 94.9266 210.978H100.803C100.785 209.945 100.515 209.149 99.9932 208.591C99.4713 208.025 98.7666 207.741 97.8791 207.741ZM98.4687 220.664C95.9978 220.664 94.0664 219.983 92.6754 218.62C91.2836 217.257 90.5885 215.327 90.5885 212.831C90.5885 210.261 91.2291 208.276 92.5102 206.876C93.801 205.468 95.5813 204.763 97.851 204.763C100.02 204.763 101.709 205.381 102.918 206.615C104.126 207.851 104.73 209.556 104.73 211.733V213.763H94.8309C94.8766 214.952 95.2289 215.881 95.8879 216.549C96.547 217.216 97.4714 217.55 98.6611 217.55C99.5855 217.55 100.46 217.454 101.284 217.262C102.107 217.07 102.968 216.764 103.865 216.343V219.581C103.133 219.947 102.35 220.216 101.517 220.39C100.684 220.573 99.6681 220.664 98.4687 220.664ZM121.878 220.39H117.691V211.431C117.691 210.324 117.503 209.497 117.128 208.948C116.761 208.39 116.181 208.111 115.384 208.111C114.313 208.111 113.535 208.505 113.05 209.291C112.565 210.077 112.322 211.372 112.322 213.173V220.39H108.134V205.051H111.334L111.897 207.014H112.13C112.542 206.31 113.137 205.761 113.915 205.368C114.693 204.965 115.586 204.763 116.593 204.763C118.89 204.763 120.446 205.513 121.26 207.014H121.631C122.043 206.3 122.647 205.747 123.443 205.354C124.249 204.96 125.155 204.763 126.162 204.763C127.901 204.763 129.214 205.212 130.102 206.108C130.999 206.995 131.448 208.422 131.448 210.388V220.39H127.246V211.431C127.246 210.324 127.059 209.497 126.684 208.948C126.317 208.39 125.736 208.111 124.94 208.111C123.915 208.111 123.146 208.477 122.633 209.209C122.13 209.94 121.878 211.102 121.878 212.693V220.39ZM134.4 214.573V211.143H141.773V214.573H134.4ZM145.15 200.332H151.397C154.243 200.332 156.307 200.739 157.589 201.553C158.879 202.358 159.525 203.643 159.525 205.409C159.525 206.606 159.241 207.59 158.674 208.358C158.116 209.126 157.37 209.588 156.436 209.744V209.881C157.708 210.164 158.623 210.695 159.181 211.473C159.749 212.25 160.033 213.283 160.033 214.573C160.033 216.402 159.369 217.829 158.042 218.854C156.724 219.878 154.93 220.39 152.66 220.39H145.15V200.332ZM149.406 208.276H151.878C153.031 208.276 153.864 208.097 154.377 207.741C154.898 207.384 155.159 206.794 155.159 205.971C155.159 205.202 154.875 204.654 154.307 204.324C153.749 203.986 152.862 203.817 151.644 203.817H149.406V208.276ZM149.406 211.651V216.878H152.18C153.351 216.878 154.216 216.654 154.775 216.205C155.333 215.757 155.612 215.072 155.612 214.148C155.612 212.483 154.422 211.651 152.042 211.651H149.406ZM167.048 212.693C167.048 214.212 167.296 215.36 167.79 216.137C168.294 216.915 169.108 217.303 170.234 217.303C171.351 217.303 172.152 216.919 172.637 216.151C173.131 215.373 173.378 214.221 173.378 212.693C173.378 211.175 173.131 210.036 172.637 209.277C172.142 208.518 171.332 208.139 170.206 208.139C169.09 208.139 168.285 208.518 167.79 209.277C167.296 210.027 167.048 211.166 167.048 212.693ZM177.662 212.693C177.662 215.19 177.003 217.143 175.685 218.551C174.367 219.96 172.532 220.664 170.179 220.664C168.706 220.664 167.406 220.344 166.28 219.704C165.154 219.055 164.289 218.126 163.685 216.919C163.081 215.712 162.779 214.303 162.779 212.693C162.779 210.187 163.433 208.239 164.742 206.849C166.051 205.459 167.891 204.763 170.262 204.763C171.735 204.763 173.035 205.084 174.161 205.724C175.286 206.364 176.152 207.283 176.755 208.482C177.36 209.68 177.662 211.084 177.662 212.693ZM189.662 204.763C191.474 204.763 192.893 205.472 193.918 206.89C194.943 208.298 195.456 210.233 195.456 212.693C195.456 215.227 194.924 217.189 193.863 218.58C192.81 219.97 191.373 220.664 189.552 220.664C187.749 220.664 186.334 220.011 185.31 218.702H185.02L184.321 220.39H181.122V199.043H185.31V204.009C185.31 204.64 185.254 205.651 185.144 207.041H185.31C186.288 205.523 187.739 204.763 189.662 204.763ZM188.316 208.111C187.281 208.111 186.527 208.431 186.05 209.071C185.575 209.702 185.327 210.75 185.31 212.214V212.666C185.31 214.312 185.552 215.492 186.037 216.205C186.531 216.919 187.309 217.276 188.371 217.276C189.231 217.276 189.913 216.882 190.417 216.096C190.929 215.3 191.185 214.148 191.185 212.639C191.185 211.129 190.929 210 190.417 209.249C189.904 208.491 189.204 208.111 188.316 208.111ZM205.149 212.693C205.149 210.27 205.501 208.002 206.206 205.888C206.919 203.776 207.945 201.924 209.281 200.332H212.714C211.423 202.098 210.448 204.036 209.789 206.149C209.13 208.262 208.801 210.434 208.801 212.666C208.801 214.907 209.135 217.075 209.803 219.169C210.48 221.254 211.441 223.143 212.686 224.835H209.281C207.936 223.281 206.911 221.465 206.206 219.388C205.501 217.313 205.149 215.081 205.149 212.693ZM216.077 200.332H222.325C225.171 200.332 227.235 200.739 228.516 201.553C229.807 202.358 230.453 203.643 230.453 205.409C230.453 206.606 230.169 207.59 229.601 208.358C229.042 209.126 228.296 209.588 227.363 209.744V209.881C228.636 210.164 229.551 210.695 230.109 211.473C230.677 212.25 230.961 213.283 230.961 214.573C230.961 216.402 230.297 217.829 228.969 218.854C227.651 219.878 225.857 220.39 223.587 220.39H216.077V200.332ZM220.334 208.276H222.804C223.958 208.276 224.791 208.097 225.304 207.741C225.825 207.384 226.086 206.794 226.086 205.971C226.086 205.202 225.803 204.654 225.235 204.324C224.677 203.986 223.789 203.817 222.572 203.817H220.334V208.276ZM220.334 211.651V216.878H223.107C224.279 216.878 225.144 216.654 225.702 216.205C226.26 215.757 226.539 215.072 226.539 214.148C226.539 212.483 225.349 211.651 222.97 211.651H220.334ZM240.846 212.693C240.846 215.099 240.489 217.34 239.775 219.416C239.07 221.492 238.049 223.298 236.713 224.835H233.308C234.544 223.152 235.5 221.268 236.177 219.183C236.855 217.089 237.194 214.916 237.194 212.666C237.194 210.434 236.864 208.262 236.205 206.149C235.546 204.036 234.571 202.098 233.28 200.332H236.713C238.059 201.933 239.084 203.794 239.789 205.916C240.494 208.029 240.846 210.288 240.846 212.693Z" fill="#001F4E"/>
<path d="M92.9636 246.732V234.196H95.6234V246.732H92.9636ZM107.431 246.732H104.814V241.132C104.814 240.44 104.691 239.923 104.445 239.58C104.199 239.231 103.807 239.057 103.269 239.057C102.537 239.057 102.008 239.303 101.682 239.795C101.356 240.281 101.193 241.089 101.193 242.221V246.732H98.5759V237.145H100.575L100.926 238.372H101.072C101.364 237.908 101.765 237.559 102.274 237.325C102.789 237.085 103.373 236.965 104.025 236.965C105.14 236.965 105.987 237.268 106.564 237.874C107.142 238.474 107.431 239.343 107.431 240.481V246.732ZM114.167 244.819C114.625 244.819 115.174 244.719 115.815 244.519V246.466C115.163 246.757 114.362 246.903 113.412 246.903C112.365 246.903 111.602 246.64 111.121 246.114C110.647 245.582 110.408 244.788 110.408 243.73V239.108H109.156V238.003L110.597 237.128L111.353 235.104H113.026V237.145H115.712V239.108H113.026V243.73C113.026 244.102 113.129 244.377 113.334 244.554C113.546 244.731 113.824 244.819 114.167 244.819ZM121.736 238.826C121.181 238.826 120.746 239.003 120.432 239.358C120.117 239.706 119.936 240.203 119.89 240.85H123.563C123.552 240.203 123.383 239.706 123.057 239.358C122.731 239.003 122.291 238.826 121.736 238.826ZM122.105 246.903C120.56 246.903 119.353 246.477 118.484 245.625C117.614 244.774 117.179 243.567 117.179 242.007C117.179 240.401 117.579 239.16 118.381 238.286C119.188 237.405 120.3 236.965 121.718 236.965C123.074 236.965 124.13 237.351 124.885 238.122C125.64 238.894 126.018 239.96 126.018 241.321V242.59H119.831C119.86 243.334 120.079 243.913 120.491 244.331C120.904 244.748 121.481 244.957 122.225 244.957C122.802 244.957 123.349 244.896 123.864 244.776C124.379 244.657 124.917 244.465 125.477 244.202V246.226C125.019 246.454 124.53 246.623 124.01 246.732C123.489 246.846 122.854 246.903 122.105 246.903ZM133.501 236.965C133.855 236.965 134.15 236.991 134.385 237.042L134.187 239.495C133.975 239.438 133.718 239.409 133.414 239.409C132.58 239.409 131.927 239.623 131.458 240.052C130.995 240.481 130.763 241.08 130.763 241.852V246.732H128.146V237.145H130.128L130.514 238.757H130.643C130.94 238.22 131.341 237.788 131.844 237.462C132.353 237.131 132.906 236.965 133.501 236.965ZM138.743 246.732H136.126V233.39H138.743V246.732ZM147.591 246.732L147.084 245.429H147.016C146.575 245.983 146.12 246.369 145.651 246.586C145.187 246.797 144.581 246.903 143.832 246.903C142.911 246.903 142.184 246.64 141.652 246.114C141.126 245.588 140.863 244.839 140.863 243.867C140.863 242.85 141.217 242.102 141.927 241.621C142.642 241.135 143.717 240.866 145.153 240.815L146.818 240.764V240.344C146.818 239.372 146.321 238.885 145.325 238.885C144.558 238.885 143.657 239.117 142.622 239.58L141.755 237.814C142.86 237.236 144.084 236.948 145.428 236.948C146.715 236.948 147.702 237.228 148.388 237.788C149.075 238.348 149.418 239.201 149.418 240.344V246.732H147.591ZM146.818 242.29L145.806 242.324C145.045 242.348 144.478 242.484 144.106 242.736C143.735 242.988 143.549 243.37 143.549 243.885C143.549 244.623 143.972 244.991 144.819 244.991C145.425 244.991 145.909 244.817 146.269 244.468C146.635 244.119 146.818 243.656 146.818 243.079V242.29ZM150.749 237.145H153.614L155.425 242.539C155.58 243.007 155.685 243.562 155.742 244.202H155.794C155.856 243.614 155.979 243.059 156.163 242.539L157.939 237.145H160.746L156.686 247.957C156.314 248.958 155.783 249.707 155.09 250.204C154.404 250.701 153.6 250.951 152.679 250.951C152.227 250.951 151.784 250.901 151.349 250.805V248.729C151.663 248.804 152.007 248.841 152.379 248.841C152.842 248.841 153.245 248.698 153.589 248.412C153.937 248.132 154.209 247.706 154.404 247.135L154.559 246.663L150.749 237.145ZM166.099 238.826C165.545 238.826 165.11 239.003 164.795 239.358C164.481 239.706 164.301 240.203 164.255 240.85H167.927C167.916 240.203 167.747 239.706 167.421 239.358C167.095 239.003 166.655 238.826 166.099 238.826ZM166.468 246.903C164.924 246.903 163.717 246.477 162.847 245.625C161.978 244.774 161.543 243.567 161.543 242.007C161.543 240.401 161.943 239.16 162.745 238.286C163.551 237.405 164.664 236.965 166.083 236.965C167.439 236.965 168.494 237.351 169.249 238.122C170.004 238.894 170.381 239.96 170.381 241.321V242.59H164.194C164.223 243.334 164.444 243.913 164.855 244.331C165.267 244.748 165.845 244.957 166.589 244.957C167.166 244.957 167.713 244.896 168.228 244.776C168.743 244.657 169.28 244.465 169.841 244.202V246.226C169.383 246.454 168.895 246.623 168.374 246.732C167.853 246.846 167.218 246.903 166.468 246.903ZM177.864 236.965C178.219 236.965 178.514 236.991 178.748 237.042L178.551 239.495C178.339 239.438 178.081 239.409 177.778 239.409C176.943 239.409 176.291 239.623 175.822 240.052C175.358 240.481 175.127 241.08 175.127 241.852V246.732H172.51V237.145H174.492L174.879 238.757H175.007C175.305 238.22 175.704 237.788 176.208 237.462C176.718 237.131 177.269 236.965 177.864 236.965Z" fill="#001F4E"/>
<path d="M112.364 385.601H118.61C121.457 385.601 123.521 386.008 124.802 386.822C126.093 387.627 126.738 388.912 126.738 390.677C126.738 391.875 126.454 392.858 125.888 393.627C125.329 394.395 124.583 394.857 123.65 395.012V395.149C124.922 395.433 125.837 395.963 126.395 396.741C126.963 397.518 127.246 398.552 127.246 399.842C127.246 401.671 126.583 403.097 125.256 404.122C123.938 405.147 122.143 405.659 119.874 405.659H112.364V385.601ZM116.62 393.544H119.091C120.245 393.544 121.078 393.366 121.59 393.009C122.112 392.653 122.373 392.063 122.373 391.239C122.373 390.471 122.089 389.922 121.521 389.593C120.962 389.255 120.075 389.085 118.858 389.085H116.62V393.544ZM116.62 396.919V402.146H119.393C120.564 402.146 121.43 401.923 121.988 401.474C122.547 401.026 122.825 400.34 122.825 399.417C122.825 397.752 121.636 396.919 119.256 396.919H116.62ZM134.262 397.962C134.262 399.481 134.509 400.628 135.004 401.405C135.508 402.183 136.322 402.571 137.448 402.571C138.565 402.571 139.365 402.188 139.85 401.419C140.345 400.641 140.592 399.489 140.592 397.962C140.592 396.444 140.345 395.305 139.85 394.546C139.356 393.787 138.546 393.407 137.42 393.407C136.304 393.407 135.498 393.787 135.004 394.546C134.509 395.296 134.262 396.435 134.262 397.962ZM144.875 397.962C144.875 400.459 144.216 402.412 142.898 403.82C141.58 405.228 139.745 405.933 137.392 405.933C135.919 405.933 134.619 405.613 133.494 404.973C132.368 404.323 131.502 403.395 130.899 402.188C130.294 400.98 129.993 399.572 129.993 397.962C129.993 395.456 130.647 393.507 131.956 392.117C133.264 390.727 135.104 390.032 137.475 390.032C138.949 390.032 140.248 390.353 141.375 390.993C142.5 391.633 143.365 392.552 143.969 393.751C144.573 394.948 144.875 396.352 144.875 397.962ZM156.875 390.032C158.688 390.032 160.106 390.741 161.131 392.159C162.157 393.567 162.669 395.501 162.669 397.962C162.669 400.496 162.138 402.457 161.076 403.848C160.024 405.238 158.587 405.933 156.765 405.933C154.962 405.933 153.548 405.279 152.523 403.971H152.234L151.534 405.659H148.335V384.312H152.523V389.278C152.523 389.908 152.468 390.92 152.358 392.31H152.523C153.502 390.792 154.953 390.032 156.875 390.032ZM155.53 393.38C154.495 393.38 153.741 393.7 153.264 394.34C152.788 394.971 152.541 396.019 152.523 397.482V397.934C152.523 399.581 152.765 400.761 153.25 401.474C153.745 402.188 154.523 402.544 155.584 402.544C156.445 402.544 157.127 402.151 157.631 401.364C158.143 400.569 158.399 399.417 158.399 397.907C158.399 396.398 158.143 395.269 157.631 394.518C157.117 393.759 156.417 393.38 155.53 393.38Z" fill="#001F4E"/>
<path d="M157.672 151.856L152.382 155.874L137.543 136.367L142.833 132.348L144.586 134.653L142.137 136.513L153.471 151.411L155.919 149.551L157.672 151.856ZM164.785 140.87L161.407 143.435L154.378 134.195L153.256 132.652L152.047 130.95C151.913 131.936 151.803 132.6 151.717 132.942L151.003 135.81L147.829 135.017L149.861 127.01L152.638 124.901L164.785 140.87ZM174.232 121.096C176.354 123.885 177.465 126.297 177.566 128.335C177.674 130.366 176.777 132.105 174.875 133.549C173.032 134.95 171.114 135.315 169.121 134.645C167.136 133.971 165.116 132.282 163.061 129.581C160.918 126.763 159.795 124.342 159.692 122.317C159.583 120.285 160.477 118.55 162.371 117.111C164.215 115.711 166.138 115.353 168.142 116.037C170.152 116.715 172.183 118.402 174.232 121.096ZM166.417 127.032C167.907 128.99 169.143 130.269 170.127 130.866C171.112 131.451 172.005 131.438 172.807 130.83C173.594 130.232 173.836 129.371 173.531 128.246C173.227 127.121 172.339 125.59 170.866 123.653C169.375 121.694 168.127 120.424 167.123 119.844C166.12 119.25 165.228 119.249 164.448 119.842C163.654 120.445 163.412 121.307 163.723 122.426C164.029 123.538 164.927 125.073 166.417 127.032ZM187.02 111.382C189.142 114.171 190.253 116.584 190.354 118.621C190.462 120.653 189.566 122.391 187.664 123.835C185.82 125.236 183.902 125.601 181.91 124.932C179.925 124.257 177.905 122.568 175.849 119.867C173.706 117.049 172.582 114.628 172.48 112.603C172.372 110.572 173.265 108.837 175.16 107.397C177.003 105.997 178.927 105.639 180.93 106.323C182.941 107.001 184.971 108.688 187.02 111.382ZM179.205 117.319C180.696 119.277 181.932 120.555 182.915 121.152C183.9 121.737 184.794 121.725 185.595 121.116C186.382 120.518 186.623 119.657 186.32 118.532C186.016 117.407 185.128 115.876 183.654 113.939C182.164 111.98 180.916 110.71 179.911 110.13C178.908 109.536 178.016 109.536 177.237 110.128C176.443 110.731 176.201 111.593 176.512 112.712C176.818 113.824 177.715 115.36 179.205 117.319ZM197.133 112.593C197.873 114.352 198.559 116.582 199.189 119.285L196.785 121.112C195.785 118.816 194.763 116.708 193.718 114.791L196.778 112.466L197.133 112.593ZM220.495 100.5L222.933 98.6486L211.599 83.7508L209.162 85.6022L207.409 83.2977L212.699 79.2793L227.539 98.7865L222.248 102.804L220.495 100.5Z" fill="white"/>
<path d="M212.116 92.3196C214.238 95.1083 215.349 97.5211 215.45 99.5582C215.559 101.59 214.662 103.329 212.76 104.773C210.917 106.173 208.998 106.539 207.005 105.87C205.021 105.194 203 103.506 200.946 100.805C198.802 97.9865 197.679 95.5657 197.576 93.5409C197.468 91.5091 198.361 89.7741 200.255 88.335C202.099 86.9347 204.022 86.5765 206.026 87.2605C208.037 87.939 210.067 89.6257 212.116 92.3196ZM204.301 98.2561C205.791 100.214 207.027 101.493 208.011 102.09C208.996 102.674 209.889 102.662 210.691 102.054C211.478 101.456 211.72 100.594 211.416 99.4695C211.112 98.3448 210.223 96.8134 208.75 94.8765C207.259 92.9175 206.013 91.6479 205.007 91.0675C204.004 90.4739 203.112 90.473 202.333 91.0657C201.538 91.6689 201.297 92.5303 201.608 93.6498C201.913 94.7614 202.811 96.2971 204.301 98.2561Z" fill="#FE5454"/>
<path d="M122.331 327.512H118.089V315.905L118.13 313.998L118.199 311.913C117.494 312.617 117.004 313.079 116.73 313.298L114.423 315.151L112.378 312.599L118.844 307.454H122.331V327.512ZM141.827 317.483C141.827 320.986 141.251 323.579 140.098 325.262C138.953 326.945 137.187 327.786 134.798 327.786C132.482 327.786 130.734 326.918 129.554 325.18C128.381 323.442 127.796 320.877 127.796 317.483C127.796 313.944 128.368 311.337 129.512 309.663C130.656 307.98 132.418 307.139 134.798 307.139C137.114 307.139 138.862 308.017 140.043 309.773C141.232 311.529 141.827 314.099 141.827 317.483ZM132.01 317.483C132.01 319.943 132.221 321.709 132.642 322.778C133.073 323.84 133.791 324.37 134.798 324.37C135.786 324.37 136.5 323.83 136.94 322.751C137.379 321.672 137.599 319.916 137.599 317.483C137.599 315.023 137.375 313.258 136.926 312.187C136.486 311.108 135.777 310.568 134.798 310.568C133.8 310.568 133.086 311.108 132.656 312.187C132.226 313.258 132.01 315.023 132.01 317.483ZM157.892 317.483C157.892 320.986 157.314 323.579 156.161 325.262C155.017 326.945 153.25 327.786 150.862 327.786C148.546 327.786 146.797 326.918 145.617 325.18C144.445 323.442 143.86 320.877 143.86 317.483C143.86 313.944 144.432 311.337 145.576 309.663C146.72 307.98 148.482 307.139 150.862 307.139C153.177 307.139 154.925 308.017 156.106 309.773C157.296 311.529 157.892 314.099 157.892 317.483ZM148.075 317.483C148.075 319.943 148.285 321.709 148.706 322.778C149.136 323.84 149.855 324.37 150.862 324.37C151.85 324.37 152.564 323.83 153.003 322.751C153.443 321.672 153.662 319.916 153.662 317.483C153.662 315.023 153.438 313.258 152.989 312.187C152.55 311.108 151.841 310.568 150.862 310.568C149.864 310.568 149.15 311.108 148.72 312.187C148.289 313.258 148.075 315.023 148.075 317.483Z" fill="white"/>
<path d="M581.698 180H332.148C325.354 180 319.846 185.504 319.846 192.293V244.976C319.846 251.765 325.354 257.268 332.148 257.268H581.698C588.492 257.268 594 251.765 594 244.976V192.293C594 185.504 588.492 180 581.698 180Z" fill="white"/>
<path d="M567.639 364.39H346.207C339.413 364.39 333.905 369.894 333.905 376.683V412.683C333.905 419.472 339.413 424.976 346.207 424.976H567.639C574.433 424.976 579.941 419.472 579.941 412.683V376.683C579.941 369.894 574.433 364.39 567.639 364.39Z" fill="white"/>
<path d="M353.552 214.82C353.552 216.631 352.898 218.058 351.589 219.1C350.29 220.143 348.477 220.664 346.153 220.664C344.01 220.664 342.116 220.262 340.468 219.458V215.506C341.822 216.11 342.966 216.535 343.901 216.782C344.843 217.029 345.704 217.152 346.481 217.152C347.415 217.152 348.13 216.974 348.624 216.617C349.127 216.261 349.378 215.73 349.378 215.026C349.378 214.633 349.268 214.285 349.049 213.983C348.829 213.672 348.505 213.374 348.074 213.092C347.653 212.808 346.788 212.355 345.48 211.733C344.253 211.157 343.333 210.603 342.72 210.073C342.106 209.543 341.617 208.925 341.25 208.221C340.885 207.517 340.701 206.693 340.701 205.751C340.701 203.977 341.301 202.582 342.5 201.566C343.708 200.551 345.374 200.044 347.498 200.044C348.541 200.044 349.534 200.168 350.477 200.414C351.429 200.661 352.422 201.009 353.456 201.458L352.084 204.763C351.013 204.324 350.124 204.018 349.42 203.844C348.725 203.67 348.037 203.583 347.36 203.583C346.555 203.583 345.937 203.771 345.507 204.146C345.077 204.521 344.862 205.01 344.862 205.614C344.862 205.989 344.949 206.318 345.123 206.602C345.297 206.876 345.571 207.146 345.946 207.412C346.331 207.667 347.233 208.134 348.651 208.81C350.528 209.707 351.813 210.608 352.509 211.514C353.205 212.41 353.552 213.512 353.552 214.82ZM354.665 205.051H359.25L362.148 213.681C362.394 214.432 362.564 215.318 362.655 216.343H362.737C362.838 215.401 363.035 214.513 363.328 213.681L366.17 205.051H370.66L364.166 222.352C363.57 223.952 362.72 225.151 361.612 225.946C360.513 226.742 359.228 227.141 357.754 227.141C357.031 227.141 356.321 227.062 355.626 226.907V223.587C356.129 223.706 356.679 223.765 357.273 223.765C358.015 223.765 358.66 223.536 359.209 223.079C359.767 222.631 360.202 221.949 360.513 221.035L360.76 220.28L354.665 205.051ZM383.579 215.835C383.579 217.408 383.03 218.607 381.931 219.43C380.843 220.253 379.208 220.664 377.03 220.664C375.913 220.664 374.962 220.587 374.174 220.431C373.387 220.285 372.651 220.065 371.964 219.773V216.315C372.742 216.681 373.616 216.988 374.586 217.234C375.565 217.482 376.426 217.605 377.167 217.605C378.687 217.605 379.447 217.166 379.447 216.288C379.447 215.959 379.346 215.693 379.144 215.492C378.943 215.282 378.595 215.049 378.101 214.793C377.607 214.527 376.947 214.221 376.124 213.873C374.943 213.38 374.074 212.922 373.515 212.502C372.966 212.08 372.564 211.601 372.307 211.061C372.06 210.512 371.936 209.839 371.936 209.044C371.936 207.681 372.463 206.629 373.515 205.888C374.577 205.138 376.078 204.763 378.019 204.763C379.867 204.763 381.666 205.166 383.415 205.971L382.151 208.99C381.382 208.66 380.664 208.39 379.996 208.18C379.328 207.969 378.646 207.864 377.95 207.864C376.715 207.864 376.097 208.198 376.097 208.866C376.097 209.241 376.294 209.565 376.687 209.839C377.09 210.114 377.964 210.521 379.309 211.061C380.508 211.546 381.387 211.999 381.946 212.419C382.503 212.84 382.916 213.324 383.181 213.873C383.446 214.422 383.579 215.076 383.579 215.835ZM393.313 217.331C394.046 217.331 394.925 217.17 395.949 216.851V219.965C394.906 220.431 393.625 220.664 392.105 220.664C390.43 220.664 389.209 220.243 388.439 219.402C387.68 218.551 387.3 217.28 387.3 215.588V208.193H385.295V206.424L387.602 205.024L388.81 201.786H391.487V205.051H395.785V208.193H391.487V215.588C391.487 216.182 391.652 216.622 391.982 216.905C392.32 217.189 392.764 217.331 393.313 217.331ZM405.423 207.741C404.535 207.741 403.84 208.025 403.337 208.591C402.833 209.149 402.545 209.945 402.471 210.978H408.348C408.329 209.945 408.06 209.149 407.538 208.591C407.016 208.025 406.311 207.741 405.423 207.741ZM406.013 220.664C403.542 220.664 401.611 219.983 400.22 218.62C398.828 217.257 398.133 215.327 398.133 212.831C398.133 210.261 398.773 208.276 400.055 206.876C401.345 205.468 403.126 204.763 405.395 204.763C407.565 204.763 409.254 205.381 410.462 206.615C411.67 207.851 412.275 209.556 412.275 211.733V213.763H402.375C402.421 214.952 402.773 215.881 403.432 216.549C404.091 217.216 405.016 217.55 406.206 217.55C407.13 217.55 408.004 217.454 408.828 217.262C409.652 217.07 410.512 216.764 411.409 216.343V219.581C410.677 219.947 409.894 220.216 409.061 220.39C408.228 220.573 407.212 220.664 406.013 220.664ZM429.422 220.39H425.235V211.431C425.235 210.324 425.047 209.497 424.672 208.948C424.306 208.39 423.725 208.111 422.928 208.111C421.858 208.111 421.079 208.505 420.594 209.291C420.109 210.077 419.867 211.372 419.867 213.173V220.39H415.679V205.051H418.878L419.441 207.014H419.674C420.086 206.31 420.681 205.761 421.46 205.368C422.237 204.965 423.13 204.763 424.137 204.763C426.434 204.763 427.99 205.513 428.805 207.014H429.176C429.588 206.3 430.191 205.747 430.987 205.354C431.793 204.96 432.699 204.763 433.706 204.763C435.445 204.763 436.759 205.212 437.646 206.108C438.543 206.995 438.992 208.422 438.992 210.388V220.39H434.79V211.431C434.79 210.324 434.603 209.497 434.228 208.948C433.862 208.39 433.281 208.111 432.485 208.111C431.459 208.111 430.69 208.477 430.177 209.209C429.675 209.94 429.422 211.102 429.422 212.693V220.39ZM441.944 214.573V211.143H449.317V214.573H441.944ZM461.221 203.583C459.619 203.583 458.378 204.187 457.5 205.395C456.621 206.592 456.181 208.267 456.181 210.416C456.181 214.888 457.862 217.125 461.221 217.125C462.63 217.125 464.338 216.773 466.342 216.068V219.636C464.694 220.322 462.854 220.664 460.823 220.664C457.903 220.664 455.669 219.782 454.122 218.017C452.575 216.242 451.802 213.699 451.802 210.388C451.802 208.303 452.182 206.478 452.942 204.914C453.701 203.341 454.79 202.139 456.21 201.307C457.637 200.465 459.308 200.044 461.221 200.044C463.17 200.044 465.129 200.515 467.097 201.458L465.724 204.914C464.973 204.558 464.218 204.247 463.459 203.981C462.699 203.716 461.953 203.583 461.221 203.583ZM474.483 220.39H470.296V199.043H474.483V220.39ZM488.639 220.39L487.829 218.305H487.719C487.014 219.192 486.287 219.81 485.535 220.157C484.795 220.495 483.824 220.664 482.625 220.664C481.151 220.664 479.989 220.243 479.137 219.402C478.296 218.561 477.875 217.363 477.875 215.808C477.875 214.18 478.442 212.981 479.577 212.214C480.721 211.436 482.442 211.005 484.739 210.924L487.403 210.841V210.169C487.403 208.615 486.606 207.837 485.014 207.837C483.788 207.837 482.346 208.207 480.689 208.948L479.303 206.122C481.069 205.198 483.027 204.736 485.179 204.736C487.238 204.736 488.817 205.184 489.916 206.081C491.014 206.977 491.563 208.34 491.563 210.169V220.39H488.639ZM487.403 213.283L485.783 213.338C484.565 213.374 483.659 213.594 483.064 213.997C482.469 214.399 482.172 215.012 482.172 215.835C482.172 217.015 482.849 217.605 484.204 217.605C485.174 217.605 485.947 217.326 486.525 216.768C487.11 216.211 487.403 215.469 487.403 214.546V213.283ZM506.762 220.39L506.199 218.429H505.979C505.531 219.142 504.895 219.695 504.071 220.088C503.247 220.473 502.309 220.664 501.256 220.664C499.453 220.664 498.094 220.185 497.178 219.224C496.263 218.255 495.805 216.864 495.805 215.053V205.051H499.993V214.01C499.993 215.117 500.19 215.95 500.584 216.507C500.977 217.056 501.604 217.331 502.464 217.331C503.636 217.331 504.483 216.942 505.005 216.165C505.526 215.378 505.787 214.079 505.787 212.268V205.051H509.974V220.39H506.762ZM525.077 215.835C525.077 217.408 524.528 218.607 523.43 219.43C522.34 220.253 520.707 220.664 518.528 220.664C517.412 220.664 516.459 220.587 515.672 220.431C514.886 220.285 514.148 220.065 513.462 219.773V216.315C514.24 216.681 515.114 216.988 516.084 217.234C517.064 217.482 517.924 217.605 518.666 217.605C520.185 217.605 520.944 217.166 520.944 216.288C520.944 215.959 520.844 215.693 520.643 215.492C520.441 215.282 520.094 215.049 519.599 214.793C519.105 214.527 518.446 214.221 517.622 213.873C516.441 213.38 515.572 212.922 515.013 212.502C514.464 212.08 514.061 211.601 513.805 211.061C513.558 210.512 513.434 209.839 513.434 209.044C513.434 207.681 513.96 206.629 515.013 205.888C516.075 205.138 517.576 204.763 519.516 204.763C521.366 204.763 523.164 205.166 524.912 205.971L523.65 208.99C522.88 208.66 522.162 208.39 521.493 208.18C520.826 207.969 520.144 207.864 519.448 207.864C518.212 207.864 517.595 208.198 517.595 208.866C517.595 209.241 517.791 209.565 518.185 209.839C518.587 210.114 519.462 210.521 520.807 211.061C522.007 211.546 522.885 211.999 523.443 212.419C524.002 212.84 524.413 213.324 524.679 213.873C524.944 214.422 525.077 215.076 525.077 215.835ZM534.578 212.693C534.578 210.27 534.93 208.002 535.635 205.888C536.349 203.776 537.374 201.924 538.711 200.332H542.143C540.853 202.098 539.877 204.036 539.218 206.149C538.559 208.262 538.23 210.434 538.23 212.666C538.23 214.907 538.564 217.075 539.233 219.169C539.91 221.254 540.87 223.143 542.116 224.835H538.711C537.365 223.281 536.34 221.465 535.635 219.388C534.93 217.313 534.578 215.081 534.578 212.693ZM554.033 203.583C552.431 203.583 551.191 204.187 550.312 205.395C549.433 206.592 548.994 208.267 548.994 210.416C548.994 214.888 550.674 217.125 554.033 217.125C555.443 217.125 557.149 216.773 559.154 216.068V219.636C557.507 220.322 555.667 220.664 553.634 220.664C550.715 220.664 548.482 219.782 546.935 218.017C545.388 216.242 544.615 213.699 544.615 210.388C544.615 208.303 544.994 206.478 545.754 204.914C546.513 203.341 547.603 202.139 549.021 201.307C550.45 200.465 552.12 200.044 554.033 200.044C555.982 200.044 557.942 200.515 559.909 201.458L558.537 204.914C557.785 204.558 557.031 204.247 556.27 203.981C555.511 203.716 554.765 203.583 554.033 203.583ZM569.314 212.693C569.314 215.099 568.957 217.34 568.244 219.416C567.538 221.492 566.518 223.298 565.181 224.835H561.776C563.012 223.152 563.969 221.268 564.646 219.183C565.324 217.089 565.662 214.916 565.662 212.666C565.662 210.434 565.332 208.262 564.673 206.149C564.014 204.036 563.04 202.098 561.749 200.332H565.181C566.527 201.933 567.552 203.794 568.257 205.916C568.962 208.029 569.314 210.288 569.314 212.693Z" fill="#001F4E"/>
<path d="M412.81 246.732V234.196H415.47V246.732H412.81ZM427.278 246.732H424.66V241.132C424.66 240.44 424.537 239.923 424.291 239.58C424.045 239.231 423.653 239.057 423.115 239.057C422.383 239.057 421.854 239.303 421.528 239.795C421.202 240.281 421.039 241.089 421.039 242.221V246.732H418.422V237.145H420.421L420.773 238.372H420.918C421.21 237.908 421.611 237.559 422.121 237.325C422.635 237.085 423.219 236.965 423.871 236.965C424.986 236.965 425.833 237.268 426.41 237.874C426.988 238.474 427.278 239.343 427.278 240.481V246.732ZM434.014 244.819C434.471 244.819 435.021 244.719 435.661 244.519V246.466C435.009 246.757 434.208 246.903 433.258 246.903C432.211 246.903 431.448 246.64 430.967 246.114C430.493 245.582 430.255 244.788 430.255 243.73V239.108H429.002V238.003L430.444 237.128L431.199 235.104H432.872V237.145H435.558V239.108H432.872V243.73C432.872 244.102 432.975 244.377 433.181 244.554C433.392 244.731 433.67 244.819 434.014 244.819ZM441.582 238.826C441.027 238.826 440.593 239.003 440.278 239.358C439.963 239.706 439.782 240.203 439.737 240.85H443.41C443.398 240.203 443.229 239.706 442.903 239.358C442.577 239.003 442.137 238.826 441.582 238.826ZM441.951 246.903C440.406 246.903 439.199 246.477 438.33 245.625C437.46 244.774 437.025 243.567 437.025 242.007C437.025 240.401 437.426 239.16 438.227 238.286C439.034 237.405 440.146 236.965 441.564 236.965C442.92 236.965 443.976 237.351 444.731 238.122C445.486 238.894 445.864 239.96 445.864 241.321V242.59H439.677C439.706 243.334 439.926 243.913 440.338 244.331C440.75 244.748 441.327 244.957 442.071 244.957C442.649 244.957 443.195 244.896 443.71 244.776C444.225 244.657 444.763 244.465 445.323 244.202V246.226C444.866 246.454 444.376 246.623 443.856 246.732C443.335 246.846 442.7 246.903 441.951 246.903ZM453.347 236.965C453.701 236.965 453.996 236.991 454.231 237.042L454.033 239.495C453.821 239.438 453.564 239.409 453.261 239.409C452.426 239.409 451.773 239.623 451.304 240.052C450.841 240.481 450.609 241.08 450.609 241.852V246.732H447.992V237.145H449.974L450.36 238.757H450.489C450.786 238.22 451.187 237.788 451.69 237.462C452.199 237.131 452.752 236.965 453.347 236.965ZM458.589 246.732H455.972V233.39H458.589V246.732ZM467.437 246.732L466.931 245.429H466.862C466.421 245.983 465.967 246.369 465.497 246.586C465.033 246.797 464.427 246.903 463.679 246.903C462.757 246.903 462.03 246.64 461.498 246.114C460.972 245.588 460.709 244.839 460.709 243.867C460.709 242.85 461.064 242.102 461.774 241.621C462.488 241.135 463.563 240.866 464.999 240.815L466.664 240.764V240.344C466.664 239.372 466.167 238.885 465.171 238.885C464.404 238.885 463.504 239.117 462.469 239.58L461.601 237.814C462.706 237.236 463.93 236.948 465.274 236.948C466.562 236.948 467.548 237.228 468.235 237.788C468.921 238.348 469.264 239.201 469.264 240.344V246.732H467.437ZM466.664 242.29L465.652 242.324C464.891 242.348 464.324 242.484 463.953 242.736C463.581 242.988 463.395 243.37 463.395 243.885C463.395 244.623 463.818 244.991 464.665 244.991C465.272 244.991 465.755 244.817 466.115 244.468C466.482 244.119 466.664 243.656 466.664 243.079V242.29ZM470.595 237.145H473.46L475.271 242.539C475.426 243.007 475.531 243.562 475.588 244.202H475.64C475.703 243.614 475.826 243.059 476.009 242.539L477.785 237.145H480.592L476.532 247.957C476.16 248.958 475.629 249.707 474.936 250.204C474.25 250.701 473.446 250.951 472.525 250.951C472.074 250.951 471.63 250.901 471.195 250.805V248.729C471.509 248.804 471.853 248.841 472.225 248.841C472.688 248.841 473.091 248.698 473.435 248.412C473.784 248.132 474.055 247.706 474.25 247.135L474.405 246.663L470.595 237.145ZM485.946 238.826C485.391 238.826 484.956 239.003 484.642 239.358C484.327 239.706 484.147 240.203 484.101 240.85H487.773C487.762 240.203 487.593 239.706 487.267 239.358C486.941 239.003 486.501 238.826 485.946 238.826ZM486.315 246.903C484.77 246.903 483.563 246.477 482.694 245.625C481.825 244.774 481.39 243.567 481.39 242.007C481.39 240.401 481.789 239.16 482.591 238.286C483.397 237.405 484.51 236.965 485.929 236.965C487.285 236.965 488.34 237.351 489.095 238.122C489.851 238.894 490.228 239.96 490.228 241.321V242.59H484.041C484.07 243.334 484.29 243.913 484.701 244.331C485.113 244.748 485.692 244.957 486.435 244.957C487.012 244.957 487.559 244.896 488.074 244.776C488.589 244.657 489.127 244.465 489.687 244.202V246.226C489.229 246.454 488.741 246.623 488.22 246.732C487.7 246.846 487.064 246.903 486.315 246.903ZM497.711 236.965C498.066 236.965 498.36 236.991 498.594 237.042L498.397 239.495C498.185 239.438 497.928 239.409 497.624 239.409C496.79 239.409 496.138 239.623 495.668 240.052C495.204 240.481 494.973 241.08 494.973 241.852V246.732H492.356V237.145H494.338L494.725 238.757H494.853C495.151 238.22 495.551 237.788 496.054 237.462C496.564 237.131 497.116 236.965 497.711 236.965Z" fill="#001F4E"/>
<path d="M427.555 388.852C425.953 388.852 424.714 389.456 423.835 390.663C422.956 391.861 422.517 393.535 422.517 395.685C422.517 400.157 424.196 402.393 427.555 402.393C428.965 402.393 430.672 402.041 432.676 401.337V404.904C431.029 405.59 429.19 405.933 427.157 405.933C424.237 405.933 422.004 405.05 420.457 403.285C418.911 401.511 418.136 398.968 418.136 395.657C418.136 393.571 418.517 391.747 419.276 390.183C420.036 388.61 421.125 387.408 422.544 386.575C423.972 385.733 425.642 385.313 427.555 385.313C429.505 385.313 431.464 385.784 433.432 386.726L432.059 390.183C431.308 389.827 430.553 389.516 429.793 389.25C429.033 388.985 428.287 388.852 427.555 388.852ZM440.818 405.659H436.63V384.312H440.818V405.659ZM454.973 405.659L454.163 403.573H454.053C453.349 404.46 452.621 405.078 451.871 405.425C451.129 405.764 450.159 405.933 448.96 405.933C447.486 405.933 446.324 405.512 445.473 404.671C444.63 403.83 444.209 402.631 444.209 401.076C444.209 399.448 444.777 398.25 445.912 397.482C447.056 396.704 448.777 396.274 451.074 396.192L453.738 396.11V395.437C453.738 393.883 452.942 393.105 451.349 393.105C450.122 393.105 448.681 393.476 447.024 394.217L445.637 391.39C447.404 390.467 449.363 390.005 451.514 390.005C453.573 390.005 455.152 390.453 456.25 391.349C457.348 392.246 457.898 393.608 457.898 395.437V405.659H454.973ZM453.738 398.552L452.117 398.607C450.9 398.643 449.995 398.863 449.4 399.266C448.804 399.668 448.507 400.281 448.507 401.103C448.507 402.283 449.184 402.873 450.538 402.873C451.509 402.873 452.283 402.594 452.859 402.037C453.445 401.479 453.738 400.738 453.738 399.814V398.552ZM473.096 405.659L472.534 403.697H472.314C471.865 404.41 471.229 404.963 470.406 405.357C469.582 405.741 468.644 405.933 467.591 405.933C465.788 405.933 464.429 405.453 463.513 404.493C462.598 403.523 462.141 402.132 462.141 400.322V390.32H466.328V399.279C466.328 400.386 466.525 401.218 466.918 401.776C467.312 402.325 467.938 402.6 468.8 402.6C469.971 402.6 470.817 402.211 471.339 401.433C471.861 400.647 472.122 399.347 472.122 397.537V390.32H476.309V405.659H473.096ZM491.412 401.103C491.412 402.677 490.863 403.875 489.764 404.698C488.675 405.522 487.041 405.933 484.863 405.933C483.746 405.933 482.795 405.855 482.007 405.7C481.22 405.553 480.483 405.334 479.796 405.041V401.584C480.575 401.95 481.448 402.256 482.419 402.503C483.398 402.751 484.259 402.873 485 402.873C486.519 402.873 487.279 402.434 487.279 401.556C487.279 401.227 487.178 400.962 486.977 400.761C486.776 400.55 486.428 400.317 485.934 400.061C485.439 399.796 484.78 399.489 483.957 399.142C482.776 398.648 481.906 398.191 481.348 397.77C480.799 397.349 480.397 396.869 480.14 396.329C479.893 395.781 479.769 395.108 479.769 394.313C479.769 392.95 480.296 391.898 481.348 391.157C482.41 390.407 483.911 390.032 485.852 390.032C487.7 390.032 489.499 390.434 491.247 391.239L489.984 394.258C489.215 393.929 488.496 393.658 487.829 393.449C487.16 393.238 486.478 393.132 485.783 393.132C484.548 393.132 483.929 393.467 483.929 394.134C483.929 394.509 484.126 394.834 484.519 395.108C484.923 395.383 485.796 395.789 487.142 396.329C488.341 396.814 489.22 397.267 489.778 397.688C490.336 398.108 490.749 398.593 491.014 399.142C491.279 399.691 491.412 400.345 491.412 401.103Z" fill="#001F4E"/>
<path d="M371.54 101.747L366.263 97.7111L381.169 78.2544L386.445 82.2907L384.684 84.5893L382.243 82.7213L370.859 97.5803L373.301 99.4487L371.54 101.747ZM407.109 119.643C405.607 120.821 403.635 122.072 401.193 123.394L398.795 121.559C400.746 119.988 402.51 118.446 404.085 116.932L407.137 119.267L407.109 119.643ZM418.554 121.383C420.969 118.231 423.431 116.394 425.94 115.872C428.457 115.355 431.045 116.114 433.705 118.149C434.614 118.844 435.284 119.444 435.717 119.947L433.656 122.638C433.12 121.998 432.537 121.436 431.904 120.952C430.748 120.068 429.67 119.52 428.669 119.307C427.675 119.099 426.735 119.198 425.849 119.603C424.962 120.007 424.005 120.813 422.977 122.02L423.119 122.128C424.784 121.444 426.409 121.707 427.994 122.92C429.418 124.01 430.191 125.309 430.313 126.82C430.437 128.33 429.893 129.873 428.686 131.449C427.385 133.149 425.873 134.129 424.151 134.39C422.435 134.644 420.727 134.12 419.026 132.82C417.848 131.919 417.028 130.86 416.566 129.642C416.112 128.43 416.045 127.118 416.367 125.705C416.695 124.298 417.425 122.858 418.554 121.383ZM421.022 130.079C421.742 130.629 422.477 130.812 423.229 130.627C423.988 130.435 424.709 129.892 425.394 128.999C425.989 128.222 426.274 127.473 426.25 126.753C426.239 126.03 425.87 125.39 425.143 124.834C424.46 124.312 423.706 124.086 422.879 124.156C422.06 124.233 421.425 124.564 420.975 125.153C420.312 126.017 419.978 126.919 419.973 127.86C419.975 128.805 420.324 129.545 421.022 130.079ZM443.391 138.482C441.259 141.263 439.224 142.972 437.285 143.608C435.353 144.249 433.438 143.845 431.541 142.393C429.703 140.987 428.843 139.235 428.962 137.138C429.089 135.047 430.185 132.653 432.249 129.959C434.402 127.149 436.442 125.426 438.369 124.792C440.301 124.15 442.212 124.552 444.102 125.998C445.94 127.405 446.794 129.164 446.663 131.275C446.54 133.392 445.449 135.795 443.391 138.482ZM435.596 132.519C434.099 134.472 433.192 136.002 432.876 137.107C432.572 138.211 432.82 139.069 433.619 139.681C434.405 140.282 435.299 140.287 436.304 139.696C437.311 139.106 438.553 137.845 440.033 135.913C441.529 133.96 442.425 132.422 442.72 131.3C443.028 130.176 442.793 129.316 442.015 128.721C441.223 128.115 440.328 128.11 439.33 128.706C438.337 129.294 437.093 130.565 435.596 132.519ZM437.709 148.719L440.141 150.578L451.524 135.719L449.093 133.859L450.854 131.561L456.131 135.597L441.225 155.054L435.949 151.017L437.709 148.719Z" fill="white"/>
<path d="M380.768 92.478C383.183 89.3266 385.645 87.4892 388.154 86.967C390.671 86.4503 393.26 87.2094 395.919 89.2441C396.828 89.9395 397.498 90.5384 397.931 91.0424L395.869 93.7327C395.334 93.0926 394.75 92.5307 394.118 92.0477C392.963 91.1635 391.884 90.6147 390.883 90.4023C389.889 90.195 388.949 90.2934 388.062 90.6982C387.176 91.1029 386.219 91.9081 385.191 93.1146L385.333 93.2234C386.998 92.5386 388.623 92.8028 390.207 94.0146C391.631 95.1042 392.406 96.4046 392.528 97.9148C392.65 99.4251 392.108 100.969 390.9 102.545C389.598 104.244 388.087 105.225 386.364 105.485C384.648 105.739 382.94 105.216 381.24 103.915C380.062 103.014 379.243 101.955 378.78 100.738C378.325 99.5252 378.258 98.2134 378.58 96.8006C378.909 95.3931 379.638 93.9522 380.768 92.478ZM383.235 101.174C383.955 101.724 384.691 101.907 385.444 101.722C386.202 101.531 386.922 100.988 387.607 100.094C388.203 99.3171 388.488 98.5681 388.464 97.8472C388.453 97.1246 388.084 96.4854 387.357 95.9296C386.674 95.4071 385.919 95.1806 385.093 95.2508C384.274 95.3272 383.639 95.6591 383.188 96.2474C382.526 97.1123 382.192 98.0141 382.186 98.9545C382.188 99.9001 382.538 100.64 383.235 101.174ZM405.604 109.577C403.474 112.359 401.439 114.067 399.499 114.703C397.567 115.344 395.652 114.939 393.755 113.489C391.916 112.082 391.057 110.33 391.176 108.233C391.303 106.141 392.398 103.749 394.463 101.054C396.616 98.2432 398.656 96.5214 400.583 95.8866C402.515 95.2456 404.426 95.6477 406.315 97.093C408.154 98.4996 409.009 100.259 408.878 102.37C408.755 104.488 407.663 106.89 405.604 109.577ZM397.81 103.614C396.313 105.568 395.406 107.097 395.09 108.203C394.786 109.307 395.034 110.165 395.833 110.776C396.618 111.376 397.513 111.381 398.519 110.791C399.524 110.201 400.767 108.941 402.247 107.009C403.743 105.055 404.639 103.517 404.934 102.395C405.242 101.271 405.007 100.411 404.229 99.8167C403.437 99.2108 402.541 99.2056 401.543 99.8009C400.551 100.389 399.306 101.661 397.81 103.614Z" fill="#42FF00"/>
<path d="M309.027 284.131C309.027 279.357 311.65 276.969 316.895 276.969C319.503 276.969 321.494 277.619 322.866 278.918C324.248 280.216 324.94 282.078 324.94 284.502C324.94 286.276 324.592 287.868 323.896 289.276L320.656 288.041C320.922 287.383 321.137 286.77 321.301 286.203C321.475 285.636 321.562 285.068 321.562 284.502C321.562 282.324 320.016 281.237 316.922 281.237C313.919 281.237 312.418 282.324 312.418 284.502C312.418 285.306 312.524 286.052 312.734 286.738C312.954 287.424 313.293 288.11 313.75 288.796H310.166C309.737 288.119 309.439 287.433 309.275 286.738C309.109 286.052 309.027 285.183 309.027 284.131ZM309.302 296.547V292.363H330.665V296.547H309.302ZM317.004 304.285C315.484 304.285 314.336 304.532 313.558 305.026C312.78 305.53 312.391 306.343 312.391 307.468C312.391 308.584 312.775 309.384 313.544 309.869C314.323 310.363 315.475 310.61 317.004 310.61C318.524 310.61 319.663 310.363 320.423 309.869C321.183 309.375 321.562 308.566 321.562 307.441C321.562 306.325 321.183 305.52 320.423 305.026C319.672 304.532 318.532 304.285 317.004 304.285ZM317.004 314.89C314.505 314.89 312.551 314.232 311.142 312.915C309.732 311.598 309.027 309.763 309.027 307.413C309.027 305.94 309.347 304.642 309.988 303.517C310.638 302.392 311.567 301.527 312.775 300.924C313.983 300.32 315.393 300.018 317.004 300.018C319.512 300.018 321.462 300.672 322.853 301.98C324.244 303.288 324.94 305.126 324.94 307.495C324.94 308.968 324.619 310.267 323.979 311.392C323.338 312.517 322.418 313.381 321.219 313.985C320.02 314.588 318.615 314.89 317.004 314.89ZM313.86 329.049C312.286 329.049 311.086 328.5 310.263 327.403C309.439 326.314 309.027 324.682 309.027 322.505C309.027 321.389 309.105 320.438 309.26 319.651C309.407 318.864 309.627 318.128 309.919 317.442H313.38C313.013 318.22 312.707 319.093 312.46 320.063C312.212 321.041 312.089 321.901 312.089 322.642C312.089 324.16 312.528 324.919 313.407 324.919C313.737 324.919 314.002 324.818 314.203 324.617C314.414 324.416 314.647 324.069 314.903 323.575C315.169 323.081 315.475 322.422 315.823 321.6C316.317 320.419 316.775 319.55 317.196 318.993C317.618 318.444 318.098 318.042 318.638 317.785C319.187 317.539 319.86 317.415 320.656 317.415C322.02 317.415 323.073 317.941 323.814 318.993C324.565 320.053 324.94 321.554 324.94 323.493C324.94 325.34 324.538 327.137 323.732 328.884L320.711 327.622C321.04 326.854 321.311 326.136 321.521 325.468C321.732 324.8 321.837 324.119 321.837 323.424C321.837 322.189 321.502 321.571 320.835 321.571C320.459 321.571 320.134 321.768 319.86 322.162C319.585 322.565 319.178 323.437 318.638 324.782C318.153 325.98 317.699 326.858 317.279 327.417C316.858 327.974 316.373 328.386 315.823 328.651C315.274 328.916 314.62 329.049 313.86 329.049ZM321.96 338.666C321.96 337.779 321.676 337.084 321.109 336.581C320.551 336.078 319.755 335.79 318.721 335.717V341.588C319.755 341.57 320.551 341.3 321.109 340.779C321.676 340.258 321.96 339.554 321.96 338.666ZM309.027 339.256C309.027 336.786 309.709 334.857 311.073 333.466C312.437 332.076 314.368 331.381 316.866 331.381C319.438 331.381 321.425 332.021 322.826 333.302C324.235 334.591 324.94 336.371 324.94 338.639C324.94 340.807 324.322 342.494 323.086 343.701C321.85 344.908 320.144 345.512 317.965 345.512H315.933V335.62C314.744 335.666 313.814 336.018 313.146 336.677C312.478 337.335 312.143 338.26 312.143 339.449C312.143 340.372 312.24 341.246 312.432 342.069C312.624 342.892 312.931 343.752 313.352 344.648H310.112C309.745 343.916 309.476 343.135 309.302 342.302C309.119 341.47 309.027 340.455 309.027 339.256ZM309.027 353.771C309.027 351.97 309.727 350.552 311.128 349.518C312.528 348.494 314.469 347.981 316.949 347.981C319.467 347.981 321.425 348.503 322.826 349.546C324.235 350.598 324.94 352.042 324.94 353.881C324.94 355.811 324.19 357.283 322.688 358.299V358.436C323.832 358.226 324.853 358.12 325.75 358.12H330.665V362.319H309.302V359.108L311.293 358.299V358.12C309.782 357.169 309.027 355.72 309.027 353.771ZM312.363 355.239C312.363 356.31 312.675 357.091 313.297 357.586C313.919 358.089 314.976 358.363 316.468 358.408H316.922C318.569 358.408 319.75 358.153 320.464 357.64C321.178 357.138 321.535 356.314 321.535 355.171C321.535 354.238 321.137 353.51 320.34 352.99C319.554 352.477 318.404 352.222 316.895 352.222C315.384 352.222 314.249 352.481 313.49 353.003C312.738 353.525 312.363 354.27 312.363 355.239Z" fill="#FE5454"/>
<path d="M423.176 314.698C425.116 314.698 426.658 315.242 427.802 316.331C428.956 317.419 429.532 318.91 429.532 320.803C429.532 323.044 428.842 324.768 427.459 325.975C426.077 327.183 424.1 327.786 421.528 327.786C419.295 327.786 417.492 327.425 416.118 326.702V323.039C416.841 323.424 417.684 323.739 418.645 323.986C419.606 324.224 420.517 324.343 421.377 324.343C423.968 324.343 425.263 323.282 425.263 321.16C425.263 319.139 423.922 318.127 421.24 318.127C420.755 318.127 420.219 318.178 419.633 318.278C419.048 318.371 418.571 318.471 418.206 318.581L416.517 317.675L417.272 307.454H428.16V311.049H420.992L420.622 314.986L421.102 314.89C421.661 314.762 422.352 314.698 423.176 314.698ZM445.857 317.483C445.857 320.986 445.28 323.579 444.127 325.262C442.983 326.945 441.216 327.786 438.827 327.786C436.512 327.786 434.763 326.918 433.583 325.18C432.411 323.442 431.826 320.877 431.826 317.483C431.826 313.944 432.398 311.337 433.542 309.663C434.686 307.98 436.448 307.139 438.827 307.139C441.143 307.139 442.891 308.017 444.072 309.773C445.262 311.529 445.857 314.099 445.857 317.483ZM436.04 317.483C436.04 319.943 436.251 321.709 436.672 322.778C437.102 323.84 437.82 324.37 438.827 324.37C439.816 324.37 440.53 323.83 440.969 322.751C441.409 321.672 441.628 319.916 441.628 317.483C441.628 315.023 441.404 313.258 440.955 312.187C440.516 311.108 439.807 310.568 438.827 310.568C437.83 310.568 437.115 311.108 436.686 312.187C436.255 313.258 436.04 315.023 436.04 317.483Z" fill="white"/>
<path d="M427.047 511.024H177.497C170.703 511.024 165.195 516.528 165.195 523.317V576C165.195 582.789 170.703 588.293 177.497 588.293H427.047C433.841 588.293 439.349 582.789 439.349 576V523.317C439.349 516.528 433.841 511.024 427.047 511.024Z" fill="white"/>
<path d="M412.988 695.415H191.556C184.762 695.415 179.254 700.918 179.254 707.707V743.707C179.254 750.496 184.762 756 191.556 756H412.988C419.782 756 425.29 750.496 425.29 743.707V707.707C425.29 700.918 419.782 695.415 412.988 695.415Z" fill="white"/>
<path d="M198.901 545.844C198.901 547.656 198.248 549.082 196.938 550.125C195.639 551.168 193.826 551.688 191.502 551.688C189.359 551.688 187.465 551.286 185.817 550.482V546.531C187.172 547.134 188.316 547.559 189.25 547.807C190.192 548.053 191.053 548.176 191.83 548.176C192.764 548.176 193.479 547.998 193.973 547.642C194.476 547.285 194.727 546.755 194.727 546.051C194.727 545.657 194.618 545.309 194.398 545.007C194.178 544.697 193.854 544.399 193.423 544.116C193.003 543.833 192.137 543.379 190.829 542.758C189.602 542.181 188.682 541.628 188.069 541.097C187.455 540.567 186.966 539.95 186.599 539.246C186.234 538.541 186.05 537.718 186.05 536.776C186.05 535.001 186.65 533.607 187.849 532.591C189.057 531.576 190.723 531.068 192.847 531.068C193.89 531.068 194.883 531.192 195.826 531.439C196.778 531.686 197.771 532.033 198.805 532.482L197.433 535.788C196.362 535.349 195.473 535.042 194.769 534.869C194.074 534.695 193.387 534.608 192.709 534.608C191.904 534.608 191.286 534.796 190.856 535.171C190.426 535.546 190.211 536.035 190.211 536.639C190.211 537.014 190.298 537.343 190.472 537.627C190.646 537.9 190.92 538.171 191.295 538.436C191.68 538.692 192.582 539.159 194 539.835C195.877 540.731 197.162 541.632 197.858 542.538C198.554 543.434 198.901 544.537 198.901 545.844ZM200.014 536.076H204.6L207.497 544.705C207.744 545.456 207.913 546.343 208.005 547.368H208.086C208.187 546.425 208.384 545.538 208.677 544.705L211.519 536.076H216.009L209.515 553.376C208.919 554.977 208.069 556.175 206.961 556.971C205.862 557.766 204.577 558.165 203.103 558.165C202.38 558.165 201.67 558.087 200.975 557.931V554.611C201.478 554.73 202.028 554.79 202.623 554.79C203.364 554.79 204.009 554.561 204.558 554.103C205.116 553.655 205.551 552.974 205.862 552.059L206.109 551.305L200.014 536.076ZM228.928 546.859C228.928 548.433 228.379 549.631 227.281 550.454C226.192 551.278 224.557 551.688 222.379 551.688C221.262 551.688 220.311 551.611 219.523 551.456C218.736 551.309 218 551.09 217.313 550.797V547.339C218.091 547.706 218.965 548.012 219.936 548.259C220.914 548.506 221.776 548.629 222.516 548.629C224.036 548.629 224.796 548.19 224.796 547.312C224.796 546.983 224.695 546.718 224.493 546.517C224.292 546.306 223.944 546.073 223.45 545.817C222.956 545.552 222.297 545.245 221.473 544.898C220.292 544.404 219.423 543.947 218.864 543.526C218.315 543.105 217.913 542.625 217.656 542.085C217.409 541.536 217.285 540.864 217.285 540.068C217.285 538.706 217.812 537.654 218.864 536.913C219.926 536.163 221.428 535.788 223.368 535.788C225.217 535.788 227.015 536.19 228.764 536.995L227.5 540.014C226.731 539.685 226.014 539.414 225.345 539.204C224.677 538.994 223.995 538.888 223.299 538.888C222.064 538.888 221.446 539.223 221.446 539.89C221.446 540.265 221.643 540.59 222.037 540.864C222.439 541.139 223.313 541.545 224.659 542.085C225.857 542.57 226.736 543.023 227.295 543.444C227.853 543.864 228.265 544.349 228.53 544.898C228.795 545.446 228.928 546.101 228.928 546.859ZM238.662 548.355C239.395 548.355 240.274 548.195 241.298 547.875V550.99C240.255 551.456 238.974 551.688 237.454 551.688C235.779 551.688 234.558 551.268 233.788 550.427C233.029 549.576 232.649 548.304 232.649 546.612V539.218H230.644V537.448L232.951 536.049L234.159 532.81H236.836V536.076H241.134V539.218H236.836V546.612C236.836 547.207 237.002 547.646 237.331 547.93C237.669 548.213 238.113 548.355 238.662 548.355ZM250.773 538.765C249.884 538.765 249.189 539.049 248.686 539.615C248.182 540.174 247.894 540.969 247.82 542.003H253.697C253.678 540.969 253.409 540.174 252.887 539.615C252.365 539.049 251.66 538.765 250.773 538.765ZM251.362 551.688C248.891 551.688 246.96 551.007 245.569 549.644C244.177 548.282 243.482 546.352 243.482 543.855C243.482 541.285 244.123 539.3 245.404 537.9C246.695 536.492 248.475 535.788 250.744 535.788C252.914 535.788 254.603 536.405 255.811 537.64C257.019 538.875 257.624 540.58 257.624 542.758V544.788H247.724C247.77 545.977 248.122 546.906 248.781 547.573C249.44 548.24 250.365 548.575 251.555 548.575C252.479 548.575 253.353 548.478 254.178 548.287C255.001 548.095 255.861 547.788 256.758 547.368V550.605C256.026 550.971 255.243 551.241 254.41 551.415C253.577 551.597 252.562 551.688 251.362 551.688ZM274.772 551.415H270.585V542.456C270.585 541.349 270.397 540.521 270.021 539.973C269.655 539.414 269.074 539.136 268.277 539.136C267.207 539.136 266.428 539.529 265.943 540.315C265.458 541.102 265.216 542.396 265.216 544.198V551.415H261.028V536.076H264.227L264.79 538.038H265.023C265.435 537.334 266.03 536.785 266.809 536.392C267.586 535.989 268.479 535.788 269.486 535.788C271.783 535.788 273.339 536.538 274.154 538.038H274.525C274.937 537.324 275.54 536.771 276.337 536.378C277.142 535.985 278.048 535.788 279.055 535.788C280.794 535.788 282.108 536.237 282.995 537.132C283.892 538.02 284.341 539.447 284.341 541.413V551.415H280.14V542.456C280.14 541.349 279.952 540.521 279.577 539.973C279.211 539.414 278.63 539.136 277.834 539.136C276.808 539.136 276.04 539.501 275.526 540.233C275.024 540.965 274.772 542.127 274.772 543.718V551.415ZM287.293 545.597V542.168H294.666V545.597H287.293ZM314.698 541.193C314.698 544.495 313.755 547.024 311.869 548.78C309.992 550.536 307.279 551.415 303.727 551.415H298.044V531.356H304.345C307.623 531.356 310.166 532.221 311.979 533.949C313.791 535.678 314.698 538.093 314.698 541.193ZM310.276 541.303C310.276 536.995 308.373 534.841 304.565 534.841H302.299V547.902H304.125C308.226 547.902 310.276 545.703 310.276 541.303ZM328.276 551.415L327.466 549.329H327.356C326.652 550.216 325.924 550.834 325.173 551.181C324.432 551.52 323.462 551.688 322.263 551.688C320.789 551.688 319.626 551.268 318.775 550.427C317.933 549.586 317.512 548.387 317.512 546.832C317.512 545.204 318.08 544.006 319.214 543.238C320.358 542.46 322.08 542.03 324.377 541.948L327.041 541.866V541.193C327.041 539.639 326.244 538.861 324.652 538.861C323.425 538.861 321.983 539.232 320.327 539.973L318.94 537.146C320.706 536.223 322.665 535.761 324.816 535.761C326.876 535.761 328.455 536.208 329.553 537.105C330.652 538.001 331.201 539.364 331.201 541.193V551.415H328.276ZM327.041 544.308L325.421 544.363C324.203 544.399 323.297 544.618 322.702 545.021C322.107 545.424 321.809 546.036 321.809 546.859C321.809 548.039 322.487 548.629 323.842 548.629C324.812 548.629 325.585 548.35 326.162 547.793C326.747 547.235 327.041 546.494 327.041 545.57V544.308ZM349.695 551.415H345.507V542.456C345.507 541.349 345.31 540.521 344.916 539.973C344.523 539.414 343.896 539.136 343.036 539.136C341.864 539.136 341.018 539.529 340.496 540.315C339.974 541.093 339.713 542.387 339.713 544.198V551.415H335.526V536.076H338.724L339.287 538.038H339.521C339.988 537.297 340.628 536.739 341.443 536.364C342.267 535.98 343.2 535.788 344.244 535.788C346.029 535.788 347.384 536.273 348.308 537.242C349.232 538.203 349.695 539.592 349.695 541.413V551.415ZM353.827 532.111C353.827 530.749 354.586 530.067 356.107 530.067C357.626 530.067 358.385 530.749 358.385 532.111C358.385 532.76 358.193 533.268 357.809 533.634C357.433 533.991 356.866 534.169 356.107 534.169C354.586 534.169 353.827 533.483 353.827 532.111ZM358.193 551.415H354.006V536.076H358.193V551.415ZM368.957 538.765C368.069 538.765 367.374 539.049 366.871 539.615C366.367 540.174 366.079 540.969 366.005 542.003H371.882C371.863 540.969 371.594 540.174 371.072 539.615C370.55 539.049 369.845 538.765 368.957 538.765ZM369.547 551.688C367.076 551.688 365.145 551.007 363.754 549.644C362.362 548.282 361.667 546.352 361.667 543.855C361.667 541.285 362.308 539.3 363.589 537.9C364.879 536.492 366.66 535.788 368.929 535.788C371.099 535.788 372.788 536.405 373.996 537.64C375.204 538.875 375.809 540.58 375.809 542.758V544.788H365.909C365.955 545.977 366.307 546.906 366.966 547.573C367.625 548.24 368.55 548.575 369.74 548.575C370.664 548.575 371.538 548.478 372.362 548.287C373.186 548.095 374.046 547.788 374.943 547.368V550.605C374.211 550.971 373.428 551.241 372.595 551.415C371.762 551.597 370.747 551.688 369.547 551.688ZM383.401 551.415H379.213V530.067H383.401V551.415ZM394.042 543.718C394.042 541.294 394.394 539.026 395.099 536.913C395.812 534.8 396.838 532.948 398.174 531.356H401.606C400.316 533.122 399.341 535.061 398.682 537.173C398.023 539.287 397.694 541.458 397.694 543.69C397.694 545.931 398.027 548.099 398.695 550.193C399.373 552.279 400.334 554.167 401.579 555.859H398.174C396.828 554.305 395.803 552.489 395.099 550.413C394.394 548.337 394.042 546.105 394.042 543.718ZM421.624 541.193C421.624 544.495 420.681 547.024 418.796 548.78C416.919 550.536 414.205 551.415 410.654 551.415H404.97V531.356H411.272C414.549 531.356 417.093 532.221 418.905 533.949C420.718 535.678 421.624 538.093 421.624 541.193ZM417.203 541.303C417.203 536.995 415.299 534.841 411.492 534.841H409.226V547.902H411.052C415.153 547.902 417.203 545.703 417.203 541.303ZM431.661 543.718C431.661 546.123 431.304 548.364 430.589 550.441C429.885 552.516 428.864 554.323 427.528 555.859H424.123C425.358 554.177 426.315 552.293 426.993 550.207C427.669 548.113 428.009 545.941 428.009 543.69C428.009 541.458 427.679 539.287 427.02 537.173C426.361 535.061 425.386 533.122 424.096 531.356H427.528C428.873 532.957 429.899 534.819 430.603 536.941C431.308 539.053 431.661 541.313 431.661 543.718Z" fill="#001F4E"/>
<path d="M258.159 577.756V565.22H260.819V577.756H258.159ZM272.627 577.756H270.009V572.157C270.009 571.465 269.886 570.948 269.64 570.604C269.394 570.256 269.002 570.082 268.464 570.082C267.732 570.082 267.203 570.328 266.877 570.819C266.551 571.305 266.388 572.114 266.388 573.245V577.756H263.771V568.169H265.77L266.122 569.396H266.268C266.559 568.933 266.96 568.584 267.47 568.349C267.985 568.11 268.568 567.989 269.22 567.989C270.335 567.989 271.182 568.292 271.759 568.898C272.338 569.499 272.627 570.367 272.627 571.505V577.756ZM279.363 575.844C279.821 575.844 280.37 575.744 281.01 575.543V577.49C280.358 577.782 279.557 577.927 278.607 577.927C277.561 577.927 276.797 577.665 276.316 577.139C275.842 576.607 275.604 575.812 275.604 574.755V570.133H274.352V569.027L275.793 568.152L276.548 566.129H278.221V568.169H280.908V570.133H278.221V574.755C278.221 575.126 278.324 575.401 278.53 575.578C278.742 575.755 279.019 575.844 279.363 575.844ZM286.931 569.85C286.377 569.85 285.942 570.027 285.627 570.382C285.312 570.731 285.131 571.228 285.086 571.874H288.759C288.747 571.228 288.579 570.731 288.253 570.382C287.927 570.027 287.486 569.85 286.931 569.85ZM287.3 577.927C285.755 577.927 284.548 577.501 283.679 576.65C282.809 575.798 282.374 574.592 282.374 573.031C282.374 571.425 282.775 570.185 283.576 569.31C284.383 568.429 285.495 567.989 286.913 567.989C288.269 567.989 289.325 568.375 290.08 569.147C290.835 569.919 291.213 570.985 291.213 572.345V573.614H285.026C285.055 574.358 285.275 574.937 285.687 575.355C286.099 575.773 286.676 575.981 287.42 575.981C287.998 575.981 288.544 575.921 289.059 575.801C289.574 575.681 290.112 575.49 290.673 575.226V577.25C290.215 577.479 289.725 577.647 289.205 577.756C288.684 577.87 288.05 577.927 287.3 577.927ZM298.696 567.989C299.05 567.989 299.345 568.015 299.58 568.067L299.382 570.519C299.17 570.462 298.913 570.433 298.61 570.433C297.775 570.433 297.122 570.647 296.653 571.077C296.19 571.505 295.958 572.105 295.958 572.877V577.756H293.341V568.169H295.323L295.709 569.782H295.838C296.135 569.244 296.536 568.812 297.04 568.486C297.548 568.155 298.101 567.989 298.696 567.989ZM303.938 577.756H301.321V564.414H303.938V577.756ZM312.786 577.756L312.28 576.453H312.211C311.77 577.007 311.316 577.393 310.847 577.61C310.383 577.822 309.776 577.927 309.028 577.927C308.106 577.927 307.379 577.665 306.848 577.139C306.321 576.613 306.058 575.864 306.058 574.892C306.058 573.874 306.413 573.126 307.123 572.646C307.837 572.159 308.913 571.891 310.348 571.84L312.013 571.788V571.368C312.013 570.396 311.516 569.91 310.521 569.91C309.753 569.91 308.853 570.142 307.818 570.604L306.95 568.839C308.055 568.261 309.279 567.972 310.623 567.972C311.911 567.972 312.897 568.252 313.584 568.812C314.27 569.372 314.614 570.225 314.614 571.368V577.756H312.786ZM312.013 573.314L311.001 573.348C310.24 573.372 309.673 573.509 309.302 573.76C308.93 574.012 308.744 574.395 308.744 574.909C308.744 575.647 309.167 576.016 310.014 576.016C310.621 576.016 311.104 575.841 311.464 575.492C311.831 575.144 312.013 574.68 312.013 574.103V573.314ZM315.944 568.169H318.809L320.62 573.563C320.775 574.031 320.88 574.586 320.938 575.226H320.989C321.052 574.638 321.175 574.083 321.358 573.563L323.134 568.169H325.941L321.881 578.982C321.51 579.983 320.978 580.732 320.286 581.229C319.599 581.726 318.795 581.975 317.874 581.975C317.423 581.975 316.979 581.926 316.544 581.829V579.754C316.859 579.828 317.202 579.865 317.574 579.865C318.037 579.865 318.44 579.723 318.784 579.437C319.133 579.157 319.404 578.731 319.599 578.159L319.754 577.688L315.944 568.169ZM331.295 569.85C330.74 569.85 330.305 570.027 329.991 570.382C329.676 570.731 329.496 571.228 329.45 571.874H333.122C333.111 571.228 332.942 570.731 332.616 570.382C332.29 570.027 331.85 569.85 331.295 569.85ZM331.664 577.927C330.119 577.927 328.913 577.501 328.043 576.65C327.174 575.798 326.739 574.592 326.739 573.031C326.739 571.425 327.138 570.185 327.94 569.31C328.746 568.429 329.859 567.989 331.278 567.989C332.634 567.989 333.689 568.375 334.444 569.147C335.2 569.919 335.577 570.985 335.577 572.345V573.614H329.39C329.419 574.358 329.639 574.937 330.05 575.355C330.463 575.773 331.041 575.981 331.784 575.981C332.361 575.981 332.908 575.921 333.423 575.801C333.938 575.681 334.476 575.49 335.036 575.226V577.25C334.578 577.479 334.09 577.647 333.569 577.756C333.049 577.87 332.413 577.927 331.664 577.927ZM343.06 567.989C343.415 567.989 343.709 568.015 343.944 568.067L343.746 570.519C343.534 570.462 343.277 570.433 342.974 570.433C342.139 570.433 341.487 570.647 341.018 571.077C340.554 571.505 340.322 572.105 340.322 572.877V577.756H337.705V568.169H339.687L340.074 569.782H340.202C340.5 569.244 340.9 568.812 341.403 568.486C341.913 568.155 342.465 567.989 343.06 567.989Z" fill="#001F4E"/>
<path d="M281.032 726.462C281.032 729.764 280.089 732.293 278.204 734.049C276.328 735.805 273.613 736.683 270.063 736.683H264.378V716.625H270.68C273.957 716.625 276.502 717.49 278.314 719.218C280.126 720.947 281.032 723.361 281.032 726.462ZM276.612 726.571C276.612 722.264 274.707 720.11 270.9 720.11H268.635V733.171H270.461C274.562 733.171 276.612 730.971 276.612 726.571ZM294.611 736.683L293.801 734.598H293.691C292.986 735.485 292.259 736.103 291.508 736.45C290.767 736.788 289.796 736.957 288.598 736.957C287.123 736.957 285.962 736.536 285.11 735.695C284.268 734.854 283.847 733.656 283.847 732.101C283.847 730.473 284.414 729.274 285.55 728.507C286.694 727.729 288.414 727.298 290.712 727.217L293.375 727.134V726.462C293.375 724.908 292.579 724.13 290.986 724.13C289.76 724.13 288.318 724.5 286.661 725.241L285.275 722.415C287.042 721.491 289 721.029 291.151 721.029C293.211 721.029 294.789 721.477 295.888 722.374C296.986 723.27 297.535 724.633 297.535 726.462V736.683H294.611ZM293.375 729.576L291.755 729.631C290.538 729.667 289.632 729.887 289.037 730.29C288.441 730.692 288.144 731.305 288.144 732.128C288.144 733.308 288.822 733.898 290.176 733.898C291.147 733.898 291.92 733.619 292.497 733.061C293.083 732.504 293.375 731.762 293.375 730.839V729.576ZM316.029 736.683H311.842V727.724C311.842 726.617 311.645 725.79 311.252 725.241C310.858 724.683 310.231 724.404 309.37 724.404C308.199 724.404 307.352 724.798 306.831 725.584C306.309 726.362 306.048 727.656 306.048 729.466V736.683H301.86V721.344H305.059L305.622 723.307H305.856C306.322 722.566 306.964 722.007 307.778 721.632C308.601 721.249 309.536 721.056 310.579 721.056C312.363 721.056 313.718 721.541 314.643 722.51C315.567 723.471 316.029 724.861 316.029 726.681V736.683ZM320.162 717.38C320.162 716.017 320.922 715.336 322.441 715.336C323.96 715.336 324.72 716.017 324.72 717.38C324.72 718.029 324.528 718.536 324.144 718.903C323.769 719.259 323.201 719.437 322.441 719.437C320.922 719.437 320.162 718.752 320.162 717.38ZM324.528 736.683H320.34V721.344H324.528V736.683ZM335.292 724.034C334.404 724.034 333.709 724.318 333.205 724.884C332.702 725.442 332.413 726.238 332.34 727.271H338.216C338.198 726.238 337.928 725.442 337.406 724.884C336.885 724.318 336.18 724.034 335.292 724.034ZM335.882 736.957C333.412 736.957 331.48 736.276 330.088 734.913C328.697 733.55 328.001 731.62 328.001 729.124C328.001 726.554 328.642 724.569 329.924 723.169C331.215 721.761 332.995 721.056 335.265 721.056C337.434 721.056 339.123 721.674 340.33 722.908C341.539 724.144 342.143 725.849 342.143 728.026V730.056H332.244C332.289 731.245 332.642 732.174 333.301 732.842C333.96 733.509 334.885 733.843 336.075 733.843C336.999 733.843 337.874 733.747 338.697 733.555C339.521 733.363 340.381 733.057 341.278 732.636V735.874C340.546 736.24 339.764 736.509 338.931 736.683C338.098 736.866 337.082 736.957 335.882 736.957ZM349.736 736.683H345.548V715.336H349.736V736.683Z" fill="#001F4E"/>
<path d="M298.34 694.076C299.541 695.276 301.488 695.276 302.69 694.076L322.262 674.518C323.463 673.318 323.463 671.372 322.262 670.172C321.061 668.972 319.113 668.972 317.912 670.172L300.515 687.556L283.117 670.172C281.916 668.972 279.969 668.972 278.768 670.172C277.567 671.372 277.567 673.318 278.768 674.518L298.34 694.076ZM303.59 691.903V588.293H297.439V691.903H303.59Z" fill="black"/>
<path d="M278.506 647.451V644.022H285.879V647.451H278.506ZM302.341 649.112H299.924V653.268H295.778V649.112H287.21V646.161L296.011 633.21H299.924V645.819H302.341V649.112ZM295.778 645.819V642.417C295.778 641.849 295.801 641.026 295.847 639.947C295.893 638.868 295.929 638.241 295.956 638.068H295.847C295.508 638.817 295.101 639.549 294.625 640.263L290.945 645.819H295.778ZM317.842 643.239C317.842 646.743 317.265 649.336 316.112 651.019C314.968 652.701 313.201 653.542 310.812 653.542C308.496 653.542 306.748 652.674 305.567 650.936C304.396 649.199 303.81 646.633 303.81 643.239C303.81 639.7 304.382 637.093 305.526 635.419C306.67 633.736 308.432 632.895 310.812 632.895C313.128 632.895 314.876 633.773 316.057 635.529C317.247 637.285 317.842 639.855 317.842 643.239ZM308.025 643.239C308.025 645.7 308.235 647.465 308.657 648.535C309.086 649.596 309.805 650.127 310.812 650.127C311.801 650.127 312.514 649.587 312.954 648.508C313.393 647.428 313.613 645.672 313.613 643.239C313.613 640.779 313.389 639.014 312.94 637.944C312.501 636.865 311.791 636.325 310.812 636.325C309.814 636.325 309.101 636.865 308.67 637.944C308.24 639.014 308.025 640.779 308.025 643.239Z" fill="white"/>
<path d="M479.308 258.607C478.107 257.407 476.16 257.407 474.958 258.607L455.386 278.165C454.185 279.365 454.185 281.311 455.386 282.511C456.587 283.712 458.535 283.712 459.736 282.511L477.133 265.127L494.531 282.511C495.732 283.712 497.679 283.712 498.88 282.511C500.081 281.311 500.081 279.365 498.88 278.165L479.308 258.607ZM480.209 364.39V260.78H474.058V364.39H480.209Z" fill="black"/>
<path d="M457.294 319.116H451.98V316.111H457.294V310.761H460.301V316.111H465.614V319.116H460.301V324.398H457.294V319.116ZM469.952 327.512L477.49 311.049H467.591V307.482H481.993V310.143L474.401 327.512H469.952ZM497.948 317.483C497.948 320.986 497.37 323.579 496.218 325.262C495.073 326.945 493.306 327.786 490.918 327.786C488.602 327.786 486.853 326.918 485.673 325.18C484.501 323.442 483.916 320.877 483.916 317.483C483.916 313.944 484.488 311.337 485.632 309.663C486.776 307.98 488.538 307.139 490.918 307.139C493.233 307.139 494.981 308.017 496.162 309.773C497.352 311.529 497.948 314.099 497.948 317.483ZM488.131 317.483C488.131 319.943 488.341 321.709 488.762 322.778C489.192 323.84 489.911 324.37 490.918 324.37C491.906 324.37 492.62 323.83 493.059 322.751C493.499 321.672 493.719 319.916 493.719 317.483C493.719 315.023 493.494 313.258 493.045 312.187C492.606 311.108 491.897 310.568 490.918 310.568C489.92 310.568 489.206 311.108 488.776 312.187C488.345 313.258 488.131 315.023 488.131 317.483Z" fill="white"/>
</svg>
