<svg width="582" height="417" viewBox="0 0 582 417" fill="none" xmlns="http://www.w3.org/2000/svg">
<g clip-path="url(#clip0_16_562)">
<path d="M129.959 180.101L290.956 56.0352" stroke="#42FF00" stroke-width="10"/>
<path d="M457.206 180.102L296.209 56.0355" stroke="#FE5454" stroke-width="10"/>
<path d="M135.599 252.44C135.599 250.775 134.25 249.425 132.586 249.425C130.922 249.425 129.572 250.775 129.572 252.44H135.599ZM135.599 357.552V252.44H129.572V357.552H135.599Z" fill="black"/>
<path d="M415.837 0H171.328C164.672 0 159.275 5.40033 159.275 12.062V47.3864C159.275 54.048 164.672 59.4483 171.328 59.4483H415.837C422.494 59.4483 427.891 54.048 427.891 47.3864V12.062C427.891 5.40033 422.494 0 415.837 0Z" fill="white"/>
<path d="M256.562 176.622H12.0533C5.39643 176.622 0 182.022 0 188.684V240.378C0 247.04 5.39643 252.44 12.0533 252.44H256.562C263.219 252.44 268.615 247.04 268.615 240.378V188.684C268.615 182.022 263.219 176.622 256.562 176.622Z" fill="white"/>
<path d="M457.593 252.44C457.593 250.775 456.244 249.425 454.58 249.425C452.916 249.425 451.567 250.775 451.567 252.44H457.593ZM457.593 357.552V252.44H451.567V357.552H457.593Z" fill="black"/>
<path d="M242.787 357.552H25.8284C19.1716 357.552 13.7751 362.952 13.7751 369.614V404.938C13.7751 411.6 19.1716 417 25.8284 417H242.787C249.444 417 254.84 411.6 254.84 404.938V369.614C254.84 362.952 249.444 357.552 242.787 357.552Z" fill="white"/>
<path d="M191.439 35.0282C191.439 36.8052 190.799 38.2053 189.516 39.2283C188.243 40.2515 186.466 40.763 184.189 40.763C182.09 40.763 180.234 40.3682 178.62 39.5784V35.7013C179.946 36.2936 181.067 36.711 181.983 36.9533C182.906 37.1956 183.749 37.3168 184.511 37.3168C185.426 37.3168 186.126 37.1418 186.61 36.7917C187.104 36.4418 187.35 35.9212 187.35 35.2301C187.35 34.8442 187.242 34.5032 187.027 34.207C186.812 33.9019 186.494 33.6102 186.072 33.332C185.66 33.0538 184.812 32.6096 183.53 31.9992C182.328 31.4339 181.426 30.8909 180.826 30.3704C180.225 29.8498 179.745 29.244 179.386 28.553C179.028 27.8619 178.848 27.0542 178.848 26.1298C178.848 24.3887 179.436 23.0201 180.61 22.0239C181.794 21.0277 183.426 20.5296 185.507 20.5296C186.529 20.5296 187.502 20.6508 188.426 20.8931C189.359 21.1354 190.332 21.4764 191.345 21.9162L190.001 25.1605C188.951 24.7297 188.081 24.4291 187.39 24.2585C186.709 24.088 186.036 24.0028 185.372 24.0028C184.584 24.0028 183.978 24.1868 183.556 24.5548C183.135 24.9227 182.924 25.4029 182.924 25.9952C182.924 26.3632 183.01 26.6863 183.18 26.9645C183.351 27.2337 183.619 27.4985 183.987 27.7588C184.364 28.01 185.247 28.4677 186.637 29.1318C188.476 30.0113 189.735 30.8954 190.417 31.7838C191.099 32.6634 191.439 33.7449 191.439 35.0282ZM192.529 25.4432H197.022L199.861 33.9109C200.103 34.6468 200.269 35.5174 200.359 36.5225H200.439C200.538 35.5981 200.731 34.7276 201.017 33.9109L203.802 25.4432H208.201L201.839 42.4189C201.255 43.9895 200.422 45.1651 199.336 45.9459C198.26 46.7267 197 47.1171 195.556 47.1171C194.848 47.1171 194.152 47.0409 193.471 46.8883V43.6304C193.964 43.7471 194.502 43.8055 195.085 43.8055C195.812 43.8055 196.444 43.5811 196.982 43.1324C197.529 42.6926 197.955 42.024 198.26 41.1265L198.502 40.3861L192.529 25.4432ZM220.86 36.0244C220.86 37.5681 220.321 38.7438 219.245 39.5514C218.179 40.3592 216.577 40.763 214.443 40.763C213.349 40.763 212.416 40.6868 211.645 40.5342C210.873 40.3906 210.152 40.1752 209.479 39.888V36.4956C210.241 36.8545 211.098 37.1552 212.049 37.3975C213.008 37.6399 213.851 37.761 214.577 37.761C216.067 37.761 216.81 37.3302 216.81 36.4686C216.81 36.1455 216.712 35.8853 216.514 35.6879C216.317 35.4814 215.976 35.2526 215.492 35.0013C215.008 34.741 214.362 34.4404 213.555 34.0993C212.398 33.6147 211.547 33.166 210.999 32.7531C210.461 32.3403 210.067 31.8691 209.815 31.3396C209.573 30.8011 209.452 30.1415 209.452 29.3607C209.452 28.0234 209.968 26.9914 210.999 26.2645C212.039 25.5285 213.51 25.1605 215.411 25.1605C217.223 25.1605 218.985 25.5555 220.699 26.3452L219.46 29.3068C218.707 28.9837 218.004 28.719 217.349 28.5126C216.694 28.3062 216.026 28.203 215.344 28.203C214.134 28.203 213.529 28.5306 213.529 29.1857C213.529 29.5537 213.721 29.8723 214.107 30.1415C214.501 30.4108 215.358 30.8101 216.676 31.3396C217.851 31.8153 218.711 32.2595 219.259 32.6724C219.806 33.0852 220.21 33.5608 220.47 34.0993C220.73 34.6378 220.86 35.2795 220.86 36.0244ZM230.397 37.4917C231.115 37.4917 231.976 37.3347 232.98 37.0206V40.0765C231.958 40.5342 230.703 40.763 229.213 40.763C227.572 40.763 226.376 40.3502 225.621 39.5245C224.878 38.6898 224.506 37.4424 224.506 35.782V28.5261H222.541V26.7895L224.801 25.4163L225.985 22.2393H228.608V25.4432H232.819V28.5261H228.608V35.782C228.608 36.3654 228.77 36.7962 229.093 37.0744C229.424 37.3527 229.859 37.4917 230.397 37.4917ZM242.263 28.0818C241.392 28.0818 240.711 28.36 240.218 28.9165C239.725 29.4639 239.442 30.2447 239.37 31.2588H245.128C245.11 30.2447 244.845 29.4639 244.334 28.9165C243.823 28.36 243.132 28.0818 242.263 28.0818ZM242.84 40.763C240.419 40.763 238.527 40.0945 237.164 38.7572C235.8 37.42 235.119 35.5263 235.119 33.0762C235.119 30.5543 235.747 28.6068 237.002 27.2337C238.267 25.8516 240.011 25.1605 242.235 25.1605C244.361 25.1605 246.016 25.7663 247.199 26.9779C248.383 28.1895 248.975 29.8633 248.975 31.9992V33.9916H239.276C239.321 35.1584 239.666 36.0693 240.312 36.7244C240.957 37.3796 241.863 37.7071 243.029 37.7071C243.935 37.7071 244.791 37.6129 245.599 37.4245C246.406 37.236 247.248 36.9353 248.127 36.5225V39.6995C247.41 40.0585 246.643 40.3233 245.827 40.4938C245.011 40.6733 244.016 40.763 242.84 40.763ZM265.777 40.4938H261.674V31.7031C261.674 30.6172 261.49 29.805 261.123 29.2665C260.764 28.719 260.194 28.4453 259.414 28.4453C258.365 28.4453 257.602 28.8312 257.127 29.603C256.652 30.3748 256.414 31.6448 256.414 33.4127V40.4938H252.311V25.4432H255.445L255.997 27.3683H256.226C256.629 26.6772 257.212 26.1387 257.975 25.7529C258.737 25.358 259.612 25.1605 260.598 25.1605C262.849 25.1605 264.373 25.8965 265.172 27.3683H265.535C265.939 26.6683 266.53 26.1253 267.31 25.7394C268.1 25.3535 268.987 25.1605 269.974 25.1605C271.678 25.1605 272.965 25.6003 273.834 26.4798C274.713 27.3504 275.153 28.7504 275.153 30.68V40.4938H271.036V31.7031C271.036 30.6172 270.853 29.805 270.485 29.2665C270.126 28.719 269.557 28.4453 268.777 28.4453C267.773 28.4453 267.019 28.8043 266.516 29.5222C266.024 30.2403 265.777 31.38 265.777 32.9416V40.4938ZM298.897 40.4938L297.739 35.2301L296.179 28.5799H296.085L293.341 40.4938H288.929L284.651 25.4432H288.74L290.476 32.1069C290.754 33.3006 291.036 34.9474 291.323 37.0475H291.404C291.439 36.3654 291.597 35.284 291.875 33.8032L292.09 32.6589L293.946 25.4432H298.466L300.228 32.6589C300.264 32.8563 300.318 33.1481 300.389 33.534C300.47 33.9199 300.547 34.3327 300.618 34.7725C300.69 35.2032 300.753 35.6295 300.807 36.0514C300.87 36.4642 300.905 36.7962 300.915 37.0475H300.995C301.076 36.4013 301.219 35.5174 301.425 34.3955C301.632 33.2647 301.78 32.5019 301.869 32.1069L303.672 25.4432H307.695L303.362 40.4938H298.897ZM319.68 40.4938L318.887 38.4476H318.779C318.089 39.3181 317.375 39.9239 316.64 40.265C315.914 40.597 314.963 40.763 313.788 40.763C312.345 40.763 311.206 40.3502 310.371 39.5245C309.547 38.6989 309.133 37.5232 309.133 35.9974C309.133 34.4 309.689 33.2243 310.802 32.4704C311.923 31.7076 313.608 31.2858 315.86 31.205L318.469 31.1242V30.4646C318.469 28.9389 317.689 28.176 316.129 28.176C314.927 28.176 313.515 28.5395 311.892 29.2665L310.533 26.4933C312.264 25.5868 314.183 25.1336 316.29 25.1336C318.308 25.1336 319.855 25.5734 320.932 26.4529C322.008 27.3325 322.546 28.6696 322.546 30.4646V40.4938H319.68ZM318.469 33.5204L316.882 33.5744C315.689 33.6102 314.802 33.8256 314.219 34.2205C313.636 34.6154 313.344 35.2167 313.344 36.0244C313.344 37.1821 314.008 37.761 315.336 37.761C316.286 37.761 317.044 37.4873 317.608 36.9398C318.183 36.3924 318.469 35.6654 318.469 34.759V33.5204ZM330.886 40.4938H326.783V19.5469H330.886V40.4938ZM339.307 40.4938H335.204V19.5469H339.307V40.4938ZM349.853 28.0818C348.984 28.0818 348.302 28.36 347.809 28.9165C347.315 29.4639 347.033 30.2447 346.962 31.2588H352.72C352.701 30.2447 352.436 29.4639 351.926 28.9165C351.414 28.36 350.724 28.0818 349.853 28.0818ZM350.432 40.763C348.011 40.763 346.119 40.0945 344.756 38.7572C343.392 37.42 342.71 35.5263 342.71 33.0762C342.71 30.5543 343.339 28.6068 344.594 27.2337C345.859 25.8516 347.603 25.1605 349.827 25.1605C351.952 25.1605 353.607 25.7663 354.791 26.9779C355.975 28.1895 356.566 29.8633 356.566 31.9992V33.9916H346.868C346.912 35.1584 347.258 36.0693 347.903 36.7244C348.549 37.3796 349.455 37.7071 350.621 37.7071C351.526 37.7071 352.383 37.6129 353.19 37.4245C353.997 37.236 354.84 36.9353 355.719 36.5225V39.6995C355.002 40.0585 354.235 40.3233 353.419 40.4938C352.602 40.6733 351.607 40.763 350.432 40.763ZM366.239 37.4917C366.956 37.4917 367.817 37.3347 368.822 37.0206V40.0765C367.799 40.5342 366.544 40.763 365.055 40.763C363.413 40.763 362.217 40.3502 361.463 39.5245C360.719 38.6898 360.347 37.4424 360.347 35.782V28.5261H358.383V26.7895L360.643 25.4163L361.827 22.2393H364.449V25.4432H368.66V28.5261H364.449V35.782C364.449 36.3654 364.611 36.7962 364.934 37.0744C365.265 37.3527 365.701 37.4917 366.239 37.4917ZM377.982 32.9416C377.982 30.5633 378.328 28.3376 379.018 26.2645C379.718 24.1913 380.723 22.3739 382.031 20.8123H385.395C384.13 22.5445 383.175 24.4471 382.529 26.5202C381.883 28.5934 381.561 30.7249 381.561 32.9147C381.561 35.1135 381.888 37.2405 382.543 39.2957C383.207 41.3419 384.148 43.1952 385.368 44.8555H382.031C380.713 43.3298 379.709 41.5484 379.018 39.5111C378.328 37.4738 377.982 35.284 377.982 32.9416ZM400.73 40.4938L399.305 35.809H392.135L390.708 40.4938H386.216L393.156 20.7315H398.255L405.224 40.4938H400.73ZM398.309 32.3089C396.99 28.0638 396.246 25.6632 396.076 25.1067C395.914 24.5503 395.798 24.1105 395.726 23.7874C395.43 24.9362 394.582 27.7767 393.184 32.3089H398.309ZM413.47 32.9416C413.47 35.302 413.12 37.5007 412.42 39.538C411.73 41.5752 410.73 43.3478 409.421 44.8555H406.084C407.295 43.2041 408.233 41.3554 408.896 39.3091C409.559 37.254 409.892 35.1224 409.892 32.9147C409.892 30.7249 409.569 28.5934 408.923 26.5202C408.277 24.4471 407.322 22.5445 406.058 20.8123H409.421C410.739 22.3829 411.743 24.2093 412.434 26.2913C413.124 28.3645 413.47 30.5813 413.47 32.9416Z" fill="#001F4E"/>
<path d="M45.0787 210.788C45.0787 212.566 44.4374 213.966 43.155 214.988C41.8814 216.012 40.1057 216.523 37.8278 216.523C35.7293 216.523 33.8729 216.128 32.2586 215.339V211.462C33.5859 212.054 34.7069 212.471 35.6217 212.714C36.5454 212.956 37.3884 213.077 38.1507 213.077C39.0655 213.077 39.765 212.902 40.2493 212.552C40.7425 212.202 40.9892 211.682 40.9892 210.991C40.9892 210.605 40.8815 210.264 40.6663 209.967C40.4511 209.662 40.1327 209.37 39.7112 209.093C39.2986 208.814 38.4512 208.37 37.1687 207.76C35.9669 207.194 35.0657 206.651 34.4647 206.131C33.8639 205.61 33.3841 205.005 33.0254 204.314C32.6666 203.623 32.4873 202.814 32.4873 201.89C32.4873 200.149 33.0747 198.781 34.2495 197.784C35.4333 196.788 37.0656 196.29 39.1462 196.29C40.1685 196.29 41.1416 196.411 42.0653 196.653C42.998 196.895 43.971 197.237 44.9845 197.677L43.6392 200.921C42.59 200.49 41.72 200.189 41.0294 200.019C40.3479 199.848 39.6753 199.763 39.0116 199.763C38.2224 199.763 37.6171 199.947 37.1956 200.315C36.774 200.683 36.5634 201.163 36.5634 201.756C36.5634 202.123 36.6485 202.447 36.8189 202.725C36.9893 202.994 37.2583 203.259 37.626 203.519C38.0027 203.77 38.8861 204.228 40.2761 204.892C42.1147 205.771 43.3747 206.655 44.0563 207.545C44.7378 208.423 45.0787 209.505 45.0787 210.788ZM46.1683 201.203H50.6614L53.4997 209.671C53.7419 210.407 53.9078 211.278 53.9975 212.283H54.0782C54.1769 211.359 54.3696 210.488 54.6567 209.671L57.4413 201.203H61.8402L55.4773 218.179C54.8943 219.749 54.0603 220.926 52.9751 221.706C51.8989 222.487 50.6389 222.878 49.195 222.878C48.4865 222.878 47.7915 222.801 47.11 222.649V219.391C47.6032 219.507 48.1413 219.566 48.7242 219.566C49.4506 219.566 50.0829 219.341 50.621 218.892C51.168 218.453 51.594 217.784 51.8989 216.886L52.1411 216.146L46.1683 201.203ZM74.4987 211.784C74.4987 213.328 73.9607 214.504 72.8845 215.312C71.8173 216.12 70.2165 216.523 68.082 216.523C66.9879 216.523 66.0553 216.447 65.284 216.295C64.5127 216.151 63.7908 215.935 63.1182 215.648V212.256C63.8804 212.615 64.7369 212.916 65.6876 213.158C66.6472 213.401 67.4901 213.521 68.2166 213.521C69.7053 213.521 70.4496 213.09 70.4496 212.229C70.4496 211.906 70.351 211.646 70.1537 211.448C69.9564 211.241 69.6156 211.013 69.1313 210.762C68.6471 210.501 68.0014 210.201 67.1942 209.86C66.0373 209.375 65.1853 208.926 64.6382 208.514C64.1002 208.1 63.7056 207.63 63.4544 207.1C63.2123 206.561 63.0912 205.901 63.0912 205.121C63.0912 203.784 63.6069 202.752 64.6382 202.024C65.6786 201.289 67.1494 200.921 69.0506 200.921C70.8622 200.921 72.6245 201.315 74.3374 202.105L73.0997 205.067C72.3464 204.744 71.6424 204.479 70.9877 204.273C70.3331 204.066 69.665 203.963 68.9834 203.963C67.7727 203.963 67.1673 204.291 67.1673 204.946C67.1673 205.314 67.3601 205.633 67.7457 205.901C68.1403 206.171 68.9968 206.57 70.3152 207.1C71.49 207.576 72.3509 208.02 72.898 208.433C73.445 208.845 73.8486 209.321 74.1087 209.86C74.3688 210.398 74.4987 211.04 74.4987 211.784ZM84.0365 213.252C84.7539 213.252 85.6149 213.095 86.619 212.781V215.837C85.597 216.295 84.3414 216.523 82.8527 216.523C81.2115 216.523 80.0142 216.11 79.2609 215.285C78.5165 214.45 78.1443 213.202 78.1443 211.542V204.286H76.1804V202.55L78.4403 201.177L79.6241 197.999H82.2473V201.203H86.458V204.286H82.2473V211.542C82.2473 212.125 82.4088 212.556 82.7316 212.835C83.0635 213.113 83.4984 213.252 84.0365 213.252ZM95.9017 203.842C95.0313 203.842 94.3503 204.121 93.857 204.676C93.3636 205.224 93.0813 206.005 93.0089 207.019H98.7669C98.7489 206.005 98.4846 205.224 97.9732 204.676C97.4618 204.121 96.7713 203.842 95.9017 203.842ZM96.4794 216.523C94.0584 216.523 92.1661 215.854 90.8032 214.517C89.4394 213.18 88.7584 211.286 88.7584 208.837C88.7584 206.315 89.3861 204.367 90.6413 202.994C91.9061 201.612 93.6503 200.921 95.8742 200.921C97.9998 200.921 99.6546 201.526 100.838 202.738C102.022 203.95 102.615 205.623 102.615 207.76V209.752H92.9151C92.9599 210.918 93.3051 211.83 93.9508 212.485C94.5965 213.14 95.5022 213.468 96.668 213.468C97.5737 213.468 98.4303 213.373 99.2379 213.185C100.045 212.997 100.887 212.696 101.766 212.283V215.46C101.049 215.819 100.282 216.084 99.466 216.254C98.6499 216.433 97.6546 216.523 96.4794 216.523ZM119.416 216.254H115.313V207.464C115.313 206.377 115.129 205.565 114.762 205.027C114.403 204.479 113.834 204.206 113.053 204.206C112.004 204.206 111.241 204.592 110.766 205.363C110.291 206.135 110.053 207.405 110.053 209.173V216.254H105.95V201.203H109.085L109.636 203.129H109.865C110.268 202.438 110.851 201.899 111.614 201.514C112.376 201.118 113.251 200.921 114.237 200.921C116.488 200.921 118.013 201.657 118.811 203.129H119.174C119.578 202.428 120.169 201.886 120.949 201.5C121.739 201.114 122.626 200.921 123.613 200.921C125.317 200.921 126.604 201.361 127.473 202.24C128.353 203.111 128.792 204.511 128.792 206.44V216.254H124.675V207.464C124.675 206.377 124.492 205.565 124.124 205.027C123.765 204.479 123.196 204.206 122.416 204.206C121.412 204.206 120.658 204.564 120.155 205.283C119.663 206.001 119.416 207.14 119.416 208.702V216.254ZM131.684 210.546V207.181H138.909V210.546H131.684ZM142.218 196.572H148.339C151.127 196.572 153.15 196.972 154.406 197.771C155.67 198.561 156.302 199.821 156.302 201.554C156.302 202.729 156.024 203.694 155.468 204.448C154.921 205.202 154.19 205.655 153.275 205.808V205.942C154.522 206.22 155.419 206.741 155.966 207.504C156.522 208.266 156.8 209.281 156.8 210.546C156.8 212.341 156.15 213.741 154.849 214.746C153.558 215.752 151.8 216.254 149.576 216.254H142.218V196.572ZM146.388 204.367H148.809C149.939 204.367 150.755 204.192 151.258 203.842C151.769 203.493 152.024 202.914 152.024 202.105C152.024 201.352 151.746 200.813 151.19 200.49C150.643 200.158 149.774 199.992 148.58 199.992H146.388V204.367ZM146.388 207.679V212.808H149.106C150.253 212.808 151.1 212.588 151.648 212.148C152.195 211.708 152.469 211.036 152.469 210.129C152.469 208.496 151.303 207.679 148.97 207.679H146.388ZM163.674 208.702C163.674 210.192 163.917 211.318 164.4 212.081C164.894 212.844 165.692 213.225 166.795 213.225C167.889 213.225 168.674 212.848 169.149 212.094C169.633 211.331 169.875 210.201 169.875 208.702C169.875 207.212 169.633 206.094 169.149 205.35C168.665 204.605 167.871 204.233 166.768 204.233C165.674 204.233 164.885 204.605 164.4 205.35C163.917 206.086 163.674 207.203 163.674 208.702ZM174.073 208.702C174.073 211.152 173.427 213.068 172.136 214.45C170.845 215.832 169.046 216.523 166.741 216.523C165.297 216.523 164.024 216.209 162.92 215.581C161.818 214.944 160.97 214.033 160.378 212.848C159.787 211.664 159.49 210.282 159.49 208.702C159.49 206.243 160.132 204.331 161.414 202.967C162.697 201.603 164.499 200.921 166.822 200.921C168.266 200.921 169.539 201.235 170.642 201.863C171.745 202.491 172.593 203.393 173.185 204.569C173.777 205.745 174.073 207.122 174.073 208.702ZM185.83 200.921C187.605 200.921 188.996 201.616 190.001 203.007C191.004 204.389 191.507 206.287 191.507 208.702C191.507 211.188 190.986 213.113 189.946 214.478C188.915 215.841 187.507 216.523 185.723 216.523C183.956 216.523 182.57 215.882 181.566 214.598H181.283L180.597 216.254H177.463V195.308H181.566V200.181C181.566 200.799 181.512 201.792 181.404 203.156H181.566C182.525 201.666 183.946 200.921 185.83 200.921ZM184.511 204.206C183.498 204.206 182.758 204.52 182.292 205.148C181.826 205.767 181.583 206.795 181.566 208.231V208.675C181.566 210.29 181.804 211.448 182.279 212.148C182.763 212.848 183.525 213.198 184.565 213.198C185.408 213.198 186.076 212.812 186.57 212.04C187.072 211.26 187.323 210.129 187.323 208.648C187.323 207.167 187.072 206.059 186.57 205.323C186.068 204.578 185.382 204.206 184.511 204.206ZM201.004 208.702C201.004 206.324 201.35 204.098 202.04 202.024C202.739 199.951 203.744 198.134 205.053 196.572H208.416C207.152 198.305 206.197 200.207 205.551 202.28C204.905 204.354 204.582 206.485 204.582 208.675C204.582 210.874 204.91 213.001 205.565 215.056C206.228 217.102 207.17 218.955 208.39 220.615H205.053C203.735 219.09 202.731 217.309 202.04 215.271C201.35 213.234 201.004 211.044 201.004 208.702ZM211.712 196.572H217.833C220.622 196.572 222.644 196.972 223.9 197.771C225.164 198.561 225.797 199.821 225.797 201.554C225.797 202.729 225.519 203.694 224.963 204.448C224.415 205.202 223.684 205.655 222.77 205.808V205.942C224.017 206.22 224.914 206.741 225.46 207.504C226.017 208.266 226.295 209.281 226.295 210.546C226.295 212.341 225.645 213.741 224.344 214.746C223.052 215.752 221.294 216.254 219.07 216.254H211.712V196.572ZM215.882 204.367H218.303C219.434 204.367 220.25 204.192 220.752 203.842C221.263 203.493 221.519 202.914 221.519 202.105C221.519 201.352 221.241 200.813 220.685 200.49C220.138 200.158 219.268 199.992 218.075 199.992H215.882V204.367ZM215.882 207.679V212.808H218.6C219.748 212.808 220.595 212.588 221.142 212.148C221.689 211.708 221.962 211.036 221.962 210.129C221.962 208.496 220.797 207.679 218.465 207.679H215.882ZM235.98 208.702C235.98 211.062 235.631 213.261 234.931 215.299C234.24 217.335 233.24 219.108 231.931 220.615H228.595C229.806 218.965 230.742 217.116 231.406 215.069C232.07 213.015 232.402 210.883 232.402 208.675C232.402 206.485 232.079 204.354 231.433 202.28C230.787 200.207 229.832 198.305 228.568 196.572H231.931C233.249 198.143 234.254 199.97 234.945 202.052C235.635 204.125 235.98 206.342 235.98 208.702Z" fill="#001F4E"/>
<path d="M91.0856 242.101V229.801H93.6917V242.101H91.0856ZM105.261 242.101H102.696V236.607C102.696 235.928 102.576 235.421 102.335 235.084C102.094 234.742 101.71 234.571 101.183 234.571C100.466 234.571 99.9473 234.812 99.6279 235.295C99.3085 235.771 99.1483 236.565 99.1483 237.675V242.101H96.5844V232.695H98.5431L98.8875 233.898H99.0304C99.3162 233.443 99.7088 233.101 100.208 232.871C100.713 232.636 101.284 232.518 101.923 232.518C103.016 232.518 103.846 232.815 104.411 233.41C104.978 233.999 105.261 234.851 105.261 235.968V242.101ZM111.861 240.225C112.31 240.225 112.848 240.127 113.475 239.93V241.84C112.837 242.126 112.051 242.269 111.121 242.269C110.095 242.269 109.347 242.012 108.876 241.496C108.411 240.974 108.178 240.194 108.178 239.156V234.621H106.951V233.536L108.363 232.677L109.103 230.692H110.743V232.695H113.375V234.621H110.743V239.156C110.743 239.521 110.843 239.791 111.045 239.965C111.252 240.138 111.524 240.225 111.861 240.225ZM119.276 234.344C118.733 234.344 118.307 234.518 117.999 234.866C117.691 235.208 117.513 235.696 117.468 236.33H121.067C121.056 235.696 120.891 235.208 120.571 234.866C120.252 234.518 119.821 234.344 119.276 234.344ZM119.638 242.269C118.124 242.269 116.942 241.851 116.09 241.016C115.238 240.18 114.812 238.996 114.812 237.465C114.812 235.889 115.204 234.672 115.989 233.814C116.78 232.95 117.87 232.518 119.259 232.518C120.588 232.518 121.622 232.896 122.362 233.654C123.102 234.411 123.472 235.457 123.472 236.792V238.037H117.41C117.438 238.767 117.654 239.336 118.057 239.746C118.461 240.155 119.027 240.36 119.756 240.36C120.322 240.36 120.857 240.301 121.362 240.183C121.866 240.065 122.393 239.878 122.942 239.619V241.605C122.494 241.829 122.014 241.994 121.505 242.101C120.994 242.213 120.372 242.269 119.638 242.269ZM130.804 232.518C131.151 232.518 131.44 232.543 131.67 232.594L131.476 235C131.269 234.944 131.016 234.916 130.719 234.916C129.901 234.916 129.262 235.126 128.802 235.547C128.348 235.968 128.121 236.556 128.121 237.314V242.101H125.557V232.695H127.499L127.877 234.277H128.004C128.295 233.749 128.687 233.325 129.181 233.006C129.679 232.681 130.221 232.518 130.804 232.518ZM135.94 242.101H133.376V229.01H135.94V242.101ZM144.609 242.101L144.113 240.823H144.046C143.614 241.366 143.169 241.746 142.709 241.958C142.254 242.166 141.66 242.269 140.927 242.269C140.024 242.269 139.312 242.012 138.791 241.496C138.275 240.98 138.018 240.245 138.018 239.291C138.018 238.292 138.364 237.558 139.06 237.087C139.76 236.61 140.814 236.346 142.221 236.296L143.852 236.245V235.833C143.852 234.88 143.365 234.402 142.389 234.402C141.638 234.402 140.755 234.63 139.741 235.084L138.891 233.351C139.974 232.784 141.173 232.501 142.49 232.501C143.751 232.501 144.718 232.776 145.391 233.325C146.063 233.875 146.4 234.712 146.4 235.833V242.101H144.609ZM143.852 237.743L142.86 237.776C142.115 237.8 141.559 237.934 141.195 238.18C140.831 238.428 140.649 238.803 140.649 239.308C140.649 240.032 141.064 240.394 141.893 240.394C142.488 240.394 142.961 240.222 143.314 239.88C143.673 239.538 143.852 239.083 143.852 238.517V237.743ZM147.703 232.695H150.511L152.285 237.987C152.437 238.447 152.54 238.991 152.596 239.619H152.647C152.708 239.042 152.828 238.497 153.008 237.987L154.748 232.695H157.498L153.521 243.304C153.156 244.286 152.636 245.021 151.957 245.509C151.285 245.996 150.497 246.241 149.595 246.241C149.152 246.241 148.717 246.193 148.291 246.098V244.061C148.599 244.135 148.936 244.171 149.3 244.171C149.754 244.171 150.149 244.031 150.486 243.75C150.828 243.476 151.094 243.058 151.285 242.497L151.436 242.034L147.703 232.695ZM162.744 234.344C162.201 234.344 161.774 234.518 161.466 234.866C161.158 235.208 160.982 235.696 160.937 236.33H164.535C164.523 235.696 164.358 235.208 164.039 234.866C163.719 234.518 163.288 234.344 162.744 234.344ZM163.105 242.269C161.592 242.269 160.41 241.851 159.558 241.016C158.706 240.18 158.28 238.996 158.28 237.465C158.28 235.889 158.672 234.672 159.457 233.814C160.247 232.95 161.337 232.518 162.728 232.518C164.056 232.518 165.09 232.896 165.83 233.654C166.57 234.411 166.939 235.457 166.939 236.792V238.037H160.877C160.906 238.767 161.122 239.336 161.525 239.746C161.929 240.155 162.495 240.36 163.223 240.36C163.789 240.36 164.325 240.301 164.829 240.183C165.334 240.065 165.861 239.878 166.41 239.619V241.605C165.961 241.829 165.483 241.994 164.972 242.101C164.462 242.213 163.84 242.269 163.105 242.269ZM174.271 232.518C174.619 232.518 174.907 232.543 175.137 232.594L174.944 235C174.736 234.944 174.484 234.916 174.187 234.916C173.369 234.916 172.73 235.126 172.27 235.547C171.816 235.968 171.589 236.556 171.589 237.314V242.101H169.025V232.695H170.967L171.346 234.277H171.471C171.763 233.749 172.155 233.325 172.648 233.006C173.148 232.681 173.688 232.518 174.271 232.518Z" fill="#001F4E"/>
<path d="M110.094 378.364H116.214C119.003 378.364 121.026 378.764 122.281 379.562C123.546 380.352 124.178 381.613 124.178 383.346C124.178 384.521 123.9 385.486 123.344 386.24C122.797 386.993 122.066 387.447 121.152 387.599V387.733C122.398 388.012 123.294 388.532 123.842 389.296C124.398 390.058 124.675 391.072 124.675 392.338C124.675 394.132 124.025 395.532 122.725 396.538C121.434 397.543 119.676 398.046 117.452 398.046H110.094V378.364ZM114.264 386.159H116.685C117.815 386.159 118.632 385.984 119.134 385.634C119.645 385.284 119.901 384.705 119.901 383.897C119.901 383.143 119.623 382.605 119.066 382.281C118.519 381.95 117.649 381.783 116.457 381.783H114.264V386.159ZM114.264 389.47V394.599H116.981C118.129 394.599 118.977 394.38 119.524 393.939C120.071 393.5 120.344 392.827 120.344 391.921C120.344 390.287 119.178 389.47 116.847 389.47H114.264ZM131.55 390.493C131.55 391.984 131.792 393.11 132.277 393.872C132.77 394.636 133.568 395.016 134.671 395.016C135.765 395.016 136.55 394.64 137.025 393.886C137.51 393.123 137.751 391.992 137.751 390.493C137.751 389.003 137.51 387.886 137.025 387.142C136.541 386.396 135.747 386.024 134.644 386.024C133.55 386.024 132.761 386.396 132.277 387.142C131.792 387.877 131.55 388.995 131.55 390.493ZM141.949 390.493C141.949 392.943 141.303 394.86 140.011 396.242C138.72 397.623 136.922 398.314 134.617 398.314C133.173 398.314 131.9 398.001 130.797 397.373C129.694 396.735 128.846 395.824 128.254 394.64C127.662 393.455 127.367 392.073 127.367 390.493C127.367 388.034 128.007 386.122 129.29 384.758C130.572 383.395 132.375 382.712 134.698 382.712C136.142 382.712 137.415 383.027 138.519 383.655C139.621 384.283 140.469 385.185 141.061 386.361C141.652 387.536 141.949 388.914 141.949 390.493ZM153.706 382.712C155.482 382.712 156.871 383.408 157.876 384.799C158.881 386.181 159.383 388.079 159.383 390.493C159.383 392.98 158.863 394.904 157.822 396.269C156.791 397.633 155.383 398.314 153.598 398.314C151.831 398.314 150.446 397.673 149.441 396.39H149.159L148.473 398.046H145.338V377.099H149.441V381.972C149.441 382.591 149.388 383.583 149.28 384.947H149.441C150.401 383.458 151.823 382.712 153.706 382.712ZM152.388 385.997C151.374 385.997 150.635 386.311 150.168 386.939C149.701 387.559 149.459 388.586 149.441 390.023V390.466C149.441 392.082 149.679 393.24 150.154 393.939C150.639 394.64 151.401 394.99 152.441 394.99C153.285 394.99 153.953 394.604 154.446 393.832C154.948 393.051 155.199 391.921 155.199 390.44C155.199 388.959 154.948 387.851 154.446 387.114C153.943 386.37 153.257 385.997 152.388 385.997Z" fill="#001F4E"/>
<path d="M154.487 149.006L149.304 152.948L134.764 133.808L139.948 129.864L141.665 132.126L139.266 133.951L150.37 148.569L152.769 146.744L154.487 149.006ZM161.456 138.226L158.146 140.743L151.259 131.676L150.159 130.162L148.976 128.493C148.844 129.46 148.736 130.112 148.652 130.447L147.952 133.262L144.842 132.483L146.834 124.626L149.554 122.557L161.456 138.226ZM170.712 118.823C172.791 121.56 173.879 123.927 173.978 125.926C174.084 127.92 173.206 129.626 171.342 131.043C169.536 132.417 167.657 132.776 165.705 132.118C163.76 131.457 161.78 129.8 159.767 127.149C157.667 124.384 156.567 122.009 156.466 120.022C156.359 118.028 157.235 116.326 159.091 114.914C160.897 113.539 162.782 113.188 164.745 113.859C166.715 114.525 168.704 116.18 170.712 118.823ZM163.055 124.648C164.515 126.57 165.726 127.824 166.69 128.41C167.655 128.984 168.53 128.972 169.315 128.375C170.087 127.788 170.324 126.943 170.026 125.839C169.728 124.735 168.857 123.233 167.414 121.332C165.953 119.41 164.731 118.164 163.747 117.595C162.764 117.012 161.89 117.011 161.126 117.593C160.348 118.185 160.111 119.03 160.416 120.129C160.715 121.219 161.595 122.726 163.055 124.648ZM180.621 120.011C181.345 121.737 182.017 123.926 182.635 126.578L180.28 128.37C179.3 126.117 178.298 124.05 177.274 122.168L180.273 119.887L180.621 120.011ZM216.041 98.6144L218.429 96.7973L207.325 82.1791L204.936 83.9958L203.219 81.7345L208.402 77.7915L222.942 96.9326L217.758 100.875L216.041 98.6144Z" fill="white"/>
<path d="M194.452 98.9559C196.796 102.043 197.896 104.841 197.753 107.351C197.61 109.862 196.221 112.119 193.586 114.123C192.658 114.829 191.917 115.314 191.363 115.577L189.344 112.919C190.057 112.613 190.743 112.21 191.4 111.711C192.506 110.869 193.295 110.016 193.764 109.152C194.228 108.28 194.386 107.354 194.238 106.372C194.085 105.384 193.573 104.258 192.701 102.992L192.573 103.091C192.67 104.077 192.549 104.912 192.212 105.597C191.877 106.281 191.301 106.932 190.487 107.552C189.123 108.589 187.718 108.971 186.271 108.696C184.818 108.415 183.5 107.496 182.317 105.938C181.042 104.259 180.51 102.572 180.72 100.878C180.934 99.1713 181.861 97.6937 183.504 96.4444C184.66 95.5647 185.877 95.0676 187.153 94.9539C188.436 94.8341 189.704 95.1159 190.955 95.7991C192.2 96.4746 193.366 97.5265 194.452 98.9559ZM185.587 99.0532C184.901 99.5754 184.545 100.218 184.518 100.983C184.491 101.747 184.813 102.573 185.486 103.459C186.062 104.217 186.692 104.684 187.378 104.86C188.065 105.038 188.765 104.854 189.479 104.311C190.15 103.8 190.559 103.146 190.707 102.345C190.849 101.539 190.702 100.85 190.268 100.278C189.623 99.428 188.852 98.8809 187.958 98.6371C187.07 98.3881 186.28 98.5268 185.587 99.0532ZM207.831 90.5875C209.91 93.3238 210.998 95.6914 211.097 97.6902C211.204 99.6839 210.325 101.39 208.462 102.807C206.656 104.181 204.776 104.54 202.824 103.883C200.879 103.221 198.899 101.564 196.886 98.9137C194.786 96.148 193.685 93.7727 193.585 91.7859C193.479 89.7922 194.354 88.0898 196.21 86.6776C198.016 85.3036 199.901 84.9522 201.864 85.6233C203.834 86.2891 205.823 87.9442 207.831 90.5875ZM200.174 96.4125C201.634 98.3338 202.845 99.5883 203.808 100.174C204.774 100.748 205.649 100.736 206.434 100.139C207.206 99.5521 207.443 98.7069 207.145 97.6032C206.847 96.4996 205.976 94.997 204.533 93.0963C203.072 91.1742 201.851 89.9284 200.866 89.3589C199.883 88.7764 199.009 88.7756 198.245 89.3571C197.467 89.949 197.23 90.7942 197.535 91.8927C197.834 92.9835 198.714 94.4904 200.174 96.4125Z" fill="#42FF00"/>
<path d="M119.86 321.366H115.704V309.976L115.744 308.105L115.811 306.059C115.121 306.75 114.64 307.203 114.372 307.418L112.112 309.236L110.107 306.733L116.443 301.684H119.86V321.366ZM138.962 311.525C138.962 314.962 138.397 317.507 137.268 319.158C136.146 320.809 134.415 321.634 132.074 321.634C129.806 321.634 128.093 320.782 126.936 319.077C125.788 317.372 125.214 314.855 125.214 311.525C125.214 308.052 125.775 305.494 126.896 303.852C128.017 302.2 129.743 301.375 132.074 301.375C134.344 301.375 136.056 302.236 137.213 303.959C138.379 305.682 138.962 308.204 138.962 311.525ZM129.343 311.525C129.343 313.939 129.55 315.671 129.963 316.721C130.384 317.762 131.088 318.283 132.074 318.283C133.043 318.283 133.743 317.753 134.173 316.694C134.604 315.635 134.819 313.912 134.819 311.525C134.819 309.111 134.6 307.379 134.16 306.329C133.729 305.27 133.034 304.74 132.074 304.74C131.097 304.74 130.397 305.27 129.976 306.329C129.554 307.379 129.343 309.111 129.343 311.525ZM154.702 311.525C154.702 314.962 154.136 317.507 153.007 319.158C151.886 320.809 150.154 321.634 147.814 321.634C145.545 321.634 143.832 320.782 142.675 319.077C141.527 317.372 140.953 314.855 140.953 311.525C140.953 308.052 141.514 305.494 142.635 303.852C143.756 302.2 145.482 301.375 147.814 301.375C150.083 301.375 151.795 302.236 152.952 303.959C154.118 305.682 154.702 308.204 154.702 311.525ZM145.083 311.525C145.083 313.939 145.289 315.671 145.701 316.721C146.123 317.762 146.828 318.283 147.814 318.283C148.782 318.283 149.482 317.753 149.912 316.694C150.343 315.635 150.558 313.912 150.558 311.525C150.558 309.111 150.339 307.379 149.899 306.329C149.468 305.27 148.773 304.74 147.814 304.74C146.836 304.74 146.137 305.27 145.715 306.329C145.293 307.379 145.083 309.111 145.083 311.525Z" fill="white"/>
<path d="M569.947 176.622H325.438C318.781 176.622 313.385 182.022 313.385 188.684V240.378C313.385 247.04 318.781 252.44 325.438 252.44H569.947C576.604 252.44 582 247.04 582 240.378V188.684C582 182.022 576.604 176.622 569.947 176.622Z" fill="white"/>
<path d="M556.172 357.552H339.213C332.556 357.552 327.16 362.952 327.16 369.614V404.938C327.16 411.6 332.556 417 339.213 417H556.172C562.828 417 568.225 411.6 568.225 404.938V369.614C568.225 362.952 562.828 357.552 556.172 357.552Z" fill="white"/>
<path d="M346.41 210.788C346.41 212.566 345.769 213.966 344.486 214.988C343.213 216.012 341.437 216.523 339.16 216.523C337.061 216.523 335.204 216.128 333.59 215.339V211.462C334.917 212.054 336.038 212.471 336.953 212.714C337.877 212.956 338.72 213.077 339.482 213.077C340.397 213.077 341.097 212.902 341.581 212.552C342.074 212.202 342.32 211.682 342.32 210.991C342.32 210.605 342.213 210.264 341.997 209.967C341.782 209.662 341.464 209.37 341.043 209.093C340.63 208.814 339.782 208.37 338.5 207.76C337.298 207.194 336.397 206.651 335.796 206.131C335.195 205.61 334.715 205.005 334.356 204.314C333.998 203.623 333.818 202.814 333.818 201.89C333.818 200.149 334.406 198.781 335.581 197.784C336.764 196.788 338.397 196.29 340.478 196.29C341.5 196.29 342.473 196.411 343.396 196.653C344.33 196.895 345.302 197.237 346.316 197.677L344.971 200.921C343.922 200.49 343.051 200.189 342.361 200.019C341.68 199.848 341.006 199.763 340.343 199.763C339.554 199.763 338.949 199.947 338.527 200.315C338.106 200.683 337.895 201.163 337.895 201.756C337.895 202.123 337.98 202.447 338.151 202.725C338.321 202.994 338.59 203.259 338.957 203.519C339.334 203.77 340.218 204.228 341.607 204.892C343.446 205.771 344.706 206.655 345.388 207.545C346.07 208.423 346.41 209.505 346.41 210.788ZM347.5 201.203H351.993L354.831 209.671C355.073 210.407 355.24 211.278 355.329 212.283H355.409C355.508 211.359 355.701 210.488 355.988 209.671L358.773 201.203H363.171L356.809 218.179C356.225 219.749 355.392 220.926 354.306 221.706C353.23 222.487 351.97 222.878 350.527 222.878C349.818 222.878 349.122 222.801 348.441 222.649V219.391C348.935 219.507 349.473 219.566 350.056 219.566C350.782 219.566 351.414 219.341 351.952 218.892C352.499 218.453 352.925 217.784 353.23 216.886L353.472 216.146L347.5 201.203ZM375.83 211.784C375.83 213.328 375.292 214.504 374.216 215.312C373.149 216.12 371.548 216.523 369.413 216.523C368.319 216.523 367.387 216.447 366.615 216.295C365.844 216.151 365.122 215.935 364.449 215.648V212.256C365.212 212.615 366.069 212.916 367.019 213.158C367.978 213.401 368.822 213.521 369.548 213.521C371.037 213.521 371.781 213.09 371.781 212.229C371.781 211.906 371.683 211.646 371.485 211.448C371.288 211.241 370.947 211.013 370.463 210.762C369.978 210.501 369.332 210.201 368.526 209.86C367.369 209.375 366.517 208.926 365.97 208.514C365.431 208.1 365.037 207.63 364.786 207.1C364.544 206.561 364.422 205.901 364.422 205.121C364.422 203.784 364.938 202.752 365.97 202.024C367.01 201.289 368.481 200.921 370.382 200.921C372.193 200.921 373.956 201.315 375.669 202.105L374.431 205.067C373.678 204.744 372.974 204.479 372.319 204.273C371.665 204.066 370.997 203.963 370.315 203.963C369.104 203.963 368.499 204.291 368.499 204.946C368.499 205.314 368.692 205.633 369.078 205.901C369.472 206.171 370.328 206.57 371.647 207.1C372.821 207.576 373.682 208.02 374.229 208.433C374.776 208.845 375.18 209.321 375.44 209.86C375.7 210.398 375.83 211.04 375.83 211.784ZM385.367 213.252C386.086 213.252 386.946 213.095 387.95 212.781V215.837C386.928 216.295 385.673 216.523 384.184 216.523C382.543 216.523 381.346 216.11 380.592 215.285C379.848 214.45 379.476 213.202 379.476 211.542V204.286H377.511V202.55L379.771 201.177L380.955 197.999H383.578V201.203H387.789V204.286H383.578V211.542C383.578 212.125 383.74 212.556 384.063 212.835C384.395 213.113 384.829 213.252 385.367 213.252ZM397.233 203.842C396.363 203.842 395.682 204.121 395.188 204.676C394.695 205.224 394.413 206.005 394.34 207.019H400.098C400.08 206.005 399.816 205.224 399.304 204.676C398.793 204.121 398.103 203.842 397.233 203.842ZM397.811 216.523C395.39 216.523 393.497 215.854 392.135 214.517C390.771 213.18 390.09 211.286 390.09 208.837C390.09 206.315 390.717 204.367 391.973 202.994C393.237 201.612 394.982 200.921 397.206 200.921C399.331 200.921 400.986 201.526 402.17 202.738C403.354 203.95 403.946 205.623 403.946 207.76V209.752H394.246C394.291 210.918 394.636 211.83 395.282 212.485C395.928 213.14 396.834 213.468 397.999 213.468C398.905 213.468 399.762 213.373 400.569 213.185C401.376 212.997 402.219 212.696 403.098 212.283V215.46C402.381 215.819 401.614 216.084 400.797 216.254C399.981 216.433 398.986 216.523 397.811 216.523ZM420.747 216.254H416.645V207.464C416.645 206.377 416.461 205.565 416.093 205.027C415.734 204.479 415.165 204.206 414.384 204.206C413.335 204.206 412.573 204.592 412.097 205.363C411.622 206.135 411.384 207.405 411.384 209.173V216.254H407.281V201.203H410.416L410.968 203.129H411.196C411.6 202.438 412.183 201.899 412.945 201.514C413.707 201.118 414.582 200.921 415.569 200.921C417.819 200.921 419.344 201.657 420.142 203.129H420.505C420.909 202.428 421.501 201.886 422.281 201.5C423.07 201.114 423.958 200.921 424.944 200.921C426.648 200.921 427.935 201.361 428.805 202.24C429.684 203.111 430.124 204.511 430.124 206.44V216.254H426.007V207.464C426.007 206.377 425.823 205.565 425.456 205.027C425.097 204.479 424.528 204.206 423.748 204.206C422.743 204.206 421.99 204.564 421.487 205.283C420.994 206.001 420.747 207.14 420.747 208.702V216.254ZM433.016 210.546V207.181H440.24V210.546H433.016ZM451.903 199.763C450.334 199.763 449.118 200.356 448.257 201.54C447.396 202.715 446.966 204.358 446.966 206.468C446.966 210.856 448.612 213.05 451.903 213.05C453.284 213.05 454.957 212.704 456.921 212.013V215.514C455.306 216.187 453.504 216.523 451.513 216.523C448.652 216.523 446.464 215.657 444.948 213.925C443.432 212.184 442.675 209.689 442.675 206.44C442.675 204.394 443.047 202.603 443.791 201.069C444.535 199.525 445.603 198.346 446.993 197.529C448.391 196.703 450.029 196.29 451.903 196.29C453.813 196.29 455.733 196.752 457.66 197.677L456.316 201.069C455.579 200.719 454.84 200.414 454.096 200.153C453.351 199.893 452.62 199.763 451.903 199.763ZM464.897 216.254H460.795V195.308H464.897V216.254ZM478.767 216.254L477.973 214.208H477.866C477.175 215.078 476.463 215.685 475.726 216.025C475.001 216.357 474.05 216.523 472.875 216.523C471.431 216.523 470.292 216.11 469.458 215.285C468.633 214.459 468.221 213.283 468.221 211.758C468.221 210.16 468.777 208.984 469.888 208.231C471.009 207.468 472.696 207.046 474.946 206.966L477.557 206.885V206.225C477.557 204.7 476.776 203.936 475.216 203.936C474.014 203.936 472.601 204.3 470.978 205.027L469.62 202.254C471.35 201.347 473.269 200.894 475.377 200.894C477.395 200.894 478.942 201.333 480.018 202.213C481.094 203.093 481.633 204.43 481.633 206.225V216.254H478.767ZM477.557 209.281L475.969 209.335C474.776 209.37 473.888 209.586 473.305 209.981C472.723 210.376 472.431 210.977 472.431 211.784C472.431 212.942 473.095 213.521 474.422 213.521C475.373 213.521 476.13 213.247 476.696 212.7C477.269 212.153 477.557 211.426 477.557 210.519V209.281ZM496.524 216.254L495.972 214.329H495.757C495.318 215.029 494.695 215.572 493.887 215.958C493.081 216.335 492.161 216.523 491.13 216.523C489.363 216.523 488.031 216.052 487.134 215.11C486.238 214.159 485.789 212.794 485.789 211.017V201.203H489.892V209.994C489.892 211.08 490.085 211.897 490.471 212.444C490.856 212.983 491.471 213.252 492.313 213.252C493.461 213.252 494.291 212.871 494.802 212.108C495.313 211.336 495.569 210.061 495.569 208.285V201.203H499.672V216.254H496.524ZM514.469 211.784C514.469 213.328 513.932 214.504 512.856 215.312C511.788 216.12 510.188 216.523 508.052 216.523C506.959 216.523 506.026 216.447 505.254 216.295C504.484 216.151 503.761 215.935 503.089 215.648V212.256C503.851 212.615 504.708 212.916 505.658 213.158C506.618 213.401 507.461 213.521 508.188 213.521C509.676 213.521 510.42 213.09 510.42 212.229C510.42 211.906 510.322 211.646 510.125 211.448C509.927 211.241 509.587 211.013 509.102 210.762C508.618 210.501 507.972 210.201 507.165 209.86C506.008 209.375 505.156 208.926 504.609 208.514C504.071 208.1 503.676 207.63 503.425 207.1C503.183 206.561 503.061 205.901 503.061 205.121C503.061 203.784 503.577 202.752 504.609 202.024C505.65 201.289 507.12 200.921 509.021 200.921C510.833 200.921 512.595 201.315 514.308 202.105L513.071 205.067C512.317 204.744 511.613 204.479 510.958 204.273C510.304 204.066 509.636 203.963 508.954 203.963C507.743 203.963 507.138 204.291 507.138 204.946C507.138 205.314 507.331 205.633 507.717 205.901C508.111 206.171 508.968 206.57 510.286 207.1C511.461 207.576 512.322 208.02 512.869 208.433C513.416 208.845 513.819 209.321 514.079 209.86C514.339 210.398 514.469 211.04 514.469 211.784ZM523.778 208.702C523.778 206.324 524.124 204.098 524.814 202.024C525.514 199.951 526.518 198.134 527.827 196.572H531.19C529.926 198.305 528.971 200.207 528.325 202.28C527.679 204.354 527.357 206.485 527.357 208.675C527.357 210.874 527.684 213.001 528.339 215.056C529.003 217.102 529.944 218.955 531.164 220.615H527.827C526.509 219.09 525.505 217.309 524.814 215.271C524.124 213.234 523.778 211.044 523.778 208.702ZM542.841 199.763C541.271 199.763 540.056 200.356 539.195 201.54C538.334 202.715 537.903 204.358 537.903 206.468C537.903 210.856 539.549 213.05 542.841 213.05C544.222 213.05 545.894 212.704 547.858 212.013V215.514C546.244 216.187 544.441 216.523 542.45 216.523C539.59 216.523 537.401 215.657 535.886 213.925C534.37 212.184 533.612 209.689 533.612 206.44C533.612 204.394 533.984 202.603 534.729 201.069C535.473 199.525 536.54 198.346 537.93 197.529C539.33 196.703 540.966 196.29 542.841 196.29C544.75 196.29 546.67 196.752 548.598 197.677L547.253 201.069C546.517 200.719 545.777 200.414 545.033 200.153C544.289 199.893 543.558 199.763 542.841 199.763ZM557.813 208.702C557.813 211.062 557.463 213.261 556.764 215.299C556.073 217.335 555.073 219.108 553.764 220.615H550.427C551.638 218.965 552.575 217.116 553.239 215.069C553.903 213.015 554.234 210.883 554.234 208.675C554.234 206.485 553.912 204.354 553.266 202.28C552.62 200.207 551.665 198.305 550.401 196.572H553.764C555.082 198.143 556.086 199.97 556.777 202.052C557.467 204.125 557.813 206.342 557.813 208.702Z" fill="#001F4E"/>
<path d="M404.47 242.101V229.801H407.076V242.101H404.47ZM418.646 242.101H416.081V236.607C416.081 235.928 415.96 235.421 415.719 235.084C415.478 234.742 415.094 234.571 414.567 234.571C413.85 234.571 413.332 234.812 413.013 235.295C412.693 235.771 412.533 236.565 412.533 237.675V242.101H409.969V232.695H411.928L412.272 233.898H412.415C412.701 233.443 413.093 233.101 413.593 232.871C414.097 232.636 414.669 232.518 415.308 232.518C416.4 232.518 417.23 232.815 417.796 233.41C418.362 233.999 418.646 234.851 418.646 235.968V242.101ZM425.246 240.225C425.694 240.225 426.232 240.127 426.86 239.93V241.84C426.221 242.126 425.436 242.269 424.505 242.269C423.48 242.269 422.732 242.012 422.261 241.496C421.796 240.974 421.563 240.194 421.563 239.156V234.621H420.336V233.536L421.748 232.677L422.488 230.692H424.127V232.695H426.759V234.621H424.127V239.156C424.127 239.521 424.228 239.791 424.43 239.965C424.637 240.138 424.909 240.225 425.246 240.225ZM432.661 234.344C432.118 234.344 431.692 234.518 431.383 234.866C431.075 235.208 430.898 235.696 430.853 236.33H434.452C434.441 235.696 434.275 235.208 433.956 234.866C433.637 234.518 433.205 234.344 432.661 234.344ZM433.023 242.269C431.509 242.269 430.326 241.851 429.475 241.016C428.622 240.18 428.196 238.996 428.196 237.465C428.196 235.889 428.589 234.672 429.374 233.814C430.164 232.95 431.254 232.518 432.644 232.518C433.972 232.518 435.007 232.896 435.747 233.654C436.486 234.411 436.856 235.457 436.856 236.792V238.037H430.795C430.823 238.767 431.038 239.336 431.442 239.746C431.846 240.155 432.411 240.36 433.141 240.36C433.706 240.36 434.242 240.301 434.746 240.183C435.251 240.065 435.778 239.878 436.327 239.619V241.605C435.878 241.829 435.399 241.994 434.889 242.101C434.379 242.213 433.757 242.269 433.023 242.269ZM444.188 232.518C444.535 232.518 444.824 232.543 445.054 232.594L444.861 235C444.653 234.944 444.401 234.916 444.104 234.916C443.286 234.916 442.646 235.126 442.187 235.547C441.733 235.968 441.506 236.556 441.506 237.314V242.101H438.942V232.695H440.884L441.262 234.277H441.388C441.679 233.749 442.072 233.325 442.565 233.006C443.064 232.681 443.605 232.518 444.188 232.518ZM449.325 242.101H446.761V229.01H449.325V242.101ZM457.994 242.101L457.498 240.823H457.43C456.998 241.366 456.553 241.746 456.093 241.958C455.639 242.166 455.045 242.269 454.311 242.269C453.408 242.269 452.696 242.012 452.175 241.496C451.66 240.98 451.402 240.245 451.402 239.291C451.402 238.292 451.749 237.558 452.445 237.087C453.145 236.61 454.198 236.346 455.605 236.296L457.237 236.245V235.833C457.237 234.88 456.75 234.402 455.774 234.402C455.022 234.402 454.14 234.63 453.126 235.084L452.276 233.351C453.358 232.784 454.558 232.501 455.875 232.501C457.136 232.501 458.103 232.776 458.775 233.325C459.448 233.875 459.784 234.712 459.784 235.833V242.101H457.994ZM457.237 237.743L456.245 237.776C455.499 237.8 454.944 237.934 454.58 238.18C454.216 238.428 454.033 238.803 454.033 239.308C454.033 240.032 454.448 240.394 455.278 240.394C455.872 240.394 456.346 240.222 456.699 239.88C457.058 239.538 457.237 239.083 457.237 238.517V237.743ZM461.088 232.695H463.895L465.67 237.987C465.821 238.447 465.925 238.991 465.981 239.619H466.031C466.093 239.042 466.213 238.497 466.393 237.987L468.133 232.695H470.883L466.905 243.304C466.541 244.286 466.02 245.021 465.342 245.509C464.669 245.996 463.882 246.241 462.979 246.241C462.537 246.241 462.102 246.193 461.676 246.098V244.061C461.984 244.135 462.321 244.171 462.685 244.171C463.139 244.171 463.534 244.031 463.87 243.75C464.212 243.476 464.478 243.058 464.669 242.497L464.821 242.034L461.088 232.695ZM476.129 234.344C475.585 234.344 475.159 234.518 474.851 234.866C474.543 235.208 474.366 235.696 474.321 236.33H477.919C477.908 235.696 477.743 235.208 477.423 234.866C477.104 234.518 476.673 234.344 476.129 234.344ZM476.49 242.269C474.977 242.269 473.795 241.851 472.942 241.016C472.091 240.18 471.665 238.996 471.665 237.465C471.665 235.889 472.056 234.672 472.841 233.814C473.632 232.95 474.722 232.518 476.112 232.518C477.441 232.518 478.475 232.896 479.214 233.654C479.955 234.411 480.324 235.457 480.324 236.792V238.037H474.262C474.29 238.767 474.506 239.336 474.909 239.746C475.313 240.155 475.88 240.36 476.608 240.36C477.174 240.36 477.709 240.301 478.214 240.183C478.718 240.065 479.245 239.878 479.794 239.619V241.605C479.346 241.829 478.867 241.994 478.357 242.101C477.847 242.213 477.224 242.269 476.49 242.269ZM487.656 232.518C488.004 232.518 488.292 232.543 488.522 232.594L488.328 235C488.121 234.944 487.868 234.916 487.571 234.916C486.753 234.916 486.115 235.126 485.655 235.547C485.2 235.968 484.974 236.556 484.974 237.314V242.101H482.409V232.695H484.351L484.73 234.277H484.856C485.148 233.749 485.54 233.325 486.033 233.006C486.532 232.681 487.073 232.518 487.656 232.518Z" fill="#001F4E"/>
<path d="M427.527 381.554C425.958 381.554 424.743 382.147 423.882 383.332C423.021 384.507 422.591 386.15 422.591 388.259C422.591 392.647 424.236 394.841 427.527 394.841C428.908 394.841 430.581 394.496 432.545 393.805V397.306C430.931 397.978 429.129 398.314 427.137 398.314C424.276 398.314 422.088 397.449 420.572 395.717C419.057 393.976 418.299 391.48 418.299 388.231C418.299 386.185 418.671 384.395 419.415 382.86C420.16 381.317 421.227 380.137 422.617 379.32C424.016 378.494 425.653 378.081 427.527 378.081C429.438 378.081 431.357 378.544 433.285 379.468L431.94 382.86C431.204 382.511 430.465 382.206 429.72 381.945C428.975 381.684 428.244 381.554 427.527 381.554ZM440.522 398.046H436.419V377.099H440.522V398.046ZM454.391 398.046L453.598 395.999H453.49C452.799 396.87 452.087 397.476 451.351 397.816C450.625 398.149 449.674 398.314 448.5 398.314C447.055 398.314 445.917 397.902 445.083 397.076C444.257 396.251 443.845 395.075 443.845 393.549C443.845 391.952 444.401 390.776 445.513 390.023C446.634 389.259 448.32 388.837 450.571 388.757L453.181 388.676V388.016C453.181 386.491 452.401 385.728 450.84 385.728C449.638 385.728 448.226 386.091 446.602 386.818L445.244 384.045C446.975 383.139 448.894 382.686 451.002 382.686C453.02 382.686 454.566 383.125 455.642 384.005C456.718 384.884 457.257 386.221 457.257 388.016V398.046H454.391ZM453.181 391.072L451.593 391.126C450.401 391.162 449.513 391.377 448.93 391.773C448.347 392.167 448.056 392.769 448.056 393.576C448.056 394.734 448.719 395.313 450.046 395.313C450.997 395.313 451.755 395.039 452.32 394.492C452.894 393.945 453.181 393.217 453.181 392.311V391.072ZM472.148 398.046L471.597 396.121H471.382C470.942 396.82 470.319 397.363 469.512 397.749C468.705 398.127 467.786 398.314 466.754 398.314C464.988 398.314 463.656 397.844 462.759 396.901C461.862 395.95 461.414 394.586 461.414 392.809V382.995H465.516V391.785C465.516 392.872 465.709 393.689 466.095 394.236C466.481 394.774 467.095 395.044 467.938 395.044C469.086 395.044 469.915 394.662 470.426 393.9C470.938 393.128 471.194 391.853 471.194 390.076V382.995H475.296V398.046H472.148ZM490.094 393.576C490.094 395.12 489.556 396.296 488.48 397.103C487.412 397.911 485.812 398.314 483.677 398.314C482.583 398.314 481.651 398.239 480.879 398.086C480.108 397.942 479.385 397.727 478.713 397.44V394.047C479.476 394.406 480.332 394.707 481.283 394.949C482.242 395.192 483.085 395.313 483.812 395.313C485.3 395.313 486.045 394.882 486.045 394.02C486.045 393.697 485.946 393.437 485.749 393.24C485.552 393.033 485.211 392.805 484.727 392.553C484.242 392.293 483.596 391.992 482.79 391.651C481.633 391.167 480.78 390.718 480.233 390.305C479.695 389.892 479.301 389.421 479.05 388.891C478.808 388.353 478.686 387.693 478.686 386.912C478.686 385.575 479.202 384.543 480.233 383.816C481.274 383.08 482.745 382.712 484.646 382.712C486.457 382.712 488.22 383.107 489.932 383.897L488.695 386.859C487.942 386.536 487.237 386.271 486.583 386.065C485.928 385.858 485.26 385.754 484.579 385.754C483.368 385.754 482.762 386.083 482.762 386.738C482.762 387.105 482.955 387.424 483.341 387.693C483.736 387.963 484.592 388.362 485.911 388.891C487.085 389.367 487.946 389.812 488.493 390.224C489.04 390.637 489.444 391.113 489.704 391.651C489.964 392.19 490.094 392.831 490.094 393.576Z" fill="#001F4E"/>
<path d="M364.034 99.8378L358.864 95.8772L373.468 76.7856L378.638 80.7462L376.913 83.0017L374.52 81.1687L363.367 95.7488L365.759 97.5822L364.034 99.8378ZM386.387 107.824C384.916 108.979 382.984 110.206 380.59 111.503L378.24 109.704C380.153 108.162 381.881 106.649 383.424 105.164L386.414 107.455L386.387 107.824ZM400.791 122.502L397.49 119.974L404.407 110.931L405.577 109.469L406.872 107.886C405.905 108.014 405.248 108.082 404.903 108.09L402.005 108.158L401.935 104.95L410.032 104.796L412.746 106.875L400.791 122.502ZM416.044 134.188L405.127 125.825L406.885 123.527L413.839 122.564C415.91 122.264 417.298 122.022 418.003 121.838C418.714 121.648 419.297 121.416 419.754 121.144C420.21 120.872 420.599 120.526 420.92 120.105C421.401 119.479 421.583 118.879 421.469 118.305C421.361 117.736 421.019 117.231 420.442 116.789C419.837 116.326 419.143 116.015 418.361 115.856C417.578 115.698 416.681 115.637 415.669 115.676L415.502 112.174C416.772 112.107 417.764 112.132 418.477 112.249C419.19 112.366 419.9 112.581 420.607 112.898C421.32 113.206 422.046 113.644 422.787 114.211C423.762 114.958 424.488 115.797 424.963 116.726C425.438 117.655 425.637 118.599 425.559 119.557C425.482 120.515 425.127 121.406 424.494 122.233C423.944 122.953 423.297 123.532 422.556 123.97C421.827 124.405 420.942 124.751 419.901 125.004C418.867 125.264 417.212 125.493 414.936 125.693L411.48 126.047L411.366 126.196L418.17 131.409L416.044 134.188ZM434.434 135.882C432.345 138.612 430.351 140.289 428.451 140.912C426.558 141.542 424.682 141.145 422.823 139.721C421.022 138.341 420.179 136.622 420.296 134.564C420.421 132.512 421.495 130.163 423.517 127.52C425.626 124.762 427.625 123.072 429.513 122.45C431.406 121.82 433.278 122.215 435.13 123.634C436.931 125.014 437.768 126.739 437.64 128.812C437.519 130.889 436.45 133.246 434.434 135.882ZM426.796 130.032C425.329 131.949 424.441 133.449 424.131 134.534C423.833 135.617 424.076 136.459 424.859 137.059C425.629 137.649 426.505 137.654 427.49 137.074C428.476 136.495 429.693 135.258 431.143 133.362C432.609 131.445 433.488 129.937 433.776 128.836C434.078 127.733 433.847 126.889 433.085 126.305C432.31 125.711 431.432 125.706 430.454 126.291C429.482 126.868 428.262 128.115 426.796 130.032ZM428.867 145.928L431.249 147.752L442.403 133.172L440.02 131.347L441.746 129.092L446.916 133.052L432.312 152.144L427.142 148.183L428.867 145.928Z" fill="white"/>
<path d="M384.913 97.9461C382.825 100.676 380.831 102.352 378.93 102.976C377.038 103.606 375.162 103.209 373.303 101.784C371.501 100.404 370.659 98.6853 370.776 96.6279C370.9 94.5756 371.974 92.227 373.996 89.5837C376.106 86.8258 378.105 85.1355 379.993 84.5132C381.886 83.884 383.758 84.2785 385.609 85.6969C387.411 87.0774 388.248 88.8031 388.12 90.8752C387.999 92.9524 386.93 95.3097 384.913 97.9461ZM377.275 92.0951C375.809 94.0121 374.921 95.513 374.611 96.5977C374.313 97.6816 374.556 98.5225 375.339 99.123C376.108 99.7123 376.985 99.7175 377.97 99.1376C378.955 98.5586 380.173 97.3214 381.623 95.426C383.089 93.509 383.967 92.0004 384.256 90.8993C384.557 89.7965 384.328 88.953 383.566 88.3689C382.789 87.7744 381.912 87.7692 380.934 88.3542C379.962 88.9315 378.742 90.1781 377.275 92.0951Z" fill="#FE5454"/>
<path d="M441.854 321.366H437.698V309.976L437.738 308.105L437.805 306.059C437.115 306.75 436.634 307.203 436.366 307.418L434.106 309.236L432.101 306.733L438.437 301.684H441.854V321.366ZM461.064 321.366H447.315V318.472L452.253 313.477C453.715 311.978 454.669 310.941 455.118 310.367C455.567 309.783 455.889 309.245 456.087 308.751C456.284 308.258 456.383 307.747 456.383 307.217C456.383 306.427 456.163 305.839 455.723 305.453C455.293 305.067 454.714 304.874 453.988 304.874C453.226 304.874 452.486 305.049 451.768 305.4C451.051 305.75 450.302 306.248 449.522 306.894L447.262 304.215C448.23 303.389 449.033 302.806 449.67 302.464C450.306 302.124 451.002 301.864 451.755 301.684C452.508 301.496 453.351 301.401 454.284 301.401C455.512 301.401 456.598 301.626 457.54 302.074C458.481 302.523 459.212 303.151 459.732 303.959C460.253 304.767 460.513 305.691 460.513 306.733C460.513 307.639 460.351 308.491 460.028 309.29C459.715 310.08 459.221 310.892 458.548 311.726C457.885 312.561 456.71 313.75 455.024 315.294L452.495 317.677V317.866H461.064V321.366ZM476.696 311.525C476.696 314.962 476.13 317.507 475.001 319.158C473.88 320.809 472.148 321.634 469.808 321.634C467.539 321.634 465.826 320.782 464.669 319.077C463.521 317.372 462.947 314.855 462.947 311.525C462.947 308.052 463.508 305.494 464.629 303.852C465.75 302.2 467.476 301.375 469.808 301.375C472.077 301.375 473.789 302.236 474.946 303.959C476.112 305.682 476.696 308.204 476.696 311.525ZM467.077 311.525C467.077 313.939 467.283 315.671 467.696 316.721C468.117 317.762 468.822 318.283 469.808 318.283C470.776 318.283 471.476 317.753 471.906 316.694C472.337 315.635 472.552 313.912 472.552 311.525C472.552 309.111 472.333 307.379 471.893 306.329C471.462 305.27 470.767 304.74 469.808 304.74C468.83 304.74 468.131 305.27 467.709 306.329C467.287 307.379 467.077 309.111 467.077 311.525Z" fill="white"/>
</g>
<defs>
<clipPath id="clip0_16_562">
<rect width="582" height="417" fill="white"/>
</clipPath>
</defs>
</svg>
