<svg width="572" height="410" viewBox="0 0 572 410" fill="none" xmlns="http://www.w3.org/2000/svg">
<g clip-path="url(#clip0_16_625)">
<path d="M156.983 349.411C158.139 350.569 160.014 350.569 161.171 349.411L180.018 330.542C181.175 329.384 181.175 327.507 180.018 326.349C178.862 325.191 176.987 325.191 175.83 326.349L159.077 343.121L142.324 326.349C141.167 325.191 139.292 325.191 138.135 326.349C136.979 327.507 136.979 329.384 138.135 330.542L156.983 349.411ZM162.038 347.314V247.355H156.115V347.314H162.038Z" fill="#42FF00"/>
<path d="M369.325 33.4395C370.482 32.2816 370.482 30.4044 369.325 29.2465L350.478 10.3782C349.321 9.22029 347.446 9.22029 346.289 10.3782C345.133 11.536 345.133 13.4133 346.289 14.5711L363.042 31.343L346.289 48.1149C345.133 49.2727 345.133 51.15 346.289 52.3078C347.446 53.4657 349.321 53.4657 350.478 52.3078L369.325 33.4395ZM367.231 28.3781H267.385V34.3079H367.231V28.3781Z" fill="#42FF00"/>
<path d="M159.077 173.657V58.4502" stroke="#42FF00" stroke-width="10"/>
<path d="M283.462 0H43.1538C36.6114 0 31.3077 5.30968 31.3077 11.8595V46.5909C31.3077 53.1407 36.6114 58.4504 43.1538 58.4504H283.462C290.004 58.4504 295.308 53.1407 295.308 46.5909V11.8595C295.308 5.30968 290.004 0 283.462 0Z" fill="white"/>
<path d="M286 173.657H45.6923C39.1499 173.657 33.8462 178.967 33.8462 185.517V236.343C33.8462 242.893 39.1499 248.203 45.6923 248.203H286C292.542 248.203 297.846 242.893 297.846 236.343V185.517C297.846 178.967 292.542 173.657 286 173.657Z" fill="white"/>
<path d="M252.154 351.55H70.2308C63.6883 351.55 58.3846 356.859 58.3846 363.409V398.141C58.3846 404.691 63.6883 410 70.2308 410H252.154C258.696 410 264 404.691 264 398.141V363.409C264 356.859 258.696 351.55 252.154 351.55Z" fill="white"/>
<path d="M181.262 302.417H177.177V291.219L177.217 289.379L177.283 287.367C176.604 288.047 176.132 288.492 175.868 288.704L173.647 290.492L171.677 288.03L177.904 283.066H181.262V302.417ZM200.036 292.741C200.036 296.121 199.481 298.623 198.371 300.247C197.268 301.87 195.567 302.681 193.267 302.681C191.037 302.681 189.353 301.844 188.217 300.167C187.088 298.491 186.524 296.016 186.524 292.741C186.524 289.327 187.075 286.812 188.177 285.197C189.279 283.573 190.975 282.762 193.267 282.762C195.497 282.762 197.18 283.609 198.317 285.303C199.463 286.997 200.036 289.477 200.036 292.741ZM190.583 292.741C190.583 295.115 190.786 296.819 191.191 297.85C191.606 298.875 192.297 299.386 193.267 299.386C194.219 299.386 194.906 298.865 195.33 297.824C195.753 296.783 195.964 295.089 195.964 292.741C195.964 290.368 195.748 288.665 195.316 287.633C194.893 286.591 194.21 286.071 193.267 286.071C192.306 286.071 191.618 286.591 191.205 287.633C190.79 288.665 190.583 290.368 190.583 292.741ZM209.132 294.991C209.132 292.653 209.471 290.465 210.15 288.426C210.838 286.388 211.825 284.602 213.111 283.066H216.417C215.174 284.769 214.236 286.64 213.601 288.678C212.967 290.717 212.649 292.812 212.649 294.965C212.649 297.127 212.971 299.218 213.614 301.239C214.266 303.251 215.192 305.073 216.39 306.705H213.111C211.816 305.206 210.829 303.454 210.15 301.451C209.471 299.448 209.132 297.295 209.132 294.991ZM225.341 302.681C220.74 302.681 218.44 300.154 218.44 295.097C218.44 292.583 219.066 290.664 220.317 289.34C221.569 288.008 223.363 287.341 225.698 287.341C227.408 287.341 228.942 287.677 230.299 288.348L229.11 291.471C228.475 291.215 227.884 291.007 227.338 290.849C226.791 290.681 226.245 290.597 225.698 290.597C223.6 290.597 222.552 292.088 222.552 295.071C222.552 297.966 223.6 299.412 225.698 299.412C226.474 299.412 227.192 299.311 227.853 299.108C228.514 298.897 229.176 298.57 229.837 298.129V301.584C229.184 301.998 228.523 302.285 227.853 302.443C227.192 302.603 226.355 302.681 225.341 302.681ZM246.918 302.417H242.886V293.774C242.886 291.639 242.092 290.571 240.506 290.571C239.378 290.571 238.563 290.955 238.06 291.722C237.558 292.49 237.306 293.734 237.306 295.455V302.417H233.274V281.822H237.306V286.018C237.306 286.344 237.276 287.112 237.214 288.32L237.121 289.512H237.333C238.232 288.065 239.66 287.341 241.617 287.341C243.353 287.341 244.67 287.809 245.57 288.744C246.469 289.68 246.918 291.021 246.918 292.768V302.417ZM260.456 302.417L259.677 300.405H259.571C258.893 301.261 258.191 301.857 257.469 302.192C256.755 302.519 255.82 302.681 254.666 302.681C253.247 302.681 252.128 302.276 251.308 301.464C250.497 300.653 250.091 299.496 250.091 297.996C250.091 296.426 250.638 295.269 251.731 294.529C252.832 293.778 254.489 293.363 256.702 293.284L259.267 293.205V292.556C259.267 291.057 258.5 290.306 256.967 290.306C255.786 290.306 254.397 290.664 252.802 291.378L251.467 288.652C253.168 287.76 255.054 287.315 257.125 287.315C259.108 287.315 260.629 287.747 261.687 288.612C262.744 289.477 263.273 290.791 263.273 292.556V302.417H260.456ZM259.267 295.561L257.706 295.614C256.534 295.649 255.662 295.861 255.089 296.249C254.516 296.637 254.229 297.229 254.229 298.022C254.229 299.161 254.882 299.73 256.187 299.73C257.121 299.73 257.865 299.461 258.42 298.923C258.985 298.385 259.267 297.67 259.267 296.779V295.561ZM281.082 302.417H277.049V293.774C277.049 292.706 276.86 291.908 276.481 291.378C276.102 290.84 275.498 290.571 274.669 290.571C273.541 290.571 272.726 290.951 272.224 291.709C271.721 292.459 271.47 293.708 271.47 295.455V302.417H267.437V287.619H270.518L271.06 289.512H271.285C271.735 288.797 272.352 288.259 273.136 287.897C273.929 287.527 274.828 287.341 275.833 287.341C277.552 287.341 278.856 287.809 279.746 288.744C280.636 289.671 281.082 291.012 281.082 292.768V302.417ZM298.097 287.619V289.671L295.783 290.266C296.206 290.929 296.418 291.669 296.418 292.49C296.418 294.078 295.863 295.318 294.753 296.21C293.651 297.092 292.117 297.533 290.151 297.533L289.424 297.494L288.83 297.427C288.415 297.745 288.208 298.098 288.208 298.486C288.208 299.069 288.948 299.36 290.429 299.36H292.941C294.563 299.36 295.797 299.708 296.643 300.405C297.498 301.102 297.926 302.126 297.926 303.476C297.926 305.206 297.203 306.547 295.757 307.5C294.32 308.453 292.254 308.93 289.556 308.93C287.494 308.93 285.916 308.567 284.823 307.844C283.739 307.129 283.198 306.123 283.198 304.826C283.198 303.935 283.475 303.189 284.03 302.589C284.585 301.989 285.401 301.562 286.476 301.306C286.062 301.129 285.7 300.842 285.392 300.445C285.084 300.039 284.929 299.612 284.929 299.161C284.929 298.597 285.092 298.129 285.418 297.758C285.744 297.379 286.216 297.008 286.833 296.647C286.058 296.311 285.441 295.772 284.982 295.031C284.533 294.29 284.308 293.417 284.308 292.411C284.308 290.796 284.832 289.547 285.881 288.665C286.93 287.783 288.428 287.341 290.376 287.341C290.79 287.341 291.28 287.381 291.844 287.461C292.416 287.531 292.783 287.584 292.941 287.619H298.097ZM286.687 304.509C286.687 305.064 286.952 305.501 287.481 305.819C288.018 306.137 288.768 306.295 289.728 306.295C291.174 306.295 292.306 306.097 293.126 305.7C293.946 305.302 294.356 304.76 294.356 304.072C294.356 303.516 294.114 303.132 293.629 302.92C293.144 302.709 292.394 302.603 291.381 302.603H289.292C288.552 302.603 287.93 302.775 287.428 303.119C286.934 303.472 286.687 303.935 286.687 304.509ZM288.155 292.464C288.155 293.267 288.335 293.902 288.698 294.37C289.067 294.837 289.627 295.071 290.376 295.071C291.134 295.071 291.69 294.837 292.042 294.37C292.394 293.902 292.571 293.267 292.571 292.464C292.571 290.681 291.839 289.79 290.376 289.79C288.896 289.79 288.155 290.681 288.155 292.464ZM306.665 290.214C305.809 290.214 305.14 290.487 304.655 291.034C304.17 291.572 303.893 292.34 303.822 293.337H309.481C309.463 292.34 309.203 291.572 308.701 291.034C308.198 290.487 307.519 290.214 306.665 290.214ZM307.233 302.681C304.853 302.681 302.993 302.024 301.654 300.709C300.314 299.395 299.644 297.533 299.644 295.124C299.644 292.645 300.261 290.73 301.495 289.379C302.738 288.021 304.452 287.341 306.639 287.341C308.727 287.341 310.353 287.937 311.517 289.128C312.68 290.32 313.262 291.965 313.262 294.066V296.024H303.729C303.773 297.171 304.113 298.067 304.747 298.711C305.382 299.355 306.272 299.678 307.418 299.678C308.309 299.678 309.15 299.584 309.944 299.4C310.736 299.214 311.566 298.919 312.429 298.513V301.636C311.724 301.989 310.97 302.249 310.168 302.417C309.367 302.593 308.388 302.681 307.233 302.681ZM322.517 294.991C322.517 297.312 322.173 299.474 321.486 301.478C320.807 303.48 319.824 305.223 318.537 306.705H315.258C316.448 305.082 317.369 303.264 318.022 301.252C318.674 299.232 319 297.136 319 294.965C319 292.812 318.683 290.717 318.048 288.678C317.413 286.64 316.475 284.769 315.232 283.066H318.537C319.833 284.61 320.82 286.406 321.499 288.453C322.177 290.492 322.517 292.671 322.517 294.991Z" fill="white"/>
<path d="M322.517 11.7801C322.517 15.5921 321.714 18.4377 320.11 20.3173C318.507 22.1968 316.078 23.1366 312.826 23.1366C311.68 23.1366 310.812 23.0748 310.221 22.9513V19.6688C310.962 19.854 311.737 19.9467 312.548 19.9467C313.915 19.9467 315.038 19.7481 315.919 19.3511C316.801 18.9452 317.475 18.3142 317.942 17.4583C318.409 16.5935 318.678 15.4067 318.749 13.8978H318.59C318.079 14.7272 317.489 15.3096 316.819 15.645C316.148 15.9803 315.312 16.1479 314.306 16.1479C312.623 16.1479 311.297 15.6097 310.327 14.5331C309.357 13.4478 308.872 11.9433 308.872 10.0196C308.872 7.94599 309.459 6.30913 310.631 5.10906C311.812 3.90017 313.416 3.29572 315.444 3.29572C316.871 3.29572 318.118 3.63104 319.185 4.30166C320.261 4.97229 321.085 5.94734 321.658 7.22683C322.231 8.49753 322.517 10.0152 322.517 11.7801ZM315.523 6.57827C314.677 6.57827 314.015 6.86946 313.54 7.45185C313.063 8.03423 312.826 8.87255 312.826 9.96667C312.826 10.902 313.041 11.6433 313.474 12.1903C313.905 12.7375 314.562 13.011 315.444 13.011C316.272 13.011 316.982 12.7419 317.572 12.2036C318.162 11.6565 318.458 11.03 318.458 10.3241C318.458 9.27399 318.18 8.38719 317.625 7.66362C317.078 6.94005 316.378 6.57827 315.523 6.57827ZM337.959 13.1963C337.959 16.5759 337.404 19.0775 336.294 20.7011C335.191 22.3248 333.49 23.1366 331.19 23.1366C328.96 23.1366 327.276 22.2983 326.14 20.6218C325.011 18.9452 324.448 16.47 324.448 13.1963C324.448 9.78141 324.998 7.26654 326.1 5.65174C327.202 4.02812 328.898 3.21631 331.19 3.21631C333.42 3.21631 335.103 4.06342 336.24 5.75763C337.386 7.45185 337.959 9.93143 337.959 13.1963ZM328.506 13.1963C328.506 15.5699 328.709 17.273 329.114 18.3054C329.529 19.329 330.22 19.8408 331.19 19.8408C332.142 19.8408 332.83 19.3202 333.253 18.2789C333.676 17.2377 333.887 15.5435 333.887 13.1963C333.887 10.8226 333.671 9.11956 333.239 8.08718C332.816 7.04594 332.133 6.52532 331.19 6.52532C330.229 6.52532 329.541 7.04594 329.128 8.08718C328.713 9.11956 328.506 10.8226 328.506 13.1963Z" fill="white"/>
<path d="M62.9195 34.4402C62.9195 36.1874 62.2893 37.564 61.0288 38.5698C59.7772 39.5758 58.032 40.0788 55.7933 40.0788C53.7308 40.0788 51.9063 39.6905 50.3197 38.914V35.102C51.6242 35.6844 52.726 36.0947 53.625 36.3329C54.5328 36.5712 55.3614 36.6903 56.1106 36.6903C57.0096 36.6903 57.6971 36.5183 58.1731 36.1741C58.6578 35.83 58.9003 35.3182 58.9003 34.6387C58.9003 34.2593 58.7945 33.924 58.5829 33.6328C58.3714 33.3328 58.0585 33.046 57.6442 32.7725C57.2387 32.4989 56.4059 32.0622 55.1454 31.4621C53.9643 30.9062 53.0785 30.3724 52.4879 29.8605C51.8974 29.3487 51.4258 28.7531 51.0733 28.0736C50.7207 27.3942 50.5445 26.6 50.5445 25.6912C50.5445 23.9793 51.1218 22.6337 52.2764 21.6542C53.4399 20.6747 55.0441 20.185 57.089 20.185C58.0937 20.185 59.0501 20.3041 59.9579 20.5424C60.8746 20.7806 61.8309 21.1159 62.8269 21.5483L61.5048 24.7382C60.4736 24.3146 59.6186 24.0191 58.9399 23.8513C58.27 23.6837 57.6089 23.5999 56.9567 23.5999C56.1811 23.5999 55.5861 23.7808 55.1719 24.1426C54.7576 24.5044 54.5505 24.9765 54.5505 25.5588C54.5505 25.9206 54.6342 26.2383 54.8017 26.5118C54.9691 26.7766 55.2335 27.0369 55.5949 27.2928C55.9651 27.5398 56.8334 27.9899 58.1995 28.6428C60.0064 29.5075 61.2448 30.3768 61.9147 31.2503C62.5845 32.1151 62.9195 33.1784 62.9195 34.4402ZM63.9904 25.0161H68.4063L71.1959 33.3416C71.4339 34.0652 71.597 34.9212 71.6851 35.9094H71.7644C71.8614 35.0005 72.0508 34.1446 72.3329 33.3416L75.0698 25.0161H79.393L73.1394 41.7068C72.5665 43.251 71.7468 44.407 70.6802 45.1746C69.6225 45.9424 68.3842 46.3262 66.9651 46.3262C66.2688 46.3262 65.5857 46.2512 64.9159 46.1012V42.898C65.4007 43.0127 65.9295 43.0702 66.5024 43.0702C67.2163 43.0702 67.8378 42.8495 68.3666 42.4083C68.9042 41.976 69.3229 41.3185 69.6225 40.4362L69.8606 39.7082L63.9904 25.0161ZM91.8339 35.4197C91.8339 36.9374 91.3051 38.0934 90.2474 38.8875C89.199 39.6817 87.6252 40.0788 85.5275 40.0788C84.4523 40.0788 83.5357 40.0038 82.7776 39.8538C82.0196 39.7126 81.3101 39.5008 80.649 39.2185V35.883C81.3982 36.2359 82.24 36.5315 83.1743 36.7697C84.1174 37.008 84.9462 37.1271 85.6595 37.1271C87.1234 37.1271 87.8545 36.7036 87.8545 35.8564C87.8545 35.5388 87.758 35.2829 87.5634 35.0888C87.3696 34.8858 87.0345 34.6608 86.559 34.4137C86.0826 34.1578 85.448 33.8623 84.6551 33.5269C83.518 33.0504 82.6807 32.6092 82.143 32.2033C81.6142 31.7974 81.2264 31.3342 80.9795 30.8135C80.7416 30.2841 80.6225 29.6355 80.6225 28.8678C80.6225 27.553 81.1294 26.5383 82.143 25.8236C83.1655 25.1 84.611 24.7382 86.4795 24.7382C88.2598 24.7382 89.9918 25.1265 91.6757 25.9029L90.4589 28.8149C89.7185 28.4972 89.0272 28.2369 88.3833 28.034C87.7402 27.831 87.0836 27.7296 86.4135 27.7296C85.2238 27.7296 84.6289 28.0516 84.6289 28.6958C84.6289 29.0576 84.8185 29.3708 85.1975 29.6355C85.5851 29.9003 86.427 30.2929 87.7225 30.8135C88.8766 31.2812 89.7228 31.718 90.2609 32.1239C90.7982 32.5298 91.1951 32.9975 91.4506 33.5269C91.7062 34.0563 91.8339 34.6873 91.8339 35.4197ZM101.208 36.8624C101.913 36.8624 102.759 36.708 103.746 36.3992V39.4037C102.742 39.8538 101.508 40.0788 100.044 40.0788C98.4314 40.0788 97.2552 39.6728 96.514 38.8611C95.7829 38.0404 95.4174 36.8139 95.4174 35.1814V28.0472H93.4865V26.3398L95.7076 24.9897L96.8711 21.866H99.4493V25.0161H103.588V28.0472H99.4493V35.1814C99.4493 35.755 99.6084 36.1785 99.9257 36.4521C100.251 36.7257 100.679 36.8624 101.208 36.8624ZM112.869 27.6105C112.014 27.6105 111.345 27.884 110.86 28.431C110.375 28.9693 110.097 29.737 110.026 30.7341H115.685C115.668 29.737 115.408 28.9693 114.905 28.431C114.403 27.884 113.724 27.6105 112.869 27.6105ZM113.437 40.0788C111.058 40.0788 109.198 39.4214 107.858 38.1066C106.518 36.7918 105.849 34.93 105.849 32.521C105.849 30.0414 106.466 28.1266 107.699 26.7766C108.942 25.4176 110.657 24.7382 112.842 24.7382C114.931 24.7382 116.558 25.3338 117.721 26.5251C118.885 27.7163 119.467 29.362 119.467 31.4621V33.421H109.934C109.978 34.5682 110.317 35.4638 110.952 36.108C111.587 36.7521 112.477 37.0742 113.622 37.0742C114.513 37.0742 115.354 36.9815 116.148 36.7962C116.941 36.611 117.769 36.3153 118.633 35.9094V39.0331C117.928 39.3861 117.175 39.6464 116.372 39.8141C115.57 39.9905 114.592 40.0788 113.437 40.0788ZM135.979 39.8141H131.948V31.1709C131.948 30.1032 131.766 29.3047 131.405 28.7752C131.052 28.2369 130.493 27.9678 129.726 27.9678C128.695 27.9678 127.945 28.3472 127.478 29.1061C127.011 29.8649 126.778 31.1136 126.778 32.8518V39.8141H122.745V25.0161H125.826L126.368 26.9089H126.592C126.989 26.2294 127.562 25.7 128.312 25.3205C129.06 24.9323 129.92 24.7382 130.89 24.7382C133.102 24.7382 134.6 25.4618 135.385 26.9089H135.742C136.139 26.2206 136.72 25.6868 137.486 25.3073C138.262 24.9279 139.135 24.7382 140.104 24.7382C141.779 24.7382 143.044 25.1705 143.899 26.0353C144.763 26.8913 145.195 28.2678 145.195 30.165V39.8141H141.149V31.1709C141.149 30.1032 140.968 29.3047 140.607 28.7752C140.254 28.2369 139.695 27.9678 138.928 27.9678C137.941 27.9678 137.2 28.3207 136.706 29.0266C136.222 29.7326 135.979 30.8533 135.979 32.3886V39.8141ZM168.53 39.8141L167.393 34.6387L165.86 28.1002H165.767L163.07 39.8141H158.733L154.529 25.0161H158.548L160.254 31.568C160.527 32.7415 160.805 34.3608 161.087 36.4256H161.166C161.201 35.755 161.356 34.6917 161.629 33.2358L161.84 32.1106L163.665 25.0161H168.107L169.839 32.1106C169.874 32.3048 169.927 32.5916 169.997 32.971C170.077 33.3505 170.152 33.7564 170.222 34.1887C170.293 34.6123 170.354 35.0315 170.408 35.4462C170.47 35.852 170.504 36.1785 170.514 36.4256H170.592C170.672 35.7903 170.813 34.9212 171.015 33.8181C171.218 32.7063 171.364 31.9563 171.452 31.568L173.224 25.0161H177.177L172.919 39.8141H168.53ZM188.956 39.8141L188.177 37.8022H188.071C187.393 38.6581 186.691 39.2537 185.969 39.5891C185.255 39.9155 184.32 40.0788 183.166 40.0788C181.747 40.0788 180.628 39.6728 179.808 38.8611C178.997 38.0493 178.591 36.8933 178.591 35.3932C178.591 33.8225 179.138 32.6666 180.231 31.9254C181.332 31.1753 182.989 30.7606 185.202 30.6812L187.767 30.6018V29.9532C187.767 28.4531 187 27.703 185.467 27.703C184.286 27.703 182.897 28.0604 181.302 28.7752L179.967 26.0486C181.668 25.1573 183.554 24.7117 185.625 24.7117C187.608 24.7117 189.129 25.1441 190.187 26.0088C191.244 26.8736 191.773 28.1883 191.773 29.9532V39.8141H188.956ZM187.767 32.9577L186.206 33.0108C185.034 33.046 184.162 33.2578 183.589 33.6461C183.016 34.0343 182.729 34.6255 182.729 35.4197C182.729 36.5579 183.382 37.1271 184.687 37.1271C185.621 37.1271 186.365 36.858 186.92 36.3197C187.485 35.7815 187.767 35.0667 187.767 34.1755V32.9577ZM199.97 39.8141H195.937V19.2188H199.97V39.8141ZM208.246 39.8141H204.214V19.2188H208.246V39.8141ZM218.611 27.6105C217.757 27.6105 217.087 27.884 216.602 28.431C216.117 28.9693 215.839 29.737 215.769 30.7341H221.428C221.411 29.737 221.15 28.9693 220.648 28.431C220.146 27.884 219.467 27.6105 218.611 27.6105ZM219.18 40.0788C216.801 40.0788 214.941 39.4214 213.601 38.1066C212.261 36.7918 211.591 34.93 211.591 32.521C211.591 30.0414 212.209 28.1266 213.442 26.7766C214.685 25.4176 216.4 24.7382 218.585 24.7382C220.674 24.7382 222.301 25.3338 223.464 26.5251C224.628 27.7163 225.209 29.362 225.209 31.4621V33.421H215.677C215.721 34.5682 216.06 35.4638 216.695 36.108C217.33 36.7521 218.22 37.0742 219.365 37.0742C220.256 37.0742 221.097 36.9815 221.89 36.7962C222.684 36.611 223.512 36.3153 224.376 35.9094V39.0331C223.671 39.3861 222.918 39.6464 222.115 39.8141C221.313 39.9905 220.335 40.0788 219.18 40.0788ZM234.715 36.8624C235.42 36.8624 236.266 36.708 237.254 36.3992V39.4037C236.249 39.8538 235.015 40.0788 233.552 40.0788C231.938 40.0788 230.762 39.6728 230.022 38.8611C229.29 38.0404 228.924 36.8139 228.924 35.1814V28.0472H226.994V26.3398L229.215 24.9897L230.379 21.866H232.956V25.0161H237.095V28.0472H232.956V35.1814C232.956 35.755 233.115 36.1785 233.433 36.4521C233.758 36.7257 234.187 36.8624 234.715 36.8624ZM246.257 32.3886C246.257 30.0503 246.596 27.8619 247.275 25.8236C247.963 23.7852 248.95 21.9984 250.236 20.4629H253.542C252.299 22.166 251.36 24.0367 250.726 26.075C250.091 28.1134 249.774 30.2091 249.774 32.3621C249.774 34.524 250.096 36.6154 250.739 38.6361C251.391 40.6479 252.317 42.4701 253.515 44.1025H250.236C248.941 42.6025 247.954 40.8509 247.275 38.8478C246.596 36.8448 246.257 34.6917 246.257 32.3886ZM268.614 39.8141L267.213 35.2079H260.166L258.764 39.8141H254.349L261.17 20.3835H266.181L273.03 39.8141H268.614ZM266.235 31.7665C264.938 27.5927 264.207 25.2324 264.04 24.6852C263.881 24.1382 263.766 23.7058 263.696 23.3881C263.405 24.5176 262.572 27.3104 261.198 31.7665H266.235ZM281.135 32.3886C281.135 34.7094 280.791 36.8712 280.103 38.8743C279.425 40.8773 278.442 42.6201 277.155 44.1025H273.876C275.066 42.4789 275.987 40.6612 276.64 38.6493C277.291 36.6286 277.618 34.5328 277.618 32.3621C277.618 30.2091 277.301 28.1134 276.666 26.075C276.031 24.0367 275.092 22.166 273.85 20.4629H277.155C278.451 22.0072 279.438 23.8029 280.117 25.85C280.795 27.8884 281.135 30.0679 281.135 32.3886Z" fill="#001F4E"/>
<path d="M78.1503 207.25C78.1503 208.998 77.52 210.374 76.2596 211.38C75.008 212.386 73.2628 212.888 71.024 212.888C68.9615 212.888 67.1371 212.5 65.5505 211.725V207.913C66.855 208.495 67.9567 208.905 68.8558 209.143C69.7636 209.381 70.5922 209.5 71.3413 209.5C72.2404 209.5 72.9279 209.328 73.4038 208.984C73.8886 208.64 74.131 208.129 74.131 207.449C74.131 207.07 74.0253 206.734 73.8137 206.443C73.6022 206.143 73.2893 205.856 72.875 205.583C72.4695 205.309 71.6366 204.872 70.3762 204.273C69.1951 203.716 68.3093 203.182 67.7187 202.671C67.1282 202.159 66.6566 201.563 66.3041 200.884C65.9515 200.205 65.7753 199.41 65.7753 198.501C65.7753 196.789 66.3526 195.444 67.5072 194.464C68.6706 193.485 70.2749 192.995 72.3198 192.995C73.3245 192.995 74.2809 193.114 75.1887 193.352C76.1054 193.591 77.0617 193.926 78.0577 194.359L76.7356 197.548C75.7044 197.125 74.8493 196.829 74.1706 196.661C73.5008 196.494 72.8397 196.41 72.1875 196.41C71.4118 196.41 70.8169 196.591 70.4026 196.953C69.9883 197.314 69.7813 197.786 69.7813 198.369C69.7813 198.731 69.865 199.048 70.0324 199.322C70.1999 199.586 70.4643 199.847 70.8257 200.103C71.1959 200.35 72.0641 200.8 73.4302 201.453C75.2372 202.317 76.4755 203.187 77.1454 204.061C77.8153 204.925 78.1503 205.989 78.1503 207.25ZM79.2211 197.826H83.6371L86.427 206.151C86.6648 206.876 86.8281 207.731 86.9161 208.72H86.9948C87.0921 207.811 87.2816 206.954 87.5634 206.151L90.3007 197.826H94.6237L88.3706 214.517C87.7969 216.061 86.9778 217.217 85.9108 217.985C84.8531 218.752 83.615 219.137 82.1959 219.137C81.4996 219.137 80.8165 219.061 80.1467 218.911V215.708C80.6314 215.823 81.1603 215.88 81.7332 215.88C82.4471 215.88 83.0685 215.659 83.5974 215.218C84.135 214.786 84.5537 214.129 84.8531 213.246L85.0909 212.518L79.2211 197.826ZM107.065 208.229C107.065 209.747 106.536 210.904 105.478 211.697C104.43 212.492 102.856 212.888 100.758 212.888C99.6828 212.888 98.7665 212.814 98.0083 212.664C97.2502 212.523 96.5411 212.311 95.8794 212.029V208.693C96.6291 209.046 97.471 209.342 98.4051 209.58C99.3478 209.819 100.177 209.937 100.89 209.937C102.354 209.937 103.085 209.514 103.085 208.666C103.085 208.349 102.989 208.093 102.794 207.899C102.6 207.696 102.265 207.471 101.79 207.224C101.313 206.968 100.679 206.672 99.8859 206.337C98.7487 205.861 97.9118 205.42 97.3737 205.014C96.8448 204.607 96.4573 204.145 96.2102 203.624C95.9725 203.094 95.8531 202.445 95.8531 201.678C95.8531 200.363 96.36 199.348 97.3737 198.633C98.3958 197.91 99.8419 197.548 101.71 197.548C103.491 197.548 105.223 197.936 106.906 198.713L105.69 201.625C104.949 201.308 104.258 201.047 103.614 200.844C102.971 200.641 102.314 200.539 101.644 200.539C100.455 200.539 99.8597 200.862 99.8597 201.506C99.8597 201.868 100.049 202.181 100.428 202.445C100.816 202.71 101.658 203.103 102.953 203.624C104.107 204.091 104.954 204.528 105.492 204.934C106.029 205.34 106.426 205.807 106.681 206.337C106.937 206.866 107.065 207.497 107.065 208.229ZM116.438 209.673C117.144 209.673 117.99 209.518 118.977 209.209V212.214C117.972 212.664 116.739 212.888 115.275 212.888C113.662 212.888 112.486 212.483 111.745 211.671C111.014 210.85 110.648 209.624 110.648 207.991V200.857H108.717V199.15L110.938 197.8L112.102 194.676H114.68V197.826H118.819V200.857H114.68V207.991C114.68 208.565 114.839 208.988 115.156 209.262C115.482 209.536 115.91 209.673 116.438 209.673ZM128.1 200.421C127.245 200.421 126.575 200.694 126.09 201.241C125.606 201.779 125.328 202.547 125.257 203.544H130.916C130.898 202.547 130.639 201.779 130.136 201.241C129.633 200.694 128.955 200.421 128.1 200.421ZM128.668 212.888C126.288 212.888 124.429 212.231 123.089 210.916C121.749 209.602 121.08 207.74 121.08 205.331C121.08 202.852 121.696 200.937 122.93 199.586C124.173 198.228 125.887 197.548 128.073 197.548C130.162 197.548 131.788 198.144 132.952 199.335C134.115 200.527 134.698 202.172 134.698 204.273V206.231H125.165C125.209 207.378 125.548 208.274 126.183 208.918C126.817 209.562 127.707 209.885 128.853 209.885C129.743 209.885 130.585 209.791 131.379 209.607C132.172 209.421 133 209.126 133.864 208.72V211.843C133.159 212.196 132.405 212.456 131.603 212.624C130.801 212.8 129.823 212.888 128.668 212.888ZM151.21 212.624H147.178V203.981C147.178 202.913 146.997 202.115 146.636 201.586C146.283 201.047 145.724 200.778 144.956 200.778C143.926 200.778 143.176 201.158 142.709 201.916C142.242 202.675 142.008 203.924 142.008 205.662V212.624H137.976V197.826H141.056L141.599 199.719H141.823C142.22 199.04 142.793 198.511 143.542 198.131C144.291 197.742 145.151 197.548 146.121 197.548C148.332 197.548 149.831 198.272 150.615 199.719H150.972C151.369 199.031 151.951 198.497 152.717 198.117C153.493 197.738 154.366 197.548 155.335 197.548C157.01 197.548 158.275 197.981 159.129 198.845C159.993 199.702 160.426 201.078 160.426 202.975V212.624H156.379V203.981C156.379 202.913 156.199 202.115 155.838 201.586C155.485 201.047 154.926 200.778 154.159 200.778C153.172 200.778 152.431 201.131 151.937 201.837C151.453 202.543 151.21 203.663 151.21 205.198V212.624ZM163.268 207.012V203.703H170.368V207.012H163.268ZM173.621 193.273H179.636C182.377 193.273 184.364 193.666 185.599 194.451C186.841 195.228 187.463 196.467 187.463 198.171C187.463 199.326 187.19 200.275 186.643 201.016C186.106 201.757 185.387 202.203 184.488 202.353V202.485C185.713 202.759 186.595 203.27 187.132 204.021C187.679 204.771 187.952 205.768 187.952 207.012C187.952 208.777 187.313 210.153 186.035 211.142C184.765 212.13 183.038 212.624 180.852 212.624H173.621V193.273ZM177.719 200.937H180.099C181.209 200.937 182.011 200.765 182.505 200.421C183.007 200.077 183.258 199.508 183.258 198.713C183.258 197.972 182.985 197.442 182.438 197.125C181.901 196.799 181.046 196.635 179.874 196.635H177.719V200.937ZM177.719 204.193V209.236H180.39C181.518 209.236 182.35 209.02 182.889 208.587C183.426 208.155 183.695 207.493 183.695 206.602C183.695 204.996 182.549 204.193 180.257 204.193H177.719ZM194.708 205.198C194.708 206.664 194.946 207.771 195.422 208.521C195.907 209.271 196.691 209.646 197.775 209.646C198.85 209.646 199.622 209.276 200.089 208.534C200.565 207.784 200.802 206.672 200.802 205.198C200.802 203.734 200.565 202.635 200.089 201.903C199.613 201.17 198.833 200.804 197.749 200.804C196.673 200.804 195.898 201.17 195.422 201.903C194.946 202.627 194.708 203.725 194.708 205.198ZM204.928 205.198C204.928 207.608 204.294 209.492 203.024 210.85C201.755 212.209 199.988 212.888 197.722 212.888C196.303 212.888 195.052 212.58 193.967 211.963C192.883 211.336 192.051 210.44 191.469 209.276C190.887 208.111 190.596 206.752 190.596 205.198C190.596 202.781 191.227 200.901 192.486 199.56C193.747 198.219 195.519 197.548 197.802 197.548C199.221 197.548 200.472 197.857 201.556 198.475C202.64 199.092 203.474 199.979 204.055 201.136C204.637 202.291 204.928 203.646 204.928 205.198ZM216.483 197.548C218.228 197.548 219.595 198.232 220.582 199.6C221.569 200.959 222.063 202.825 222.063 205.198C222.063 207.643 221.551 209.536 220.529 210.877C219.515 212.218 218.132 212.888 216.378 212.888C214.641 212.888 213.279 212.258 212.292 210.996H212.014L211.34 212.624H208.26V192.029H212.292V196.821C212.292 197.429 212.239 198.405 212.133 199.746H212.292C213.235 198.281 214.632 197.548 216.483 197.548ZM215.187 200.778C214.191 200.778 213.464 201.087 213.006 201.704C212.548 202.313 212.309 203.324 212.292 204.736V205.172C212.292 206.76 212.526 207.899 212.993 208.587C213.469 209.276 214.218 209.619 215.24 209.619C216.069 209.619 216.725 209.24 217.21 208.481C217.704 207.713 217.951 206.602 217.951 205.146C217.951 203.69 217.704 202.6 217.21 201.876C216.717 201.144 216.043 200.778 215.187 200.778ZM231.397 205.198C231.397 202.86 231.736 200.672 232.415 198.633C233.102 196.595 234.089 194.809 235.376 193.273H238.681C237.438 194.976 236.5 196.847 235.865 198.885C235.231 200.924 234.913 203.019 234.913 205.172C234.913 207.334 235.235 209.425 235.879 211.446C236.53 213.458 237.456 215.28 238.655 216.912H235.376C234.081 215.413 233.093 213.661 232.415 211.658C231.736 209.655 231.397 207.502 231.397 205.198ZM241.92 193.273H247.937C250.677 193.273 252.665 193.666 253.899 194.451C255.142 195.228 255.764 196.467 255.764 198.171C255.764 199.326 255.49 200.275 254.944 201.016C254.405 201.757 253.687 202.203 252.788 202.353V202.485C254.014 202.759 254.895 203.27 255.433 204.021C255.979 204.771 256.253 205.768 256.253 207.012C256.253 208.777 255.614 210.153 254.335 211.142C253.066 212.13 251.338 212.624 249.153 212.624H241.92V193.273ZM246.019 200.937H248.399C249.51 200.937 250.312 200.765 250.805 200.421C251.308 200.077 251.559 199.508 251.559 198.713C251.559 197.972 251.286 197.442 250.739 197.125C250.202 196.799 249.346 196.635 248.174 196.635H246.019V200.937ZM246.019 204.193V209.236H248.69C249.818 209.236 250.651 209.02 251.188 208.587C251.727 208.155 251.995 207.493 251.995 206.602C251.995 204.996 250.849 204.193 248.558 204.193H246.019ZM265.772 205.198C265.772 207.519 265.428 209.681 264.74 211.685C264.062 213.687 263.079 215.43 261.792 216.912H258.514C259.703 215.289 260.624 213.471 261.276 211.459C261.929 209.439 262.255 207.343 262.255 205.172C262.255 203.019 261.937 200.924 261.302 198.885C260.668 196.847 259.729 194.976 258.486 193.273H261.792C263.088 194.817 264.075 196.613 264.754 198.66C265.433 200.699 265.772 202.878 265.772 205.198Z" fill="#001F4E"/>
<path d="M123.367 238.037V225.943H125.928V238.037H123.367ZM137.299 238.037H134.778V232.635C134.778 231.968 134.659 231.469 134.423 231.138C134.186 230.801 133.808 230.634 133.29 230.634C132.586 230.634 132.076 230.871 131.762 231.345C131.448 231.814 131.291 232.594 131.291 233.686V238.037H128.771V228.789H130.696L131.035 229.972H131.175C131.456 229.525 131.842 229.188 132.333 228.962C132.828 228.731 133.39 228.615 134.018 228.615C135.092 228.615 135.908 228.907 136.463 229.492C137.02 230.071 137.299 230.909 137.299 232.007V238.037ZM143.785 236.192C144.226 236.192 144.755 236.096 145.372 235.903V237.781C144.744 238.062 143.972 238.203 143.058 238.203C142.05 238.203 141.314 237.949 140.852 237.442C140.395 236.928 140.165 236.162 140.165 235.142V230.683H138.96V229.616L140.347 228.772L141.075 226.82H142.686V228.789H145.273V230.683H142.686V235.142C142.686 235.5 142.785 235.765 142.983 235.936C143.187 236.107 143.454 236.192 143.785 236.192ZM151.073 230.41C150.539 230.41 150.12 230.581 149.817 230.923C149.515 231.26 149.34 231.739 149.296 232.363H152.833C152.822 231.739 152.66 231.26 152.346 230.923C152.032 230.581 151.608 230.41 151.073 230.41ZM151.429 238.203C149.941 238.203 148.778 237.792 147.942 236.97C147.104 236.148 146.685 234.984 146.685 233.479C146.685 231.93 147.071 230.733 147.843 229.889C148.619 229.039 149.691 228.615 151.056 228.615C152.362 228.615 153.379 228.987 154.106 229.731C154.833 230.476 155.196 231.504 155.196 232.817V234.042H149.239C149.267 234.759 149.478 235.318 149.875 235.721C150.272 236.124 150.828 236.325 151.544 236.325C152.1 236.325 152.627 236.267 153.123 236.151C153.618 236.036 154.136 235.851 154.676 235.597V237.549C154.235 237.77 153.764 237.932 153.263 238.037C152.761 238.147 152.15 238.203 151.429 238.203ZM162.402 228.615C162.743 228.615 163.028 228.64 163.254 228.689L163.063 231.055C162.859 231 162.611 230.972 162.319 230.972C161.516 230.972 160.887 231.179 160.435 231.593C159.989 232.007 159.766 232.585 159.766 233.33V238.037H157.246V228.789H159.155L159.526 230.344H159.651C159.937 229.825 160.322 229.409 160.807 229.094C161.297 228.775 161.829 228.615 162.402 228.615ZM167.45 238.037H164.931V225.166H167.45V238.037ZM175.97 238.037L175.483 236.78H175.417C174.992 237.315 174.555 237.687 174.103 237.897C173.656 238.101 173.072 238.203 172.351 238.203C171.464 238.203 170.764 237.949 170.252 237.442C169.745 236.934 169.492 236.212 169.492 235.274C169.492 234.292 169.833 233.571 170.517 233.107C171.205 232.638 172.241 232.379 173.623 232.33L175.227 232.28V231.875C175.227 230.937 174.748 230.468 173.789 230.468C173.05 230.468 172.183 230.691 171.186 231.138L170.351 229.434C171.415 228.877 172.593 228.598 173.888 228.598C175.128 228.598 176.078 228.868 176.739 229.409C177.4 229.949 177.73 230.772 177.73 231.875V238.037H175.97ZM175.227 233.752L174.252 233.785C173.519 233.808 172.973 233.94 172.615 234.182C172.257 234.425 172.078 234.795 172.078 235.291C172.078 236.003 172.486 236.358 173.302 236.358C173.885 236.358 174.351 236.19 174.698 235.853C175.051 235.517 175.227 235.07 175.227 234.513V233.752ZM179.011 228.789H181.771L183.515 233.992C183.664 234.444 183.765 234.979 183.82 235.597H183.87C183.93 235.029 184.049 234.494 184.225 233.992L185.936 228.789H188.638L184.729 239.22C184.371 240.186 183.859 240.908 183.192 241.388C182.531 241.867 181.757 242.108 180.87 242.108C180.436 242.108 180.008 242.06 179.589 241.967V239.964C179.892 240.036 180.223 240.072 180.581 240.072C181.027 240.072 181.415 239.935 181.746 239.659C182.082 239.388 182.344 238.978 182.531 238.426L182.68 237.971L179.011 228.789ZM193.794 230.41C193.26 230.41 192.841 230.581 192.538 230.923C192.235 231.26 192.062 231.739 192.018 232.363H195.554C195.543 231.739 195.38 231.26 195.066 230.923C194.752 230.581 194.329 230.41 193.794 230.41ZM194.149 238.203C192.662 238.203 191.5 237.792 190.662 236.97C189.825 236.148 189.406 234.984 189.406 233.479C189.406 231.93 189.791 230.733 190.563 229.889C191.34 229.039 192.411 228.615 193.778 228.615C195.083 228.615 196.1 228.987 196.826 229.731C197.554 230.476 197.917 231.504 197.917 232.817V234.042H191.959C191.987 234.759 192.2 235.318 192.596 235.721C192.992 236.124 193.549 236.325 194.265 236.325C194.821 236.325 195.347 236.267 195.843 236.151C196.339 236.036 196.857 235.851 197.397 235.597V237.549C196.956 237.77 196.485 237.932 195.984 238.037C195.483 238.147 194.871 238.203 194.149 238.203ZM205.123 228.615C205.465 228.615 205.748 228.64 205.974 228.689L205.784 231.055C205.58 231 205.332 230.972 205.04 230.972C204.236 230.972 203.608 231.179 203.156 231.593C202.71 232.007 202.487 232.585 202.487 233.33V238.037H199.966V228.789H201.875L202.248 230.344H202.371C202.658 229.825 203.043 229.409 203.528 229.094C204.019 228.775 204.55 228.615 205.123 228.615Z" fill="#001F4E"/>
<path d="M127.601 398.582C127.601 397.121 127.812 395.754 128.237 394.48C128.667 393.205 129.284 392.088 130.088 391.129H132.154C131.377 392.193 130.79 393.362 130.394 394.636C129.997 395.91 129.798 397.22 129.798 398.566C129.798 399.917 130 401.224 130.402 402.487C130.809 403.744 131.388 404.884 132.137 405.904H130.088C129.278 404.966 128.661 403.871 128.237 402.619C127.812 401.367 127.601 400.022 127.601 398.582ZM142.508 403.223H139.987V397.821C139.987 396.487 139.492 395.82 138.5 395.82C137.794 395.82 137.285 396.059 136.971 396.539C136.657 397.019 136.5 397.797 136.5 398.872V403.223H133.98V390.352H136.5V392.973C136.5 393.178 136.481 393.658 136.442 394.413L136.385 395.158H136.517C137.079 394.253 137.971 393.801 139.194 393.801C140.28 393.801 141.103 394.093 141.665 394.678C142.227 395.262 142.508 396.101 142.508 397.193V403.223ZM150.969 403.223L150.482 401.966H150.416C149.991 402.501 149.553 402.874 149.102 403.083C148.656 403.287 148.071 403.389 147.35 403.389C146.462 403.389 145.764 403.135 145.251 402.628C144.744 402.12 144.491 401.398 144.491 400.46C144.491 399.478 144.832 398.757 145.516 398.293C146.204 397.824 147.239 397.565 148.623 397.516L150.225 397.466V397.061C150.225 396.123 149.746 395.654 148.788 395.654C148.049 395.654 147.182 395.877 146.185 396.324L145.35 394.62C146.413 394.063 147.592 393.784 148.887 393.784C150.126 393.784 151.077 394.054 151.737 394.595C152.398 395.135 152.729 395.958 152.729 397.061V403.223H150.969ZM150.225 398.938L149.251 398.971C148.518 398.994 147.972 399.126 147.614 399.368C147.256 399.611 147.077 399.981 147.077 400.477C147.077 401.189 147.485 401.544 148.3 401.544C148.884 401.544 149.35 401.376 149.696 401.04C150.049 400.703 150.225 400.256 150.225 399.699V398.938ZM160.405 403.389C159.321 403.389 158.469 402.995 157.853 402.206H157.72C157.809 402.978 157.853 403.425 157.853 403.546V407.294H155.332V393.975H157.381L157.737 395.174H157.853C158.441 394.258 159.315 393.801 160.471 393.801C161.563 393.801 162.417 394.223 163.034 395.067C163.65 395.91 163.959 397.083 163.959 398.582C163.959 399.57 163.813 400.427 163.521 401.156C163.234 401.883 162.824 402.437 162.29 402.818C161.755 403.199 161.127 403.389 160.405 403.389ZM159.662 395.82C159.04 395.82 158.585 396.013 158.298 396.398C158.012 396.779 157.864 397.411 157.853 398.293V398.566C157.853 399.559 157.998 400.27 158.29 400.7C158.588 401.13 159.056 401.345 159.695 401.345C160.824 401.345 161.389 400.414 161.389 398.549C161.389 397.639 161.248 396.958 160.967 396.506C160.692 396.048 160.257 395.82 159.662 395.82ZM171.115 403.389C170.03 403.389 169.178 402.995 168.561 402.206H168.429C168.517 402.978 168.561 403.425 168.561 403.546V407.294H166.041V393.975H168.09L168.446 395.174H168.561C169.151 394.258 170.024 393.801 171.181 393.801C172.272 393.801 173.126 394.223 173.742 395.067C174.359 395.91 174.668 397.083 174.668 398.582C174.668 399.57 174.522 400.427 174.23 401.156C173.944 401.883 173.533 402.437 172.999 402.818C172.465 403.199 171.836 403.389 171.115 403.389ZM170.371 395.82C169.749 395.82 169.294 396.013 169.007 396.398C168.721 396.779 168.572 397.411 168.561 398.293V398.566C168.561 399.559 168.708 400.27 169 400.7C169.297 401.13 169.766 401.345 170.404 401.345C171.533 401.345 172.098 400.414 172.098 398.549C172.098 397.639 171.958 396.958 171.677 396.506C171.401 396.048 170.966 395.82 170.371 395.82ZM175.428 393.975H178.188L179.931 399.178C180.08 399.63 180.183 400.165 180.238 400.783H180.287C180.348 400.215 180.466 399.68 180.642 399.178L182.353 393.975H185.055L181.146 404.406C180.788 405.372 180.276 406.094 179.61 406.574C178.948 407.053 178.175 407.294 177.287 407.294C176.852 407.294 176.426 407.246 176.007 407.153V405.151C176.31 405.223 176.641 405.258 176.998 405.258C177.444 405.258 177.833 405.121 178.164 404.845C178.5 404.575 178.761 404.164 178.948 403.612L179.097 403.157L175.428 393.975ZM190.121 398.582C190.121 400.033 189.906 401.384 189.476 402.636C189.051 403.888 188.438 404.977 187.633 405.904H185.584C186.327 404.889 186.903 403.753 187.311 402.496C187.718 401.233 187.922 399.923 187.922 398.566C187.922 397.22 187.723 395.91 187.327 394.636C186.931 393.362 186.344 392.193 185.567 391.129H187.633C188.443 392.094 189.06 393.216 189.484 394.496C189.908 395.77 190.121 397.132 190.121 398.582Z" fill="#001F4E"/>
<path d="M135.279 361.847H141.294C144.036 361.847 146.023 362.24 147.257 363.025C148.5 363.802 149.121 365.042 149.121 366.745C149.121 367.9 148.848 368.849 148.302 369.59C147.764 370.332 147.045 370.777 146.147 370.927V371.059C147.372 371.333 148.253 371.845 148.791 372.595C149.338 373.345 149.61 374.342 149.61 375.586C149.61 377.351 148.971 378.727 147.694 379.716C146.424 380.705 144.697 381.198 142.511 381.198H135.279V361.847ZM139.378 369.511H141.757C142.868 369.511 143.67 369.339 144.163 368.995C144.666 368.651 144.917 368.082 144.917 367.287C144.917 366.546 144.644 366.017 144.097 365.699C143.559 365.373 142.705 365.209 141.533 365.209H139.378V369.511ZM139.378 372.767V377.81H142.048C143.176 377.81 144.009 377.594 144.547 377.161C145.085 376.729 145.353 376.067 145.353 375.176C145.353 373.57 144.207 372.767 141.916 372.767H139.378ZM156.367 373.773C156.367 375.238 156.604 376.345 157.081 377.095C157.566 377.846 158.35 378.22 159.434 378.22C160.509 378.22 161.28 377.85 161.747 377.109C162.224 376.358 162.462 375.247 162.462 373.773C162.462 372.308 162.224 371.209 161.747 370.477C161.272 369.745 160.492 369.379 159.408 369.379C158.332 369.379 157.556 369.745 157.081 370.477C156.604 371.201 156.367 372.3 156.367 373.773ZM166.587 373.773C166.587 376.182 165.952 378.066 164.683 379.425C163.413 380.783 161.646 381.463 159.381 381.463C157.962 381.463 156.71 381.154 155.626 380.537C154.542 379.91 153.709 379.015 153.128 377.85C152.545 376.685 152.255 375.326 152.255 373.773C152.255 371.355 152.885 369.475 154.146 368.134C155.405 366.793 157.177 366.122 159.46 366.122C160.879 366.122 162.131 366.432 163.215 367.049C164.299 367.667 165.132 368.554 165.714 369.71C166.295 370.865 166.587 372.22 166.587 373.773ZM178.142 366.122C179.887 366.122 181.253 366.806 182.24 368.174C183.228 369.533 183.721 371.399 183.721 373.773C183.721 376.217 183.21 378.11 182.187 379.452C181.174 380.793 179.79 381.463 178.036 381.463C176.3 381.463 174.938 380.832 173.951 379.57H173.673L172.999 381.198H169.918V360.604H173.951V365.395C173.951 366.003 173.898 366.979 173.792 368.32H173.951C174.894 366.855 176.291 366.122 178.142 366.122ZM176.846 369.352C175.85 369.352 175.123 369.661 174.665 370.278C174.206 370.887 173.968 371.898 173.951 373.31V373.746C173.951 375.335 174.184 376.473 174.651 377.161C175.128 377.85 175.876 378.194 176.899 378.194C177.728 378.194 178.384 377.814 178.869 377.055C179.363 376.288 179.61 375.176 179.61 373.72C179.61 372.264 179.363 371.175 178.869 370.45C178.375 369.718 177.701 369.352 176.846 369.352Z" fill="#001F4E"/>
<path d="M560.154 0H382.462C375.919 0 370.615 5.30968 370.615 11.8595V46.5909C370.615 53.1407 375.919 58.4504 382.462 58.4504H560.154C566.696 58.4504 572 53.1407 572 46.5909V11.8595C572 5.30968 566.696 0 560.154 0Z" fill="white"/>
<path d="M438.985 46.1858C438.985 44.7242 439.197 43.3565 439.622 42.0825C440.052 40.8086 440.668 39.6918 441.472 38.7322H443.539C442.762 39.7966 442.175 40.9658 441.779 42.2398C441.382 43.5137 441.183 44.8235 441.183 46.1692C441.183 47.5204 441.384 48.8275 441.786 50.0904C442.194 51.3478 442.773 52.4866 443.522 53.507H441.472C440.663 52.5694 440.046 51.4747 439.622 50.2227C439.197 48.9708 438.985 47.6252 438.985 46.1858ZM453.892 50.8266H451.371V45.4246C451.371 44.09 450.876 43.4228 449.885 43.4228C449.179 43.4228 448.67 43.6627 448.356 44.1425C448.042 44.6223 447.884 45.3999 447.884 46.4753V50.8266H445.365V37.9546H447.884V40.577C447.884 40.781 447.866 41.2609 447.827 42.0164L447.769 42.7609H447.901C448.463 41.8565 449.356 41.4043 450.579 41.4043C451.664 41.4043 452.488 41.6965 453.049 42.2811C453.611 42.8657 453.892 43.704 453.892 44.796V50.8266ZM462.354 50.8266L461.866 49.5692H461.8C461.376 50.1041 460.938 50.4764 460.486 50.686C460.04 50.8901 459.456 50.9921 458.735 50.9921C457.847 50.9921 457.148 50.7384 456.635 50.231C456.129 49.7236 455.876 49.0012 455.876 48.0636C455.876 47.0819 456.217 46.3595 456.9 45.8962C457.588 45.4274 458.624 45.1682 460.007 45.1186L461.61 45.0689V44.6636C461.61 43.726 461.131 43.2573 460.172 43.2573C459.434 43.2573 458.566 43.4806 457.57 43.9274L456.734 42.2232C457.798 41.6662 458.977 41.3877 460.271 41.3877C461.511 41.3877 462.461 41.6579 463.122 42.1984C463.783 42.7389 464.114 43.5606 464.114 44.6636V50.8266H462.354ZM461.61 46.5415L460.635 46.5746C459.902 46.5966 459.357 46.729 458.999 46.9716C458.641 47.2143 458.461 47.5838 458.461 48.0802C458.461 48.7916 458.869 49.1473 459.685 49.1473C460.269 49.1473 460.734 48.9791 461.081 48.6427C461.434 48.3062 461.61 47.8596 461.61 47.3025V46.5415ZM471.79 50.9921C470.705 50.9921 469.854 50.5978 469.237 49.8091H469.104C469.193 50.5812 469.237 51.0279 469.237 51.1493V54.8967H466.716V41.5779H468.766L469.121 42.7774H469.237C469.826 41.862 470.699 41.4043 471.856 41.4043C472.948 41.4043 473.801 41.8261 474.418 42.6699C475.035 43.5137 475.344 44.6857 475.344 46.1858C475.344 47.1729 475.197 48.0305 474.906 48.7585C474.619 49.4865 474.208 50.0408 473.674 50.4213C473.14 50.8018 472.512 50.9921 471.79 50.9921ZM471.046 43.4228C470.424 43.4228 469.97 43.6157 469.683 44.0018C469.397 44.3824 469.248 45.0138 469.237 45.8962V46.1692C469.237 47.1619 469.383 47.8734 469.675 48.3035C469.972 48.7337 470.44 48.9488 471.079 48.9488C472.209 48.9488 472.773 48.0167 472.773 46.1526C472.773 45.2427 472.633 44.5616 472.352 44.1093C472.077 43.6516 471.642 43.4228 471.046 43.4228ZM482.5 50.9921C481.414 50.9921 480.563 50.5978 479.946 49.8091H479.814C479.902 50.5812 479.946 51.0279 479.946 51.1493V54.8967H477.425V41.5779H479.475L479.83 42.7774H479.946C480.536 41.862 481.409 41.4043 482.566 41.4043C483.656 41.4043 484.51 41.8261 485.127 42.6699C485.744 43.5137 486.053 44.6857 486.053 46.1858C486.053 47.1729 485.906 48.0305 485.614 48.7585C485.328 49.4865 484.918 50.0408 484.383 50.4213C483.849 50.8018 483.221 50.9921 482.5 50.9921ZM481.756 43.4228C481.133 43.4228 480.679 43.6157 480.392 44.0018C480.106 44.3824 479.957 45.0138 479.946 45.8962V46.1692C479.946 47.1619 480.092 47.8734 480.384 48.3035C480.681 48.7337 481.15 48.9488 481.789 48.9488C482.918 48.9488 483.483 48.0167 483.483 46.1526C483.483 45.2427 483.343 44.5616 483.062 44.1093C482.786 43.6516 482.351 43.4228 481.756 43.4228ZM486.813 41.5779H489.573L491.316 46.7814C491.465 47.2336 491.567 47.7686 491.622 48.3862H491.671C491.732 47.8182 491.851 47.2833 492.027 46.7814L493.738 41.5779H496.439L492.531 52.0096C492.173 52.9747 491.66 53.6972 490.994 54.177C490.333 54.6568 489.559 54.8967 488.672 54.8967C488.237 54.8967 487.81 54.8498 487.391 54.7561V52.7541C487.694 52.8258 488.025 52.8616 488.383 52.8616C488.829 52.8616 489.217 52.7238 489.548 52.4481C489.884 52.1779 490.146 51.7669 490.333 51.2155L490.482 50.7605L486.813 41.5779ZM501.505 46.1858C501.505 47.6362 501.29 48.9874 500.86 50.2393C500.436 51.4912 499.822 52.5804 499.018 53.507H496.968C497.712 52.4921 498.287 51.3561 498.695 50.0986C499.103 48.8357 499.307 47.5259 499.307 46.1692C499.307 44.8235 499.108 43.5137 498.712 42.2398C498.315 40.9658 497.729 39.7966 496.952 38.7322H499.018C499.827 39.6973 500.444 40.8196 500.869 42.0991C501.293 43.3731 501.505 44.7353 501.505 46.1858Z" fill="#001F4E"/>
<path d="M411.125 32.19V12.8389H415.224V28.8016H423.063V32.19H411.125ZM429.331 24.7646C429.331 26.2294 429.569 27.3368 430.044 28.0868C430.529 28.8369 431.313 29.2119 432.398 29.2119C433.473 29.2119 434.244 28.8413 434.712 28.1001C435.187 27.3501 435.426 26.2382 435.426 24.7646C435.426 23.2998 435.187 22.2012 434.712 21.4689C434.236 20.7365 433.456 20.3703 432.371 20.3703C431.296 20.3703 430.521 20.7365 430.044 21.4689C429.569 22.1924 429.331 23.291 429.331 24.7646ZM439.551 24.7646C439.551 27.1735 438.916 29.0575 437.647 30.4164C436.378 31.7753 434.61 32.4547 432.345 32.4547C430.926 32.4547 429.674 32.1459 428.59 31.5283C427.506 30.9017 426.673 30.0061 426.091 28.8413C425.51 27.6766 425.219 26.3176 425.219 24.7646C425.219 22.3468 425.849 20.4673 427.11 19.126C428.37 17.7848 430.141 17.1141 432.424 17.1141C433.843 17.1141 435.095 17.423 436.179 18.0407C437.264 18.6583 438.096 19.5452 438.678 20.7011C439.26 21.8571 439.551 23.2115 439.551 24.7646ZM449.11 29.2384C449.815 29.2384 450.661 29.0839 451.648 28.7752V31.7797C450.643 32.2298 449.409 32.4547 447.946 32.4547C446.333 32.4547 445.156 32.0488 444.416 31.237C443.684 30.4164 443.319 29.1898 443.319 27.5574V20.4232H441.389V18.7158L443.61 17.3656L444.773 14.2419H447.351V17.3921H451.489V20.4232H447.351V27.5574C447.351 28.1309 447.51 28.5545 447.827 28.828C448.153 29.1016 448.581 29.2384 449.11 29.2384ZM471.995 27.7957C471.995 29.3134 471.467 30.4694 470.409 31.2635C469.36 32.0577 467.787 32.4547 465.688 32.4547C464.614 32.4547 463.697 32.3798 462.938 32.2298C462.181 32.0885 461.471 31.8768 460.81 31.5944V28.2589C461.559 28.6118 462.401 28.9075 463.335 29.1457C464.279 29.384 465.107 29.5031 465.821 29.5031C467.284 29.5031 468.015 29.0795 468.015 28.2324C468.015 27.9148 467.919 27.6588 467.725 27.4648C467.53 27.2618 467.196 27.0368 466.72 26.7897C466.244 26.5338 465.61 26.2382 464.816 25.9029C463.679 25.4264 462.842 24.9852 462.304 24.5793C461.775 24.1734 461.387 23.7101 461.14 23.1895C460.903 22.6601 460.783 22.0115 460.783 21.2438C460.783 19.929 461.29 18.9142 462.304 18.1995C463.327 17.4759 464.772 17.1141 466.64 17.1141C468.421 17.1141 470.153 17.5025 471.837 18.2789L470.621 21.1908C469.879 20.8732 469.188 20.6129 468.544 20.41C467.901 20.207 467.244 20.1055 466.574 20.1055C465.385 20.1055 464.79 20.4276 464.79 21.0717C464.79 21.4335 464.979 21.7468 465.358 22.0115C465.746 22.2762 466.588 22.6689 467.883 23.1895C469.038 23.6572 469.884 24.094 470.422 24.4999C470.96 24.9057 471.356 25.3734 471.611 25.9029C471.867 26.4323 471.995 27.0632 471.995 27.7957ZM481.264 19.9864C480.408 19.9864 479.739 20.26 479.254 20.807C478.769 21.3453 478.492 22.113 478.42 23.1101H484.08C484.062 22.113 483.802 21.3453 483.299 20.807C482.797 20.26 482.118 19.9864 481.264 19.9864ZM481.832 32.4547C479.452 32.4547 477.592 31.7974 476.253 30.4826C474.912 29.1678 474.243 27.3059 474.243 24.8969C474.243 22.4174 474.86 20.5026 476.094 19.1525C477.337 17.7936 479.051 17.1141 481.236 17.1141C483.326 17.1141 484.952 17.7097 486.115 18.901C487.279 20.0923 487.86 21.738 487.86 23.8381V25.797H478.328C478.372 26.9441 478.712 27.8398 479.346 28.4839C479.981 29.1281 480.871 29.4501 482.017 29.4501C482.907 29.4501 483.749 29.3575 484.542 29.1722C485.335 28.9869 486.164 28.6913 487.028 28.2854V31.4091C486.323 31.7621 485.569 32.0224 484.767 32.19C483.964 32.3665 482.986 32.4547 481.832 32.4547ZM495.172 32.19H491.14V11.5947H495.172V32.19ZM503.448 32.19H499.416V11.5947H503.448V32.19ZM513.813 19.9864C512.959 19.9864 512.289 20.26 511.804 20.807C511.319 21.3453 511.041 22.113 510.971 23.1101H516.629C516.612 22.113 516.352 21.3453 515.85 20.807C515.347 20.26 514.669 19.9864 513.813 19.9864ZM514.382 32.4547C512.003 32.4547 510.143 31.7974 508.802 30.4826C507.463 29.1678 506.794 27.3059 506.794 24.8969C506.794 22.4174 507.411 20.5026 508.644 19.1525C509.887 17.7936 511.602 17.1141 513.787 17.1141C515.876 17.1141 517.503 17.7097 518.666 18.901C519.83 20.0923 520.411 21.738 520.411 23.8381V25.797H510.879C510.923 26.9441 511.262 27.8398 511.897 28.4839C512.531 29.1281 513.422 29.4501 514.567 29.4501C515.457 29.4501 516.299 29.3575 517.092 29.1722C517.886 28.9869 518.714 28.6913 519.578 28.2854V31.4091C518.873 31.7621 518.119 32.0224 517.317 32.19C516.515 32.3665 515.537 32.4547 514.382 32.4547ZM531.94 17.1141C532.486 17.1141 532.941 17.1539 533.302 17.2333L532.997 21.0188C532.672 20.9305 532.275 20.8864 531.808 20.8864C530.521 20.8864 529.516 21.2174 528.794 21.8791C528.08 22.541 527.722 23.4674 527.722 24.6587V32.19H523.69V17.3921H526.744L527.339 19.8805H527.537C527.996 19.0511 528.613 18.3848 529.389 17.8819C530.173 17.3701 531.023 17.1141 531.94 17.1141Z" fill="#001F4E"/>
<path d="M167.274 80.978C167.274 76.3719 169.799 74.0688 174.85 74.0688C177.361 74.0688 179.279 74.6954 180.601 75.9483C181.932 77.2014 182.597 78.9971 182.597 81.3354C182.597 83.0473 182.262 84.5827 181.592 85.9415L178.472 84.7504C178.728 84.115 178.935 83.5238 179.094 82.9767C179.261 82.4296 179.345 81.8826 179.345 81.3354C179.345 79.2354 177.856 78.1853 174.876 78.1853C171.985 78.1853 170.54 79.2354 170.54 81.3354C170.54 82.112 170.641 82.8311 170.844 83.4929C171.055 84.1547 171.382 84.8165 171.822 85.4781H168.371C167.957 84.825 167.67 84.1636 167.512 83.4929C167.353 82.8311 167.274 81.9929 167.274 80.978ZM167.538 92.9564V88.9199H188.11V92.9564H167.538ZM174.956 100.422C173.492 100.422 172.386 100.66 171.637 101.137C170.888 101.622 170.514 102.408 170.514 103.493C170.514 104.569 170.883 105.341 171.624 105.809C172.373 106.286 173.484 106.524 174.956 106.524C176.419 106.524 177.516 106.286 178.247 105.809C178.979 105.333 179.345 104.552 179.345 103.466C179.345 102.39 178.979 101.613 178.247 101.137C177.525 100.66 176.427 100.422 174.956 100.422ZM174.956 110.653C172.549 110.653 170.668 110.018 169.31 108.747C167.953 107.477 167.274 105.707 167.274 103.439C167.274 102.019 167.582 100.766 168.199 99.6807C168.825 98.5956 169.72 97.7612 170.883 97.1792C172.047 96.5964 173.404 96.305 174.956 96.305C177.371 96.305 179.248 96.9361 180.588 98.1983C181.927 99.4596 182.597 101.233 182.597 103.519C182.597 104.94 182.289 106.192 181.672 107.278C181.055 108.364 180.169 109.197 179.014 109.78C177.86 110.362 176.507 110.653 174.956 110.653ZM171.927 124.313C170.412 124.313 169.257 123.783 168.464 122.725C167.67 121.674 167.274 120.099 167.274 117.999C167.274 116.923 167.349 116.005 167.499 115.246C167.64 114.487 167.852 113.777 168.133 113.115H171.465C171.113 113.866 170.817 114.708 170.58 115.644C170.341 116.587 170.222 117.417 170.222 118.132C170.222 119.596 170.646 120.329 171.492 120.329C171.809 120.329 172.065 120.232 172.258 120.038C172.461 119.844 172.686 119.508 172.933 119.032C173.188 118.555 173.484 117.92 173.819 117.126C174.294 115.988 174.735 115.149 175.14 114.611C175.546 114.082 176.008 113.694 176.529 113.446C177.058 113.208 177.706 113.089 178.472 113.089C179.786 113.089 180.799 113.596 181.514 114.611C182.236 115.634 182.597 117.082 182.597 118.952C182.597 120.735 182.21 122.469 181.434 124.154L178.525 122.936C178.842 122.195 179.103 121.502 179.305 120.858C179.508 120.214 179.61 119.556 179.61 118.886C179.61 117.694 179.287 117.099 178.644 117.099C178.283 117.099 177.97 117.289 177.706 117.668C177.441 118.057 177.049 118.899 176.529 120.197C176.062 121.352 175.625 122.199 175.22 122.738C174.815 123.276 174.347 123.673 173.819 123.929C173.29 124.185 172.659 124.313 171.927 124.313ZM179.728 133.591C179.728 132.736 179.455 132.065 178.908 131.579C178.371 131.094 177.604 130.816 176.608 130.746V136.41C177.604 136.393 178.371 136.133 178.908 135.629C179.455 135.127 179.728 134.448 179.728 133.591ZM167.274 134.161C167.274 131.778 167.931 129.917 169.244 128.575C170.558 127.234 172.417 126.563 174.823 126.563C177.3 126.563 179.213 127.18 180.562 128.416C181.919 129.66 182.597 131.377 182.597 133.565C182.597 135.657 182.003 137.284 180.812 138.449C179.622 139.613 177.979 140.196 175.881 140.196H173.924V130.653C172.779 130.697 171.883 131.036 171.24 131.672C170.597 132.307 170.275 133.199 170.275 134.346C170.275 135.237 170.368 136.08 170.552 136.874C170.738 137.668 171.033 138.498 171.438 139.363H168.319C167.966 138.656 167.706 137.902 167.538 137.099C167.362 136.296 167.274 135.317 167.274 134.161ZM167.274 148.164C167.274 146.426 167.948 145.059 169.297 144.061C170.646 143.073 172.514 142.578 174.903 142.578C177.327 142.578 179.213 143.081 180.562 144.088C181.919 145.103 182.597 146.496 182.597 148.27C182.597 150.132 181.875 151.552 180.429 152.532V152.665C181.53 152.461 182.514 152.36 183.378 152.36H188.11V156.411H167.538V153.313L169.456 152.532V152.36C168.001 151.442 167.274 150.044 167.274 148.164ZM170.486 149.58C170.486 150.613 170.787 151.367 171.386 151.844C171.985 152.329 173.003 152.594 174.44 152.638H174.876C176.463 152.638 177.6 152.391 178.287 151.896C178.975 151.412 179.319 150.617 179.319 149.514C179.319 148.614 178.935 147.912 178.168 147.41C177.411 146.915 176.304 146.669 174.85 146.669C173.396 146.669 172.302 146.92 171.571 147.423C170.848 147.926 170.486 148.645 170.486 149.58Z" fill="#42FF00"/>
<path d="M332.993 123.678L332.117 120.799H327.713L326.837 123.678H324.077L328.341 111.534H331.472L335.753 123.678H332.993ZM331.505 118.648C330.696 116.039 330.239 114.565 330.134 114.222C330.035 113.88 329.963 113.61 329.919 113.412C329.737 114.117 329.216 115.863 328.358 118.648H331.505ZM343.528 120.931C343.528 121.88 343.198 122.602 342.537 123.098C341.882 123.595 340.898 123.843 339.587 123.843C338.915 123.843 338.342 123.796 337.868 123.702C337.395 123.614 336.951 123.482 336.538 123.306V121.221C337.006 121.441 337.532 121.626 338.116 121.775C338.705 121.924 339.223 121.999 339.67 121.999C340.584 121.999 341.041 121.734 341.041 121.204C341.041 121.006 340.981 120.846 340.86 120.725C340.739 120.598 340.529 120.457 340.232 120.303C339.934 120.143 339.537 119.958 339.042 119.748C338.331 119.451 337.807 119.175 337.472 118.921C337.141 118.667 336.899 118.377 336.745 118.052C336.596 117.722 336.521 117.316 336.521 116.837C336.521 116.015 336.838 115.38 337.472 114.934C338.11 114.482 339.014 114.255 340.182 114.255C341.294 114.255 342.378 114.498 343.429 114.983L342.669 116.804C342.207 116.604 341.774 116.442 341.371 116.316C340.97 116.189 340.559 116.125 340.14 116.125C339.397 116.125 339.025 116.327 339.025 116.729C339.025 116.955 339.144 117.151 339.38 117.316C339.622 117.482 340.149 117.727 340.959 118.052C341.68 118.344 342.209 118.618 342.545 118.871C342.881 119.125 343.129 119.418 343.289 119.748C343.449 120.079 343.528 120.473 343.528 120.931ZM358.163 123.678H355.643V118.276C355.643 117.608 355.529 117.109 355.303 116.778C355.083 116.442 354.733 116.274 354.254 116.274C353.609 116.274 353.141 116.511 352.85 116.986C352.558 117.46 352.411 118.24 352.411 119.326V123.678H349.891V114.429H351.816L352.156 115.613H352.296C352.544 115.187 352.902 114.857 353.37 114.62C353.839 114.377 354.375 114.255 354.981 114.255C356.364 114.255 357.3 114.708 357.791 115.613H358.014C358.262 115.182 358.625 114.848 359.104 114.611C359.589 114.374 360.135 114.255 360.741 114.255C361.787 114.255 362.578 114.526 363.113 115.066C363.652 115.601 363.922 116.461 363.922 117.647V123.678H361.394V118.276C361.394 117.608 361.281 117.109 361.055 116.778C360.835 116.442 360.484 116.274 360.005 116.274C359.389 116.274 358.926 116.494 358.617 116.936C358.314 117.377 358.163 118.078 358.163 119.037V123.678ZM372.384 123.678L371.896 122.421H371.83C371.406 122.955 370.968 123.328 370.516 123.537C370.07 123.741 369.486 123.843 368.764 123.843C367.877 123.843 367.178 123.59 366.666 123.082C366.159 122.575 365.906 121.852 365.906 120.915C365.906 119.933 366.247 119.211 366.93 118.748C367.618 118.278 368.654 118.019 370.037 117.97L371.64 117.92V117.515C371.64 116.577 371.161 116.108 370.202 116.108C369.464 116.108 368.596 116.332 367.6 116.778L366.765 115.075C367.828 114.517 369.007 114.238 370.301 114.238C371.541 114.238 372.491 114.509 373.152 115.049C373.813 115.59 374.144 116.412 374.144 117.515V123.678H372.384ZM371.64 119.392L370.665 119.425C369.933 119.448 369.387 119.58 369.029 119.823C368.671 120.066 368.492 120.435 368.492 120.931C368.492 121.643 368.899 121.999 369.715 121.999C370.299 121.999 370.764 121.83 371.111 121.494C371.464 121.158 371.64 120.71 371.64 120.154V119.392ZM385.274 123.678H382.754V118.276C382.754 117.608 382.636 117.109 382.399 116.778C382.162 116.442 381.785 116.274 381.267 116.274C380.562 116.274 380.052 116.511 379.738 116.986C379.424 117.454 379.267 118.234 379.267 119.326V123.678H376.747V114.429H378.672L379.011 115.613H379.151C379.432 115.165 379.818 114.829 380.308 114.603C380.804 114.371 381.366 114.255 381.994 114.255C383.068 114.255 383.883 114.548 384.44 115.132C384.996 115.712 385.274 116.549 385.274 117.647V123.678ZM386.547 114.429H389.307L391.05 119.633C391.199 120.084 391.301 120.62 391.356 121.237H391.405C391.466 120.67 391.585 120.134 391.761 119.633L393.472 114.429H396.173L392.265 124.86C391.907 125.826 391.394 126.549 390.728 127.028C390.067 127.508 389.293 127.748 388.406 127.748C387.971 127.748 387.544 127.701 387.126 127.608V125.605C387.428 125.677 387.758 125.713 388.117 125.713C388.563 125.713 388.952 125.575 389.282 125.299C389.618 125.029 389.88 124.618 390.067 124.067L390.216 123.612L386.547 114.429ZM407.767 123.678L407.279 122.421H407.213C406.789 122.955 406.351 123.328 405.899 123.537C405.453 123.741 404.869 123.843 404.148 123.843C403.261 123.843 402.561 123.59 402.048 123.082C401.541 122.575 401.288 121.852 401.288 120.915C401.288 119.933 401.63 119.211 402.313 118.748C403.002 118.278 404.038 118.019 405.42 117.97L407.023 117.92V117.515C407.023 116.577 406.544 116.108 405.585 116.108C404.847 116.108 403.979 116.332 402.982 116.778L402.148 115.075C403.211 114.517 404.39 114.238 405.684 114.238C406.924 114.238 407.874 114.509 408.535 115.049C409.197 115.59 409.527 116.412 409.527 117.515V123.678H407.767ZM407.023 119.392L406.048 119.425C405.315 119.448 404.77 119.58 404.412 119.823C404.054 120.066 403.875 120.435 403.875 120.931C403.875 121.643 404.282 121.999 405.098 121.999C405.682 121.999 406.147 121.83 406.494 121.494C406.847 121.158 407.023 120.71 407.023 120.154V119.392ZM418.575 120.931C418.575 121.88 418.245 122.602 417.584 123.098C416.928 123.595 415.945 123.843 414.633 123.843C413.961 123.843 413.388 123.796 412.915 123.702C412.441 123.614 411.997 123.482 411.584 123.306V121.221C412.052 121.441 412.579 121.626 413.163 121.775C413.752 121.924 414.27 121.999 414.716 121.999C415.631 121.999 416.088 121.734 416.088 121.204C416.088 121.006 416.028 120.846 415.906 120.725C415.785 120.598 415.576 120.457 415.278 120.303C414.981 120.143 414.584 119.958 414.088 119.748C413.377 119.451 412.855 119.175 412.518 118.921C412.188 118.667 411.945 118.377 411.791 118.052C411.642 117.722 411.568 117.316 411.568 116.837C411.568 116.015 411.885 115.38 412.518 114.934C413.157 114.482 414.06 114.255 415.229 114.255C416.342 114.255 417.424 114.498 418.476 114.983L417.716 116.804C417.253 116.604 416.82 116.442 416.419 116.316C416.017 116.189 415.606 116.125 415.187 116.125C414.444 116.125 414.071 116.327 414.071 116.729C414.071 116.955 414.19 117.151 414.427 117.316C414.67 117.482 415.196 117.727 416.006 118.052C416.727 118.344 417.255 118.618 417.592 118.871C417.928 119.125 418.176 119.418 418.335 119.748C418.495 120.079 418.575 120.473 418.575 120.931ZM430.606 123.678H428.053V116.679L428.078 115.529L428.119 114.272C427.695 114.697 427.4 114.975 427.235 115.108L425.846 116.224L424.615 114.686L428.508 111.584H430.606V123.678ZM442.34 117.63C442.34 119.743 441.993 121.307 441.299 122.321C440.61 123.336 439.547 123.843 438.11 123.843C436.715 123.843 435.663 123.319 434.953 122.272C434.248 121.224 433.895 119.677 433.895 117.63C433.895 115.496 434.239 113.924 434.928 112.915C435.617 111.9 436.677 111.393 438.11 111.393C439.503 111.393 440.555 111.923 441.266 112.981C441.982 114.04 442.34 115.59 442.34 117.63ZM436.432 117.63C436.432 119.114 436.559 120.178 436.812 120.824C437.071 121.463 437.503 121.784 438.11 121.784C438.705 121.784 439.134 121.458 439.398 120.807C439.663 120.156 439.795 119.098 439.795 117.63C439.795 116.147 439.66 115.083 439.39 114.438C439.126 113.787 438.699 113.461 438.11 113.461C437.509 113.461 437.079 113.787 436.82 114.438C436.561 115.083 436.432 116.147 436.432 117.63ZM329.291 144.705C329.732 144.705 330.261 144.608 330.877 144.415V146.293C330.25 146.574 329.478 146.715 328.564 146.715C327.555 146.715 326.82 146.462 326.357 145.954C325.9 145.441 325.672 144.674 325.672 143.654V139.195H324.465V138.129L325.854 137.284L326.581 135.332H328.192V137.301H330.778V139.195H328.192V143.654C328.192 144.013 328.291 144.278 328.49 144.449C328.694 144.619 328.96 144.705 329.291 144.705ZM337.91 137.127C338.251 137.127 338.535 137.152 338.761 137.202L338.571 139.568C338.367 139.513 338.119 139.485 337.827 139.485C337.022 139.485 336.394 139.692 335.943 140.106C335.497 140.519 335.273 141.098 335.273 141.842V146.55H332.753V137.301H334.662L335.034 138.856H335.158C335.444 138.338 335.83 137.921 336.315 137.607C336.805 137.287 337.337 137.127 337.91 137.127ZM346.305 146.55L345.817 145.293H345.751C345.327 145.827 344.889 146.2 344.437 146.409C343.991 146.613 343.407 146.715 342.686 146.715C341.799 146.715 341.099 146.462 340.587 145.954C340.08 145.447 339.826 144.724 339.826 143.786C339.826 142.805 340.168 142.083 340.851 141.62C341.54 141.15 342.576 140.891 343.958 140.842L345.562 140.792V140.387C345.562 139.449 345.082 138.98 344.123 138.98C343.385 138.98 342.518 139.204 341.52 139.65L340.686 137.946C341.749 137.389 342.928 137.11 344.223 137.11C345.462 137.11 346.412 137.381 347.074 137.921C347.735 138.462 348.065 139.284 348.065 140.387V146.55H346.305ZM345.562 142.264L344.586 142.297C343.853 142.32 343.308 142.452 342.95 142.695C342.592 142.938 342.413 143.307 342.413 143.803C342.413 144.515 342.821 144.871 343.636 144.871C344.22 144.871 344.685 144.702 345.033 144.366C345.385 144.03 345.562 143.582 345.562 143.026V142.264ZM359.196 146.55H356.675V141.148C356.675 140.48 356.557 139.981 356.32 139.65C356.084 139.314 355.706 139.146 355.188 139.146C354.483 139.146 353.973 139.383 353.659 139.858C353.345 140.326 353.188 141.106 353.188 142.198V146.55H350.668V137.301H352.593L352.932 138.484H353.073C353.354 138.037 353.739 137.701 354.23 137.475C354.725 137.243 355.287 137.127 355.915 137.127C356.989 137.127 357.805 137.42 358.361 138.004C358.917 138.584 359.196 139.421 359.196 140.519V146.55ZM368.236 143.803C368.236 144.752 367.905 145.474 367.244 145.97C366.589 146.467 365.605 146.715 364.294 146.715C363.622 146.715 363.049 146.668 362.575 146.574C362.101 146.486 361.658 146.354 361.245 146.178V144.093C361.713 144.313 362.239 144.498 362.823 144.647C363.413 144.796 363.931 144.871 364.377 144.871C365.291 144.871 365.748 144.606 365.748 144.076C365.748 143.878 365.687 143.718 365.566 143.597C365.445 143.47 365.236 143.329 364.939 143.175C364.641 143.015 364.245 142.83 363.749 142.62C363.038 142.323 362.514 142.046 362.178 141.793C361.848 141.539 361.606 141.249 361.452 140.924C361.303 140.594 361.228 140.188 361.228 139.708C361.228 138.887 361.545 138.252 362.178 137.806C362.818 137.354 363.721 137.127 364.889 137.127C366.002 137.127 367.084 137.37 368.136 137.855L367.376 139.675C366.913 139.476 366.481 139.314 366.079 139.188C365.676 139.06 365.266 138.997 364.848 138.997C364.104 138.997 363.732 139.199 363.732 139.601C363.732 139.827 363.85 140.023 364.087 140.188C364.33 140.354 364.856 140.599 365.665 140.924C366.387 141.216 366.916 141.49 367.252 141.743C367.589 141.997 367.836 142.29 367.996 142.62C368.156 142.951 368.236 143.345 368.236 143.803ZM376.069 146.55L375.581 145.293H375.515C375.092 145.827 374.653 146.2 374.201 146.409C373.755 146.613 373.172 146.715 372.45 146.715C371.563 146.715 370.863 146.462 370.351 145.954C369.845 145.447 369.591 144.724 369.591 143.786C369.591 142.805 369.933 142.083 370.615 141.62C371.304 141.15 372.34 140.891 373.722 140.842L375.325 140.792V140.387C375.325 139.449 374.846 138.98 373.887 138.98C373.15 138.98 372.281 139.204 371.285 139.65L370.45 137.946C371.513 137.389 372.692 137.11 373.986 137.11C375.226 137.11 376.176 137.381 376.838 137.921C377.499 138.462 377.829 139.284 377.829 140.387V146.55H376.069ZM375.325 142.264L374.35 142.297C373.618 142.32 373.073 142.452 372.714 142.695C372.356 142.938 372.177 143.307 372.177 143.803C372.177 144.515 372.584 144.871 373.4 144.871C373.984 144.871 374.449 144.702 374.796 144.366C375.149 144.03 375.325 143.582 375.325 143.026V142.264ZM384.183 146.715C381.308 146.715 379.871 145.135 379.871 141.975C379.871 140.403 380.262 139.204 381.043 138.377C381.826 137.543 382.947 137.127 384.407 137.127C385.476 137.127 386.434 137.337 387.282 137.756L386.538 139.708C386.142 139.548 385.773 139.419 385.432 139.32C385.09 139.215 384.748 139.162 384.407 139.162C383.095 139.162 382.44 140.095 382.44 141.958C382.44 143.767 383.095 144.672 384.407 144.672C384.892 144.672 385.34 144.608 385.754 144.482C386.167 144.349 386.58 144.145 386.993 143.869V146.029C386.586 146.288 386.172 146.467 385.754 146.567C385.34 146.666 384.817 146.715 384.183 146.715ZM393.033 144.705C393.474 144.705 394.003 144.608 394.62 144.415V146.293C393.992 146.574 393.22 146.715 392.307 146.715C391.298 146.715 390.563 146.462 390.1 145.954C389.643 145.441 389.414 144.674 389.414 143.654V139.195H388.208V138.129L389.596 137.284L390.323 135.332H391.934V137.301H394.521V139.195H391.934V143.654C391.934 144.013 392.033 144.278 392.232 144.449C392.436 144.619 392.703 144.705 393.033 144.705ZM396.388 134.91C396.388 134.089 396.845 133.678 397.76 133.678C398.675 133.678 399.132 134.089 399.132 134.91C399.132 135.302 399.016 135.608 398.785 135.829C398.559 136.044 398.217 136.151 397.76 136.151C396.845 136.151 396.388 135.737 396.388 134.91ZM399.016 146.55H396.496V137.301H399.016V146.55ZM403.676 141.908C403.676 142.824 403.825 143.516 404.123 143.986C404.426 144.454 404.916 144.689 405.594 144.689C406.266 144.689 406.748 144.457 407.04 143.993C407.337 143.525 407.486 142.83 407.486 141.908C407.486 140.994 407.337 140.307 407.04 139.849C406.742 139.391 406.255 139.162 405.577 139.162C404.905 139.162 404.42 139.391 404.123 139.849C403.825 140.301 403.676 140.988 403.676 141.908ZM410.064 141.908C410.064 143.415 409.667 144.592 408.874 145.441C408.081 146.29 406.976 146.715 405.561 146.715C404.674 146.715 403.891 146.522 403.213 146.136C402.537 145.744 402.015 145.185 401.652 144.457C401.288 143.729 401.107 142.879 401.107 141.908C401.107 140.398 401.501 139.223 402.289 138.384C403.076 137.547 404.183 137.127 405.61 137.127C406.497 137.127 407.279 137.32 407.957 137.707C408.635 138.092 409.155 138.647 409.519 139.369C409.882 140.091 410.064 140.938 410.064 141.908ZM420.674 146.55H418.154V141.148C418.154 140.48 418.036 139.981 417.799 139.65C417.562 139.314 417.184 139.146 416.666 139.146C415.961 139.146 415.451 139.383 415.137 139.858C414.824 140.326 414.667 141.106 414.667 142.198V146.55H412.146V137.301H414.071L414.411 138.484H414.551C414.832 138.037 415.218 137.701 415.708 137.475C416.204 137.243 416.765 137.127 417.393 137.127C418.468 137.127 419.283 137.42 419.84 138.004C420.395 138.584 420.674 139.421 420.674 140.519V146.55ZM429.714 143.803C429.714 144.752 429.383 145.474 428.722 145.97C428.067 146.467 427.083 146.715 425.773 146.715C425.1 146.715 424.527 146.668 424.053 146.574C423.58 146.486 423.136 146.354 422.723 146.178V144.093C423.191 144.313 423.717 144.498 424.301 144.647C424.891 144.796 425.409 144.871 425.855 144.871C426.77 144.871 427.226 144.606 427.226 144.076C427.226 143.878 427.166 143.718 427.045 143.597C426.924 143.47 426.715 143.329 426.417 143.175C426.12 143.015 425.723 142.83 425.227 142.62C424.516 142.323 423.993 142.046 423.657 141.793C423.327 141.539 423.084 141.249 422.93 140.924C422.781 140.594 422.706 140.188 422.706 139.708C422.706 138.887 423.024 138.252 423.657 137.806C424.296 137.354 425.199 137.127 426.368 137.127C427.48 137.127 428.563 137.37 429.615 137.855L428.854 139.675C428.392 139.476 427.959 139.314 427.557 139.188C427.155 139.06 426.745 138.997 426.326 138.997C425.582 138.997 425.21 139.199 425.21 139.601C425.21 139.827 425.329 140.023 425.565 140.188C425.808 140.354 426.335 140.599 427.144 140.924C427.866 141.216 428.395 141.49 428.731 141.743C429.067 141.997 429.315 142.29 429.475 142.62C429.634 142.951 429.714 143.345 429.714 143.803ZM443.671 146.55L442.96 143.315L442.001 139.228H441.944L440.258 146.55H437.548L434.92 137.301H437.432L438.498 141.396C438.668 142.13 438.842 143.142 439.018 144.432H439.068C439.09 144.013 439.186 143.348 439.357 142.438L439.489 141.735L440.63 137.301H443.406L444.489 141.735C444.511 141.857 444.544 142.035 444.588 142.273C444.637 142.51 444.684 142.764 444.728 143.034C444.772 143.299 444.811 143.56 444.844 143.819C444.882 144.074 444.904 144.278 444.91 144.432H444.959C445.009 144.035 445.097 143.492 445.224 142.802C445.351 142.107 445.442 141.638 445.497 141.396L446.604 137.301H449.075L446.414 146.55H443.671ZM454.396 138.922C453.862 138.922 453.443 139.093 453.14 139.436C452.837 139.772 452.664 140.251 452.62 140.875H456.156C456.145 140.251 455.983 139.772 455.669 139.436C455.354 139.093 454.93 138.922 454.396 138.922ZM454.752 146.715C453.264 146.715 452.102 146.304 451.264 145.482C450.427 144.661 450.008 143.497 450.008 141.991C450.008 140.442 450.394 139.245 451.165 138.401C451.942 137.552 453.014 137.127 454.38 137.127C455.685 137.127 456.701 137.499 457.429 138.244C458.156 138.988 458.52 140.017 458.52 141.33V142.554H452.562C452.589 143.271 452.801 143.831 453.198 144.234C453.594 144.636 454.151 144.838 454.867 144.838C455.424 144.838 455.95 144.779 456.446 144.663C456.941 144.548 457.459 144.363 457.999 144.109V146.062C457.559 146.282 457.087 146.445 456.586 146.55C456.085 146.66 455.473 146.715 454.752 146.715ZM465.725 137.127C466.067 137.127 466.35 137.152 466.576 137.202L466.386 139.568C466.183 139.513 465.935 139.485 465.643 139.485C464.838 139.485 464.21 139.692 463.758 140.106C463.312 140.519 463.089 141.098 463.089 141.842V146.55H460.569V137.301H462.477L462.85 138.856H462.973C463.26 138.338 463.646 137.921 464.131 137.607C464.621 137.287 465.152 137.127 465.725 137.127ZM472.079 138.922C471.545 138.922 471.127 139.093 470.824 139.436C470.521 139.772 470.347 140.251 470.302 140.875H473.839C473.828 140.251 473.666 139.772 473.352 139.436C473.038 139.093 472.614 138.922 472.079 138.922ZM472.435 146.715C470.947 146.715 469.785 146.304 468.948 145.482C468.11 144.661 467.692 143.497 467.692 141.991C467.692 140.442 468.077 139.245 468.849 138.401C469.626 137.552 470.697 137.127 472.063 137.127C473.369 137.127 474.385 137.499 475.112 138.244C475.839 138.988 476.203 140.017 476.203 141.33V142.554H470.245C470.273 143.271 470.484 143.831 470.881 144.234C471.278 144.636 471.834 144.838 472.551 144.838C473.107 144.838 473.633 144.779 474.129 144.663C474.625 144.548 475.142 144.363 475.682 144.109V146.062C475.241 146.282 474.77 146.445 474.269 146.55C473.768 146.66 473.156 146.715 472.435 146.715ZM488.515 146.55L488.028 145.293H487.962C487.537 145.827 487.099 146.2 486.648 146.409C486.202 146.613 485.617 146.715 484.896 146.715C484.008 146.715 483.31 146.462 482.797 145.954C482.29 145.447 482.037 144.724 482.037 143.786C482.037 142.805 482.378 142.083 483.062 141.62C483.75 141.15 484.785 140.891 486.168 140.842L487.771 140.792V140.387C487.771 139.449 487.292 138.98 486.334 138.98C485.595 138.98 484.728 139.204 483.731 139.65L482.896 137.946C483.959 137.389 485.138 137.11 486.433 137.11C487.672 137.11 488.623 137.381 489.283 137.921C489.944 138.462 490.275 139.284 490.275 140.387V146.55H488.515ZM487.771 142.264L486.797 142.297C486.064 142.32 485.518 142.452 485.16 142.695C484.802 142.938 484.623 143.307 484.623 143.803C484.623 144.515 485.031 144.871 485.846 144.871C486.43 144.871 486.895 144.702 487.242 144.366C487.595 144.03 487.771 143.582 487.771 143.026V142.264ZM495.076 146.55L491.556 137.301H494.192L495.976 142.571C496.175 143.238 496.299 143.869 496.349 144.465H496.398C496.426 143.936 496.549 143.304 496.77 142.571L498.546 137.301H501.183L497.662 146.55H495.076ZM504.521 141.908C504.521 142.824 504.67 143.516 504.967 143.986C505.27 144.454 505.761 144.689 506.438 144.689C507.11 144.689 507.592 144.457 507.884 143.993C508.181 143.525 508.33 142.83 508.33 141.908C508.33 140.994 508.181 140.307 507.884 139.849C507.587 139.391 507.099 139.162 506.421 139.162C505.75 139.162 505.265 139.391 504.967 139.849C504.67 140.301 504.521 140.988 504.521 141.908ZM510.909 141.908C510.909 143.415 510.512 144.592 509.719 145.441C508.925 146.29 507.821 146.715 506.405 146.715C505.518 146.715 504.736 146.522 504.058 146.136C503.38 145.744 502.86 145.185 502.496 144.457C502.133 143.729 501.951 142.879 501.951 141.908C501.951 140.398 502.345 139.223 503.132 138.384C503.92 137.547 505.028 137.127 506.454 137.127C507.341 137.127 508.124 137.32 508.802 137.707C509.478 138.092 510 138.647 510.363 139.369C510.727 140.091 510.909 140.938 510.909 141.908ZM512.883 134.91C512.883 134.089 513.34 133.678 514.255 133.678C515.17 133.678 515.627 134.089 515.627 134.91C515.627 135.302 515.511 135.608 515.28 135.829C515.054 136.044 514.712 136.151 514.255 136.151C513.34 136.151 512.883 135.737 512.883 134.91ZM515.511 146.55H512.991V137.301H515.511V146.55ZM521.089 146.715C520.003 146.715 519.149 146.293 518.527 145.449C517.91 144.606 517.602 143.437 517.602 141.942C517.602 140.425 517.916 139.245 518.543 138.401C519.177 137.552 520.048 137.127 521.155 137.127C522.317 137.127 523.204 137.58 523.816 138.484H523.898C523.772 137.795 523.708 137.18 523.708 136.639V133.678H526.237V146.55H524.303L523.816 145.35H523.708C523.135 146.26 522.262 146.715 521.089 146.715ZM521.973 144.705C522.618 144.705 523.088 144.518 523.386 144.142C523.689 143.767 523.854 143.131 523.882 142.231V141.958C523.882 140.966 523.728 140.254 523.419 139.825C523.116 139.394 522.62 139.179 521.931 139.179C521.37 139.179 520.931 139.419 520.617 139.898C520.309 140.373 520.155 141.065 520.155 141.975C520.155 142.885 520.312 143.569 520.626 144.026C520.94 144.479 521.389 144.705 521.973 144.705ZM532.699 138.922C532.164 138.922 531.745 139.093 531.442 139.436C531.139 139.772 530.966 140.251 530.922 140.875H534.459C534.448 140.251 534.285 139.772 533.971 139.436C533.657 139.093 533.233 138.922 532.699 138.922ZM533.054 146.715C531.567 146.715 530.404 146.304 529.567 145.482C528.729 144.661 528.311 143.497 528.311 141.991C528.311 140.442 528.696 139.245 529.467 138.401C530.244 137.552 531.316 137.127 532.682 137.127C533.987 137.127 535.004 137.499 535.731 138.244C536.458 138.988 536.822 140.017 536.822 141.33V142.554H530.864C530.891 143.271 531.104 143.831 531.501 144.234C531.897 144.636 532.453 144.838 533.169 144.838C533.726 144.838 534.252 144.779 534.748 144.663C535.244 144.548 535.762 144.363 536.302 144.109V146.062C535.861 146.282 535.389 146.445 534.889 146.55C534.387 146.66 533.776 146.715 533.054 146.715ZM541.797 146.715C540.711 146.715 539.857 146.293 539.234 145.449C538.618 144.606 538.31 143.437 538.31 141.942C538.31 140.425 538.623 139.245 539.251 138.401C539.885 137.552 540.755 137.127 541.863 137.127C543.025 137.127 543.912 137.58 544.523 138.484H544.606C544.479 137.795 544.415 137.18 544.415 136.639V133.678H546.945V146.55H545.011L544.523 145.35H544.415C543.843 146.26 542.969 146.715 541.797 146.715ZM542.681 144.705C543.325 144.705 543.796 144.518 544.094 144.142C544.397 143.767 544.562 143.131 544.589 142.231V141.958C544.589 140.966 544.435 140.254 544.127 139.825C543.824 139.394 543.328 139.179 542.639 139.179C542.077 139.179 541.639 139.419 541.325 139.898C541.016 140.373 540.862 141.065 540.862 141.975C540.862 142.885 541.02 143.569 541.334 144.026C541.648 144.479 542.097 144.705 542.681 144.705ZM325.292 157.782C325.292 156.961 325.749 156.55 326.664 156.55C327.577 156.55 328.035 156.961 328.035 157.782C328.035 158.174 327.919 158.48 327.688 158.701C327.462 158.916 327.121 159.023 326.664 159.023C325.749 159.023 325.292 158.609 325.292 157.782ZM327.919 169.422H325.399V160.173H327.919V169.422ZM339.1 169.422H336.579V164.02C336.579 163.352 336.46 162.853 336.223 162.522C335.987 162.186 335.61 162.018 335.092 162.018C334.386 162.018 333.877 162.255 333.563 162.729C333.249 163.198 333.092 163.978 333.092 165.07V169.422H330.572V160.173H332.497L332.836 161.356H332.977C333.258 160.909 333.643 160.573 334.133 160.347C334.629 160.115 335.191 159.999 335.819 159.999C336.893 159.999 337.708 160.291 338.265 160.876C338.821 161.455 339.1 162.293 339.1 163.391V169.422ZM349.982 167.577C350.423 167.577 350.952 167.48 351.568 167.287V169.165C350.941 169.446 350.17 169.587 349.255 169.587C348.246 169.587 347.511 169.334 347.048 168.826C346.591 168.313 346.363 167.546 346.363 166.526V162.067H345.156V161.001L346.545 160.156L347.272 158.204H348.883V160.173H351.469V162.067H348.883V166.526C348.883 166.885 348.983 167.15 349.181 167.321C349.385 167.491 349.652 167.577 349.982 167.577ZM361.972 169.422H359.452V164.02C359.452 162.685 358.956 162.018 357.965 162.018C357.259 162.018 356.749 162.258 356.436 162.737C356.122 163.217 355.965 163.995 355.965 165.07V169.422H353.444V156.55H355.965V159.172C355.965 159.376 355.946 159.856 355.907 160.612L355.849 161.356H355.981C356.543 160.452 357.436 159.999 358.658 159.999C359.744 159.999 360.567 160.291 361.129 160.876C361.691 161.461 361.972 162.299 361.972 163.391V169.422ZM364.46 157.782C364.46 156.961 364.917 156.55 365.831 156.55C366.745 156.55 367.203 156.961 367.203 157.782C367.203 158.174 367.087 158.48 366.856 158.701C366.63 158.916 366.288 159.023 365.831 159.023C364.917 159.023 364.46 158.609 364.46 157.782ZM367.087 169.422H364.567V160.173H367.087V169.422ZM376.185 166.675C376.185 167.624 375.854 168.346 375.193 168.842C374.537 169.339 373.554 169.587 372.243 169.587C371.572 169.587 370.998 169.54 370.525 169.446C370.051 169.358 369.608 169.226 369.194 169.05V166.965C369.663 167.185 370.188 167.37 370.773 167.519C371.362 167.668 371.88 167.743 372.325 167.743C373.24 167.743 373.698 167.478 373.698 166.948C373.698 166.75 373.637 166.59 373.516 166.469C373.395 166.342 373.185 166.201 372.888 166.047C372.59 165.887 372.193 165.702 371.698 165.492C370.987 165.195 370.464 164.918 370.128 164.665C369.797 164.411 369.555 164.121 369.4 163.796C369.252 163.466 369.178 163.06 369.178 162.58C369.178 161.759 369.494 161.124 370.128 160.678C370.767 160.225 371.671 159.999 372.838 159.999C373.951 159.999 375.033 160.242 376.086 160.727L375.325 162.547C374.863 162.348 374.43 162.186 374.028 162.059C373.626 161.932 373.216 161.869 372.797 161.869C372.053 161.869 371.682 162.07 371.682 162.473C371.682 162.699 371.8 162.895 372.037 163.06C372.279 163.226 372.805 163.471 373.615 163.796C374.337 164.088 374.866 164.362 375.202 164.615C375.537 164.869 375.785 165.162 375.945 165.492C376.105 165.823 376.185 166.217 376.185 166.675ZM385.068 169.422H382.548V156.55H385.068V169.422ZM387.613 157.782C387.613 156.961 388.07 156.55 388.985 156.55C389.899 156.55 390.356 156.961 390.356 157.782C390.356 158.174 390.24 158.48 390.009 158.701C389.783 158.916 389.441 159.023 388.985 159.023C388.07 159.023 387.613 158.609 387.613 157.782ZM390.24 169.422H387.72V160.173H390.24V169.422ZM396.785 167.577C397.226 167.577 397.755 167.48 398.372 167.287V169.165C397.744 169.446 396.972 169.587 396.058 169.587C395.05 169.587 394.314 169.334 393.852 168.826C393.395 168.313 393.165 167.546 393.165 166.526V162.067H391.96V161.001L393.347 160.156L394.075 158.204H395.686V160.173H398.273V162.067H395.686V166.526C395.686 166.885 395.785 167.15 395.983 167.321C396.187 167.491 396.454 167.577 396.785 167.577ZM404.139 167.577C404.58 167.577 405.109 167.48 405.726 167.287V169.165C405.098 169.446 404.326 169.587 403.412 169.587C402.404 169.587 401.668 169.334 401.206 168.826C400.749 168.313 400.52 167.546 400.52 166.526V162.067H399.314V161.001L400.702 160.156L401.429 158.204H403.04V160.173H405.627V162.067H403.04V166.526C403.04 166.885 403.14 167.15 403.338 167.321C403.542 167.491 403.809 167.577 404.139 167.577ZM410.121 169.422H407.602V156.55H410.121V169.422ZM416.6 161.794C416.066 161.794 415.647 161.965 415.344 162.308C415.041 162.644 414.868 163.123 414.824 163.747H418.36C418.349 163.123 418.187 162.644 417.873 162.308C417.559 161.965 417.134 161.794 416.6 161.794ZM416.956 169.587C415.468 169.587 414.306 169.176 413.469 168.354C412.631 167.533 412.212 166.369 412.212 164.863C412.212 163.314 412.598 162.117 413.369 161.273C414.146 160.424 415.218 159.999 416.584 159.999C417.889 159.999 418.905 160.371 419.633 161.116C420.36 161.86 420.724 162.889 420.724 164.202V165.426H414.766C414.793 166.143 415.005 166.702 415.402 167.106C415.798 167.508 416.355 167.71 417.071 167.71C417.628 167.71 418.154 167.651 418.65 167.535C419.146 167.42 419.663 167.235 420.203 166.981V168.934C419.763 169.154 419.291 169.317 418.79 169.422C418.289 169.532 417.677 169.587 416.956 169.587ZM433.036 169.422L432.548 168.165H432.482C432.058 168.699 431.62 169.072 431.168 169.281C430.722 169.485 430.138 169.587 429.416 169.587C428.53 169.587 427.83 169.334 427.318 168.826C426.811 168.319 426.557 167.596 426.557 166.658C426.557 165.677 426.899 164.955 427.582 164.491C428.271 164.022 429.306 163.763 430.689 163.714L432.292 163.664V163.259C432.292 162.321 431.813 161.852 430.854 161.852C430.116 161.852 429.249 162.076 428.251 162.522L427.417 160.818C428.48 160.261 429.659 159.982 430.954 159.982C432.193 159.982 433.143 160.253 433.804 160.793C434.465 161.333 434.796 162.156 434.796 163.259V169.422H433.036ZM432.292 165.136L431.317 165.169C430.584 165.192 430.039 165.324 429.681 165.566C429.323 165.81 429.144 166.179 429.144 166.675C429.144 167.387 429.552 167.743 430.367 167.743C430.95 167.743 431.416 167.574 431.764 167.238C432.116 166.901 432.292 166.454 432.292 165.898V165.136ZM443.943 169.422L443.605 168.239H443.473C443.203 168.669 442.819 169.002 442.323 169.239C441.828 169.472 441.263 169.587 440.63 169.587C439.545 169.587 438.727 169.298 438.176 168.719C437.625 168.134 437.349 167.295 437.349 166.203V160.173H439.87V165.575C439.87 166.242 439.988 166.744 440.225 167.08C440.462 167.411 440.839 167.577 441.357 167.577C442.062 167.577 442.571 167.343 442.885 166.874C443.199 166.399 443.357 165.616 443.357 164.524V160.173H445.877V169.422H443.943ZM452.273 169.587C449.397 169.587 447.959 168.007 447.959 164.847C447.959 163.275 448.35 162.076 449.133 161.249C449.914 160.415 451.036 159.999 452.496 159.999C453.565 159.999 454.523 160.208 455.371 160.628L454.627 162.58C454.231 162.42 453.862 162.291 453.521 162.192C453.179 162.087 452.837 162.034 452.496 162.034C451.184 162.034 450.529 162.967 450.529 164.83C450.529 166.639 451.184 167.544 452.496 167.544C452.98 167.544 453.429 167.48 453.842 167.354C454.256 167.221 454.669 167.017 455.082 166.741V168.901C454.674 169.16 454.261 169.339 453.842 169.439C453.429 169.538 452.906 169.587 452.273 169.587ZM461.123 167.577C461.563 167.577 462.092 167.48 462.709 167.287V169.165C462.081 169.446 461.31 169.587 460.396 169.587C459.387 169.587 458.652 169.334 458.189 168.826C457.732 168.313 457.503 167.546 457.503 166.526V162.067H456.297V161.001L457.685 160.156L458.412 158.204H460.023V160.173H462.61V162.067H460.023V166.526C460.023 166.885 460.122 167.15 460.321 167.321C460.525 167.491 460.792 167.577 461.123 167.577ZM464.478 157.782C464.478 156.961 464.934 156.55 465.849 156.55C466.764 156.55 467.221 156.961 467.221 157.782C467.221 158.174 467.105 158.48 466.874 158.701C466.648 158.916 466.306 159.023 465.849 159.023C464.934 159.023 464.478 158.609 464.478 157.782ZM467.105 169.422H464.585V160.173H467.105V169.422ZM471.765 164.78C471.765 165.696 471.914 166.388 472.211 166.857C472.514 167.326 473.005 167.561 473.683 167.561C474.355 167.561 474.837 167.328 475.129 166.865C475.426 166.397 475.575 165.702 475.575 164.78C475.575 163.865 475.426 163.178 475.129 162.721C474.831 162.263 474.344 162.034 473.666 162.034C472.994 162.034 472.509 162.263 472.211 162.721C471.914 163.173 471.765 163.86 471.765 164.78ZM478.153 164.78C478.153 166.286 477.756 167.464 476.963 168.313C476.17 169.162 475.065 169.587 473.65 169.587C472.762 169.587 471.98 169.394 471.303 169.008C470.625 168.616 470.104 168.057 469.741 167.328C469.378 166.601 469.196 165.751 469.196 164.78C469.196 163.27 469.589 162.095 470.377 161.256C471.165 160.419 472.272 159.999 473.699 159.999C474.586 159.999 475.368 160.192 476.046 160.579C476.723 160.964 477.244 161.519 477.607 162.241C477.971 162.963 478.153 163.81 478.153 164.78ZM488.763 169.422H486.242V164.02C486.242 163.352 486.124 162.853 485.887 162.522C485.651 162.186 485.273 162.018 484.756 162.018C484.05 162.018 483.541 162.255 483.227 162.729C482.913 163.198 482.755 163.978 482.755 165.07V169.422H480.235V160.173H482.16L482.5 161.356H482.64C482.921 160.909 483.306 160.573 483.797 160.347C484.293 160.115 484.855 159.999 485.482 159.999C486.556 159.999 487.372 160.291 487.929 160.876C488.485 161.455 488.763 162.293 488.763 163.391V169.422ZM491.002 168.239C491.002 167.776 491.126 167.425 491.374 167.188C491.622 166.951 491.983 166.832 492.456 166.832C492.914 166.832 493.266 166.954 493.514 167.196C493.768 167.439 493.894 167.787 493.894 168.239C493.894 168.674 493.768 169.019 493.514 169.273C493.261 169.521 492.908 169.645 492.456 169.645C491.994 169.645 491.636 169.523 491.383 169.281C491.129 169.033 491.002 168.685 491.002 168.239Z" fill="white"/>
</g>
<defs>
<clipPath id="clip0_16_625">
<rect width="572" height="410" fill="white"/>
</clipPath>
</defs>
</svg>
